<svg xmlns="http://www.w3.org/2000/svg" width="24" height="24" fill="currentColor" class="icon-alarm-clock-outline" viewBox="0 0 24 24">
  <path d="M8.25 3.016 2.547 7.742A3.9 3.9 0 0 1 2 5.75C2 3.68 3.64 2 5.71 2c.978 0 1.876.39 2.54 1.016M12 6.375c-2.46 0-4.727 1.328-5.977 3.438-1.21 2.148-1.21 4.765 0 6.874A6.89 6.89 0 0 0 12 20.126a6.87 6.87 0 0 0 5.938-3.437c1.21-2.11 1.21-4.727 0-6.875-1.25-2.11-3.516-3.438-5.938-3.438M12 22h-.04c-2.07 0-3.983-.703-5.468-1.914l-1.68 1.64a.856.856 0 0 1-1.289 0c-.39-.351-.39-.937 0-1.328l1.641-1.64c-1.21-1.485-1.914-3.399-1.914-5.508C3.25 8.445 7.156 4.5 12 4.5c4.805 0 8.75 3.945 8.71 8.79 0 2.07-.702 3.983-1.913 5.468l1.64 1.68a.855.855 0 0 1 0 1.289.856.856 0 0 1-1.289 0l-1.68-1.641C15.985 21.296 14.07 22 12 22m9.414-14.258L15.75 3.016C16.414 2.39 17.273 2 18.25 2 20.32 2 22 3.68 22 5.75c0 .703-.234 1.406-.586 1.992m-8.477 1.446h-.039v3.71L14.5 14.5c.39.352.39.938 0 1.29a.856.856 0 0 1-1.29 0l-1.874-1.876c-.195-.156-.274-.39-.274-.664V9.188c0-.508.391-.938.938-.938a.95.95 0 0 1 .938.938"/>
</svg>