<svg xmlns="http://www.w3.org/2000/svg" width="24" height="24" fill="currentColor" class="icon-arrow-right-long-solid" viewBox="0 0 24 24">
  <mask id="a" width="20" height="14" x="2" y="5" maskUnits="userSpaceOnUse" style="mask-type:alpha">
    <path d="m21.61 12.898-5 5a1.205 1.205 0 0 1-1.758 0 1.205 1.205 0 0 1 0-1.757l2.851-2.891H3.25C2.547 13.25 2 12.703 2 12c0-.664.547-1.25 1.25-1.25h14.453l-2.851-2.852a1.205 1.205 0 0 1 0-1.757 1.205 1.205 0 0 1 1.757 0l5 5a1.203 1.203 0 0 1 0 1.757"/>
  </mask>
  <g mask="url(#a)">
    <path d="M0 0h24v24H0z"/>
  </g>
</svg>