<svg xmlns="http://www.w3.org/2000/svg" width="24" height="24" fill="currentColor" class="icon-arrow-up-outline" viewBox="0 0 24 24">
  <mask id="a" width="16" height="18" x="4" y="3" maskUnits="userSpaceOnUse" style="mask-type:alpha">
    <path d="m13.164 3.563 6.563 6.874c.351.391.351.977-.04 1.329-.39.351-.976.351-1.328-.04l-4.922-5.195v13.282c0 .546-.43.937-.937.937-.547 0-.938-.39-.938-.937V6.53l-4.96 5.196c-.352.39-.938.39-1.329.039a.93.93 0 0 1-.039-1.328l6.563-6.876a.98.98 0 0 1 .703-.312c.234 0 .469.117.664.313"/>
  </mask>
  <g mask="url(#a)">
    <path d="M0 0h24v24H0z"/>
  </g>
</svg>