<svg xmlns="http://www.w3.org/2000/svg" width="24" height="24" fill="currentColor" class="icon-arrow-right-to-bracket-outline" viewBox="0 0 24 24">
  <path d="M10.477 17.664c-.391.39-.977.39-1.329 0-.39-.352-.39-.937 0-1.328l3.399-3.398h-9.61C2.391 12.938 2 12.547 2 12c0-.508.39-.937.938-.937h9.609L9.148 7.664c-.39-.351-.39-.937 0-1.328.352-.352.938-.352 1.329 0l5 5.039a.92.92 0 0 1 0 1.29zm4.96-12.539c-.546 0-.937-.39-.937-.937 0-.508.39-.938.938-.938h3.124C20.438 3.25 22 4.813 22 6.688v10.625a3.443 3.443 0 0 1-3.437 3.437h-3.125c-.547 0-.938-.39-.938-.937 0-.508.39-.938.938-.938h3.124c.86 0 1.563-.664 1.563-1.562V6.688c0-.86-.703-1.563-1.562-1.563z"/>
</svg>