<svg xmlns="http://www.w3.org/2000/svg" width="24" height="24" fill="currentColor" class="icon-arrow-left-solid" viewBox="0 0 24 24">
  <mask id="a" width="18" height="16" x="3" y="4" maskUnits="userSpaceOnUse" style="mask-type:alpha">
    <path d="m3.602 11.14 6.25-6.25a1.205 1.205 0 0 1 1.757 0c.508.47.508 1.29 0 1.758L7.508 10.75H19.5c.664 0 1.25.586 1.25 1.25 0 .703-.586 1.25-1.25 1.25H7.508l4.101 4.14c.508.47.508 1.29 0 1.758a1.205 1.205 0 0 1-1.757 0l-6.25-6.25a1.205 1.205 0 0 1 0-1.757"/>
  </mask>
  <g mask="url(#a)">
    <path d="M0 0h24v24H0z"/>
  </g>
</svg>