<svg xmlns="http://www.w3.org/2000/svg" width="24" height="24" fill="currentColor" class="icon-arrow-right-from-bracket-solid" viewBox="0 0 24 24">
  <path d="m21.61 12.898-5 5a1.205 1.205 0 0 1-1.758 0 1.205 1.205 0 0 1 0-1.757l2.851-2.891H9.5c-.703 0-1.25-.547-1.25-1.25 0-.664.547-1.25 1.25-1.25h8.203l-2.851-2.852a1.205 1.205 0 0 1 0-1.757 1.205 1.205 0 0 1 1.757 0l5 5a1.203 1.203 0 0 1 0 1.757M8.25 5.75h-2.5c-.703 0-1.25.586-1.25 1.25v10c0 .703.547 1.25 1.25 1.25h2.5c.664 0 1.25.586 1.25 1.25 0 .703-.586 1.25-1.25 1.25h-2.5C3.68 20.75 2 19.07 2 17V7c0-2.07 1.68-3.75 3.75-3.75h2.5c.664 0 1.25.586 1.25 1.25 0 .703-.586 1.25-1.25 1.25"/>
</svg>