<svg xmlns="http://www.w3.org/2000/svg" width="24" height="24" fill="currentColor" class="icon-arrow-right-to-arc-solid" viewBox="0 0 24 24">
  <path d="M19.5 12c0-4.14-3.36-7.5-7.5-7.5-.703 0-1.25-.547-1.25-1.25 0-.664.547-1.25 1.25-1.25 5.508 0 10 4.492 10 10 0 5.547-4.492 10-10 10-.703 0-1.25-.547-1.25-1.25 0-.664.547-1.25 1.25-1.25 4.14 0 7.5-3.36 7.5-7.5m-8.516-5.234 4.375 4.375a1.203 1.203 0 0 1 0 1.757l-4.375 4.375a1.205 1.205 0 0 1-1.757 0 1.205 1.205 0 0 1 0-1.757l2.226-2.266H3.25C2.547 13.25 2 12.703 2 12c0-.664.547-1.25 1.25-1.25h8.203L9.227 8.523a1.205 1.205 0 0 1 0-1.757 1.205 1.205 0 0 1 1.757 0"/>
</svg>