<svg xmlns="http://www.w3.org/2000/svg" width="24" height="24" fill="currentColor" class="icon-arrow-right-from-arc-outline" viewBox="0 0 24 24">
  <path d="M3.875 12A8.12 8.12 0 0 0 12 20.125a.95.95 0 0 1 .938.938c0 .546-.43.937-.938.937A9.97 9.97 0 0 1 2 12C2 6.492 6.453 2 12 2a.95.95 0 0 1 .938.938c0 .546-.43.937-.938.937-4.492 0-8.125 3.672-8.125 8.125m13.438-4.727 4.375 4.063c.195.156.312.43.312.664 0 .273-.117.547-.312.703l-4.375 4.063a.97.97 0 0 1-1.329-.04.97.97 0 0 1 .04-1.328l2.617-2.46H9.188c-.547 0-.938-.391-.938-.938 0-.508.39-.937.938-.937h9.453L16.023 8.64c-.39-.352-.39-.938-.039-1.328s.938-.391 1.329-.04"/>
</svg>