<svg xmlns="http://www.w3.org/2000/svg" width="24" height="24" fill="currentColor" class="icon-arrow-right-to-bracket-solid" viewBox="0 0 24 24">
  <path d="M15.75 5.75c-.703 0-1.25-.547-1.25-1.25 0-.664.547-1.25 1.25-1.25h2.5C20.32 3.25 22 4.93 22 7v10c0 2.07-1.68 3.75-3.75 3.75h-2.5c-.703 0-1.25-.547-1.25-1.25 0-.664.547-1.25 1.25-1.25h2.5c.664 0 1.25-.547 1.25-1.25V7c0-.664-.586-1.25-1.25-1.25zm-.39 7.148-5 5a1.205 1.205 0 0 1-1.758 0 1.205 1.205 0 0 1 0-1.757l2.851-2.891H3.25C2.547 13.25 2 12.703 2 12c0-.664.547-1.25 1.25-1.25h8.203L8.602 7.898a1.205 1.205 0 0 1 0-1.757 1.205 1.205 0 0 1 1.757 0l5 5a1.203 1.203 0 0 1 0 1.757"/>
</svg>