<svg xmlns="http://www.w3.org/2000/svg" width="24" height="24" fill="currentColor" class="icon-arrow-down-outline" viewBox="0 0 24 24">
  <mask id="a" width="16" height="18" x="4" y="3" maskUnits="userSpaceOnUse" style="mask-type:alpha">
    <path d="m11.797 20.477-6.563-6.875c-.351-.391-.351-.977.04-1.329.39-.351.976-.351 1.328.04l4.96 5.195V4.188c0-.508.391-.938.938-.938a.95.95 0 0 1 .937.938v13.32l4.922-5.195a.93.93 0 0 1 1.328-.04c.391.352.391.938.04 1.329l-6.563 6.875a.92.92 0 0 1-.664.273c-.274 0-.508-.078-.703-.273"/>
  </mask>
  <g mask="url(#a)">
    <path d="M0 0h24v24H0z"/>
  </g>
</svg>