<svg xmlns="http://www.w3.org/2000/svg" width="24" height="24" fill="currentColor" class="icon-arrow-right-to-arc-outline" viewBox="0 0 24 24">
  <path d="M20.125 12c0-4.453-3.672-8.125-8.125-8.125-.547 0-.937-.39-.937-.937 0-.508.39-.938.937-.938 5.508 0 10 4.492 10 10 0 5.547-4.492 10-10 10-.547 0-.937-.39-.937-.937 0-.508.39-.938.937-.938 4.453 0 8.125-3.633 8.125-8.125m-9.062-4.727 4.374 4.063c.196.156.313.43.313.664a.98.98 0 0 1-.312.703l-4.376 4.063c-.39.351-.976.351-1.328-.04-.351-.39-.351-.976.04-1.328l2.617-2.46H2.938C2.39 12.938 2 12.547 2 12c0-.508.39-.937.938-.937h9.453L9.773 8.64a.97.97 0 0 1-.039-1.328c.352-.391.938-.391 1.329-.04"/>
</svg>