<svg xmlns="http://www.w3.org/2000/svg" width="24" height="24" fill="currentColor" class="icon-arrow-up-arrow-down-outline" viewBox="0 0 24 24">
  <path d="m21.914 16.727-3.75 3.75c-.39.39-.977.39-1.328 0l-3.75-3.75a.856.856 0 0 1 0-1.29c.351-.39.937-.39 1.328 0l2.149 2.149V4.188c0-.508.39-.938.937-.938a.95.95 0 0 1 .938.938v13.398l2.148-2.148c.352-.391.937-.391 1.328 0a.92.92 0 0 1 0 1.289M8.164 3.523l3.711 3.75c.39.391.39.977 0 1.329-.352.39-.937.39-1.328 0L8.398 6.453v13.36c0 .546-.39.937-.937.937a.925.925 0 0 1-.938-.937V6.453L4.375 8.602a.855.855 0 0 1-1.29 0c-.39-.352-.39-.938 0-1.329l3.75-3.75c.353-.351.938-.351 1.33 0"/>
</svg>