<svg xmlns="http://www.w3.org/2000/svg" width="24" height="24" fill="currentColor" class="icon-arrow-up-long-solid" viewBox="0 0 24 24">
  <mask id="a" width="13" height="20" x="6" y="2" maskUnits="userSpaceOnUse" style="mask-type:alpha">
    <path d="m13.36 2.39 5 5c.507.47.507 1.29 0 1.758a1.205 1.205 0 0 1-1.758 0L13.75 6.297V20.75c0 .703-.586 1.25-1.25 1.25-.703 0-1.25-.547-1.25-1.25V6.297L8.36 9.148a1.205 1.205 0 0 1-1.758 0 1.205 1.205 0 0 1 0-1.757l5-5a1.205 1.205 0 0 1 1.757 0"/>
  </mask>
  <g mask="url(#a)">
    <path d="M0 0h24v24H0z"/>
  </g>
</svg>