<svg xmlns="http://www.w3.org/2000/svg" width="24" height="24" fill="currentColor" class="icon-arrow-right-to-line-solid" viewBox="0 0 24 24">
  <path d="M20.75 5.75v12.5c0 .703-.586 1.25-1.25 1.25-.703 0-1.25-.547-1.25-1.25V5.75c0-.664.547-1.25 1.25-1.25.664 0 1.25.586 1.25 1.25m-5.39 7.148-5 5a1.205 1.205 0 0 1-1.758 0 1.205 1.205 0 0 1 0-1.757l2.851-2.891H4.5c-.703 0-1.25-.547-1.25-1.25 0-.664.547-1.25 1.25-1.25h6.953L8.602 7.898a1.205 1.205 0 0 1 0-1.757 1.205 1.205 0 0 1 1.757 0l5 5a1.203 1.203 0 0 1 0 1.757"/>
</svg>