<svg xmlns="http://www.w3.org/2000/svg" width="24" height="24" fill="currentColor" class="icon-arrow-left-from-line-outline" viewBox="0 0 24 24">
  <path d="m3.523 11.336 5.313-5c.39-.352.976-.352 1.328.039s.352.977-.039 1.328l-3.594 3.36h8.282a.95.95 0 0 1 .937.937c0 .547-.43.938-.937.938H6.53l3.594 3.398c.39.352.39.937.04 1.328-.352.39-.938.39-1.33.04l-5.312-5c-.195-.196-.273-.43-.273-.704 0-.234.078-.469.273-.664m15.352 7.227V5.438c0-.508.39-.938.938-.938a.95.95 0 0 1 .937.938v13.125c0 .546-.43.937-.937.937-.547 0-.938-.39-.938-.937"/>
</svg>