<svg xmlns="http://www.w3.org/2000/svg" width="24" height="24" fill="currentColor" class="icon-ballot-solid" viewBox="0 0 24 24">
  <path d="M5.75 2h12.5c1.367 0 2.5 1.133 2.5 2.5v15c0 1.406-1.133 2.5-2.5 2.5H5.75a2.47 2.47 0 0 1-2.5-2.5v-15c0-1.367 1.094-2.5 2.5-2.5m0 4.375v1.25c0 .352.273.625.625.625h1.25a.64.64 0 0 0 .625-.625v-1.25c0-.312-.312-.625-.625-.625h-1.25a.64.64 0 0 0-.625.625m0 5v1.25c0 .352.273.625.625.625h1.25a.64.64 0 0 0 .625-.625v-1.25c0-.312-.312-.625-.625-.625h-1.25a.64.64 0 0 0-.625.625m.625 4.375a.64.64 0 0 0-.625.625v1.25c0 .352.273.625.625.625h1.25a.64.64 0 0 0 .625-.625v-1.25c0-.312-.312-.625-.625-.625zM10.75 17c0 .352.273.625.625.625h6.25A.64.64 0 0 0 18.25 17c0-.312-.312-.625-.625-.625h-6.25a.64.64 0 0 0-.625.625m.625-10.625A.64.64 0 0 0 10.75 7c0 .352.273.625.625.625h6.25A.64.64 0 0 0 18.25 7c0-.312-.312-.625-.625-.625zM10.75 12c0 .352.273.625.625.625h6.25A.64.64 0 0 0 18.25 12c0-.312-.312-.625-.625-.625h-6.25a.64.64 0 0 0-.625.625"/>
</svg>