<svg xmlns="http://www.w3.org/2000/svg" width="24" height="24" fill="currentColor" class="icon-ballot-outline" viewBox="0 0 24 24">
  <path d="M18.25 3.875H5.75a.64.64 0 0 0-.625.625v15c0 .352.273.625.625.625h12.5a.64.64 0 0 0 .625-.625v-15c0-.312-.312-.625-.625-.625M5.75 2h12.5c1.367 0 2.5 1.133 2.5 2.5v15c0 1.406-1.133 2.5-2.5 2.5H5.75a2.47 2.47 0 0 1-2.5-2.5v-15c0-1.367 1.094-2.5 2.5-2.5m.625 4.375c0-.312.273-.625.625-.625h1.25c.313 0 .625.313.625.625v1.25a.64.64 0 0 1-.625.625H7a.617.617 0 0 1-.625-.625zM7 10.75h1.25c.313 0 .625.313.625.625v1.25a.64.64 0 0 1-.625.625H7a.617.617 0 0 1-.625-.625v-1.25c0-.312.273-.625.625-.625m-.625 5.625c0-.312.273-.625.625-.625h1.25c.313 0 .625.313.625.625v1.25a.64.64 0 0 1-.625.625H7a.617.617 0 0 1-.625-.625zm4.688-10.312h5.624a.95.95 0 0 1 .938.937c0 .547-.43.938-.937.938h-5.625c-.547 0-.938-.391-.938-.938 0-.508.39-.937.938-.937m0 5h5.624a.95.95 0 0 1 .938.937c0 .547-.43.938-.937.938h-5.625c-.547 0-.938-.391-.938-.938 0-.508.39-.937.938-.937m0 5h5.624a.95.95 0 0 1 .938.937c0 .547-.43.938-.937.938h-5.625c-.547 0-.938-.391-.938-.938 0-.508.39-.937.938-.937"/>
</svg>