<svg xmlns="http://www.w3.org/2000/svg" width="24" height="24" fill="currentColor" class="icon-ban-outline" viewBox="0 0 24 24">
  <path d="M17.04 18.406 5.593 6.961A8.2 8.2 0 0 0 3.875 12 8.12 8.12 0 0 0 12 20.125a8.2 8.2 0 0 0 5.04-1.719m1.327-1.328A8.25 8.25 0 0 0 20.125 12c0-4.453-3.672-8.125-8.125-8.125a8.25 8.25 0 0 0-5.078 1.758zM2 12a9.93 9.93 0 0 1 5-8.633c3.086-1.797 6.875-1.797 10 0 3.086 1.797 5 5.078 5 8.633 0 3.594-1.914 6.875-5 8.672-3.125 1.797-6.914 1.797-10 0C3.875 18.875 2 15.594 2 12"/>
</svg>