<svg xmlns="http://www.w3.org/2000/svg" width="24" height="24" fill="currentColor" class="icon-ban-solid" viewBox="0 0 24 24">
  <path d="M16.336 18.133 5.867 7.664A7.6 7.6 0 0 0 4.5 12c0 4.14 3.36 7.5 7.5 7.5a7.6 7.6 0 0 0 4.336-1.367m1.758-1.758c.86-1.25 1.406-2.734 1.406-4.375 0-4.14-3.36-7.5-7.5-7.5-1.64 0-3.125.547-4.375 1.406zM2 12a9.93 9.93 0 0 1 5-8.633c3.086-1.797 6.875-1.797 10 0 3.086 1.797 5 5.078 5 8.633 0 3.594-1.914 6.875-5 8.672-3.125 1.797-6.914 1.797-10 0C3.875 18.875 2 15.594 2 12"/>
</svg>