<svg xmlns="http://www.w3.org/2000/svg" width="24" height="24" fill="currentColor" class="icon-bars-solid" viewBox="0 0 24 24">
  <mask id="a" width="18" height="16" x="3" y="4" maskUnits="userSpaceOnUse" style="mask-type:alpha">
    <path d="M3.25 5.75c0-.664.547-1.25 1.25-1.25h15c.664 0 1.25.586 1.25 1.25 0 .703-.586 1.25-1.25 1.25h-15c-.703 0-1.25-.547-1.25-1.25m0 6.25c0-.664.547-1.25 1.25-1.25h15c.664 0 1.25.586 1.25 1.25 0 .703-.586 1.25-1.25 1.25h-15c-.703 0-1.25-.547-1.25-1.25m17.5 6.25c0 .703-.586 1.25-1.25 1.25h-15c-.703 0-1.25-.547-1.25-1.25 0-.664.547-1.25 1.25-1.25h15c.664 0 1.25.586 1.25 1.25"/>
  </mask>
  <g mask="url(#a)">
    <path d="M0 0h24v24H0z"/>
  </g>
</svg>