<svg xmlns="http://www.w3.org/2000/svg" width="24" height="24" fill="currentColor" class="icon-bell-outline" viewBox="0 0 24 24">
  <path d="M12 2c.664 0 1.25.586 1.25 1.25v.703c2.813.469 5 2.93 5 5.86v1.328a7.95 7.95 0 0 0 1.68 4.882l.586.704c.234.312.273.703.117 1.015a.91.91 0 0 1-.82.508H4.188c-.391 0-.704-.195-.86-.508-.156-.312-.117-.703.117-1.015l.586-.704c1.094-1.406 1.719-3.125 1.719-4.882V9.813c0-2.93 2.148-5.391 5-5.86V3.25c0-.664.547-1.25 1.25-1.25m0 3.75h-.312a4.06 4.06 0 0 0-4.063 4.063v1.328a9.56 9.56 0 0 1-1.562 5.234h11.835c-1.015-1.562-1.523-3.36-1.523-5.234V9.813c0-2.227-1.836-4.063-4.062-4.063zm2.5 13.75c0 .664-.273 1.328-.742 1.797S12.664 22 12 22s-1.328-.234-1.797-.703S9.5 20.164 9.5 19.5z"/>
</svg>