<svg xmlns="http://www.w3.org/2000/svg" width="24" height="24" fill="currentColor" class="icon-bell-solid" viewBox="0 0 24 24">
  <mask id="a" width="18" height="20" x="3" y="2" maskUnits="userSpaceOnUse" style="mask-type:alpha">
    <path d="M12 2c.664 0 1.25.586 1.25 1.25v.781c2.852.547 5 3.086 5 6.094v.742c0 1.836.664 3.633 1.875 5l.274.313c.351.39.43.898.234 1.367-.195.43-.664.703-1.133.703h-15c-.508 0-.976-.273-1.172-.703a1.26 1.26 0 0 1 .235-1.367l.273-.313a7.6 7.6 0 0 0 1.914-5v-.742c0-3.008 2.149-5.547 5-6.094V3.25c0-.664.547-1.25 1.25-1.25m1.758 19.297c-.469.469-1.094.703-1.758.703s-1.328-.234-1.797-.703S9.5 20.164 9.5 19.5h5c0 .664-.273 1.328-.742 1.797"/>
  </mask>
  <g mask="url(#a)">
    <path d="M0 0h24v24H0z"/>
  </g>
</svg>