<svg xmlns="http://www.w3.org/2000/svg" width="24" height="24" fill="currentColor" class="icon-box-open-outline" viewBox="0 0 24 24">
  <path d="M.664 6.922 2.266 3.68a.66.66 0 0 1 .664-.352L12.5 4.5 9.22 9.93c-.273.508-.86.742-1.406.586L1.446 8.68C.664 8.484.313 7.625.664 6.922M12.5 4.5l9.532-1.172c.273-.039.546.078.663.352l1.602 3.242c.352.703 0 1.562-.781 1.758l-6.367 1.836a1.21 1.21 0 0 1-1.407-.586zM12.422 7h.117zm8.203 3.828 1.875-.547v6.524c0 .86-.586 1.601-1.445 1.836l-7.969 1.992c-.39.078-.82.078-1.21 0l-7.97-1.992A1.92 1.92 0 0 1 2.5 16.805V10.28l1.875.547v5.977l7.188 1.797V9.188c0-.508.39-.938.937-.938a.95.95 0 0 1 .938.938v9.414l7.187-1.797z"/>
</svg>