<svg width="24" height="24" viewBox="0 0 24 24" fill="none" xmlns="http://www.w3.org/2000/svg">
<path d="M9.1875 3.875C8.99219 3.875 8.875 4.03125 8.875 4.1875V5.75H15.125V4.1875C15.125 4.03125 14.9688 3.875 14.8125 3.875H9.1875ZM7 4.1875C7 3.01562 7.97656 2 9.1875 2H14.8125C15.9844 2 17 3.01562 17 4.1875V5.75H19.5C20.8672 5.75 22 6.88281 22 8.25V12H14.5H9.5H2V8.25C2 6.88281 3.09375 5.75 4.5 5.75H7V4.1875ZM22 13.25V18.25C22 19.6562 20.8672 20.75 19.5 20.75H4.5C3.09375 20.75 2 19.6562 2 18.25V13.25H9.5V14.5C9.5 15.2031 10.0469 15.75 10.75 15.75H13.25C13.9141 15.75 14.5 15.2031 14.5 14.5V13.25H22Z" fill="black"/>
</svg>
