<svg xmlns="http://www.w3.org/2000/svg" width="24" height="24" fill="currentColor" class="icon-briefcase-solid" viewBox="0 0 24 24">
  <path d="M9.188 3.875a.31.31 0 0 0-.313.313V5.75h6.25V4.188a.336.336 0 0 0-.312-.313zM7 4.188C7 3.016 7.977 2 9.188 2h5.624C15.985 2 17 3.016 17 4.188V5.75h2.5c1.367 0 2.5 1.133 2.5 2.5V12H2V8.25c0-1.367 1.094-2.5 2.5-2.5H7zm15 9.062v5c0 1.406-1.133 2.5-2.5 2.5h-15a2.47 2.47 0 0 1-2.5-2.5v-5h7.5v1.25c0 .703.547 1.25 1.25 1.25h2.5c.664 0 1.25-.547 1.25-1.25v-1.25z"/>
</svg>