<svg xmlns="http://www.w3.org/2000/svg" width="24" height="24" fill="currentColor" class="icon-building-outline" viewBox="0 0 24 24">
  <path d="M7.5 3.875a.64.64 0 0 0-.625.625v15c0 .352.273.625.625.625h3.125v-2.5c0-1.016.82-1.875 1.875-1.875 1.016 0 1.875.86 1.875 1.875v2.5H17.5a.64.64 0 0 0 .625-.625v-15c0-.312-.312-.625-.625-.625zM5 4.5C5 3.133 6.094 2 7.5 2h10C18.867 2 20 3.133 20 4.5v15c0 1.406-1.133 2.5-2.5 2.5h-10A2.47 2.47 0 0 1 5 19.5zm3.438 1.563c0-.313.273-.625.624-.625h1.876c.312 0 .624.312.624.625v1.875a.64.64 0 0 1-.624.625H9.062a.617.617 0 0 1-.624-.626zm5.624-.625h1.876c.312 0 .624.312.624.625v1.875a.64.64 0 0 1-.625.625h-1.874a.617.617 0 0 1-.626-.626V6.063c0-.312.274-.625.626-.625m-5.624 5.625c0-.313.273-.626.624-.626h1.876c.312 0 .624.313.624.626v1.874a.64.64 0 0 1-.624.626H9.062a.617.617 0 0 1-.624-.626zm5.624-.626h1.876c.312 0 .624.313.624.626v1.874a.64.64 0 0 1-.625.626h-1.874a.617.617 0 0 1-.626-.626v-1.874c0-.313.274-.626.626-.626"/>
</svg>