<svg xmlns="http://www.w3.org/2000/svg" width="24" height="24" fill="currentColor" class="icon-bus-solid" viewBox="0 0 24 24">
  <path d="M12.5 2c5.234 0 8.75 1.406 8.75 3.125V7c.664 0 1.25.586 1.25 1.25v2.5c0 .703-.586 1.25-1.25 1.25v6.25c0 .703-.586 1.25-1.25 1.25v1.25c0 .703-.586 1.25-1.25 1.25H17.5c-.703 0-1.25-.547-1.25-1.25V19.5h-7.5v1.25c0 .703-.586 1.25-1.25 1.25H6.25C5.547 22 5 21.453 5 20.75V19.5c-.703 0-1.25-.547-1.25-1.25V12c-.703 0-1.25-.547-1.25-1.25v-2.5C2.5 7.586 3.047 7 3.75 7V5.125C3.75 3.406 7.227 2 12.5 2M6.25 8.25V12c0 .703.547 1.25 1.25 1.25h4.375V7H7.5c-.703 0-1.25.586-1.25 1.25m6.875 5H17.5c.664 0 1.25-.547 1.25-1.25V8.25c0-.664-.586-1.25-1.25-1.25h-4.375zm-6.25 4.375c.664 0 1.25-.547 1.25-1.25 0-.664-.586-1.25-1.25-1.25-.703 0-1.25.586-1.25 1.25 0 .703.547 1.25 1.25 1.25m11.25 0c.664 0 1.25-.547 1.25-1.25 0-.664-.586-1.25-1.25-1.25-.703 0-1.25.586-1.25 1.25 0 .703.547 1.25 1.25 1.25m-1.875-12.5c0-.312-.312-.625-.625-.625h-6.25a.64.64 0 0 0-.625.625c0 .352.273.625.625.625h6.25a.64.64 0 0 0 .625-.625"/>
</svg>