<svg xmlns="http://www.w3.org/2000/svg" width="24" height="24" fill="currentColor" class="icon-bus-simple-outline" viewBox="0 0 24 24">
  <path d="M5.242 5.75h13.516c-.625-.664-2.422-1.875-6.758-1.875-4.023 0-6.055 1.21-6.758 1.875m13.633 1.875H5.125v3.125h13.75zm0 5H5.125v4.063c0 .546.39.937.938.937h11.875c.507 0 .937-.39.937-.937zM3.641 4.735C4.617 3.522 7.273 2 12 2c5 0 7.422 1.523 8.36 2.773.273.391.39.82.39 1.172v10.743a2.85 2.85 0 0 1-1.25 2.343v2.032c0 .546-.43.937-.937.937-.547 0-.938-.39-.938-.937V19.5H6.375v1.563c0 .546-.43.937-.937.937-.547 0-.938-.39-.938-.937V19.03c-.781-.508-1.25-1.367-1.25-2.343V5.945c0-.351.078-.82.39-1.21m3.984 9.14c.664 0 1.25.586 1.25 1.25 0 .703-.586 1.25-1.25 1.25-.703 0-1.25-.547-1.25-1.25 0-.664.547-1.25 1.25-1.25m8.75 0c.664 0 1.25.586 1.25 1.25 0 .703-.586 1.25-1.25 1.25-.703 0-1.25-.547-1.25-1.25 0-.664.547-1.25 1.25-1.25"/>
</svg>