<svg xmlns="http://www.w3.org/2000/svg" width="24" height="24" fill="currentColor" class="icon-cake-candles-solid" viewBox="0 0 24 24">
  <path d="M6.61 2.234C6.686 2.117 6.843 2 7 2s.273.117.352.234l.976 1.641c.156.273.235.547.235.86v.077c0 .899-.704 1.563-1.563 1.563-.898 0-1.562-.664-1.562-1.562v-.079c0-.312.078-.586.195-.859zm5 0c.078-.117.234-.234.39-.234s.273.117.352.234l.976 1.641c.156.273.235.547.235.86v.077c0 .899-.704 1.563-1.563 1.563-.898 0-1.562-.664-1.562-1.562v-.079c0-.312.078-.586.195-.859zm4.023 1.641.976-1.64C16.687 2.116 16.844 2 17 2s.273.117.352.234l.976 1.641c.156.273.235.547.235.86v.077c0 .899-.704 1.563-1.563 1.563-.898 0-1.562-.664-1.562-1.562v-.079c0-.312.078-.586.195-.859m-7.383 5v1.875h2.5V8.875c0-.664.547-1.25 1.25-1.25.664 0 1.25.586 1.25 1.25v1.875h2.5V8.875c0-.664.547-1.25 1.25-1.25.664 0 1.25.586 1.25 1.25v1.875c1.367 0 2.5 1.133 2.5 2.5v2.773a1.95 1.95 0 0 1-1.133.352c-.547 0-1.055-.234-1.484-.508-.235-.117-.39-.273-.508-.39a.5.5 0 0 1-.156-.118s-.04 0-.04-.039a.5.5 0 0 0-.468-.156.63.63 0 0 0-.43.195c-.039 0-.039 0-.039.04q-.058 0-.117.117c-.117.078-.273.234-.469.351-.39.274-.898.508-1.406.508-.547 0-1.016-.234-1.445-.508a2.3 2.3 0 0 1-.43-.351c-.078-.079-.117-.118-.156-.118v-.039a.72.72 0 0 0-.469-.195c-.195 0-.352.04-.469.195-.039 0-.039 0-.039.04q-.058 0-.117.117c-.117.078-.273.234-.469.351-.39.274-.898.508-1.406.508-.547 0-1.016-.234-1.445-.508a2.3 2.3 0 0 1-.43-.351c-.078-.079-.117-.118-.156-.118v-.039A.65.65 0 0 0 7 15.164c-.156-.039-.352.04-.469.156 0 .04 0 .04-.039.04l-.117.117a3 3 0 0 1-.508.39c-.43.274-.976.508-1.523.508-.39 0-.782-.117-1.094-.352V13.25c0-1.367 1.094-2.5 2.5-2.5V8.875c0-.664.547-1.25 1.25-1.25.664 0 1.25.586 1.25 1.25m12.5 8.555v3.32c0 .703-.586 1.25-1.25 1.25h-15c-.703 0-1.25-.547-1.25-1.25v-3.32c.313.117.703.195 1.094.195.898 0 1.68-.352 2.187-.703.157-.117.313-.235.43-.313.117.078.234.196.39.313.508.312 1.25.703 2.149.703.86 0 1.602-.39 2.11-.703.156-.117.273-.195.39-.313.078.118.195.196.352.313.507.312 1.25.703 2.148.703.86 0 1.602-.39 2.11-.703.156-.117.273-.235.39-.313.117.078.273.196.43.313.508.351 1.289.703 2.187.703.39 0 .781-.078 1.133-.195"/>
</svg>