<svg xmlns="http://www.w3.org/2000/svg" width="24" height="24" fill="currentColor" class="icon-calendar-circle-minus-solid" viewBox="0 0 24 24">
  <path d="M6.25 2c.664 0 1.25.586 1.25 1.25V4.5h5V3.25c0-.664.547-1.25 1.25-1.25.664 0 1.25.586 1.25 1.25V4.5h1.875c1.016 0 1.875.86 1.875 1.875V8.25H1.25V6.375c0-1.016.82-1.875 1.875-1.875H5V3.25C5 2.586 5.547 2 6.25 2m5 14.375c0 2.344 1.133 4.414 2.89 5.625H3.126a1.85 1.85 0 0 1-1.875-1.875V9.5H17.5v.04a6.876 6.876 0 0 0-6.25 6.835m12.5 0c0 2.031-1.094 3.867-2.812 4.883-1.758 1.015-3.907 1.015-5.625 0a5.6 5.6 0 0 1-2.813-4.883 5.58 5.58 0 0 1 2.813-4.844c1.718-1.015 3.867-1.015 5.624 0 1.72 1.016 2.813 2.852 2.813 4.844m-2.5 0c0-.312-.312-.625-.625-.625h-5a.64.64 0 0 0-.625.625c0 .352.273.625.625.625h5a.64.64 0 0 0 .625-.625"/>
</svg>