<svg xmlns="http://www.w3.org/2000/svg" width="24" height="24" fill="currentColor" class="icon-calendar-check-outline" viewBox="0 0 24 24">
  <path d="M8.25 2a.95.95 0 0 1 .938.938V4.5h5.624V2.938c0-.508.391-.938.938-.938a.95.95 0 0 1 .938.938V4.5h1.562c1.367 0 2.5 1.133 2.5 2.5v12.5c0 1.406-1.133 2.5-2.5 2.5H5.75a2.47 2.47 0 0 1-2.5-2.5V7c0-1.367 1.094-2.5 2.5-2.5h1.563V2.938c0-.508.39-.938.937-.938m10.625 7.5H5.125v10c0 .352.273.625.625.625h12.5a.64.64 0 0 0 .625-.625zm-2.773 4.102-4.375 4.375c-.391.39-.977.39-1.329 0l-2.5-2.5a.856.856 0 0 1 0-1.29c.352-.39.938-.39 1.329 0l1.835 1.836 3.711-3.71a.856.856 0 0 1 1.29 0c.39.351.39.937 0 1.289z"/>
</svg>