<svg width="24" height="24" viewBox="0 0 24 24" fill="none" xmlns="http://www.w3.org/2000/svg">
<path d="M9.1875 2.9375V4.5H14.8125V2.9375C14.8125 2.42969 15.2031 2 15.75 2C16.2578 2 16.6875 2.42969 16.6875 2.9375V4.5H18.25C19.6172 4.5 20.75 5.63281 20.75 7V7.625V9.5V19.5C20.75 20.9062 19.6172 22 18.25 22H5.75C4.34375 22 3.25 20.9062 3.25 19.5V9.5V7.625V7C3.25 5.63281 4.34375 4.5 5.75 4.5H7.3125V2.9375C7.3125 2.42969 7.70312 2 8.25 2C8.75781 2 9.1875 2.42969 9.1875 2.9375ZM5.125 9.5V19.5C5.125 19.8516 5.39844 20.125 5.75 20.125H18.25C18.5625 20.125 18.875 19.8516 18.875 19.5V9.5H5.125Z" fill="black"/>
</svg>
