<svg xmlns="http://www.w3.org/2000/svg" width="24" height="24" fill="currentColor" class="icon-calendar-circle-minus-outline" viewBox="0 0 24 24">
  <path d="M6.25 2a.95.95 0 0 1 .938.938V4.5h5.625V2.938c0-.508.39-.938.937-.938a.95.95 0 0 1 .938.938V4.5h1.562c1.367 0 2.5 1.133 2.5 2.5v2.5H3.125v10c0 .352.273.625.625.625h8.594c.469.742 1.094 1.406 1.797 1.875H3.75a2.47 2.47 0 0 1-2.5-2.5V7c0-1.367 1.094-2.5 2.5-2.5h1.563V2.938c0-.508.39-.938.937-.938m6.25 14.375a5.58 5.58 0 0 1 2.813-4.844c1.718-1.015 3.867-1.015 5.624 0 1.72 1.016 2.813 2.852 2.813 4.844 0 2.031-1.094 3.867-2.812 4.883-1.758 1.015-3.907 1.015-5.625 0a5.6 5.6 0 0 1-2.813-4.883m8.75 0c0-.312-.312-.625-.625-.625h-5a.64.64 0 0 0-.625.625c0 .352.273.625.625.625h5a.64.64 0 0 0 .625-.625"/>
</svg>