<svg xmlns="http://www.w3.org/2000/svg" width="24" height="24" fill="currentColor" class="icon-calendar-times-solid" viewBox="0 0 24 24">
  <path d="M8.25 2c.664 0 1.25.586 1.25 1.25V4.5h5V3.25c0-.664.547-1.25 1.25-1.25.664 0 1.25.586 1.25 1.25V4.5h1.875c1.016 0 1.875.86 1.875 1.875V8.25H3.25V6.375c0-1.016.82-1.875 1.875-1.875H7V3.25C7 2.586 7.547 2 8.25 2m-5 7.5h17.5v10.625c0 1.055-.86 1.875-1.875 1.875H5.125a1.85 1.85 0 0 1-1.875-1.875zm11.914 4.414a.92.92 0 0 0 0-1.289c-.39-.39-.976-.39-1.328 0L12 14.461l-1.836-1.836c-.39-.39-.976-.39-1.328 0a.856.856 0 0 0 0 1.29l1.836 1.835-1.836 1.836c-.39.39-.39.977 0 1.328.351.39.937.39 1.328 0L12 17.078l1.836 1.836c.351.39.937.39 1.328 0 .352-.352.352-.937 0-1.328l-1.836-1.836z"/>
</svg>