<svg xmlns="http://www.w3.org/2000/svg" width="24" height="24" fill="currentColor" class="icon-camera-circle-outline" viewBox="0 0 24 24">
  <path d="M20.125 12c0-2.89-1.562-5.547-4.062-7.031-2.54-1.446-5.625-1.446-8.125 0C5.398 6.453 3.875 9.109 3.875 12a8.13 8.13 0 0 0 4.063 7.07c2.5 1.446 5.585 1.446 8.125 0 2.5-1.484 4.062-4.14 4.062-7.07M2 12a9.93 9.93 0 0 1 5-8.633c3.086-1.797 6.875-1.797 10 0 3.086 1.797 5 5.078 5 8.633 0 3.594-1.914 6.875-5 8.672-3.125 1.797-6.914 1.797-10 0C3.875 18.875 2 15.594 2 12m7.656-3.75.235-.625A.93.93 0 0 1 10.75 7h2.46c.392 0 .743.273.86.625l.274.625h1.406c.664 0 1.25.586 1.25 1.25v5c0 .703-.586 1.25-1.25 1.25h-7.5c-.703 0-1.25-.547-1.25-1.25v-5c0-.664.547-1.25 1.25-1.25zM13.875 12c0-.664-.39-1.25-.937-1.602-.586-.351-1.329-.351-1.876 0-.585.352-.937.938-.937 1.602 0 .703.352 1.29.938 1.64.546.352 1.289.352 1.874 0 .547-.35.938-.937.938-1.64"/>
</svg>