<svg xmlns="http://www.w3.org/2000/svg" width="24" height="24" fill="currentColor" class="icon-car-bus-outline" viewBox="0 0 24 24">
  <path d="M2.4 5.125h9.637c-.712-.547-2.174-1.25-4.837-1.25-2.475 0-3.975.664-4.8 1.25M1.8 7v3.125h4.5V7zm0 5v3.75c0 .547.375.938.9.938h4.5v1.875H3v1.25c0 .546-.413.937-.9.937-.525 0-.9-.39-.9-.937v-1.72C.45 17.587 0 16.728 0 15.75V6.648c0-.859.15-2.03 1.05-2.812C2.175 2.898 4.163 2 7.2 2c3.15 0 5.062.898 6.15 1.836.863.781 1.05 1.953 1.05 2.812V7h-1.35c-.15 0-.3.04-.45.04V7H8.1v3.125h1.35L8.963 12zm2.1 1.25c.488 0 .9.43.9.938 0 .546-.412.937-.9.937-.525 0-.9-.39-.9-.937 0-.508.375-.938.9-.938m9.638-3.125c-.376 0-.713.273-.825.625l-.638 1.875h8.213l-.638-1.875c-.112-.352-.45-.625-.825-.625zm-3.6 3.125 1.087-3.125c.375-1.094 1.387-1.875 2.512-1.875h5.288c1.125 0 2.137.781 2.55 1.875l1.05 3.125c0 .04 0 .04.037.078A3.84 3.84 0 0 1 24 16.375v4.688c0 .546-.413.937-.9.937-.525 0-.9-.39-.9-.937V19.5h-12v1.563c0 .546-.412.937-.9.937-.525 0-.9-.39-.9-.937v-4.688c0-1.25.6-2.383 1.5-3.047.037-.039.037-.039.037-.078M20.4 14.5H12c-1.012 0-1.8.86-1.8 1.875v1.25h12v-1.25c0-1.016-.825-1.875-1.8-1.875m-7.8.625c.488 0 .9.43.9.938 0 .546-.412.937-.9.937-.525 0-.9-.39-.9-.937 0-.508.375-.938.9-.938m6.3.938c0-.508.375-.938.9-.938.488 0 .9.43.9.938 0 .546-.412.937-.9.937-.525 0-.9-.39-.9-.937"/>
</svg>