<svg xmlns="http://www.w3.org/2000/svg" width="24" height="24" fill="currentColor" class="icon-car-bus-solid" viewBox="0 0 24 24">
  <path d="M1.2 18.25C.525 18.25 0 17.703 0 17V4.93c0-.625.338-1.211.863-1.485C2.663 2.508 4.613 2 6.6 2h1.163C9.75 2 11.7 2.508 13.5 3.445c.525.274.9.86.9 1.485V7h-.825q-.843 0-1.575.352v-.665c0-.507-.412-.937-.9-.937H7.8v5h1.538l-.6 1.914A3.86 3.86 0 0 0 7.2 15.75v2.5H4.8v1.25c0 .703-.562 1.25-1.2 1.25H3c-.675 0-1.2-.547-1.2-1.25v-1.25zm2.1-12.5c-.525 0-.9.43-.9.938v3.125c0 .546.375.937.9.937h3.3v-5zm.3 7.813c-.525 0-.9.43-.9.937 0 .547.375.938.9.938.488 0 .9-.391.9-.938 0-.508-.412-.937-.9-.937m9.975-2.813c-.262 0-.487.195-.562.43l-.675 2.07h7.687l-.675-2.07c-.075-.235-.3-.43-.562-.43zm-2.85-.352c.412-1.289 1.575-2.148 2.85-2.148h5.213c1.274 0 2.437.86 2.85 2.148l.974 3.125A2.46 2.46 0 0 1 24 15.75v5c0 .703-.562 1.25-1.2 1.25h-.6c-.675 0-1.2-.547-1.2-1.25V19.5h-9.6v1.25c0 .703-.562 1.25-1.2 1.25h-.6c-.675 0-1.2-.547-1.2-1.25v-5c0-.977.525-1.836 1.35-2.227zm.675 5.04c-.525 0-.9.43-.9.937 0 .547.375.938.9.938.487 0 .9-.391.9-.938 0-.508-.413-.937-.9-.937m8.7.937c0 .547.375.938.9.938.488 0 .9-.391.9-.938 0-.508-.412-.937-.9-.937-.525 0-.9.43-.9.937"/>
</svg>