<svg xmlns="http://www.w3.org/2000/svg" width="24" height="24" fill="currentColor" class="icon-chalkboard-user-solid" viewBox="0 0 24 24">
  <path d="M6.25 4.5c0-1.367 1.094-2.5 2.5-2.5H22.5C23.867 2 25 3.133 25 4.5v11.25c0 1.406-1.133 2.5-2.5 2.5h-9.375c-.43-.977-1.172-1.836-2.031-2.5H15V14.5c0-.664.547-1.25 1.25-1.25h2.5c.664 0 1.25.586 1.25 1.25v1.25h2.5V4.5H8.75v1.953c-.742-.43-1.602-.703-2.5-.703zm0 2.5c1.328 0 2.54.742 3.242 1.875.664 1.172.664 2.617 0 3.75C8.79 13.797 7.578 14.5 6.25 14.5c-1.367 0-2.578-.703-3.281-1.875-.664-1.133-.664-2.578 0-3.75C3.672 7.742 4.883 7 6.25 7m-1.055 8.75h2.07a5.235 5.235 0 0 1 5.235 5.234c0 .547-.469 1.016-1.055 1.016H1.015A.985.985 0 0 1 0 20.984c0-2.89 2.305-5.234 5.195-5.234"/>
</svg>