<svg xmlns="http://www.w3.org/2000/svg" width="24" height="24" fill="currentColor" class="icon-chalkboard-user-outline" viewBox="0 0 24 24">
  <path d="M22.5 3.875H8.75a.64.64 0 0 0-.625.625v1.64c-.586-.234-1.21-.39-1.875-.39V4.5c0-1.367 1.094-2.5 2.5-2.5H22.5C23.867 2 25 3.133 25 4.5v11.25c0 1.406-1.133 2.5-2.5 2.5h-9.375a6.2 6.2 0 0 0-1.29-1.875h2.54v-1.562c0-1.172.977-2.188 2.188-2.188h2.5c1.171 0 2.187 1.016 2.187 2.188v1.562h1.25a.64.64 0 0 0 .625-.625V4.5c0-.312-.312-.625-.625-.625m-3.125 12.5v-1.562a.336.336 0 0 0-.312-.313h-2.5a.31.31 0 0 0-.313.313v1.562zM8.125 10.75c0-.664-.39-1.25-.937-1.602-.586-.351-1.329-.351-1.875 0-.586.352-.938.938-.938 1.602 0 .703.352 1.29.938 1.64.546.352 1.289.352 1.875 0 .546-.35.937-.937.937-1.64m-5.625 0c0-1.328.703-2.54 1.875-3.242 1.133-.664 2.578-.664 3.75 0C9.258 8.21 10 9.422 10 10.75c0 1.367-.742 2.578-1.875 3.281-1.172.664-2.617.664-3.75 0C3.203 13.328 2.5 12.117 2.5 10.75m-.547 9.375h8.555c-.39-1.406-1.68-2.5-3.242-2.5h-2.07c-1.563 0-2.852 1.094-3.243 2.5M0 20.985c0-2.891 2.305-5.235 5.195-5.235h2.07a5.235 5.235 0 0 1 5.235 5.234c0 .547-.469 1.016-1.055 1.016H1.015A.985.985 0 0 1 0 20.984"/>
</svg>