<svg width="25" height="24" viewBox="0 0 25 24" fill="none" xmlns="http://www.w3.org/2000/svg">
<path d="M6.25 4.5C6.25 3.13281 7.34375 2 8.75 2H22.5C23.8672 2 25 3.13281 25 4.5V15.75C25 17.1562 23.8672 18.25 22.5 18.25H13.125C12.6953 17.2734 11.9531 16.4141 11.0938 15.75H15V14.5C15 13.8359 15.5469 13.25 16.25 13.25H18.75C19.4141 13.25 20 13.8359 20 14.5V15.75H22.5V4.5H8.75V6.45312C8.00781 6.02344 7.14844 5.75 6.25 5.75V4.5ZM6.25 7C7.57812 7 8.78906 7.74219 9.49219 8.875C10.1562 10.0469 10.1562 11.4922 9.49219 12.625C8.78906 13.7969 7.57812 14.5 6.25 14.5C4.88281 14.5 3.67188 13.7969 2.96875 12.625C2.30469 11.4922 2.30469 10.0469 2.96875 8.875C3.67188 7.74219 4.88281 7 6.25 7ZM5.19531 15.75H7.26562C10.1562 15.75 12.5 18.0938 12.5 20.9844C12.5 21.5312 12.0312 22 11.4453 22H1.01562C0.429688 22 0 21.5703 0 20.9844C0 18.0938 2.30469 15.75 5.19531 15.75Z" fill="black"/>
</svg>
