<svg xmlns="http://www.w3.org/2000/svg" width="24" height="24" fill="currentColor" class="icon-chart-mixed-outline" viewBox="0 0 24 24">
  <path d="m21.648 4.93-6.562 5.625a.996.996 0 0 1-1.211 0L9.422 6.648l-5.977 3.946a.897.897 0 0 1-1.289-.235c-.312-.43-.195-1.015.234-1.328l6.563-4.375a.94.94 0 0 1 1.133.078L14.5 8.602l5.937-5.118a.974.974 0 0 1 1.328.118.974.974 0 0 1-.117 1.328M9.812 18.875v-6.25a.336.336 0 0 0-.312-.312.31.31 0 0 0-.313.312v6.25c0 .195.117.313.313.313a.31.31 0 0 0 .312-.313M9.5 10.75c1.015 0 1.875.86 1.875 1.875v6.25c0 1.055-.86 1.875-1.875 1.875a1.85 1.85 0 0 1-1.875-1.875v-6.25c0-1.016.82-1.875 1.875-1.875m-4.688 8.125v-2.5a.336.336 0 0 0-.312-.312.31.31 0 0 0-.313.312v2.5c0 .195.117.313.313.313a.31.31 0 0 0 .312-.313M4.5 14.5c1.015 0 1.875.86 1.875 1.875v2.5c0 1.055-.86 1.875-1.875 1.875a1.85 1.85 0 0 1-1.875-1.875v-2.5c0-1.016.82-1.875 1.875-1.875m10.312.625a.336.336 0 0 0-.312-.312.31.31 0 0 0-.313.312v3.75c0 .195.118.313.313.313a.31.31 0 0 0 .312-.313zm-2.187 0c0-1.016.82-1.875 1.875-1.875 1.015 0 1.875.86 1.875 1.875v3.75c0 1.055-.86 1.875-1.875 1.875a1.85 1.85 0 0 1-1.875-1.875zm7.187 3.75v-6.25a.336.336 0 0 0-.312-.312.31.31 0 0 0-.313.312v6.25c0 .195.117.313.313.313a.31.31 0 0 0 .312-.313M19.5 10.75c1.015 0 1.875.86 1.875 1.875v6.25c0 1.055-.86 1.875-1.875 1.875a1.85 1.85 0 0 1-1.875-1.875v-6.25c0-1.016.82-1.875 1.875-1.875"/>
</svg>