<svg xmlns="http://www.w3.org/2000/svg" width="24" height="24" fill="currentColor" class="icon-chart-pie-simple-outline" viewBox="0 0 24 24">
  <path d="M21.336 11.375h-8.711v-8.71c0-.353.273-.665.625-.665C18.055 2 22 5.945 22 10.75c0 .352-.312.625-.664.625M8.875 13.25V5.555c-2.93 1.054-5 3.828-5 7.07 0 4.14 3.36 7.5 7.5 7.5 3.242 0 6.016-2.07 7.07-5H10.75a1.85 1.85 0 0 1-1.875-1.875m1.875-8.633v8.633h8.633c.703 0 1.289.625 1.133 1.328C19.617 18.836 15.867 22 11.375 22A9.353 9.353 0 0 1 2 12.625c0-4.492 3.164-8.242 7.422-9.14.703-.157 1.328.43 1.328 1.132"/>
</svg>