<svg xmlns="http://www.w3.org/2000/svg" width="24" height="24" fill="currentColor" class="icon-chart-mixed-solid" viewBox="0 0 24 24">
  <path d="m21.531 5.477-6.25 5c-.469.39-1.094.39-1.562.039l-4.22-3.164-5.468 4.374a1.245 1.245 0 0 1-1.758-.195c-.43-.508-.351-1.328.196-1.758l6.25-5c.43-.351 1.054-.351 1.523 0l4.219 3.164 5.508-4.414c.507-.43 1.328-.312 1.757.196.43.547.313 1.328-.195 1.758M8.25 12c0-.664.547-1.25 1.25-1.25.664 0 1.25.586 1.25 1.25v7.5c0 .703-.586 1.25-1.25 1.25-.703 0-1.25-.547-1.25-1.25zm-5 3.75c0-.664.547-1.25 1.25-1.25.664 0 1.25.586 1.25 1.25v3.75c0 .703-.586 1.25-1.25 1.25-.703 0-1.25-.547-1.25-1.25zm11.25-2.5c.664 0 1.25.586 1.25 1.25v5c0 .703-.586 1.25-1.25 1.25-.703 0-1.25-.547-1.25-1.25v-5c0-.664.547-1.25 1.25-1.25M18.25 12c0-.664.547-1.25 1.25-1.25.664 0 1.25.586 1.25 1.25v7.5c0 .703-.586 1.25-1.25 1.25-.703 0-1.25-.547-1.25-1.25z"/>
</svg>