<svg xmlns="http://www.w3.org/2000/svg" width="24" height="24" fill="currentColor" class="icon-chevron-circle-up-solid" viewBox="0 0 24 24">
  <path d="M12 22c-3.594 0-6.875-1.875-8.672-5-1.797-3.086-1.797-6.875 0-10C5.125 3.914 8.406 2 12 2c3.555 0 6.836 1.914 8.633 5 1.797 3.125 1.797 6.914 0 10A9.93 9.93 0 0 1 12 22m4.727-9.414-4.102-4.063a.92.92 0 0 0-1.29 0l-4.062 4.063c-.39.39-.39.976 0 1.328.352.39.938.39 1.329 0L12 10.516l3.398 3.398c.352.39.938.39 1.329 0 .351-.351.351-.937 0-1.328"/>
</svg>