<svg xmlns="http://www.w3.org/2000/svg" width="24" height="24" fill="currentColor" class="icon-chevron-circle-left-outline" viewBox="0 0 24 24">
  <path d="M3.875 12a8.13 8.13 0 0 0 4.063 7.07c2.5 1.446 5.585 1.446 8.125 0 2.5-1.484 4.062-4.14 4.062-7.07 0-2.89-1.562-5.547-4.062-7.031-2.54-1.446-5.625-1.446-8.125 0C5.398 6.453 3.875 9.109 3.875 12M22 12c0 3.594-1.914 6.875-5 8.672-3.125 1.797-6.914 1.797-10 0C3.875 18.875 2 15.594 2 12a9.93 9.93 0 0 1 5-8.633c3.086-1.797 6.875-1.797 10 0 3.086 1.797 5 5.078 5 8.633m-9.414-4.727v.04a.856.856 0 0 1 1.289 0c.39.351.39.937 0 1.328l-3.398 3.398 3.398 3.399c.39.351.39.937 0 1.289a.856.856 0 0 1-1.29 0l-4.062-4.063c-.39-.351-.39-.937 0-1.328z"/>
</svg>