<svg xmlns="http://www.w3.org/2000/svg" width="24" height="24" fill="currentColor" class="icon-chevron-circle-left-solid" viewBox="0 0 24 24">
  <path d="M22 12c0 3.594-1.914 6.875-5 8.672-3.125 1.797-6.914 1.797-10 0C3.875 18.875 2 15.594 2 12a9.93 9.93 0 0 1 5-8.633c3.086-1.797 6.875-1.797 10 0 3.086 1.797 5 5.078 5 8.633m-9.414-4.727-4.063 4.102a.856.856 0 0 0 0 1.29l4.063 4.062c.351.39.937.39 1.289 0 .39-.352.39-.938 0-1.329L10.477 12l3.398-3.398c.39-.352.39-.938 0-1.329a.92.92 0 0 0-1.29 0"/>
</svg>