<svg xmlns="http://www.w3.org/2000/svg" width="24" height="24" fill="currentColor" class="icon-circle-small-outline" viewBox="0 0 24 24">
  <path d="M16.875 12c0-1.562-.86-2.969-2.187-3.75-1.368-.82-3.047-.82-4.376 0A4.29 4.29 0 0 0 8.126 12c0 1.602.82 3.008 2.188 3.79 1.328.82 3.007.82 4.374 0 1.329-.782 2.188-2.188 2.188-3.79M6.25 12c0-2.227 1.172-4.258 3.125-5.39 1.914-1.133 4.297-1.133 6.25 0C17.539 7.741 18.75 9.772 18.75 12c0 2.266-1.21 4.297-3.125 5.43-1.953 1.133-4.336 1.133-6.25 0A6.22 6.22 0 0 1 6.25 12"/>
</svg>