<svg xmlns="http://www.w3.org/2000/svg" width="24" height="24" fill="currentColor" class="icon-circle-dot-solid" viewBox="0 0 24 24">
  <path d="M12 22c-3.594 0-6.875-1.875-8.672-5-1.797-3.086-1.797-6.875 0-10C5.125 3.914 8.406 2 12 2c3.555 0 6.836 1.914 8.633 5 1.797 3.125 1.797 6.914 0 10A9.93 9.93 0 0 1 12 22m0-13.75c-1.367 0-2.578.742-3.281 1.875-.664 1.172-.664 2.617 0 3.75.703 1.172 1.914 1.875 3.281 1.875 1.328 0 2.54-.703 3.242-1.875.664-1.133.664-2.578 0-3.75C14.54 8.992 13.328 8.25 12 8.25"/>
</svg>