<svg xmlns="http://www.w3.org/2000/svg" width="24" height="24" fill="currentColor" class="icon-clipboard-list-solid" viewBox="0 0 24 24">
  <path d="M12.5 2c1.602 0 3.008 1.055 3.516 2.5H17.5C18.867 4.5 20 5.633 20 7v12.5c0 1.406-1.133 2.5-2.5 2.5h-10A2.47 2.47 0 0 1 5 19.5V7c0-1.367 1.094-2.5 2.5-2.5h1.445A3.78 3.78 0 0 1 12.5 2m0 2.5c-.703 0-1.25.586-1.25 1.25 0 .703.547 1.25 1.25 1.25.664 0 1.25-.547 1.25-1.25 0-.664-.586-1.25-1.25-1.25m-4.687 8.125c0 .547.39.938.937.938a.926.926 0 0 0 .938-.938.95.95 0 0 0-.938-.937.925.925 0 0 0-.937.937M11.875 12a.64.64 0 0 0-.625.625c0 .352.273.625.625.625h5a.64.64 0 0 0 .625-.625c0-.312-.312-.625-.625-.625zm-4.062 4.375c0 .547.39.938.937.938a.926.926 0 0 0 .938-.938.95.95 0 0 0-.938-.937.925.925 0 0 0-.937.937m3.437 0c0 .352.273.625.625.625h5a.64.64 0 0 0 .625-.625c0-.312-.312-.625-.625-.625h-5a.64.64 0 0 0-.625.625"/>
</svg>