<svg width="24" height="24" viewBox="0 0 24 24" fill="none" xmlns="http://www.w3.org/2000/svg">
<path d="M12 2C15.5547 2 18.8359 3.91406 20.6328 7C22.4297 10.125 22.4297 13.9141 20.6328 17C18.8359 20.125 15.5547 22 12 22C8.40625 22 5.125 20.125 3.32812 17C1.53125 13.9141 1.53125 10.125 3.32812 7C5.125 3.91406 8.40625 2 12 2ZM11.0625 6.6875V12C11.0625 12.3125 11.2188 12.625 11.4531 12.7812L15.2031 15.2812C15.6328 15.5938 16.2188 15.4766 16.5312 15.0469C16.8047 14.6172 16.6875 14.0312 16.2578 13.7188L12.9375 11.5312V6.6875C12.9375 6.17969 12.5078 5.75 12 5.75C11.4531 5.75 11.0625 6.17969 11.0625 6.6875Z" fill="black"/>
</svg>
