<svg xmlns="http://www.w3.org/2000/svg" width="24" height="24" fill="currentColor" class="icon-compass-solid" viewBox="0 0 24 24">
  <path d="M12 22c-3.594 0-6.875-1.875-8.672-5-1.797-3.086-1.797-6.875 0-10C5.125 3.914 8.406 2 12 2c3.555 0 6.836 1.914 8.633 5 1.797 3.125 1.797 6.914 0 10A9.93 9.93 0 0 1 12 22m1.953-7.266c.352-.156.586-.39.742-.742l2.149-5.625a.922.922 0 0 0-1.211-1.21l-5.625 2.148c-.352.156-.586.39-.742.742l-2.149 5.625c-.312.742.469 1.523 1.211 1.21zM13.25 12c0 .703-.586 1.25-1.25 1.25-.703 0-1.25-.547-1.25-1.25 0-.664.547-1.25 1.25-1.25.664 0 1.25.586 1.25 1.25"/>
</svg>