<svg width="24" height="24" viewBox="0 0 24 24" fill="none" xmlns="http://www.w3.org/2000/svg">
<path d="M11.375 2H16.2188C16.6875 2 17.1953 2.23438 17.5469 2.58594L20.1641 5.20312C20.5156 5.55469 20.75 6.0625 20.75 6.53125V15.125C20.75 16.1797 19.8906 17 18.875 17H11.375C10.3203 17 9.5 16.1797 9.5 15.125V3.875C9.5 2.85938 10.3203 2 11.375 2ZM5.125 7H8.25V9.5H5.75V19.5H13.25V18.25H15.75V20.125C15.75 21.1797 14.8906 22 13.875 22H5.125C4.07031 22 3.25 21.1797 3.25 20.125V8.875C3.25 7.85938 4.07031 7 5.125 7Z" fill="black"/>
</svg>
