<svg xmlns="http://www.w3.org/2000/svg" width="24" height="24" fill="currentColor" class="icon-cube-outline" viewBox="0 0 24 24">
  <path d="M12.078 3.992c-.039-.039-.117-.039-.195 0L4.46 6.805 12 9.773l7.5-2.968zM3.875 16.766c0 .156.078.273.195.312l6.993 2.656v-8.32L3.875 8.602zm9.063 2.968 6.953-2.656a.34.34 0 0 0 .234-.312V8.602l-7.187 2.812zm-1.72-17.5a2.05 2.05 0 0 1 1.524 0l7.813 2.97A2.2 2.2 0 0 1 22 7.273v9.492c0 .937-.586 1.718-1.445 2.07l-7.813 2.969a2.05 2.05 0 0 1-1.523 0l-7.813-2.97C2.546 18.486 2 17.704 2 16.766V7.274c0-.937.547-1.757 1.406-2.07z"/>
</svg>