<svg width="24" height="24" viewBox="0 0 24 24" fill="none" xmlns="http://www.w3.org/2000/svg">
<path d="M11.1406 2.23438C11.6875 2.03906 12.2734 2.03906 12.8203 2.23438L20.3203 4.92969C21.3359 5.28125 22 6.21875 22 7.27344V16.7656C22 17.8203 21.3359 18.7578 20.3203 19.1094L12.8203 21.8047C12.2734 22 11.6875 22 11.1406 21.8047L3.64062 19.1094C2.66406 18.7578 2 17.8203 2 16.7656V7.27344C2 6.21875 2.66406 5.28125 3.64062 4.92969L11.1406 2.23438ZM12 4.57812L5.20312 7L12 9.42188L18.7578 7L12 4.57812ZM13.25 18.9922L19.5 16.7656V9.42188L13.25 11.6484V18.9922Z" fill="black"/>
</svg>
