<svg xmlns="http://www.w3.org/2000/svg" width="24" height="24" fill="currentColor" class="icon-diamond-turn-right-outline" viewBox="0 0 24 24">
  <path d="M3.953 11.727a.7.7 0 0 0-.078.273c0 .117.04.234.078.273l7.774 7.774c.039.039.156.078.273.078.078 0 .195-.04.273-.078l7.735-7.774c.078-.039.117-.156.117-.273a.42.42 0 0 0-.117-.273l-7.735-7.735A.42.42 0 0 0 12 3.875c-.117 0-.234.04-.273.117zm6.445-9.063C10.79 2.274 11.375 2 12 2c.586 0 1.172.273 1.602.664l7.734 7.734c.39.43.664 1.016.664 1.602 0 .625-.273 1.21-.664 1.602l-7.734 7.734A2.28 2.28 0 0 1 12 22c-.625 0-1.21-.234-1.602-.664l-7.734-7.734C2.234 13.21 2 12.625 2 12c0-.586.234-1.172.664-1.602zm3.907 5.156 2.5 2.5a.66.66 0 0 1 0 .899l-2.5 2.5c-.196.156-.47.234-.703.117-.235-.078-.352-.313-.352-.586v-1.562h-1.875a.64.64 0 0 0-.625.624v1.876c0 .546-.43.937-.937.937-.547 0-.938-.39-.938-.937v-1.876c0-1.367 1.094-2.5 2.5-2.5h1.875V8.25c0-.234.156-.469.352-.547.234-.117.507-.039.703.117"/>
</svg>