<svg xmlns="http://www.w3.org/2000/svg" width="24" height="24" fill="currentColor" class="icon-download-outline" viewBox="0 0 24 24">
  <path d="M12.938 2.938v10.585l3.71-3.71c.352-.391.938-.391 1.329 0a.92.92 0 0 1 0 1.289l-5.352 5.312a.856.856 0 0 1-1.29 0l-5.312-5.312a.856.856 0 0 1 0-1.29c.352-.39.938-.39 1.329 0l3.71 3.711V2.938c0-.508.391-.938.938-.938a.95.95 0 0 1 .938.938M7 13.875l1.875 1.875H4.5a.64.64 0 0 0-.625.625V19.5c0 .352.273.625.625.625h15a.64.64 0 0 0 .625-.625v-3.125c0-.312-.312-.625-.625-.625h-4.414l1.875-1.875H19.5c1.367 0 2.5 1.133 2.5 2.5V19.5c0 1.406-1.133 2.5-2.5 2.5h-15A2.47 2.47 0 0 1 2 19.5v-3.125c0-1.367 1.094-2.5 2.5-2.5zm11.875 4.063c0 .546-.43.937-.937.937-.547 0-.938-.39-.938-.937 0-.508.39-.938.938-.938a.95.95 0 0 1 .937.938"/>
</svg>