<svg xmlns="http://www.w3.org/2000/svg" width="24" height="24" fill="currentColor" class="icon-download-solid" viewBox="0 0 24 24">
  <path d="M13.25 3.25v9.492l2.852-2.851a1.205 1.205 0 0 1 1.757 0 1.203 1.203 0 0 1 0 1.757l-5 5a1.205 1.205 0 0 1-1.757 0l-5-5a1.205 1.205 0 0 1 0-1.757 1.205 1.205 0 0 1 1.757 0l2.891 2.851V3.25c0-.664.547-1.25 1.25-1.25.664 0 1.25.586 1.25 1.25M4.5 15.75h3.945l1.758 1.797a2.523 2.523 0 0 0 3.555 0l1.758-1.797H19.5c1.367 0 2.5 1.133 2.5 2.5v1.25c0 1.406-1.133 2.5-2.5 2.5h-15A2.47 2.47 0 0 1 2 19.5v-1.25c0-1.367 1.094-2.5 2.5-2.5m14.375 2.188a.925.925 0 0 0-.937.937c0 .547.39.938.937.938a.926.926 0 0 0 .938-.938.95.95 0 0 0-.938-.937"/>
</svg>