<svg xmlns="http://www.w3.org/2000/svg" width="24" height="24" fill="currentColor" class="icon-exclamation-triangle-solid" viewBox="0 0 24 24">
  <path d="M12 3.25a1.56 1.56 0 0 1 1.328.781l8.438 14.375c.273.508.273 1.094 0 1.563a1.48 1.48 0 0 1-1.328.781H3.563c-.586 0-1.094-.273-1.368-.781-.273-.469-.273-1.055 0-1.563l8.438-14.375A1.58 1.58 0 0 1 12 3.25m0 5a.925.925 0 0 0-.937.938v4.374c0 .547.39.938.937.938.508 0 .938-.39.938-.937V9.186A.95.95 0 0 0 12 8.25M13.25 17c0-.664-.586-1.25-1.25-1.25-.703 0-1.25.586-1.25 1.25 0 .703.547 1.25 1.25 1.25.664 0 1.25-.547 1.25-1.25"/>
</svg>