<svg width="24" height="24" viewBox="0 0 24 24" fill="none" xmlns="http://www.w3.org/2000/svg">
<path d="M12 22C8.40625 22 5.125 20.125 3.32812 17C1.53125 13.9141 1.53125 10.125 3.32812 7C5.125 3.91406 8.40625 2 12 2C15.5547 2 18.8359 3.91406 20.6328 7C22.4297 10.125 22.4297 13.9141 20.6328 17C18.8359 20.125 15.5547 22 12 22ZM12 7C11.4531 7 11.0625 7.42969 11.0625 7.9375V12.3125C11.0625 12.8594 11.4531 13.25 12 13.25C12.5078 13.25 12.9375 12.8594 12.9375 12.3125V7.9375C12.9375 7.42969 12.5078 7 12 7ZM10.75 15.75C10.75 16.4531 11.2969 17 12 17C12.6641 17 13.25 16.4531 13.25 15.75C13.25 15.0859 12.6641 14.5 12 14.5C11.2969 14.5 10.75 15.0859 10.75 15.75Z" fill="black"/>
</svg>
