<svg xmlns="http://www.w3.org/2000/svg" width="24" height="24" fill="currentColor" class="icon-expand-solid" viewBox="0 0 24 24">
  <path d="M4.5 3.25h3.75c.664 0 1.25.586 1.25 1.25 0 .703-.586 1.25-1.25 1.25h-2.5v2.5c0 .703-.586 1.25-1.25 1.25-.703 0-1.25-.547-1.25-1.25V4.5c0-.664.547-1.25 1.25-1.25m1.25 12.5v2.5h2.5c.664 0 1.25.586 1.25 1.25 0 .703-.586 1.25-1.25 1.25H4.5c-.703 0-1.25-.547-1.25-1.25v-3.75c0-.664.547-1.25 1.25-1.25.664 0 1.25.586 1.25 1.25m10-12.5h3.75c.664 0 1.25.586 1.25 1.25v3.75c0 .703-.586 1.25-1.25 1.25-.703 0-1.25-.547-1.25-1.25v-2.5h-2.5c-.703 0-1.25-.547-1.25-1.25 0-.664.547-1.25 1.25-1.25m5 12.5v3.75c0 .703-.586 1.25-1.25 1.25h-3.75c-.703 0-1.25-.547-1.25-1.25 0-.664.547-1.25 1.25-1.25h2.5v-2.5c0-.664.547-1.25 1.25-1.25.664 0 1.25.586 1.25 1.25"/>
</svg>