<svg xmlns="http://www.w3.org/2000/svg" width="24" height="24" fill="currentColor" class="icon-expand-outline" viewBox="0 0 24 24">
  <path d="M8.563 3.25a.95.95 0 0 1 .937.938c0 .546-.43.937-.937.937H5.124v3.438c0 .546-.43.937-.937.937-.547 0-.938-.39-.938-.937V4.187c0-.507.39-.937.938-.937zM3.25 15.438c0-.508.39-.938.938-.938a.95.95 0 0 1 .937.938v3.437h3.438a.95.95 0 0 1 .937.938c0 .546-.43.937-.937.937H4.187c-.546 0-.937-.39-.937-.937zM19.813 3.25a.95.95 0 0 1 .937.938v4.375c0 .546-.43.937-.937.937-.547 0-.938-.39-.938-.937V5.124h-3.437c-.547 0-.938-.39-.938-.937 0-.508.39-.938.938-.938zm-.938 12.188c0-.508.39-.938.938-.938a.95.95 0 0 1 .937.938v4.374c0 .547-.43.938-.937.938h-4.375c-.547 0-.938-.39-.938-.937 0-.508.39-.938.938-.938h3.437z"/>
</svg>