<svg xmlns="http://www.w3.org/2000/svg" width="24" height="24" fill="currentColor" class="icon-eye-slash-outline" viewBox="0 0 24 24">
  <mask id="a" width="26" height="21" x="-1" y="2" maskUnits="userSpaceOnUse" style="mask-type:alpha">
    <path d="M1.484 2.234 5.86 5.633C7.617 4.305 9.805 3.25 12.5 3.25c3.125 0 5.664 1.445 7.5 3.164 1.836 1.68 3.047 3.711 3.633 5.117a1.4 1.4 0 0 1 0 .977c-.508 1.25-1.563 3.047-3.125 4.61l4.101 3.241c.43.313.508.899.157 1.29-.313.43-.899.507-1.29.156L.353 3.68c-.43-.313-.508-.899-.157-1.29.313-.429.899-.507 1.29-.156m5.899 4.61L9.18 8.25A5 5 0 0 1 12.5 7c2.734 0 5 2.266 5 5 0 .86-.195 1.64-.586 2.305l2.11 1.64c1.367-1.328 2.304-2.851 2.773-3.945-.508-1.172-1.563-2.812-3.086-4.219-1.602-1.484-3.672-2.656-6.211-2.656-1.992 0-3.672.703-5.117 1.719m8.008 6.289c.156-.352.234-.742.234-1.133A3.134 3.134 0 0 0 12.5 8.875h-.078c.039.234.078.43.078.625 0 .43-.117.781-.274 1.133zm.39 5.078 1.64 1.289a10.2 10.2 0 0 1-4.921 1.25c-3.164 0-5.703-1.406-7.54-3.125-1.835-1.719-3.046-3.75-3.632-5.117a1.4 1.4 0 0 1 0-.977 15.6 15.6 0 0 1 1.914-3.203L4.687 9.5A12.3 12.3 0 0 0 3.164 12c.547 1.172 1.563 2.852 3.086 4.258 1.602 1.484 3.672 2.617 6.25 2.617a8.35 8.35 0 0 0 3.281-.664M7.5 12h-.04c0-.078.04-.195.04-.312l2.187 1.718a3.03 3.03 0 0 0 2.11 1.64l2.187 1.759A6.2 6.2 0 0 1 12.5 17c-2.773 0-5-2.226-5-5"/>
  </mask>
  <g mask="url(#a)">
    <path d="M0 0h24v24H0z"/>
  </g>
</svg>