<svg xmlns="http://www.w3.org/2000/svg" width="24" height="24" fill="currentColor" class="icon-eye-slash-solid" viewBox="0 0 24 24">
  <path d="M2.485 2.234 6.86 5.633C8.617 4.305 10.805 3.25 13.5 3.25c3.125 0 5.664 1.445 7.5 3.164 1.836 1.68 3.047 3.711 3.633 5.117a1.4 1.4 0 0 1 0 .977c-.508 1.25-1.562 3.047-3.125 4.61l4.102 3.241c.43.313.507.899.156 1.29-.313.43-.899.507-1.29.156L1.353 3.68c-.43-.313-.508-.899-.156-1.29.312-.429.898-.507 1.289-.156M9.71 7.86l3.516 2.774c.156-.352.273-.703.273-1.094 0-.312-.078-.547-.156-.82-.04-.196.078-.469.313-.43 1.601.04 3.007 1.133 3.437 2.774a3.77 3.77 0 0 1-.156 2.46l1.484 1.172c.43-.78.703-1.718.703-2.695 0-3.086-2.539-5.625-5.625-5.625A5.6 5.6 0 0 0 9.71 7.86m5.86 9.375 2.851 2.266a10.2 10.2 0 0 1-4.922 1.25c-3.164 0-5.703-1.406-7.539-3.125s-3.047-3.75-3.633-5.117a1.4 1.4 0 0 1 0-.977 15.6 15.6 0 0 1 1.914-3.203l3.672 2.89c-.039.274-.039.548-.039.782 0 3.125 2.5 5.625 5.625 5.625a5.4 5.4 0 0 0 2.07-.39"/>
</svg>