<svg xmlns="http://www.w3.org/2000/svg" width="24" height="24" fill="currentColor" class="icon-face-grin-outline" viewBox="0 0 24 24">
  <path d="M20.125 12c0-2.89-1.562-5.547-4.062-7.031-2.54-1.446-5.625-1.446-8.125 0C5.398 6.453 3.875 9.109 3.875 12a8.13 8.13 0 0 0 4.063 7.07c2.5 1.446 5.585 1.446 8.125 0 2.5-1.484 4.062-4.14 4.062-7.07M2 12a9.93 9.93 0 0 1 5-8.633c3.086-1.797 6.875-1.797 10 0 3.086 1.797 5 5.078 5 8.633 0 3.594-1.914 6.875-5 8.672-3.125 1.797-6.914 1.797-10 0C3.875 18.875 2 15.594 2 12m13.633 2.07c.742-.195 1.406.47 1.015 1.094-.976 1.484-2.695 2.461-4.687 2.461-1.953 0-3.672-.977-4.648-2.46-.391-.626.273-1.29 1.015-1.095 1.133.274 2.344.39 3.633.39 1.328 0 2.539-.116 3.672-.39m-8.008-3.945c0-.664.547-1.25 1.25-1.25s1.25.586 1.25 1.25c0 .703-.547 1.25-1.25 1.25s-1.25-.547-1.25-1.25m7.5-1.25c.703 0 1.25.586 1.25 1.25 0 .703-.547 1.25-1.25 1.25s-1.25-.547-1.25-1.25c0-.664.547-1.25 1.25-1.25"/>
</svg>