<svg xmlns="http://www.w3.org/2000/svg" width="24" height="24" fill="currentColor" class="icon-face-sleeping-solid" viewBox="0 0 24 24">
  <path d="M22 12c0 5.547-4.492 10-10 10A9.97 9.97 0 0 1 2 12C2 6.492 6.453 2 12 2c1.875 0 3.672.547 5.195 1.484.04.157.157.274.274.391-.469.547-.625 1.328-.352 1.992A1.88 1.88 0 0 0 18.875 7h1.758A10 10 0 0 1 22 12m-9.375-6.25h.977l-1.446 1.445c-.156.196-.234.47-.117.703.078.235.313.352.586.352h2.5a.64.64 0 0 0 .625-.625c0-.312-.312-.625-.625-.625h-1.016l1.446-1.406c.156-.196.234-.469.117-.703a.59.59 0 0 0-.547-.391h-2.5a.64.64 0 0 0-.625.625c0 .352.273.625.625.625M10.438 17c0 .586.273 1.094.78 1.367.47.274 1.055.274 1.563 0 .469-.273.781-.781.781-1.367a1.56 1.56 0 0 0-.78-1.328c-.509-.274-1.094-.274-1.563 0A1.48 1.48 0 0 0 10.438 17m6.68-5.664a1.764 1.764 0 0 1-2.774 0 .584.584 0 0 0-.86-.117.584.584 0 0 0-.117.86 2.925 2.925 0 0 0 4.727 0 .584.584 0 0 0-.117-.86.584.584 0 0 0-.86.117m-10.274 0a.584.584 0 0 0-.86-.117.584.584 0 0 0-.117.86 2.925 2.925 0 0 0 4.727 0 .584.584 0 0 0-.117-.86.584.584 0 0 0-.86.117 1.764 1.764 0 0 1-2.773 0M18.25 2.625c0-.312.273-.625.625-.625h2.5c.234 0 .469.156.547.39.117.235.039.508-.117.704L20.359 4.5h1.016c.313 0 .625.313.625.625a.64.64 0 0 1-.625.625h-2.5c-.273 0-.508-.156-.586-.352-.117-.234-.039-.507.117-.703l1.446-1.445h-.977a.617.617 0 0 1-.625-.625"/>
</svg>