<svg xmlns="http://www.w3.org/2000/svg" width="24" height="24" fill="currentColor" class="icon-file-download-solid" viewBox="0 0 24 24">
  <path d="M7.5 2h6.25v5c0 .703.547 1.25 1.25 1.25h5V19.5c0 1.406-1.133 2.5-2.5 2.5h-10A2.47 2.47 0 0 1 5 19.5v-15C5 3.133 6.094 2 7.5 2M15 2l5 5h-5zm-1.562 9.063h-.04a.925.925 0 0 0-.937-.938.95.95 0 0 0-.938.938v4.023l-1.21-1.211a.856.856 0 0 0-1.29 0 .856.856 0 0 0 0 1.29l2.813 2.812c.351.39.937.39 1.289 0l2.813-2.813a.856.856 0 0 0 0-1.289.856.856 0 0 0-1.29 0l-1.21 1.21z"/>
</svg>