<svg xmlns="http://www.w3.org/2000/svg" width="24" height="24" fill="currentColor" class="icon-file-download-outline" viewBox="0 0 24 24">
  <path d="M6.875 19.5c0 .352.273.625.625.625h10a.64.64 0 0 0 .625-.625V8.25H15c-.703 0-1.25-.547-1.25-1.25V3.875H7.5a.64.64 0 0 0-.625.625zM7.5 2h6.445c.664 0 1.29.273 1.758.742l3.555 3.555c.469.469.742 1.094.742 1.758V19.5c0 1.406-1.133 2.5-2.5 2.5h-10A2.47 2.47 0 0 1 5 19.5v-15C5 3.133 6.094 2 7.5 2m5.938 9.063v4.023l1.21-1.211c.352-.39.938-.39 1.329 0a.92.92 0 0 1 0 1.29l-2.813 2.812c-.39.39-.976.39-1.328 0l-2.813-2.813a.856.856 0 0 1 0-1.289c.352-.39.938-.39 1.329 0l1.21 1.21v-4.023c0-.507.391-.937.938-.937a.95.95 0 0 1 .938.938"/>
</svg>