<svg xmlns="http://www.w3.org/2000/svg" width="24" height="24" fill="currentColor" class="icon-file-circle-check-outline" viewBox="0 0 24 24">
  <path d="M3.75 20.125h8.594A6.7 6.7 0 0 0 14.102 22H3.75a2.47 2.47 0 0 1-2.5-2.5v-15c0-1.367 1.094-2.5 2.5-2.5h6.445c.664 0 1.29.273 1.758.742l3.555 3.555c.469.469.742 1.094.742 1.758v1.718c-.703.196-1.328.47-1.875.86V8.25H11.25C10.547 8.25 10 7.703 10 7V3.875H3.75a.64.64 0 0 0-.625.625v15c0 .352.273.625.625.625m8.75-3.75a5.58 5.58 0 0 1 2.813-4.844c1.718-1.015 3.867-1.015 5.624 0 1.72 1.016 2.813 2.852 2.813 4.844 0 2.031-1.094 3.867-2.812 4.883-1.758 1.015-3.907 1.015-5.625 0a5.6 5.6 0 0 1-2.813-4.883m8.242-1.68a.66.66 0 0 0-.898 0L17.5 17.078l-1.133-1.133a.66.66 0 0 0-.898 0 .66.66 0 0 0 0 .899l1.562 1.562a.66.66 0 0 0 .899 0l2.812-2.812a.66.66 0 0 0 0-.899"/>
</svg>