<svg xmlns="http://www.w3.org/2000/svg" width="24" height="24" fill="currentColor" class="icon-file-circle-check-solid" viewBox="0 0 24 24">
  <path d="M1.25 4.5c0-1.367 1.094-2.5 2.5-2.5H10v5c0 .703.547 1.25 1.25 1.25h5v1.523c-2.89.82-5 3.477-5 6.602A6.92 6.92 0 0 0 14.102 22H3.75a2.47 2.47 0 0 1-2.5-2.5zm15 2.5h-5V2zm-3.75 9.375a5.58 5.58 0 0 1 2.813-4.844c1.718-1.015 3.867-1.015 5.624 0 1.72 1.016 2.813 2.852 2.813 4.844 0 2.031-1.094 3.867-2.812 4.883-1.758 1.015-3.907 1.015-5.625 0a5.6 5.6 0 0 1-2.813-4.883m8.242-1.68a.66.66 0 0 0-.898 0L17.5 17.078l-1.133-1.133a.66.66 0 0 0-.898 0 .66.66 0 0 0 0 .899l1.562 1.562a.66.66 0 0 0 .899 0l2.812-2.812a.66.66 0 0 0 0-.899"/>
</svg>