<svg xmlns="http://www.w3.org/2000/svg" width="24" height="24" fill="currentColor" class="icon-file-pen-solid" viewBox="0 0 24 24">
  <path d="M1.25 4.5c0-1.367 1.094-2.5 2.5-2.5H10v5c0 .703.547 1.25 1.25 1.25h5v4.922l-3.398 3.398c-.43.39-.704.899-.82 1.446l-.743 2.93c-.078.35-.078.741.04 1.093H3.75a2.49 2.49 0 0 1-2.5-2.5zm15 2.5h-5V2zm6.445 4.219.586.586c.586.586.586 1.562 0 2.187l-1.172 1.172-2.773-2.773 1.172-1.172c.586-.586 1.601-.586 2.187 0m-9.297 7.07 5.079-5.039 2.773 2.773-5.078 5.04a1.6 1.6 0 0 1-.547.351L13.242 22c-.195.04-.43 0-.586-.156-.156-.157-.195-.39-.156-.625l.586-2.344a1.23 1.23 0 0 1 .312-.586"/>
</svg>