<svg xmlns="http://www.w3.org/2000/svg" width="24" height="24" fill="currentColor" class="icon-file-invoice-outline" viewBox="0 0 24 24">
  <path d="M7.5 20.125h10a.64.64 0 0 0 .625-.625V8.25H15c-.703 0-1.25-.547-1.25-1.25V3.875H7.5a.64.64 0 0 0-.625.625v15c0 .352.273.625.625.625M5 4.5C5 3.133 6.094 2 7.5 2h6.445c.664 0 1.29.273 1.758.742l3.555 3.555c.469.469.742 1.094.742 1.758V19.5c0 1.406-1.133 2.5-2.5 2.5h-10A2.47 2.47 0 0 1 5 19.5zm3.125 1.875c0-.312.273-.625.625-.625h3.125c.313 0 .625.313.625.625a.64.64 0 0 1-.625.625H8.75a.617.617 0 0 1-.625-.625m0 2.5c0-.312.273-.625.625-.625h3.125c.313 0 .625.313.625.625a.64.64 0 0 1-.625.625H8.75a.617.617 0 0 1-.625-.625m4.375 8.75c0-.312.273-.625.625-.625h3.125c.313 0 .625.313.625.625a.64.64 0 0 1-.625.625h-3.125a.617.617 0 0 1-.625-.625M9.375 10.75h6.25c.664 0 1.25.586 1.25 1.25v2.5c0 .703-.586 1.25-1.25 1.25h-6.25c-.703 0-1.25-.547-1.25-1.25V12c0-.664.547-1.25 1.25-1.25"/>
</svg>