<svg xmlns="http://www.w3.org/2000/svg" width="24" height="24" fill="currentColor" class="icon-file-excel-solid" viewBox="0 0 24 24">
  <path d="M7.5 2h6.25v5c0 .703.547 1.25 1.25 1.25h5V19.5c0 1.406-1.133 2.5-2.5 2.5h-10A2.47 2.47 0 0 1 5 19.5v-15C5 3.133 6.094 2 7.5 2M15 2l5 5h-5zm-3.945 9.805a.897.897 0 0 0-1.29-.235.897.897 0 0 0-.234 1.29l1.797 2.578-1.797 2.617c-.312.39-.195.976.235 1.289a.897.897 0 0 0 1.289-.235l1.445-2.03 1.406 2.03c.313.43.86.547 1.29.235.429-.313.546-.86.234-1.29l-1.797-2.616 1.797-2.579a.897.897 0 0 0-.235-1.289.897.897 0 0 0-1.289.235l-1.406 2.03z"/>
</svg>