<svg xmlns="http://www.w3.org/2000/svg" width="24" height="24" fill="currentColor" class="icon-file-export-solid" viewBox="0 0 24 24">
  <path d="M1.25 4.5c0-1.367 1.094-2.5 2.5-2.5H10v5c0 .703.547 1.25 1.25 1.25h5v5H9.688a.925.925 0 0 0-.938.938c0 .546.39.937.938.937h6.562V19.5c0 1.406-1.133 2.5-2.5 2.5h-10a2.47 2.47 0 0 1-2.5-2.5zm15 10.625V13.25h4.297l-1.524-1.523a.856.856 0 0 1 0-1.29c.352-.39.938-.39 1.329 0l3.125 3.126a.92.92 0 0 1 0 1.289l-3.125 3.125c-.391.39-.977.39-1.329 0a.856.856 0 0 1 0-1.29l1.524-1.523H16.25zm0-8.125h-5V2z"/>
</svg>