<svg xmlns="http://www.w3.org/2000/svg" width="24" height="24" fill="currentColor" class="icon-file-excel-outline" viewBox="0 0 24 24">
  <path d="M6.875 19.5c0 .352.273.625.625.625h10a.64.64 0 0 0 .625-.625V8.25H15c-.703 0-1.25-.547-1.25-1.25V3.875H7.5a.64.64 0 0 0-.625.625zM7.5 2h6.445c.664 0 1.29.273 1.758.742l3.555 3.555c.469.469.742 1.094.742 1.758V19.5c0 1.406-1.133 2.5-2.5 2.5h-10A2.47 2.47 0 0 1 5 19.5v-15C5 3.133 6.094 2 7.5 2m3.516 9.14 1.484 1.837 1.445-1.836a.9.9 0 0 1 1.29-.196c.43.352.507.938.156 1.328L13.67 14.5l1.759 2.266a.9.9 0 0 1-.196 1.289c-.39.312-.976.273-1.289-.157L12.5 16.063l-1.445 1.835c-.352.43-.938.508-1.328.157-.43-.313-.47-.899-.157-1.29l1.72-2.265-1.72-2.227c-.351-.39-.273-.976.157-1.289.39-.351.976-.273 1.289.157"/>
</svg>