<svg xmlns="http://www.w3.org/2000/svg" width="24" height="24" fill="currentColor" class="icon-file-invoice-dollar-outline" viewBox="0 0 24 24">
  <path d="M18.125 19.5V8.25H15c-.703 0-1.25-.547-1.25-1.25V3.875H7.5a.64.64 0 0 0-.625.625v15c0 .352.273.625.625.625h10a.64.64 0 0 0 .625-.625M5 4.5C5 3.133 6.094 2 7.5 2h6.445c.664 0 1.29.273 1.758.742l3.555 3.555c.469.469.742 1.094.742 1.758V19.5c0 1.406-1.133 2.5-2.5 2.5h-10A2.47 2.47 0 0 1 5 19.5zm7.5 5.938c.43 0 .781.351.781.78v.391c.274.04.547.118.781.157.43.117.704.547.586.937a.75.75 0 0 1-.937.586c-.43-.078-.86-.156-1.25-.156a1.55 1.55 0 0 0-.86.156c-.195.117-.195.195-.195.234s.04.079.156.157c.235.117.626.234 1.133.351.43.117 1.016.274 1.446.547.468.274.976.742.976 1.524.04.82-.43 1.367-.976 1.64a2.5 2.5 0 0 1-.899.313v.39c0 .43-.351.782-.781.782a.784.784 0 0 1-.781-.782v-.43c-.39-.078-.742-.195-1.055-.273-.078-.039-.156-.039-.234-.078a.78.78 0 0 1-.547-.977c.117-.43.586-.664.976-.507.117 0 .196.039.274.078.547.156.976.273 1.406.273.352.04.664-.039.898-.156.157-.078.196-.156.196-.273 0 0 0-.079-.196-.196a6.6 6.6 0 0 0-1.132-.351l-.04-.04c-.43-.117-.976-.273-1.406-.468-.468-.274-.976-.742-.976-1.524-.04-.82.508-1.328 1.015-1.601.274-.156.547-.235.86-.313v-.39c0-.43.351-.781.781-.781M8.75 5.75h3.125c.313 0 .625.313.625.625a.64.64 0 0 1-.625.625H8.75a.617.617 0 0 1-.625-.625c0-.312.273-.625.625-.625m0 2.5h3.125c.313 0 .625.313.625.625a.64.64 0 0 1-.625.625H8.75a.617.617 0 0 1-.625-.625c0-.312.273-.625.625-.625"/>
</svg>