<svg xmlns="http://www.w3.org/2000/svg" width="24" height="24" fill="currentColor" class="icon-file-pen-outline" viewBox="0 0 24 24">
  <path d="M3.75 20.125h7.734l-.195.82c-.078.352-.078.742.04 1.055H3.75a2.47 2.47 0 0 1-2.5-2.5v-15c0-1.367 1.094-2.5 2.5-2.5h6.445c.664 0 1.29.273 1.758.742l3.555 3.555c.469.469.742 1.094.742 1.758v5.117l-1.875 1.875V8.25H11.25C10.547 8.25 10 7.703 10 7V3.875H3.75a.64.64 0 0 0-.625.625v15c0 .352.273.625.625.625m18.945-8.906.586.586c.586.586.586 1.562 0 2.187l-1.172 1.172-2.773-2.773 1.172-1.172c.586-.586 1.601-.586 2.187 0m-9.297 7.07 5.079-5.039 2.773 2.773-5.078 5.04a1.6 1.6 0 0 1-.547.351L13.242 22c-.195.04-.43 0-.586-.156-.156-.157-.195-.39-.156-.625l.586-2.344a1.23 1.23 0 0 1 .312-.586"/>
</svg>