<svg xmlns="http://www.w3.org/2000/svg" width="24" height="24" fill="currentColor" class="icon-files-outline" viewBox="0 0 24 24">
  <path d="M9.5 16.375h8.75a.64.64 0 0 0 .625-.625V7H17c-.703 0-1.25-.547-1.25-1.25V3.875H9.5a.64.64 0 0 0-.625.625v11.25c0 .352.273.625.625.625m8.75 1.875H9.5a2.47 2.47 0 0 1-2.5-2.5V4.5C7 3.133 8.094 2 9.5 2h6.445c.664 0 1.29.273 1.758.742l2.305 2.305c.469.469.742 1.094.742 1.758v8.945c0 1.406-1.133 2.5-2.5 2.5M4.188 5.75a.95.95 0 0 1 .937.938v10a3.42 3.42 0 0 0 3.438 3.437h7.5a.95.95 0 0 1 .937.938c0 .546-.43.937-.937.937h-7.5a5.27 5.27 0 0 1-5.313-5.312v-10c0-.508.39-.938.938-.938"/>
</svg>