<svg xmlns="http://www.w3.org/2000/svg" width="24" height="24" fill="currentColor" class="icon-fire-outline" viewBox="0 0 24 24">
  <path d="M6.727 8.133c-.977 1.719-1.602 3.476-1.602 4.922 0 4.023 3.008 7.07 6.875 7.07 3.79 0 6.875-3.047 6.875-7.07 0-1.133-.43-2.657-1.133-4.14-.625-1.407-1.445-2.657-2.226-3.477-.157.195-.352.468-.586.742a3.3 3.3 0 0 1-.313.468c-.156.235-.351.508-.469.665-.156.234-.43.351-.742.39-.273 0-.547-.156-.742-.39a5 5 0 0 0-.43-.508c-.742-.977-1.601-2.07-2.343-2.813-1.055 1.016-2.227 2.5-3.164 4.14m4.296-5.664c.743.703 1.602 1.758 2.344 2.695l.04-.039c.273-.43.624-.898.937-1.21a1.73 1.73 0 0 1 2.304 0c1.016 1.015 2.032 2.577 2.774 4.218.781 1.601 1.328 3.398 1.328 4.922C20.75 18.094 16.844 22 12 22c-4.922 0-8.75-3.945-8.75-8.945 0-1.953.781-4.024 1.836-5.86S7.508 3.641 8.758 2.47c.664-.586 1.64-.586 2.265 0m1.017 15.78c-2.46 0-4.414-1.562-4.453-4.258 0-1.172.664-2.226 1.992-3.867.274-.312.742-.312.977 0 .664.82 1.797 2.305 2.46 3.125a.586.586 0 0 0 .938 0l1.016-1.133c.234-.312.703-.273.86.078.976 1.797.546 4.102-1.095 5.235a4.67 4.67 0 0 1-2.695.82"/>
</svg>