<svg xmlns="http://www.w3.org/2000/svg" width="24" height="24" fill="currentColor" class="icon-floppy-disk-outline" viewBox="0 0 24 24">
  <path d="M5.125 5.75v12.5c0 .352.273.625.625.625h12.5a.64.64 0 0 0 .625-.625V8.68a.63.63 0 0 0-.195-.43l1.328-1.328c.469.469.703 1.094.703 1.758v9.57c0 1.406-1.094 2.5-2.5 2.5H5.75a2.47 2.47 0 0 1-2.5-2.5V5.75c0-1.367 1.094-2.5 2.5-2.5h9.57c.664 0 1.29.273 1.758.742l2.93 2.93L18.68 8.25l-2.93-2.93v-.039 3.907c0 .546-.43.937-.937.937h-7.5c-.547 0-.938-.39-.938-.937V5.125H5.75a.64.64 0 0 0-.625.625m3.125-.625V8.25h5.625V5.125zM9.5 14.5c0-.86.469-1.68 1.25-2.148.742-.43 1.719-.43 2.5 0 .742.468 1.25 1.289 1.25 2.148 0 .898-.508 1.719-1.25 2.188-.781.43-1.758.43-2.5 0A2.54 2.54 0 0 1 9.5 14.5"/>
</svg>