<svg xmlns="http://www.w3.org/2000/svg" width="24" height="24" fill="currentColor" class="icon-gauge-simple-solid" viewBox="0 0 24 24">
  <path d="M2 12a9.93 9.93 0 0 1 5-8.633c3.086-1.797 6.875-1.797 10 0 3.086 1.797 5 5.078 5 8.633 0 3.594-1.914 6.875-5 8.672-3.125 1.797-6.914 1.797-10 0C3.875 18.875 2 15.594 2 12m12.5 3.75c0-1.016-.664-1.914-1.562-2.305V5.438A.95.95 0 0 0 12 4.5a.925.925 0 0 0-.937.938v8.007A2.505 2.505 0 0 0 9.5 15.75c0 1.406 1.094 2.5 2.5 2.5 1.367 0 2.5-1.094 2.5-2.5"/>
</svg>