<svg xmlns="http://www.w3.org/2000/svg" width="24" height="24" fill="currentColor" class="icon-hand-outline" viewBox="0 0 24 24">
  <path d="M12 2c.977 0 1.836.586 2.227 1.406.273-.078.585-.156.898-.156 1.367 0 2.5 1.133 2.5 2.5v.078c.195-.039.39-.078.625-.078 1.367 0 2.5 1.133 2.5 2.5v6.875c0 .078-.04.117-.04.195A7.15 7.15 0 0 1 14.032 22h-.82a10 10 0 0 1-7.07-2.93l-3.438-3.398a2.523 2.523 0 0 1 0-3.555 2.523 2.523 0 0 1 3.555 0l.117.117V5.75c0-1.367 1.094-2.5 2.5-2.5.273 0 .586.078.86.156A2.5 2.5 0 0 1 12 2m-.625 3.79v5.273c0 .546-.43.937-.937.937-.547 0-.938-.39-.938-.937V5.75c0-.312-.312-.625-.625-.625a.64.64 0 0 0-.625.625v8.75c0 .39-.234.703-.586.86-.351.156-.781.078-1.016-.196L4.93 13.445a.66.66 0 0 0-.899 0 .66.66 0 0 0 0 .899L7.47 17.78c1.523 1.524 3.593 2.344 5.742 2.344h.586a5.27 5.27 0 0 0 5.039-5.04s0-.038.039-.077V8.25c0-.312-.312-.625-.625-.625a.64.64 0 0 0-.625.625v2.813c0 .546-.43.937-.937.937-.547 0-.938-.39-.938-.937V5.75c0-.312-.312-.625-.625-.625a.64.64 0 0 0-.625.625v5.313c0 .546-.43.937-.937.937-.547 0-.938-.39-.938-.937V4.5c0-.312-.312-.625-.625-.625a.64.64 0 0 0-.625.625z"/>
</svg>