<svg width="24" height="24" viewBox="0 0 24 24" fill="none" xmlns="http://www.w3.org/2000/svg">
<path d="M11.5312 5.28125L11.9609 5.75L12.4297 5.32031C13.7188 4.03125 15.5547 3.44531 17.3125 3.75781C20.0078 4.1875 22 6.53125 22 9.26562V9.46093C22 11.1016 21.2969 12.6641 20.125 13.7578L13.0547 20.3594C12.7812 20.6328 12.3906 20.75 12 20.75C11.5703 20.75 11.1797 20.6328 10.9062 20.3594L3.83594 13.7578C2.66406 12.6641 2 11.1016 2 9.46093V9.26562C2 6.53125 3.95312 4.1875 6.64844 3.75781C8.40625 3.44531 10.2422 4.03125 11.5312 5.28125C11.5312 5.32031 11.4922 5.28125 11.5312 5.28125ZM11.9609 8.40625L10.2031 6.60937C9.34375 5.78906 8.13281 5.39843 6.96094 5.59375C5.16406 5.90625 3.875 7.42968 3.875 9.26562V9.46093C3.875 10.5937 4.30469 11.6484 5.125 12.3906L12 18.7969L18.8359 12.3906C19.6562 11.6484 20.125 10.5937 20.125 9.46093V9.26562C20.125 7.42968 18.7969 5.90625 17 5.59375C15.8281 5.39843 14.6172 5.78906 13.7578 6.60937L11.9609 8.40625Z" fill="black"/>
</svg>
