<svg width="24" height="24" viewBox="0 0 24 24" fill="none" xmlns="http://www.w3.org/2000/svg">
<path d="M22.9942 12C22.9942 12.7031 22.4205 13.25 21.7702 13.25H20.5462L20.5844 19.5C20.5844 19.6172 20.5844 19.7344 20.5844 19.8125V20.4375C20.5844 21.3359 19.8959 22 19.0544 22H18.4424C18.3659 22 18.3276 22 18.2894 22C18.2511 22 18.1746 22 18.1364 22H16.9123H15.9943C15.1146 22 14.4643 21.3359 14.4643 20.4375V19.5V17C14.4643 16.3359 13.8905 15.75 13.2403 15.75H10.7922C10.1037 15.75 9.56818 16.3359 9.56818 17V19.5V20.4375C9.56818 21.3359 8.87967 22 8.03815 22H7.12013H5.89611C5.8196 22 5.78135 22 5.70485 22C5.6666 22 5.62835 22 5.5901 22H4.97809C4.09832 22 3.44805 21.3359 3.44805 20.4375V16.0625C3.44805 16.0625 3.44805 16.0234 3.44805 15.9844V13.25H2.22403C1.53551 13.25 1 12.7031 1 12C1 11.6484 1.11475 11.3359 1.38251 11.0625L11.1747 2.3125C11.4425 2.03906 11.7485 2 12.0162 2C12.284 2 12.59 2.07812 12.8195 2.27344L22.5735 11.0625C22.8795 11.3359 23.0325 11.6484 22.9942 12Z" fill="black"/>
</svg>
