<svg xmlns="http://www.w3.org/2000/svg" width="24" height="24" fill="currentColor" class="icon-home-solid" viewBox="0 0 24 24">
  <path d="M22.994 12c0 .703-.573 1.25-1.224 1.25h-1.224l.038 6.25v.938c0 .898-.688 1.562-1.53 1.562h-3.06c-.88 0-1.53-.664-1.53-1.562V17c0-.664-.574-1.25-1.224-1.25h-2.448c-.688 0-1.224.586-1.224 1.25v3.438c0 .898-.688 1.562-1.53 1.562h-3.06c-.88 0-1.53-.664-1.53-1.562V13.25H2.224C1.536 13.25 1 12.703 1 12c0-.352.115-.664.383-.937l9.792-8.75c.268-.274.573-.313.841-.313s.574.078.803.273l9.754 8.79c.306.273.46.585.421.937"/>
</svg>