<svg xmlns="http://www.w3.org/2000/svg" width="24" height="24" fill="currentColor" class="icon-hourglass-half-solid" viewBox="0 0 24 24">
  <path d="M6.25 2h12.5c.664 0 1.25.586 1.25 1.25 0 .703-.586 1.25-1.25 1.25v.43c0 1.68-.664 3.28-1.836 4.453L14.258 12l2.656 2.656a6.27 6.27 0 0 1 1.836 4.414v.43c.664 0 1.25.586 1.25 1.25 0 .703-.586 1.25-1.25 1.25H6.25C5.547 22 5 21.453 5 20.75c0-.664.547-1.25 1.25-1.25v-.43c0-1.64.625-3.242 1.797-4.414L10.703 12 8.047 9.383C6.875 8.21 6.25 6.609 6.25 4.93V4.5C5.547 4.5 5 3.953 5 3.25 5 2.586 5.547 2 6.25 2m2.5 2.93c0 .742.195 1.484.625 2.07h6.25c.39-.586.625-1.328.625-2.07V4.5h-7.5zM9.375 17v.04h6.25a2.5 2.5 0 0 0-.508-.587L12.5 13.797l-2.656 2.656a2 2 0 0 0-.469.547"/>
</svg>