<svg xmlns="http://www.w3.org/2000/svg" width="24" height="24" fill="currentColor" class="icon-hourglass-solid" viewBox="0 0 24 24">
  <path d="M5 3.25C5 2.586 5.547 2 6.25 2h12.5c.664 0 1.25.586 1.25 1.25 0 .703-.586 1.25-1.25 1.25v.43c0 1.68-.664 3.28-1.836 4.453L14.258 12l2.656 2.656a6.27 6.27 0 0 1 1.836 4.414v.43c.664 0 1.25.586 1.25 1.25 0 .703-.586 1.25-1.25 1.25H6.25C5.547 22 5 21.453 5 20.75c0-.664.547-1.25 1.25-1.25v-.43c0-1.64.625-3.242 1.797-4.414L10.703 12 8.047 9.383C6.875 8.21 6.25 6.609 6.25 4.93V4.5C5.547 4.5 5 3.953 5 3.25M8.75 4.5v.43a3.72 3.72 0 0 0 1.094 2.656l2.656 2.656 2.617-2.656c.703-.703 1.133-1.64 1.133-2.656V4.5zm0 15h7.5v-.43c0-.976-.43-1.914-1.133-2.617L12.5 13.797l-2.656 2.656A3.72 3.72 0 0 0 8.75 19.11v.43z"/>
</svg>