<svg xmlns="http://www.w3.org/2000/svg" width="24" height="24" fill="currentColor" class="icon-hourglass-outline" viewBox="0 0 24 24">
  <path d="M5.938 2h13.125a.95.95 0 0 1 .937.938c0 .546-.43.937-.937.937h-.313v.742a5.9 5.9 0 0 1-1.758 4.219L13.79 12l3.203 3.203a5.82 5.82 0 0 1 1.758 4.18v.742h.313a.95.95 0 0 1 .937.938c0 .546-.43.937-.937.937H5.938C5.39 22 5 21.61 5 21.063c0-.508.39-.938.938-.938h.312v-.742c0-1.563.625-3.086 1.719-4.18L11.172 12 7.969 8.836A6.04 6.04 0 0 1 6.25 4.617v-.742h-.312c-.547 0-.938-.39-.938-.937C5 2.43 5.39 2 5.938 2M12.5 13.328l-3.203 3.203a4.1 4.1 0 0 0-1.172 2.852v.742h8.75v-.742a3.96 3.96 0 0 0-1.21-2.852zm0-2.656v.039l3.164-3.203a4.05 4.05 0 0 0 1.211-2.89v-.743h-8.75v.742c0 1.094.43 2.11 1.172 2.89z"/>
</svg>