<svg xmlns="http://www.w3.org/2000/svg" width="24" height="24" fill="currentColor" class="icon-house-circle-exclamation-solid" viewBox="0 0 24 24">
  <mask id="a" width="24" height="20" x="0" y="2" maskUnits="userSpaceOnUse" style="mask-type:alpha">
    <path d="M12.01 15.75H9.607c-.676 0-1.201.586-1.201 1.25v3.438c0 .898-.676 1.562-1.502 1.562H3.866c-.826 0-1.502-.664-1.502-1.562v-4.336c0-.04 0-.079.038-.118V13.25H1.2C.525 13.25 0 12.703 0 12c0-.352.113-.664.375-.937l9.608-8.75c.262-.274.563-.313.825-.313.263 0 .563.078.789.273l7.993 7.305a9 9 0 0 0-.976-.078c-3.452 0-6.304 2.773-6.605 6.25M18.614 22c-1.952 0-3.716-1.055-4.692-2.812-.975-1.72-.975-3.868 0-5.625.976-1.72 2.74-2.813 4.692-2.813 1.914 0 3.677 1.094 4.653 2.813.976 1.757.976 3.906 0 5.624-.976 1.758-2.74 2.813-4.654 2.813m0-3.75c-.526 0-.901.43-.901.938 0 .546.375.937.9.937.488 0 .901-.39.901-.937 0-.508-.413-.938-.9-.938m0-5.625c-.338 0-.6.313-.6.625v3.125c0 .352.262.625.6.625.3 0 .6-.273.6-.625V13.25c0-.312-.3-.625-.6-.625"/>
  </mask>
  <g mask="url(#a)">
    <path d="M0 0h24v24H0z"/>
  </g>
</svg>