<svg xmlns="http://www.w3.org/2000/svg" width="24" height="24" fill="currentColor" class="icon-house-circle-check-outline" viewBox="0 0 24 24">
  <mask id="a" width="25" height="21" x="-1" y="2" maskUnits="userSpaceOnUse" style="mask-type:alpha">
    <path d="m11.356 2.234 8.358 7.387a5.5 5.5 0 0 0-1.124-.117c-.562 0-1.05.078-1.574.195l-6.222-5.51-6.597 5.823v8.871c0 .704.525 1.25 1.2 1.25h1.799v-5.94c0-.86.637-1.563 1.499-1.563h4.198a.27.27 0 0 1 .15.04c-.375.546-.637 1.172-.825 1.836H8.995v5.628h4.048c.45.742 1.05 1.407 1.724 1.876h-9.37c-1.687 0-2.999-1.368-2.999-3.127v-7.269l-.937.82a.907.907 0 0 1-1.274-.116c-.3-.391-.262-.977.112-1.33l9.895-8.754a.925.925 0 0 1 1.162 0m12.631 14.148c0 2.032-1.05 3.87-2.698 4.885-1.687 1.016-3.749 1.016-5.398 0-1.686-1.016-2.698-2.853-2.698-4.885 0-1.993 1.012-3.83 2.698-4.846 1.65-1.016 3.71-1.016 5.397 0a5.71 5.71 0 0 1 2.7 4.846m-2.886-1.68a.616.616 0 0 0-.862 0l-2.249 2.383-1.087-1.133a.616.616 0 0 0-.862 0 .68.68 0 0 0 0 .899l1.5 1.563a.616.616 0 0 0 .861 0l2.7-2.814a.68.68 0 0 0 0-.899"/>
  </mask>
  <g mask="url(#a)">
    <path d="M0 0h24v24H0z"/>
  </g>
</svg>