<svg xmlns="http://www.w3.org/2000/svg" width="24" height="24" fill="currentColor" class="icon-house-circle-check-solid" viewBox="0 0 24 24">
  <path d="M12 15.737H9.6c-.675 0-1.2.585-1.2 1.248v3.434c0 .898-.675 1.561-1.5 1.561H3.863c-.825 0-1.5-.663-1.5-1.56v-4.332c0-.04 0-.078.037-.117v-2.732H1.2c-.675 0-1.2-.546-1.2-1.249 0-.351.113-.663.375-.936l9.6-8.742c.263-.273.563-.312.825-.312s.563.078.787.273l7.988 7.298a9 9 0 0 0-.975-.078c-3.45 0-6.3 2.77-6.6 6.244m12 .624c0 2.03-1.05 3.863-2.7 4.878-1.687 1.015-3.75 1.015-5.4 0-1.687-1.015-2.7-2.849-2.7-4.878 0-1.99 1.013-3.824 2.7-4.839 1.65-1.015 3.713-1.015 5.4 0a5.7 5.7 0 0 1 2.7 4.839m-2.887-1.678a.617.617 0 0 0-.863 0L18 17.063l-1.087-1.131a.617.617 0 0 0-.863 0 .68.68 0 0 0 0 .897l1.5 1.561a.617.617 0 0 0 .863 0l2.7-2.81a.68.68 0 0 0 0-.897"/>
</svg>