<svg xmlns="http://www.w3.org/2000/svg" width="24" height="24" fill="currentColor" class="icon-info-circle-solid" viewBox="0 0 24 24">
  <path d="M12 22c-3.594 0-6.875-1.875-8.672-5-1.797-3.086-1.797-6.875 0-10C5.125 3.914 8.406 2 12 2c3.555 0 6.836 1.914 8.633 5 1.797 3.125 1.797 6.914 0 10A9.93 9.93 0 0 1 12 22m-1.562-6.875a.925.925 0 0 0-.938.938c0 .546.39.937.938.937h3.124c.508 0 .938-.39.938-.937a.95.95 0 0 0-.937-.938h-.313v-3.437a.95.95 0 0 0-.937-.938h-1.876a.925.925 0 0 0-.937.938c0 .546.39.937.938.937h.937v2.5zM12 7c-.703 0-1.25.586-1.25 1.25 0 .703.547 1.25 1.25 1.25.664 0 1.25-.547 1.25-1.25C13.25 7.586 12.664 7 12 7"/>
</svg>