<svg xmlns="http://www.w3.org/2000/svg" width="24" height="24" fill="currentColor" class="icon-key-outline" viewBox="0 0 24 24">
  <path d="M10.125 8.875c0 .43.04.82.117 1.21a.88.88 0 0 1-.234.86l-6.133 6.133v3.047h2.5v-1.562c0-.508.39-.938.938-.938h1.562v-1.562c0-.508.39-.938.938-.938h2.109l1.133-1.133a.88.88 0 0 1 .86-.234c.39.078.78.117 1.21.117 2.734 0 5-2.227 5-5 0-2.734-2.266-5-5-5-2.773 0-5 2.266-5 5m5-6.875C18.915 2 22 5.086 22 8.875a6.86 6.86 0 0 1-6.875 6.875c-.39 0-.742 0-1.094-.078l-1.054 1.055a.92.92 0 0 1-.665.273H10.75v1.563c0 .546-.43.937-.937.937H8.25v1.563c0 .546-.43.937-.937.937H2.938C2.39 22 2 21.61 2 21.063v-4.375c0-.235.078-.47.273-.665L8.328 9.97c-.078-.352-.078-.703-.078-1.094A6.86 6.86 0 0 1 15.125 2m1.25 6.875c-.703 0-1.25-.547-1.25-1.25 0-.664.547-1.25 1.25-1.25.664 0 1.25.586 1.25 1.25 0 .703-.586 1.25-1.25 1.25"/>
</svg>