<svg xmlns="http://www.w3.org/2000/svg" width="24" height="24" fill="currentColor" class="icon-key-solid" viewBox="0 0 24 24">
  <path d="M15.125 15.75c-.742 0-1.445-.078-2.11-.312l-1.288 1.289a.92.92 0 0 1-.665.273H9.5v1.563c0 .546-.43.937-.937.937H7v1.563c0 .546-.43.937-.937.937H2.938C2.39 22 2 21.61 2 21.063v-3.125c0-.235.078-.47.273-.665l6.29-6.289c-.235-.664-.313-1.367-.313-2.109A6.86 6.86 0 0 1 15.125 2C18.915 2 22 5.086 22 8.875a6.86 6.86 0 0 1-6.875 6.875m1.563-10c-.586 0-1.094.313-1.368.781-.273.508-.273 1.094 0 1.563.274.508.782.781 1.367.781.547 0 1.055-.273 1.329-.781.273-.469.273-1.055 0-1.563a1.56 1.56 0 0 0-1.328-.781"/>
</svg>