<svg width="24" height="24" viewBox="0 0 24 24" fill="none" xmlns="http://www.w3.org/2000/svg">
<path fill-rule="evenodd" clip-rule="evenodd" d="M8.875 5.5V3.9375C8.875 3.78125 8.99219 3.625 9.1875 3.625H14.8125C14.9688 3.625 15.125 3.78125 15.125 3.9375V5.5H8.875ZM7 3.9375V5.5H4.5C3.09375 5.5 2 6.63281 2 8V20C2 21.4062 3.09375 22.5 4.5 22.5H19.5C20.8672 22.5 22 21.4062 22 20V8C22 6.63281 20.8672 5.5 19.5 5.5H17V3.9375C17 2.76562 15.9844 1.75 14.8125 1.75H9.1875C7.97656 1.75 7 2.76562 7 3.9375ZM12 8.25C8.8375 8.25 6.25 10.8375 6.25 14C6.25 17.1625 8.8375 19.75 12 19.75C15.1625 19.75 17.75 17.1625 17.75 14C17.75 10.8375 15.1625 8.25 12 8.25ZM13.1919 16.6761C13.5454 16.8291 13.9696 16.7526 14.1817 16.3701C14.3231 15.9876 14.2524 15.5286 13.8989 15.2991L12.4141 14.3811V11.015C12.4141 10.556 12.1313 10.25 11.707 10.25C11.2828 10.25 11 10.556 11 11.015V14.8401C11 15.1461 11.1414 15.3756 11.3535 15.5286L13.1919 16.6761Z" fill="black"/>
</svg>
