<svg xmlns="http://www.w3.org/2000/svg" width="24" height="24" fill="currentColor" class="icon-leaf-outline" viewBox="0 0 24 24">
  <path d="M7.82 11.18c.82-.274 1.68-.43 2.617-.43h3.126a.95.95 0 0 1 .937.938c0 .546-.43.937-.937.937h-3.126a6.4 6.4 0 0 0-2.773.625c.274 2.46 2.383 4.375 4.922 4.375h.039c3.828 0 7.5-3.906 7.5-9.492 0-.508-.04-.977-.117-1.445a6.33 6.33 0 0 1-3.32.937h-4.063c-2.266 0-4.18 1.523-4.805 3.555m-2.07 1.015a6.885 6.885 0 0 1 6.875-6.445h4.063c1.093 0 2.109-.39 2.89-1.094.04-.039.078-.039.078-.078q.41-.351.703-.82c.04-.078.118-.195.157-.313.156-.234.547-.234.625 0 .078.157.117.274.156.43.117.352.234.703.312 1.055 0 .078.04.156.04.234.234.938.351 1.953.351 2.969 0 6.289-4.18 11.367-9.336 11.367h-.039a6.88 6.88 0 0 1-6.68-5.117 6.58 6.58 0 0 0-2.07 4.805v.625c0 .546-.43.937-.937.937-.547 0-.938-.39-.938-.937v-.625a8.33 8.33 0 0 1 3.75-6.993"/>
</svg>