<svg xmlns="http://www.w3.org/2000/svg" width="24" height="24" fill="currentColor" class="icon-list-outline" viewBox="0 0 24 24">
  <path d="M3.563 3.875h1.874a.95.95 0 0 1 .938.938v1.875c0 .546-.43.937-.937.937H3.563c-.547 0-.938-.39-.938-.937V4.813c0-.508.39-.938.938-.938m5.624.938h11.876A.95.95 0 0 1 22 5.75c0 .547-.43.938-.937.938H9.188c-.547 0-.938-.391-.938-.938 0-.508.39-.937.938-.937m0 6.25h11.876A.95.95 0 0 1 22 12c0 .547-.43.938-.937.938H9.188c-.547 0-.938-.391-.938-.938 0-.508.39-.937.938-.937m0 6.25h11.876a.95.95 0 0 1 .937.937c0 .547-.43.938-.937.938H9.188c-.547 0-.938-.391-.938-.938 0-.508.39-.937.938-.937m-6.562-6.25c0-.508.39-.938.938-.938h1.874a.95.95 0 0 1 .938.938v1.874c0 .547-.43.938-.937.938H3.563c-.547 0-.938-.39-.938-.937zm.938 5.312h1.874a.95.95 0 0 1 .938.938v1.875c0 .546-.43.937-.937.937H3.563c-.547 0-.938-.39-.938-.937v-1.875c0-.508.39-.938.938-.938"/>
</svg>