<svg xmlns="http://www.w3.org/2000/svg" width="24" height="24" fill="currentColor" class="icon-list-solid" viewBox="0 0 24 24">
  <path d="M3.563 3.875h1.874a.95.95 0 0 1 .938.938v1.875c0 .546-.43.937-.937.937H3.563c-.547 0-.938-.39-.938-.937V4.813c0-.508.39-.938.938-.938M9.5 4.5h11.25c.664 0 1.25.586 1.25 1.25C22 6.453 21.414 7 20.75 7H9.5c-.703 0-1.25-.547-1.25-1.25 0-.664.547-1.25 1.25-1.25m0 6.25h11.25c.664 0 1.25.586 1.25 1.25 0 .703-.586 1.25-1.25 1.25H9.5c-.703 0-1.25-.547-1.25-1.25 0-.664.547-1.25 1.25-1.25m0 6.25h11.25c.664 0 1.25.586 1.25 1.25 0 .703-.586 1.25-1.25 1.25H9.5c-.703 0-1.25-.547-1.25-1.25 0-.664.547-1.25 1.25-1.25m-6.875-5.937c0-.508.39-.938.938-.938h1.874a.95.95 0 0 1 .938.938v1.874c0 .547-.43.938-.937.938H3.563c-.547 0-.938-.39-.938-.937zm.938 5.312h1.874a.95.95 0 0 1 .938.938v1.875c0 .546-.43.937-.937.937H3.563c-.547 0-.938-.39-.938-.937v-1.875c0-.508.39-.938.938-.938"/>
</svg>