<svg xmlns="http://www.w3.org/2000/svg" width="24" height="24" fill="currentColor" class="icon-location-pin-lock-outline" viewBox="0 0 24 24">
  <path d="M9.5 19.656c.703-.937 1.602-2.148 2.5-3.437v3.242c-.625.82-1.172 1.523-1.602 2.07a1.178 1.178 0 0 1-1.835 0C6.57 18.992 2 12.938 2 9.5 2 5.36 5.36 2 9.5 2c3.71 0 6.836 2.734 7.383 6.328a4.3 4.3 0 0 0-1.797.742C14.852 6.18 12.43 3.875 9.5 3.875A5.626 5.626 0 0 0 3.875 9.5c0 .508.156 1.25.586 2.266.39.937.976 2.03 1.64 3.125 1.133 1.797 2.422 3.515 3.399 4.765M10.75 9.5c0-.664-.586-1.25-1.25-1.25-.703 0-1.25.586-1.25 1.25 0 .703.547 1.25 1.25 1.25.664 0 1.25-.547 1.25-1.25m-4.375 0c0-1.094.586-2.11 1.563-2.695.937-.547 2.148-.547 3.125 0C12 7.39 12.625 8.406 12.625 9.5c0 1.133-.625 2.148-1.562 2.734-.977.547-2.188.547-3.126 0A3.16 3.16 0 0 1 6.376 9.5m11.25 1.875c-.703 0-1.25.586-1.25 1.25V14.5h2.5v-1.875c0-.664-.586-1.25-1.25-1.25m-3.125 1.25A3.11 3.11 0 0 1 17.625 9.5a3.134 3.134 0 0 1 3.125 3.125V14.5c.664 0 1.25.586 1.25 1.25v5c0 .703-.586 1.25-1.25 1.25H14.5c-.703 0-1.25-.547-1.25-1.25v-5c0-.664.547-1.25 1.25-1.25z"/>
</svg>