<svg width="24" height="24" viewBox="0 0 24 24" fill="none" xmlns="http://www.w3.org/2000/svg">
<path d="M13.3984 21.5312C12.9297 22.1172 12.0312 22.1172 11.5625 21.5312C9.57031 18.9922 5 12.9375 5 9.5C5 5.35938 8.35938 2 12.5 2C16.6406 2 20 5.35938 20 9.5C20 12.9375 15.4297 18.9922 13.3984 21.5312ZM12.5 7C11.6016 7 10.7812 7.50781 10.3125 8.25C9.88281 9.03125 9.88281 10.0078 10.3125 10.75C10.7812 11.5312 11.6016 12 12.5 12C13.3594 12 14.1797 11.5312 14.6484 10.75C15.0781 10.0078 15.0781 9.03125 14.6484 8.25C14.1797 7.50781 13.3594 7 12.5 7Z" fill="black"/>
</svg>
