<svg width="24" height="24" viewBox="0 0 24 24" fill="none" xmlns="http://www.w3.org/2000/svg">
<path d="M13.3984 21.5312C12.9297 22.1172 12.0312 22.1172 11.5625 21.5312C9.57031 18.9922 5 12.9375 5 9.5C5 5.35938 8.35938 2 12.5 2C16.6406 2 20 5.35938 20 9.5C20 12.9375 15.4297 18.9922 13.3984 21.5312ZM9.6875 8.5625C9.14062 8.5625 8.75 8.99219 8.75 9.5C8.75 10.0469 9.14062 10.4375 9.6875 10.4375H15.3125C15.8203 10.4375 16.25 10.0469 16.25 9.5C16.25 8.99219 15.8203 8.5625 15.3125 8.5625H9.6875Z" fill="black"/>
</svg>
