<svg xmlns="http://www.w3.org/2000/svg" width="24" height="24" fill="currentColor" class="icon-location-pin-lock-solid" viewBox="0 0 24 24">
  <path d="M10.398 21.531a1.178 1.178 0 0 1-1.835 0C6.57 18.992 2 12.938 2 9.5 2 5.36 5.36 2 9.5 2c3.71 0 6.836 2.734 7.383 6.328a4.364 4.364 0 0 0-3.633 4.297v.977A2.43 2.43 0 0 0 12 15.75v3.71a169 169 0 0 1-1.602 2.071M9.5 7c-.898 0-1.719.508-2.187 1.25-.43.781-.43 1.758 0 2.5A2.54 2.54 0 0 0 9.5 12c.86 0 1.68-.469 2.148-1.25.43-.742.43-1.719 0-2.5C11.18 7.508 10.36 7 9.5 7m8.125 4.375c-.703 0-1.25.586-1.25 1.25V14.5h2.5v-1.875c0-.664-.586-1.25-1.25-1.25m-3.125 1.25A3.11 3.11 0 0 1 17.625 9.5a3.134 3.134 0 0 1 3.125 3.125V14.5c.664 0 1.25.586 1.25 1.25v5c0 .703-.586 1.25-1.25 1.25H14.5c-.703 0-1.25-.547-1.25-1.25v-5c0-.664.547-1.25 1.25-1.25z"/>
</svg>