<svg xmlns="http://www.w3.org/2000/svg" width="24" height="24" fill="currentColor" class="icon-location-pen-outline" viewBox="0 0 24 24">
  <path d="M18.125 9.5c0-3.086-2.54-5.625-5.625-5.625A5.626 5.626 0 0 0 6.875 9.5c0 .508.156 1.25.586 2.266.39.937.976 2.03 1.64 3.125 1.133 1.797 2.422 3.515 3.399 4.765.938-1.25 2.227-2.968 3.36-4.765.663-1.094 1.25-2.188 1.64-3.125.43-1.016.625-1.758.625-2.266M20 9.5c0 3.438-4.57 9.492-6.602 12.031a1.178 1.178 0 0 1-1.835 0C9.57 18.992 5 12.938 5 9.5 5 5.36 8.36 2 12.5 2S20 5.36 20 9.5m-4.219-3.32a1.485 1.485 0 0 1 0 2.11l-.586.585-2.07-2.11.586-.585c.586-.547 1.523-.547 2.07 0m-6.328 4.297 2.813-2.813 2.07 2.07-2.813 2.813a1.5 1.5 0 0 1-.585.351l-1.446.352c-.195.04-.43 0-.586-.156s-.195-.39-.156-.625l.352-1.406a1.5 1.5 0 0 1 .351-.586"/>
</svg>