<svg xmlns="http://www.w3.org/2000/svg" width="24" height="24" fill="currentColor" class="icon-location-crosshairs-solid" viewBox="0 0 24 24">
  <path d="M12 2c.664 0 1.25.586 1.25 1.25v1.367a7.56 7.56 0 0 1 6.133 6.133h1.367c.664 0 1.25.586 1.25 1.25 0 .703-.586 1.25-1.25 1.25h-1.367a7.56 7.56 0 0 1-6.133 6.172v1.328c0 .703-.586 1.25-1.25 1.25-.703 0-1.25-.547-1.25-1.25v-1.328a7.555 7.555 0 0 1-6.172-6.172H3.25C2.547 13.25 2 12.703 2 12c0-.664.547-1.25 1.25-1.25h1.328a7.56 7.56 0 0 1 6.172-6.133V3.25c0-.664.547-1.25 1.25-1.25M7 12a4.97 4.97 0 0 0 2.5 4.336c1.523.898 3.438.898 5 0 1.523-.898 2.5-2.54 2.5-4.336 0-1.758-.977-3.398-2.5-4.297-1.562-.898-3.477-.898-5 0A4.96 4.96 0 0 0 7 12m5-3.125c1.094 0 2.11.625 2.695 1.563.547.976.547 2.187 0 3.124-.586.977-1.601 1.563-2.695 1.563a3.16 3.16 0 0 1-2.734-1.562c-.547-.938-.547-2.149 0-3.126C9.852 9.5 10.867 8.876 12 8.876"/>
</svg>