<svg xmlns="http://www.w3.org/2000/svg" width="24" height="24" fill="currentColor" class="icon-location-dot-slash-solid" viewBox="0 0 24 24">
  <path d="m2.485 2.234 4.53 3.516A7.5 7.5 0 0 1 13.5 2C17.64 2 21 5.36 21 9.5c0 1.523-.898 3.555-2.07 5.586l6.68 5.273c.43.313.507.899.156 1.29-.313.43-.899.507-1.29.156L1.353 3.68c-.43-.313-.508-.899-.156-1.29.312-.43.898-.507 1.289-.156m8.554 6.68 3.594 2.813c.82-.43 1.367-1.25 1.367-2.227a2.518 2.518 0 0 0-4.96-.586m3.36 12.617a1.178 1.178 0 0 1-1.836 0C10.57 19.071 6.156 13.171 6 9.695l10.86 8.594c-.938 1.29-1.836 2.422-2.461 3.242"/>
</svg>