<svg xmlns="http://www.w3.org/2000/svg" width="24" height="24" fill="currentColor" class="icon-location-plus-solid" viewBox="0 0 24 24">
  <path d="M12.898 21.56a1.177 1.177 0 0 1-1.835 0C9.07 19.017 4.5 12.954 4.5 9.51 4.5 5.364 7.86 2 12 2s7.5 3.364 7.5 7.511c0 3.443-4.57 9.506-6.602 12.049m-1.835-8.606c0 .547.39.938.937.938a.926.926 0 0 0 .938-.938V10.45h2.5a.926.926 0 0 0 .937-.939.95.95 0 0 0-.937-.939h-2.5V6.068A.95.95 0 0 0 12 5.13a.926.926 0 0 0-.937.938v2.504h-2.5a.926.926 0 0 0-.938.939c0 .548.39.939.938.939h2.5z"/>
</svg>