<svg xmlns="http://www.w3.org/2000/svg" width="24" height="24" fill="currentColor" class="icon-location-crosshairs-slash-solid" viewBox="0 0 24 24">
  <path d="m2.485 2.234 5.703 4.454a7.8 7.8 0 0 1 4.062-2.07V3.25c0-.664.547-1.25 1.25-1.25.664 0 1.25.586 1.25 1.25v1.367a7.56 7.56 0 0 1 6.133 6.133h1.367c.664 0 1.25.586 1.25 1.25 0 .703-.586 1.25-1.25 1.25h-1.367a7.6 7.6 0 0 1-.976 2.617l5.703 4.492c.43.313.507.899.156 1.29-.313.43-.899.507-1.29.156L1.353 3.68c-.43-.313-.508-.899-.156-1.29.312-.43.898-.507 1.289-.156M10.18 8.25l1.523 1.172c.508-.313 1.133-.547 1.797-.547A3.134 3.134 0 0 1 16.625 12c0 .39-.078.781-.234 1.133l1.523 1.172A4.9 4.9 0 0 0 18.5 12c0-2.734-2.265-5-5-5a5 5 0 0 0-3.32 1.25m6.992 10.273a7.5 7.5 0 0 1-2.422.899v1.328c0 .703-.586 1.25-1.25 1.25-.703 0-1.25-.547-1.25-1.25v-1.328a7.56 7.56 0 0 1-6.172-6.133H4.75c-.703 0-1.25-.586-1.25-1.25 0-.703.547-1.25 1.25-1.25h1.328c.04-.312.118-.586.196-.86L8.5 11.688V12c0 2.773 2.227 5 5 5 .508 0 1.016-.078 1.485-.195z"/>
</svg>