<svg xmlns="http://www.w3.org/2000/svg" width="24" height="24" fill="currentColor" class="icon-location-check-solid" viewBox="0 0 24 24">
  <mask id="a" width="15" height="20" x="5" y="2" maskUnits="userSpaceOnUse" style="mask-type:alpha">
    <path d="M13.398 21.531a1.178 1.178 0 0 1-1.835 0C9.57 18.992 5 12.938 5 9.5 5 5.36 8.36 2 12.5 2S20 5.36 20 9.5c0 3.438-4.57 9.492-6.602 12.031m3.516-13.867h-.039c.39-.351.39-.937 0-1.328a.92.92 0 0 0-1.29 0l-4.374 4.375-1.836-1.836a.855.855 0 0 0-1.29 0 .856.856 0 0 0 0 1.29l2.5 2.5c.352.39.938.39 1.33 0z"/>
  </mask>
  <g mask="url(#a)">
    <path d="M0 0h24v24H0z"/>
  </g>
</svg>