<svg width="24" height="24" viewBox="0 0 24 24" fill="none" xmlns="http://www.w3.org/2000/svg">
<path d="M15 7.625V9.5H16.25C17.6172 9.5 18.75 10.6328 18.75 12V19.5C18.75 20.9062 17.6172 22 16.25 22H3.75C2.34375 22 1.25 20.9062 1.25 19.5V12C1.25 10.6328 2.34375 9.5 3.75 9.5H12.5V7.625C12.5 4.53906 15 2 18.125 2C21.2109 2 23.75 4.53906 23.75 7.625V9.5C23.75 10.2031 23.1641 10.75 22.5 10.75C21.7969 10.75 21.25 10.2031 21.25 9.5V7.625C21.25 5.90625 19.8438 4.5 18.125 4.5C16.3672 4.5 15 5.90625 15 7.625Z" fill="black"/>
</svg>
