<svg xmlns="http://www.w3.org/2000/svg" width="24" height="24" fill="currentColor" class="icon-lock-open-outline" viewBox="0 0 24 24">
  <path d="M15 7v2.5h1.25c1.367 0 2.5 1.133 2.5 2.5v7.5c0 1.406-1.133 2.5-2.5 2.5H3.75a2.47 2.47 0 0 1-2.5-2.5V12c0-1.367 1.094-2.5 2.5-2.5h9.375V7c0-2.734 2.227-5 5-5 2.734 0 5 2.266 5 5v2.813c0 .546-.43.937-.937.937-.547 0-.938-.39-.938-.937V7a3.134 3.134 0 0 0-3.125-3.125A3.11 3.11 0 0 0 15 7M3.75 11.375a.64.64 0 0 0-.625.625v7.5c0 .352.273.625.625.625h12.5a.64.64 0 0 0 .625-.625V12c0-.312-.312-.625-.625-.625z"/>
</svg>