<svg xmlns="http://www.w3.org/2000/svg" width="24" height="24" fill="currentColor" class="icon-map-location-dot-solid" viewBox="0 0 24 24">
  <path d="M17.188 6.688c0 2.148-2.891 5.937-4.141 7.5a.694.694 0 0 1-1.133 0c-1.25-1.563-4.101-5.352-4.101-7.5A4.676 4.676 0 0 1 12.5 2a4.7 4.7 0 0 1 4.688 4.688m.312 3.164.352-.82c.039-.04.039-.079.078-.118l4.53-1.836c.587-.234 1.29.195 1.29.86v10.585a.96.96 0 0 1-.625.899L17.5 21.648zM6.602 7.43c.117.547.273 1.093.507 1.601.118.274.235.547.391.82v9.805l-5 1.992a.916.916 0 0 1-1.25-.859V10.203c0-.39.234-.742.586-.86zm7.421 7.539a36 36 0 0 0 2.227-3.008v9.766l-7.5-2.149v-7.617a29 29 0 0 0 2.188 3.008 1.944 1.944 0 0 0 3.085 0M12.5 7.938a1.48 1.48 0 0 0 1.328-.782c.274-.468.274-1.054 0-1.562a1.56 1.56 0 0 0-1.328-.782c-.586 0-1.094.313-1.367.782-.274.508-.274 1.093 0 1.562.273.508.781.782 1.367.782"/>
</svg>