<svg xmlns="http://www.w3.org/2000/svg" width="24" height="24" fill="currentColor" class="icon-map-pin-solid" viewBox="0 0 24 24">
  <path d="M6.875 7.625a5.58 5.58 0 0 1 2.813-4.844c1.718-1.015 3.867-1.015 5.624 0 1.72 1.016 2.813 2.852 2.813 4.844 0 2.031-1.094 3.867-2.812 4.883-1.758 1.015-3.907 1.015-5.626 0a5.6 5.6 0 0 1-2.812-4.883m5.625-2.5a.64.64 0 0 0 .625-.625c0-.312-.312-.625-.625-.625-2.07 0-3.75 1.68-3.75 3.75 0 .352.273.625.625.625A.64.64 0 0 0 10 7.625c0-1.367 1.094-2.5 2.5-2.5M11.25 20.75v-6.328c.39.039.82.078 1.25.078.39 0 .82-.04 1.25-.078v6.328c0 .703-.586 1.25-1.25 1.25-.703 0-1.25-.547-1.25-1.25"/>
</svg>