<svg xmlns="http://www.w3.org/2000/svg" width="24" height="24" fill="currentColor" class="icon-map-pin-outline" viewBox="0 0 24 24">
  <path d="M8.75 7.625c0 1.367.703 2.578 1.875 3.281 1.133.664 2.578.664 3.75 0 1.133-.703 1.875-1.914 1.875-3.281 0-1.328-.742-2.54-1.875-3.242-1.172-.664-2.617-.664-3.75 0-1.172.703-1.875 1.914-1.875 3.242m4.688 5.547v7.89c0 .547-.43.938-.938.938-.547 0-.937-.39-.937-.937v-7.891c-2.696-.43-4.688-2.735-4.688-5.547C6.875 4.539 9.375 2 12.5 2c3.086 0 5.625 2.54 5.625 5.625a5.6 5.6 0 0 1-4.687 5.547"/>
</svg>