<svg xmlns="http://www.w3.org/2000/svg" width="24" height="24" fill="currentColor" class="icon-merge-solid" viewBox="0 0 24 24">
  <path d="M3.25 4.5h3.79c1.132 0 2.226.547 2.929 1.406l3.867 4.883H17V9.54c0-.508.273-.976.742-1.172a1.26 1.26 0 0 1 1.367.274l2.5 2.5c.235.234.391.547.391.898 0 .313-.156.625-.39.86l-2.5 2.5a1.26 1.26 0 0 1-1.368.273c-.469-.195-.742-.664-.742-1.172v-1.25h-3.164l-3.867 4.844c-.742.898-1.797 1.406-2.93 1.406H3.25c-.703 0-1.25-.547-1.25-1.25 0-.664.547-1.25 1.25-1.25h3.79c.35 0 .741-.156.976-.469L11.648 12 8.016 7.469C7.78 7.195 7.39 7 7.039 7H3.25C2.547 7 2 6.453 2 5.75c0-.664.547-1.25 1.25-1.25"/>
</svg>