<svg width="25" height="24" viewBox="0 0 25 24" fill="none" xmlns="http://www.w3.org/2000/svg">
<path d="M2.5 2H13.75C15.1172 2 16.25 3.13281 16.25 4.5V12C16.25 13.4062 15.1172 14.5 13.75 14.5H7.89062L4.72656 16.8828C4.53125 17.0391 4.29688 17.0391 4.0625 16.9609C3.86719 16.8438 3.75 16.6484 3.75 16.375V14.5H2.5C1.09375 14.5 0 13.4062 0 12V4.5C0 3.13281 1.09375 2 2.5 2ZM13.75 15.75C15.8203 15.75 17.5 14.0703 17.5 12V7H22.5C23.8672 7 25 8.13281 25 9.5V17C25 18.4062 23.8672 19.5 22.5 19.5H21.25V21.375C21.25 21.6484 21.0938 21.8438 20.8984 21.9609C20.6641 22.0391 20.4297 22.0391 20.2344 21.8828L17.0703 19.5H12.5C11.0938 19.5 10 18.4062 10 17V15.75H13.75Z" fill="black"/>
</svg>
