<svg xmlns="http://www.w3.org/2000/svg" width="24" height="24" fill="currentColor" class="icon-messages-outline" viewBox="0 0 24 24">
  <path d="M1.875 4.813v6.875c0 .546.39.937.938.937h1.874a.95.95 0 0 1 .938.938v.78l2.266-1.562c.156-.078.351-.156.547-.156h5c.507 0 .937-.39.937-.937V4.812a.95.95 0 0 0-.937-.937H2.813a.925.925 0 0 0-.938.938M2.813 2h10.625c1.523 0 2.812 1.29 2.812 2.813v6.875a2.826 2.826 0 0 1-2.812 2.812H8.71l-3.516 2.344a.97.97 0 0 1-.976.078.98.98 0 0 1-.469-.86V14.5h-.937A2.8 2.8 0 0 1 0 11.688V4.812A2.826 2.826 0 0 1 2.813 2M10 16.688v-.938h1.875v.938c0 .546.39.937.938.937h3.75c.156 0 .351.078.507.156l2.305 1.563v-.782c0-.507.39-.937.938-.937h1.875c.507 0 .937-.39.937-.937V9.813a.95.95 0 0 0-.937-.938H17.5V7h4.688C23.71 7 25 8.29 25 9.813v6.874a2.826 2.826 0 0 1-2.812 2.813h-.938v1.563c0 .351-.195.664-.508.859-.312.156-.664.117-.976-.078L16.25 19.5h-3.437A2.8 2.8 0 0 1 10 16.688"/>
</svg>