<svg xmlns="http://www.w3.org/2000/svg" width="24" height="24" fill="currentColor" class="icon-messages-solid" viewBox="0 0 24 24">
  <path d="M2.5 2h11.25c1.367 0 2.5 1.133 2.5 2.5V12c0 1.406-1.133 2.5-2.5 2.5H7.89l-3.163 2.383c-.196.156-.43.156-.665.078-.195-.117-.312-.313-.312-.586V14.5H2.5A2.47 2.47 0 0 1 0 12V4.5C0 3.133 1.094 2 2.5 2m11.25 13.75c2.07 0 3.75-1.68 3.75-3.75V7h5C23.867 7 25 8.133 25 9.5V17c0 1.406-1.133 2.5-2.5 2.5h-1.25v1.875c0 .273-.156.469-.352.586-.234.078-.468.078-.664-.078L17.07 19.5H12.5A2.47 2.47 0 0 1 10 17v-1.25z"/>
</svg>