<svg xmlns="http://www.w3.org/2000/svg" width="24" height="24" fill="currentColor" class="icon-microphone-solid" viewBox="0 0 24 24">
  <path d="M12.5 2c2.07 0 3.75 1.68 3.75 3.75V12a3.751 3.751 0 0 1-7.5 0V5.75C8.75 3.68 10.43 2 12.5 2m-5 8.438V12c0 2.773 2.227 5 5 5 2.734 0 5-2.227 5-5v-1.562c0-.508.39-.938.938-.938a.95.95 0 0 1 .937.938V12c0 3.516-2.617 6.367-5.937 6.836v1.289h1.874a.95.95 0 0 1 .938.938c0 .546-.43.937-.937.937H9.688c-.547 0-.938-.39-.938-.937 0-.508.39-.938.938-.938h1.874v-1.29A6.88 6.88 0 0 1 5.626 12v-1.562c0-.508.39-.938.938-.938a.95.95 0 0 1 .937.938"/>
</svg>