<svg width="24" height="24" viewBox="0 0 24 24" fill="none" xmlns="http://www.w3.org/2000/svg">
<path d="M12 22C8.40625 22 5.125 20.125 3.32812 17C1.53125 13.9141 1.53125 10.125 3.32812 7C5.125 3.91406 8.40625 2 12 2C15.5547 2 18.8359 3.91406 20.6328 7C22.4297 10.125 22.4297 13.9141 20.6328 17C18.8359 20.125 15.5547 22 12 22ZM9.1875 11.0625C8.64062 11.0625 8.25 11.4922 8.25 12C8.25 12.5469 8.64062 12.9375 9.1875 12.9375H14.8125C15.3203 12.9375 15.75 12.5469 15.75 12C15.75 11.4922 15.3203 11.0625 14.8125 11.0625H9.1875Z" fill="black"/>
</svg>
