<svg xmlns="http://www.w3.org/2000/svg" width="24" height="24" fill="currentColor" class="icon-money-bill-solid" viewBox="0 0 24 24">
  <path d="M3.75 4.5h17.5c1.367 0 2.5 1.133 2.5 2.5v10c0 1.406-1.133 2.5-2.5 2.5H3.75a2.47 2.47 0 0 1-2.5-2.5V7c0-1.367 1.094-2.5 2.5-2.5M6.25 17c0-1.367-1.133-2.5-2.5-2.5V17zm-2.5-7.5c1.367 0 2.5-1.094 2.5-2.5h-2.5zm15 7.5h2.5v-2.5a2.49 2.49 0 0 0-2.5 2.5m2.5-7.5V7h-2.5c0 1.406 1.094 2.5 2.5 2.5M12.5 8.25c-1.367 0-2.578.742-3.281 1.875-.664 1.172-.664 2.617 0 3.75.703 1.172 1.914 1.875 3.281 1.875 1.328 0 2.54-.703 3.242-1.875.664-1.133.664-2.578 0-3.75C15.04 8.992 13.828 8.25 12.5 8.25"/>
</svg>