<svg xmlns="http://www.w3.org/2000/svg" width="24" height="24" fill="currentColor" class="icon-money-bill-outline" viewBox="0 0 24 24">
  <path d="M5.625 6.375c0 1.406-1.133 2.5-2.5 2.5v6.25c1.367 0 2.5 1.133 2.5 2.5h13.75c0-1.367 1.094-2.5 2.5-2.5v-6.25a2.47 2.47 0 0 1-2.5-2.5zM1.25 7c0-1.367 1.094-2.5 2.5-2.5h17.5c1.367 0 2.5 1.133 2.5 2.5v10c0 1.406-1.133 2.5-2.5 2.5H3.75a2.47 2.47 0 0 1-2.5-2.5zM12.5 8.25c1.328 0 2.54.742 3.242 1.875.664 1.172.664 2.617 0 3.75-.703 1.172-1.914 1.875-3.242 1.875-1.367 0-2.578-.703-3.281-1.875-.664-1.133-.664-2.578 0-3.75.703-1.133 1.914-1.875 3.281-1.875"/>
</svg>