<svg xmlns="http://www.w3.org/2000/svg" width="24" height="24" fill="currentColor" class="icon-moon-stars-outline" viewBox="0 0 24 24">
  <path d="m13.523 7.39-.43-1.484-1.484-.43c-.156-.038-.234-.195-.234-.351 0-.117.078-.273.234-.312l1.485-.43.43-1.485a.375.375 0 0 1 .351-.273c.117 0 .273.117.313.273l.43 1.485 1.484.43c.156.039.273.195.273.312a.375.375 0 0 1-.273.352l-1.485.43-.43 1.484c-.039.156-.195.234-.312.234-.156 0-.312-.078-.352-.234m4.22 6.758-.626-2.265-2.265-.625c-.235-.078-.352-.274-.352-.508 0-.195.117-.39.352-.469l2.265-.625.625-2.265c.078-.235.274-.391.508-.391.195 0 .39.156.469.39l.625 2.266 2.265.625c.235.078.391.274.391.469 0 .234-.156.43-.39.508l-2.266.625-.625 2.265a.49.49 0 0 1-.469.352c-.234 0-.43-.117-.508-.352M3.874 14.5c0 3.125 2.5 5.625 5.625 5.625a5.76 5.76 0 0 0 3.125-.937A6.246 6.246 0 0 1 7 12.938c0-1.485.508-2.852 1.406-3.946A5.62 5.62 0 0 0 3.875 14.5M9.5 7c.586 0 1.172.078 1.719.234.39.079.664.391.703.82.039.391-.156.743-.547.938-1.484.703-2.54 2.188-2.54 3.945 0 2.422 1.993 4.376 4.376 4.376a4.3 4.3 0 0 0 1.562-.274.93.93 0 0 1 1.016.313c.274.312.313.742.078 1.054C14.578 20.594 12.195 22 9.5 22 5.36 22 2 18.64 2 14.5S5.36 7 9.5 7"/>
</svg>