<svg xmlns="http://www.w3.org/2000/svg" width="24" height="24" fill="currentColor" class="icon-object-group-outline" viewBox="0 0 24 24">
  <path d="M3.125 6.531A1.83 1.83 0 0 1 2.5 5.125c0-1.016.82-1.875 1.875-1.875.547 0 1.055.273 1.367.625H19.22c.351-.352.82-.625 1.406-.625 1.016 0 1.875.86 1.875 1.875 0 .586-.273 1.055-.625 1.406v10.977c.352.312.625.82.625 1.367 0 1.055-.86 1.875-1.875 1.875a1.83 1.83 0 0 1-1.406-.625H5.742c-.312.39-.82.625-1.367.625A1.85 1.85 0 0 1 2.5 18.875c0-.547.234-1.055.625-1.367zm3.008-.781A1.98 1.98 0 0 1 5 6.922v10.195c.508.195.938.625 1.133 1.133h12.695A1.98 1.98 0 0 1 20 17.117V6.922a1.94 1.94 0 0 1-1.172-1.172zm.117 2.5C6.25 7.586 6.797 7 7.5 7h5c.664 0 1.25.586 1.25 1.25V12c0 .703-.586 1.25-1.25 1.25h-5c-.703 0-1.25-.547-1.25-1.25zm5 6.25h1.25c1.367 0 2.5-1.094 2.5-2.5v-1.25h2.5c.664 0 1.25.586 1.25 1.25v3.75c0 .703-.586 1.25-1.25 1.25h-5c-.703 0-1.25-.547-1.25-1.25z"/>
</svg>