<svg xmlns="http://www.w3.org/2000/svg" width="24" height="24" fill="currentColor" class="icon-object-group-solid" viewBox="0 0 24 24">
  <path d="M2.5 6.688c-.781-.43-1.25-1.25-1.25-2.188 0-1.367 1.094-2.5 2.5-2.5.898 0 1.719.508 2.148 1.25h13.165A2.53 2.53 0 0 1 21.25 2c1.367 0 2.5 1.133 2.5 2.5 0 .938-.508 1.758-1.25 2.188v10.664c.742.43 1.25 1.25 1.25 2.148 0 1.406-1.133 2.5-2.5 2.5-.937 0-1.758-.469-2.187-1.25H5.898A2.43 2.43 0 0 1 3.75 22a2.47 2.47 0 0 1-2.5-2.5 2.43 2.43 0 0 1 1.25-2.148zm16.563-.938H5.898c-.234.39-.546.703-.898.938v10.664c.352.234.664.546.898.898h13.165a2.95 2.95 0 0 1 .937-.898V6.688a2.7 2.7 0 0 1-.937-.938M6.25 8.25C6.25 7.586 6.797 7 7.5 7h5c.664 0 1.25.586 1.25 1.25V12c0 .703-.586 1.25-1.25 1.25h-5c-.703 0-1.25-.547-1.25-1.25zm5 6.25h1.25c1.367 0 2.5-1.094 2.5-2.5v-1.25h2.5c.664 0 1.25.586 1.25 1.25v3.75c0 .703-.586 1.25-1.25 1.25h-5c-.703 0-1.25-.547-1.25-1.25z"/>
</svg>