<svg xmlns="http://www.w3.org/2000/svg" width="24" height="24" fill="currentColor" class="icon-octagon-outline" viewBox="0 0 24 24">
  <path d="M8.797 4.188 4.148 8.836c-.195.156-.273.43-.273.664v5.04c0 .233.078.468.273.663L2.82 16.531l1.328-1.328 4.649 4.649c.195.195.43.273.664.273H14.5c.234 0 .508-.078.664-.273l4.649-4.649a.92.92 0 0 0 .273-.664V9.5c0-.234-.078-.508-.273-.664l-4.649-4.648c-.156-.196-.43-.274-.664-.274H9.46a.92.92 0 0 0-.663.273M2 14.539V9.5c0-.742.273-1.445.82-1.992l4.65-4.649a2.78 2.78 0 0 1 1.992-.82H14.5c.742 0 1.445.273 1.992.82l4.649 4.649c.547.547.82 1.25.82 1.992v5.04c0 .741-.273 1.444-.82 1.991l-4.649 4.649c-.547.547-1.25.82-1.992.82H9.46a2.78 2.78 0 0 1-1.991-.82L2.82 16.53A2.78 2.78 0 0 1 2 14.54"/>
</svg>