<svg xmlns="http://www.w3.org/2000/svg" width="24" height="24" fill="currentColor" class="icon-palette-solid" viewBox="0 0 24 24">
  <path d="M22 12v.117c-.04 1.445-1.328 2.383-2.773 2.383h-3.79c-1.054 0-1.874.86-1.874 1.875 0 .156 0 .273.039.39.078.43.234.782.39 1.172.235.547.469 1.094.469 1.641 0 1.25-.82 2.383-2.07 2.422h-.43C6.453 22 2 17.547 2 12 2 6.492 6.453 2 12 2c5.508 0 10 4.492 10 10M7 13.25C7 12.586 6.414 12 5.75 12c-.703 0-1.25.586-1.25 1.25 0 .703.547 1.25 1.25 1.25.664 0 1.25-.547 1.25-1.25M7 9.5c.664 0 1.25-.547 1.25-1.25C8.25 7.586 7.664 7 7 7c-.703 0-1.25.586-1.25 1.25 0 .703.547 1.25 1.25 1.25m6.25-3.75c0-.664-.586-1.25-1.25-1.25-.703 0-1.25.586-1.25 1.25 0 .703.547 1.25 1.25 1.25.664 0 1.25-.547 1.25-1.25M17 9.5c.664 0 1.25-.547 1.25-1.25C18.25 7.586 17.664 7 17 7c-.703 0-1.25.586-1.25 1.25 0 .703.547 1.25 1.25 1.25"/>
</svg>