<svg xmlns="http://www.w3.org/2000/svg" width="24" height="24" fill="currentColor" class="icon-paper-plane-solid" viewBox="0 0 24 24">
  <mask id="a" width="21" height="21" x="1" y="2" maskUnits="userSpaceOnUse" style="mask-type:alpha">
    <path d="M21.453 2.234c.39.274.586.743.508 1.211l-2.5 16.25c-.04.391-.273.703-.625.899a1.2 1.2 0 0 1-1.094.078l-4.648-1.953-2.695 2.89a1.21 1.21 0 0 1-1.368.313c-.468-.156-.78-.625-.78-1.172v-3.242c0-.156.038-.313.155-.43L14.93 9.93a.613.613 0 0 0 0-.86.613.613 0 0 0-.86 0l-7.93 7.032-3.476-1.72A1.24 1.24 0 0 1 2 13.29c-.039-.43.195-.86.625-1.094l17.5-10c.39-.234.938-.234 1.328.04"/>
  </mask>
  <g mask="url(#a)">
    <path d="M0 0h24v24H0z"/>
  </g>
</svg>