<svg width="24" height="24" viewBox="0 0 24 24" fill="none" xmlns="http://www.w3.org/2000/svg">
<path fill-rule="evenodd" clip-rule="evenodd" d="M12 17.156V5.3396C12 4.95288 12.0893 4.43726 12.4464 4.00757C13.5625 2.67554 16.5982 0.999756 22 0.999756C22.7115 0.999756 23.3774 1.02574 24 1.07389V3.14228C23.3926 3.09097 22.7276 3.06226 22 3.06226C17.4018 3.06226 15.0804 4.39429 14.2768 5.12476H24V7.18726H14.1429V10.6248H24V12.6873H14.1429V17.156C14.1429 17.7576 14.5893 18.1873 15.2143 18.1873H24V20.2498H15.5714V21.9685C15.5714 22.5701 15.0804 22.9998 14.5 22.9998C13.875 22.9998 13.4286 22.5701 13.4286 21.9685V19.7341C12.5357 19.1755 12 18.2302 12 17.156ZM17 14.0623C17.7589 14.0623 18.4286 14.7068 18.4286 15.4373C18.4286 16.2107 17.7589 16.8123 17 16.8123C16.1964 16.8123 15.5714 16.2107 15.5714 15.4373C15.5714 14.7068 16.1964 14.0623 17 14.0623ZM4.23904 6.21082C4.70745 6.49187 4.98849 6.96027 4.98849 7.49112C4.98849 8.05321 4.70745 8.52161 4.23904 8.80265C3.80187 9.08369 3.20856 9.08369 2.74015 8.80265C2.30298 8.52161 1.99071 8.05321 1.99071 7.49112C1.99071 6.96027 2.30298 6.49187 2.74015 6.21082C3.20856 5.92978 3.80187 5.92978 4.23904 6.21082ZM5.5818 14.3298L4.64499 11.5194C4.39518 11.5506 4.17659 11.6443 3.958 11.738V11.7692L4.98849 15.0168L5.48812 14.6108C5.5818 14.5484 5.61302 14.4235 5.5818 14.3298ZM3.73941 16.0473L2.83384 13.1744L2.52157 14.3298C2.45911 14.5484 2.33421 14.7358 2.17807 14.8607L1.27249 15.7662C0.991452 16.0785 0.52305 16.0785 0.210781 15.7662C-0.0702604 15.4852 -0.0702604 15.0168 0.210781 14.7045L1.08513 13.8614L1.42863 12.6748C1.8658 11.0822 3.33346 9.98927 4.95726 9.98927H5.11339C5.61302 9.98927 6.11265 10.083 6.58106 10.2391C7.83013 10.645 8.86062 11.5818 9.39147 12.7685L9.67251 13.4555C9.85987 13.8302 9.67251 14.2673 9.29779 14.4235C8.92307 14.6108 8.48589 14.4235 8.32976 14.0488L8.01749 13.393C7.674 12.6123 7.04946 12.019 6.26879 11.738L6.98701 13.8614C7.23682 14.5484 6.98701 15.2978 6.42492 15.7662L3.17733 18.4205L2.49034 21.4183C2.39666 21.8242 1.99071 22.0741 1.58476 21.9804C1.17881 21.8867 0.928998 21.4807 1.02268 21.0748L1.7409 17.9833C1.80335 17.7335 1.95948 17.4837 2.17807 17.2964L3.73941 16.0473ZM6.89332 16.703L7.64277 18.5767L9.76619 20.7313C10.0785 21.0123 10.0785 21.4807 9.76619 21.7618C9.48515 22.0741 9.01675 22.0741 8.70448 21.7618L6.54983 19.6071C6.42492 19.4822 6.33124 19.3261 6.26879 19.17L5.67548 17.6711L6.89332 16.703Z" fill="black"/>
</svg>
