<svg width="24" height="24" viewBox="0 0 24 24" fill="none" xmlns="http://www.w3.org/2000/svg">
<path fill-rule="evenodd" clip-rule="evenodd" d="M12 5.12512V4.43762C12 2.547 16.4196 1.00012 22 1.00012C22.6852 1.00012 23.354 1.02382 24 1.06895V5.12512H16.2857C15.4821 5.12512 14.8571 5.76965 14.8571 6.50012V12.0001C14.8571 12.7736 15.4821 13.3751 16.2857 13.3751H24V20.2501H17.7143V21.6251C17.7143 22.3986 17.0446 23.0001 16.2857 23.0001H14.8571C14.0536 23.0001 13.4286 22.3986 13.4286 21.6251V20.2501C12.625 20.2501 12 19.6486 12 18.8751V5.12512ZM15.5714 18.1876C16.3304 18.1876 17 17.5861 17 16.8126C17 16.0822 16.3304 15.4376 15.5714 15.4376C14.7679 15.4376 14.1429 16.0822 14.1429 16.8126C14.1429 17.5861 14.7679 18.1876 15.5714 18.1876ZM4.23112 6.21075C4.69941 6.49172 4.98039 6.96002 4.98039 7.49075C4.98039 8.0527 4.69941 8.52099 4.23112 8.80197C3.79405 9.08294 3.20088 9.08294 2.73258 8.80197C2.29551 8.52099 1.98332 8.0527 1.98332 7.49075C1.98332 6.96002 2.29551 6.49172 2.73258 6.21075C3.20088 5.92977 3.79405 5.92977 4.23112 6.21075ZM6.08868 12.2517C6.07307 12.2439 6.05746 12.2361 6.04185 12.2361L6.57258 14.2029C6.7599 14.8586 6.57258 15.5766 6.10429 16.0761L3.91893 18.48L3.2321 21.2273C3.076 21.7581 2.54527 22.1015 2.01454 21.9454C1.4838 21.8205 1.14039 21.2898 1.26527 20.759L1.98332 17.8868C2.04576 17.6371 2.17063 17.4186 2.35795 17.2312L3.88771 15.5454L3.29454 13.4849L2.98234 14.2029C2.85746 14.5464 2.60771 14.8273 2.26429 14.9834L1.45258 15.3893C0.953072 15.639 0.359901 15.4517 0.110145 14.9522C-0.139611 14.4527 0.0477063 13.8595 0.547219 13.6098L1.20283 13.2664L1.70234 12.1112C2.23307 10.8312 3.48185 9.98831 4.88673 9.98831C5.60478 9.98831 6.29161 10.1444 6.94722 10.4254L7.19697 10.5503C8.22722 10.9873 9.00771 11.8615 9.35112 12.9229L9.44478 13.1727C9.60088 13.7034 9.3199 14.2654 8.82039 14.4527C8.28966 14.6088 7.72771 14.3278 7.54039 13.7971L7.47795 13.5786C7.29063 13.0478 6.88478 12.6107 6.38527 12.361L6.13551 12.2673C6.1199 12.2673 6.10429 12.2595 6.08868 12.2517ZM7.0721 16.482L7.85258 18.4176L9.69454 20.2907C10.1004 20.6654 10.1004 21.321 9.69454 21.6956C9.3199 22.1015 8.66429 22.1015 8.28966 21.6956L6.35405 19.76C6.22917 19.6351 6.10429 19.4478 6.04185 19.2605L5.57356 18.1366L6.85356 16.7629C6.88478 16.7161 6.92381 16.6693 6.96283 16.6225C7.00185 16.5756 7.04088 16.5288 7.0721 16.482Z" fill="black"/>
</svg>
