<svg xmlns="http://www.w3.org/2000/svg" width="24" height="24" fill="currentColor" class="icon-passenger-boarding-outline" viewBox="0 0 24 24">
  <path fill-rule="evenodd" d="M12 17.156V5.34c0-.387.09-.902.446-1.332C13.563 2.676 16.598 1 22 1q1.067.001 2 .074v2.069a24 24 0 0 0-2-.08c-4.598 0-6.92 1.332-7.723 2.062H24v2.063h-9.857v3.437H24v2.063h-9.857v4.468c0 .602.446 1.032 1.071 1.032H24v2.062h-8.429v1.719c0 .601-.49 1.031-1.071 1.031-.625 0-1.071-.43-1.071-1.031v-2.235A3 3 0 0 1 12 17.156m5-3.093c.759 0 1.429.644 1.429 1.374 0 .774-.67 1.376-1.429 1.376-.804 0-1.429-.602-1.429-1.375 0-.731.625-1.376 1.429-1.376M5.761 6.21c-.468.28-.75.75-.75 1.28 0 .562.282 1.03.75 1.312.438.28 1.03.28 1.5 0 .436-.281.749-.75.749-1.312 0-.53-.313-1-.75-1.28-.468-.281-1.061-.281-1.499 0M4.42 14.33l.936-2.81c.25.03.469.124.687.218v.031l-1.03 3.248-.5-.406a.25.25 0 0 1-.093-.281m1.842 1.717.906-2.873.312 1.156c.062.218.187.406.343.53l.906.906c.28.312.75.312 1.062 0 .28-.28.28-.75 0-1.062l-.875-.843-.343-1.186a3.67 3.67 0 0 0-3.529-2.686h-.156c-.5 0-1 .094-1.468.25a4.7 4.7 0 0 0-2.81 2.53l-.281.686a.71.71 0 0 0 .375.968c.374.188.812 0 .968-.374l.312-.656a3.04 3.04 0 0 1 1.749-1.655l-.719 2.123c-.25.687 0 1.437.562 1.905l3.248 2.655.687 2.997a.753.753 0 1 0 1.468-.343l-.719-3.092a1.36 1.36 0 0 0-.437-.687zm-3.154.656-.75 1.874L.235 20.73a.684.684 0 0 0 0 1.03c.281.313.75.313 1.062 0l2.155-2.154a1.3 1.3 0 0 0 .28-.437l.594-1.499z"/>
</svg>