<svg width="24" height="24" viewBox="0 0 24 24" fill="none" xmlns="http://www.w3.org/2000/svg">
<path fill-rule="evenodd" clip-rule="evenodd" d="M12 5.125V4.4375C12 2.54688 16.4196 1 22 1C22.6852 1 23.354 1.0237 24 1.06882V5.125H16.2857C15.4821 5.125 14.8571 5.76953 14.8571 6.5V12C14.8571 12.7734 15.4821 13.375 16.2857 13.375H24V20.25H17.7143V21.625C17.7143 22.3984 17.0446 23 16.2857 23H14.8571C14.0536 23 13.4286 22.3984 13.4286 21.625V20.25C12.625 20.25 12 19.6484 12 18.875V5.125ZM15.5714 18.1875C16.3304 18.1875 17 17.5859 17 16.8125C17 16.082 16.3304 15.4375 15.5714 15.4375C14.7679 15.4375 14.1429 16.082 14.1429 16.8125C14.1429 17.5859 14.7679 18.1875 15.5714 18.1875ZM5.76781 6.21073C5.29951 6.49171 5.01854 6.96 5.01854 7.49073C5.01854 8.05268 5.29951 8.52098 5.76781 8.80195C6.20488 9.08293 6.79805 9.08293 7.26634 8.80195C7.70341 8.52098 8.01561 8.05268 8.01561 7.49073C8.01561 6.96 7.70341 6.49171 7.26634 6.21073C6.79805 5.92976 6.20488 5.92976 5.76781 6.21073ZM3.91024 12.2517C3.92585 12.2439 3.94146 12.2361 3.95707 12.2361L3.42634 14.2029C3.23902 14.8585 3.42634 15.5766 3.89463 16.0761L6.08 18.48L6.76683 21.2273C6.92293 21.758 7.45366 22.1015 7.98439 21.9454C8.51512 21.8205 8.85854 21.2898 8.73366 20.759L8.01561 17.8868C7.95317 17.6371 7.82829 17.4185 7.64098 17.2312L6.11122 15.5454L6.70439 13.4849L7.01659 14.2029C7.14146 14.5463 7.39122 14.8273 7.73463 14.9834L8.54634 15.3893C9.04585 15.639 9.63902 15.4517 9.88878 14.9522C10.1385 14.4527 9.95122 13.8595 9.45171 13.6098L8.7961 13.2663L8.29659 12.1112C7.76585 10.8312 6.51707 9.98829 5.1122 9.98829C4.39415 9.98829 3.70732 10.1444 3.05171 10.4254L2.80195 10.5502C1.77171 10.9873 0.99122 11.8615 0.647805 12.9229L0.554146 13.1727C0.398049 13.7034 0.679024 14.2654 1.17854 14.4527C1.70927 14.6088 2.27122 14.3278 2.45854 13.7971L2.52098 13.5785C2.70829 13.0478 3.11415 12.6107 3.61366 12.361L3.86341 12.2673C3.87902 12.2673 3.89463 12.2595 3.91024 12.2517ZM2.92683 16.482L2.14634 18.4176L0.30439 20.2907C-0.101463 20.6654 -0.101463 21.321 0.30439 21.6956C0.679024 22.1015 1.33463 22.1015 1.70927 21.6956L3.64488 19.76C3.76976 19.6351 3.89463 19.4478 3.95707 19.2605L4.42537 18.1366L3.14537 16.7629C3.11415 16.7161 3.07512 16.6693 3.0361 16.6224C2.99707 16.5756 2.95805 16.5288 2.92683 16.482Z" fill="black"/>
</svg>
