<svg width="24" height="24" viewBox="0 0 24 24" fill="none" xmlns="http://www.w3.org/2000/svg">
<path fill-rule="evenodd" clip-rule="evenodd" d="M12 17.1562V5.33984C12 4.95312 12.0893 4.4375 12.4464 4.00781C13.5625 2.67578 16.5982 1 22 1C22.7115 1 23.3774 1.02598 24 1.07413V3.14253C23.3926 3.09122 22.7276 3.0625 22 3.0625C17.4018 3.0625 15.0804 4.39453 14.2768 5.125H24V7.1875H14.1429V10.625H24V12.6875H14.1429V17.1562C14.1429 17.7578 14.5893 18.1875 15.2143 18.1875H24V20.25H15.5714V21.9688C15.5714 22.5703 15.0804 23 14.5 23C13.875 23 13.4286 22.5703 13.4286 21.9688V19.7344C12.5357 19.1758 12 18.2305 12 17.1562ZM17 14.0625C17.7589 14.0625 18.4286 14.707 18.4286 15.4375C18.4286 16.2109 17.7589 16.8125 17 16.8125C16.1964 16.8125 15.5714 16.2109 15.5714 15.4375C15.5714 14.707 16.1964 14.0625 17 14.0625ZM5.76135 6.21078C5.29295 6.49182 5.01191 6.96023 5.01191 7.49108C5.01191 8.05316 5.29295 8.52157 5.76135 8.80261C6.19853 9.08365 6.79184 9.08365 7.26024 8.80261C7.69742 8.52157 8.00968 8.05316 8.00968 7.49108C8.00968 6.96023 7.69742 6.49182 7.26024 6.21078C6.79184 5.92974 6.19853 5.92974 5.76135 6.21078ZM4.4186 14.3298L5.3554 11.5193C5.60522 11.5506 5.82381 11.6443 6.04239 11.7379V11.7692L5.01191 15.0167L4.51228 14.6108C4.4186 14.5483 4.38737 14.4234 4.4186 14.3298ZM6.26098 16.0472L7.16656 13.1744L7.47883 14.3298C7.54128 14.5483 7.66619 14.7357 7.82232 14.8606L8.7279 15.7662C9.00894 16.0785 9.47735 16.0785 9.78961 15.7662C10.0707 15.4852 10.0707 15.0167 9.78961 14.7045L8.91526 13.8614L8.57177 12.6747C8.13459 11.0822 6.66693 9.98923 5.04313 9.98923H4.887C4.38737 9.98923 3.88774 10.0829 3.41934 10.239C2.17027 10.645 1.13978 11.5818 0.608923 12.7684L0.327882 13.4554C0.140521 13.8301 0.327882 14.2673 0.702604 14.4234C1.07733 14.6108 1.5145 14.4234 1.67064 14.0487L1.9829 13.393C2.3264 12.6123 2.95094 12.019 3.73161 11.7379L3.01339 13.8614C2.76358 14.5483 3.01339 15.2978 3.57547 15.7662L6.82306 18.4205L7.51005 21.4183C7.60373 21.8242 8.00968 22.074 8.41563 21.9803C8.82158 21.8867 9.0714 21.4807 8.97772 21.0748L8.2595 17.9833C8.19705 17.7335 8.04091 17.4837 7.82232 17.2963L6.26098 16.0472ZM3.10707 16.703L2.35763 18.5766L0.234201 20.7313C-0.0780671 21.0123 -0.0780671 21.4807 0.234201 21.7617C0.515243 22.074 0.983645 22.074 1.29591 21.7617L3.45057 19.6071C3.57547 19.4822 3.66915 19.3261 3.73161 19.1699L4.32492 17.671L3.10707 16.703Z" fill="black"/>
</svg>
