<svg xmlns="http://www.w3.org/2000/svg" width="24" height="24" fill="currentColor" class="icon-pause-circle-solid" viewBox="0 0 24 24">
  <path d="M12 22c-3.594 0-6.875-1.875-8.672-5-1.797-3.086-1.797-6.875 0-10C5.125 3.914 8.406 2 12 2c3.555 0 6.836 1.914 8.633 5 1.797 3.125 1.797 6.914 0 10A9.93 9.93 0 0 1 12 22M10.75 9.5c0-.664-.586-1.25-1.25-1.25-.703 0-1.25.586-1.25 1.25v5c0 .703.547 1.25 1.25 1.25.664 0 1.25-.547 1.25-1.25zm5 0c0-.664-.586-1.25-1.25-1.25-.703 0-1.25.586-1.25 1.25v5c0 .703.547 1.25 1.25 1.25.664 0 1.25-.547 1.25-1.25z"/>
</svg>