<svg xmlns="http://www.w3.org/2000/svg" width="24" height="24" fill="currentColor" class="icon-pause-circle-outline" viewBox="0 0 24 24">
  <path d="M20.125 12c0-2.89-1.562-5.547-4.062-7.031-2.54-1.446-5.625-1.446-8.125 0C5.398 6.453 3.875 9.109 3.875 12a8.13 8.13 0 0 0 4.063 7.07c2.5 1.446 5.585 1.446 8.125 0 2.5-1.484 4.062-4.14 4.062-7.07M2 12a9.93 9.93 0 0 1 5-8.633c3.086-1.797 6.875-1.797 10 0 3.086 1.797 5 5.078 5 8.633 0 3.594-1.914 6.875-5 8.672-3.125 1.797-6.914 1.797-10 0C3.875 18.875 2 15.594 2 12m8.75-2.812v5.624c0 .547-.43.938-.937.938-.547 0-.938-.39-.938-.937V9.186c0-.507.39-.937.938-.937a.95.95 0 0 1 .937.938m4.375 0v5.624c0 .547-.43.938-.937.938-.547 0-.938-.39-.938-.937V9.186c0-.507.39-.937.938-.937a.95.95 0 0 1 .937.938"/>
</svg>