<svg xmlns="http://www.w3.org/2000/svg" width="24" height="24" fill="currentColor" class="icon-pen-to-square-outline" viewBox="0 0 24 24">
  <path d="M19.227 4.305h-.04a.92.92 0 0 0-1.289 0l-1.171 1.133 1.835 1.835 1.133-1.171c.352-.352.352-.938 0-1.329zm-9.063 7.734c-.117.078-.195.234-.234.39l-.664 2.266 2.304-.625a.8.8 0 0 0 .39-.234l5.274-5.273-1.797-1.797zm6.406-9.062a2.78 2.78 0 0 1 3.946 0l.507.507a2.78 2.78 0 0 1 0 3.946l-7.734 7.734c-.312.313-.742.547-1.21.703l-3.907 1.094a.8.8 0 0 1-.899-.234.89.89 0 0 1-.273-.899l1.133-3.906c.117-.469.39-.899.703-1.211zM5.438 4.5h4.375a.95.95 0 0 1 .937.938c0 .546-.43.937-.937.937H5.437c-.898 0-1.562.703-1.562 1.563v10.625c0 .898.664 1.562 1.563 1.562h10.625c.859 0 1.562-.664 1.562-1.562v-4.375c0-.508.39-.938.938-.938a.95.95 0 0 1 .937.938v4.374A3.443 3.443 0 0 1 16.063 22H5.438A3.42 3.42 0 0 1 2 18.563V7.938A3.443 3.443 0 0 1 5.438 4.5"/>
</svg>