<svg xmlns="http://www.w3.org/2000/svg" width="24" height="24" fill="currentColor" class="icon-pen-to-square-solid" viewBox="0 0 24 24">
  <path d="m20.398 2.86.743.742a2.17 2.17 0 0 1 0 3.086l-1.172 1.171-3.828-3.828 1.172-1.172a2.17 2.17 0 0 1 3.085 0m-11.68 8.593 6.524-6.523 3.828 3.828-6.523 6.523c-.235.235-.547.43-.86.547L8.211 16.96a.86.86 0 0 1-.938-.234.86.86 0 0 1-.234-.938l1.133-3.476c.117-.313.312-.626.547-.86M5.75 4.5H9.5c.664 0 1.25.586 1.25 1.25 0 .703-.586 1.25-1.25 1.25H5.75c-.703 0-1.25.586-1.25 1.25v10c0 .703.547 1.25 1.25 1.25h10c.664 0 1.25-.547 1.25-1.25V14.5c0-.664.547-1.25 1.25-1.25.664 0 1.25.586 1.25 1.25v3.75c0 2.07-1.68 3.75-3.75 3.75h-10C3.68 22 2 20.32 2 18.25v-10C2 6.18 3.68 4.5 5.75 4.5"/>
</svg>