<svg xmlns="http://www.w3.org/2000/svg" width="24" height="24" fill="currentColor" class="icon-pen-outline" viewBox="0 0 24 24">
  <path d="M3.406 16.102a3.4 3.4 0 0 1 .86-1.446L16.14 2.781a2.523 2.523 0 0 1 3.554 0l1.524 1.524c.117.117.234.273.312.39a2.49 2.49 0 0 1-.312 3.164L9.344 19.734c-.04.04-.117.078-.156.157a4.2 4.2 0 0 1-1.29.703l-3.046.898-1.68.508a.89.89 0 0 1-.899-.273.8.8 0 0 1-.234-.899l.469-1.68zm1.797.546-.273.899-.625 2.148 2.148-.625.899-.273a1.44 1.44 0 0 0 .664-.39L16.96 9.46l-2.422-2.422-8.945 8.945c-.04 0-.04.04-.078.079-.157.156-.235.351-.313.585"/>
</svg>