<svg xmlns="http://www.w3.org/2000/svg" width="24" height="24" fill="currentColor" class="icon-person-walking-outline" viewBox="0 0 24 24">
  <path d="M12.5 3.875c0-.664.352-1.25.938-1.602.546-.351 1.289-.351 1.874 0 .547.352.938.938.938 1.602 0 .703-.39 1.29-.937 1.64-.586.352-1.329.352-1.876 0a1.87 1.87 0 0 1-.937-1.64m.43 5.04-1.172 3.515a.315.315 0 0 0 .117.351l.625.508 1.29-4.062v-.04c-.274-.117-.548-.234-.86-.273m2.265 2.07-1.133 3.593 1.954 1.563c.273.234.468.547.547.859l.898 3.867a.942.942 0 1 1-1.836.43l-.86-3.75-4.062-3.32C10 13.64 9.688 12.703 10 11.844l.898-2.656a3.8 3.8 0 0 0-2.187 2.07l-.39.82c-.196.469-.743.703-1.212.469-.468-.195-.703-.742-.468-1.211l.351-.86a5.87 5.87 0 0 1 3.516-3.164A5.9 5.9 0 0 1 12.344 7h.195a4.594 4.594 0 0 1 4.414 3.36l.43 1.484 1.094 1.054c.351.391.351.977 0 1.329-.391.39-.977.39-1.329 0l-1.132-1.133a1.3 1.3 0 0 1-.43-.664zM9.18 17.741l.937-2.344 1.524 1.211-.743 1.875a1.6 1.6 0 0 1-.351.547l-2.695 2.696c-.391.39-.977.39-1.329 0a.856.856 0 0 1 0-1.29z"/>
</svg>