<svg width="24" height="24" viewBox="0 0 24 24" fill="none" xmlns="http://www.w3.org/2000/svg">
<path fill-rule="evenodd" clip-rule="evenodd" d="M14.2915 5.74539C15.3071 5.74539 16.1665 4.92609 16.1665 3.8727C16.1665 2.85832 15.3071 2 14.2915 2C13.2368 2 12.4165 2.85832 12.4165 3.8727C12.4165 4.92609 13.2368 5.74539 14.2915 5.74539ZM9.9165 9.68586L10.7368 9.29571L9.9165 11.8317C9.604 12.69 9.87744 13.6263 10.6196 14.2115L12.8331 16.0184L13.4012 16.4822L13.8091 16.8151L14.6821 17.5278L14.6821 17.5278L15.3207 20.3108L15.5415 21.2732C15.6587 21.7804 16.1665 22.0925 16.6743 21.9754C17.1821 21.8584 17.4946 21.3512 17.3774 20.844L17.2534 20.3108L16.479 16.9816C16.4009 16.6695 16.2056 16.3573 15.9321 16.1233L15.9321 16.1233L13.979 14.5627L15.1509 10.8953L15.5024 12.1438C15.5806 12.3779 15.7368 12.6119 15.8931 12.768L17.0649 13.8994C17.4165 14.2896 18.0024 14.2896 18.354 13.8994C18.4604 13.8038 18.5378 13.6908 18.5862 13.5691H18.8488V14.3182H15.9842V13.5691H16.7228L15.9477 12.8208C15.4983 12.8389 15.1248 13.1892 15.1248 13.5691V14.1782L15.1509 14.2961L16.4637 15.4821L16.4744 15.4913C16.7882 15.76 17.0391 16.1049 17.1907 16.4822C17.2297 16.5795 17.2622 16.6789 17.2874 16.7797L17.2891 16.7864L17.2958 16.8151L18.1089 20.3108H21.1404C21.588 20.3108 21.9998 19.9675 21.9998 19.5617V16.8151V16.4822V15.0673C21.9998 14.6771 21.588 14.3182 21.1404 14.3182H19.7081V13.5691C19.7081 13.179 19.2963 12.82 18.8488 12.82H18.5378C18.4914 12.7324 18.4301 12.6489 18.354 12.5729L17.2993 11.5195L16.8306 10.076C16.2837 8.24232 14.604 6.99386 12.6899 6.99386C11.7524 6.99386 10.8149 7.22794 9.95557 7.61809L9.13525 7.96922C7.92432 8.51542 7.02588 9.5298 6.59619 10.7783L6.51807 11.0904C6.36182 11.5586 6.59619 12.1048 7.104 12.2608C7.57275 12.4169 8.11963 12.1828 8.27588 11.6756L8.39307 11.3635C8.62744 10.6222 9.17432 9.99797 9.9165 9.68586ZM11.6743 12.4169L12.8462 8.90557C13.1587 8.90557 13.4712 8.9836 13.7446 9.10064C13.7056 9.13966 13.7056 9.17867 13.7056 9.21768L12.4165 13.2752L11.7915 12.768C11.6743 12.69 11.6353 12.5339 11.6743 12.4169ZM10.0337 15.382L9.09619 17.7228L6.43994 20.3758C6.04932 20.766 6.04932 21.3512 6.43994 21.7023C6.7915 22.0925 7.37744 22.0925 7.729 21.7023L10.4634 19.0103C10.6196 18.8543 10.7368 18.6592 10.8149 18.4641L11.5571 16.5914L10.0337 15.382ZM13.9336 17.9917L12.8331 17.0934V19.5617C12.8331 19.9675 13.227 20.3108 13.6925 20.3108H14.4657L13.9336 17.9917Z" fill="black"/>
</svg>
