<svg xmlns="http://www.w3.org/2000/svg" width="24" height="24" fill="currentColor" class="icon-person-walking-solid" viewBox="0 0 24 24">
  <path d="M12.5 3.875c0-.664.352-1.25.938-1.602.546-.351 1.289-.351 1.874 0 .547.352.938.938.938 1.602 0 .703-.39 1.29-.937 1.64-.586.352-1.329.352-1.876 0a1.87 1.87 0 0 1-.937-1.64m-1.328 5.938c-.04 0-.078.039-.117.039l-.313.117a2.76 2.76 0 0 0-1.367 1.523l-.078.274a1.303 1.303 0 0 1-1.602.82c-.625-.234-.976-.938-.78-1.602l.116-.312a4.83 4.83 0 0 1 2.696-2.969l.312-.156A6.5 6.5 0 0 1 12.617 7a4.305 4.305 0 0 1 3.985 2.656l.625 1.446.82.43c.625.312.86 1.054.547 1.679a1.24 1.24 0 0 1-1.68.547l-1.016-.508a1.7 1.7 0 0 1-.898-.977l-.39-.898-.743 2.578 1.914 2.11q.351.35.469.82l.898 3.594c.157.664-.273 1.328-.937 1.484-.664.195-1.328-.234-1.523-.898l-.86-3.438-2.734-3.008a2.47 2.47 0 0 1-.586-2.344zm-2.266 7.734.977-2.422c.078.117.195.234.273.352l1.602 1.718-.586 1.407a1.7 1.7 0 0 1-.39.625l-2.423 2.421a1.205 1.205 0 0 1-1.757 0 1.205 1.205 0 0 1 0-1.757z"/>
</svg>