<svg xmlns="http://www.w3.org/2000/svg" width="24" height="24" fill="currentColor" class="icon-phone-circle-solid" viewBox="0 0 24 24">
  <path d="M12 22c-3.594 0-6.875-1.875-8.672-5-1.797-3.086-1.797-6.875 0-10C5.125 3.914 8.406 2 12 2c3.555 0 6.836 1.914 8.633 5 1.797 3.125 1.797 6.914 0 10A9.93 9.93 0 0 1 12 22M9.266 7.04l-1.72.468c-.312.117-.546.39-.546.742A8.736 8.736 0 0 0 15.75 17c.352 0 .625-.234.742-.547l.469-1.719c.078-.39-.078-.78-.469-.937l-1.875-.781a.8.8 0 0 0-.898.234l-.781.938a6.4 6.4 0 0 1-3.126-3.126l.938-.78a.8.8 0 0 0 .234-.9l-.78-1.874c-.157-.39-.548-.547-.938-.469"/>
</svg>