<svg xmlns="http://www.w3.org/2000/svg" width="24" height="24" fill="currentColor" class="icon-phone-circle-outline" viewBox="0 0 24 24">
  <path d="M12 3.875c-2.93 0-5.586 1.563-7.07 4.063-1.446 2.539-1.446 5.625 0 8.125A8.13 8.13 0 0 0 12 20.125c2.89 0 5.547-1.523 7.031-4.062 1.446-2.5 1.446-5.586 0-8.125-1.484-2.5-4.14-4.063-7.031-4.063M12 22c-3.594 0-6.875-1.875-8.672-5-1.797-3.086-1.797-6.875 0-10C5.125 3.914 8.406 2 12 2c3.555 0 6.836 1.914 8.633 5 1.797 3.125 1.797 6.914 0 10A9.93 9.93 0 0 1 12 22M9.266 7.04c.39-.08.78.077.937.468l.781 1.875a.8.8 0 0 1-.234.898l-.937.781a6.4 6.4 0 0 0 3.124 3.126l.782-.938a.8.8 0 0 1 .898-.234l1.875.78c.39.157.547.548.469.938l-.469 1.72c-.117.312-.39.546-.742.546A8.736 8.736 0 0 1 7 8.25c0-.352.234-.625.547-.742z"/>
</svg>