<svg xmlns="http://www.w3.org/2000/svg" width="24" height="24" fill="currentColor" class="icon-play-circle-solid" viewBox="0 0 24 24">
  <path d="M2 12a9.93 9.93 0 0 1 5-8.633c3.086-1.797 6.875-1.797 10 0 3.086 1.797 5 5.078 5 8.633 0 3.594-1.914 6.875-5 8.672-3.125 1.797-6.914 1.797-10 0C3.875 18.875 2 15.594 2 12m7.344-4.219a.86.86 0 0 0-.469.782v6.874c0 .352.156.665.469.82.273.196.664.157.937 0l5.625-3.437c.274-.195.469-.468.469-.82a.94.94 0 0 0-.469-.781L10.281 7.78a.9.9 0 0 0-.937-.039z"/>
</svg>