<svg xmlns="http://www.w3.org/2000/svg" width="24" height="24" fill="currentColor" class="icon-plus-circle-solid" viewBox="0 0 24 24">
  <path d="M12 22c-3.594 0-6.875-1.875-8.672-5-1.797-3.086-1.797-6.875 0-10C5.125 3.914 8.406 2 12 2c3.555 0 6.836 1.914 8.633 5 1.797 3.125 1.797 6.914 0 10A9.93 9.93 0 0 1 12 22m-.937-6.562c0 .546.39.937.937.937.508 0 .938-.39.938-.937v-2.5h2.5a.926.926 0 0 0 .937-.938.95.95 0 0 0-.937-.937h-2.5v-2.5A.95.95 0 0 0 12 7.625a.925.925 0 0 0-.937.938v2.5h-2.5a.925.925 0 0 0-.938.937c0 .547.39.938.938.938h2.5z"/>
</svg>