<svg xmlns="http://www.w3.org/2000/svg" width="24" height="24" fill="currentColor" class="icon-power-off-solid" viewBox="0 0 24 24">
  <path d="M13.25 3.25V12c0 .703-.586 1.25-1.25 1.25-.703 0-1.25-.547-1.25-1.25V3.25c0-.664.547-1.25 1.25-1.25.664 0 1.25.586 1.25 1.25M7.586 6.727A6.83 6.83 0 0 0 5.086 12a6.86 6.86 0 0 0 6.875 6.875A6.835 6.835 0 0 0 18.836 12c0-2.11-.938-4.023-2.461-5.273-.547-.43-.586-1.25-.156-1.758.43-.547 1.21-.586 1.758-.157 2.07 1.72 3.398 4.297 3.398 7.188 0 5.195-4.219 9.375-9.375 9.375A9.353 9.353 0 0 1 2.625 12a9.29 9.29 0 0 1 3.36-7.187c.546-.43 1.327-.391 1.757.156s.39 1.328-.156 1.758"/>
</svg>