<svg xmlns="http://www.w3.org/2000/svg" width="24" height="24" fill="currentColor" class="icon-question-circle-outline" viewBox="0 0 24 24">
  <path d="M20.125 12c0-2.89-1.562-5.547-4.062-7.031-2.54-1.446-5.625-1.446-8.125 0C5.398 6.453 3.875 9.109 3.875 12a8.13 8.13 0 0 0 4.063 7.07c2.5 1.446 5.585 1.446 8.125 0 2.5-1.484 4.062-4.14 4.062-7.07M2 12a9.93 9.93 0 0 1 5-8.633c3.086-1.797 6.875-1.797 10 0 3.086 1.797 5 5.078 5 8.633 0 3.594-1.914 6.875-5 8.672-3.125 1.797-6.914 1.797-10 0C3.875 18.875 2 15.594 2 12m6.602-3.516A2.18 2.18 0 0 1 10.672 7h2.265c1.368 0 2.5 1.133 2.5 2.5 0 .86-.507 1.68-1.25 2.11l-1.25.742c-.039.507-.43.898-.937.898-.547 0-.937-.39-.937-.937v-.508c0-.352.156-.664.468-.82l1.719-.977a.61.61 0 0 0 .313-.508c0-.352-.274-.586-.626-.586h-2.265a.29.29 0 0 0-.274.195l-.039.04c-.156.507-.703.742-1.171.585a.976.976 0 0 1-.586-1.21zm2.148 7.266c0-.664.547-1.25 1.25-1.25.664 0 1.25.586 1.25 1.25 0 .703-.586 1.25-1.25 1.25-.703 0-1.25-.547-1.25-1.25"/>
</svg>