<svg xmlns="http://www.w3.org/2000/svg" width="24" height="24" fill="currentColor" class="icon-question-outline" viewBox="0 0 24 24">
  <path d="M8.75 8.25c0 .547-.43.938-.937.938-.547 0-.938-.391-.938-.938 0-2.734 2.227-5 5-5h1.21c2.774 0 5 2.266 5 5v.195c0 1.563-.78 3.047-2.07 3.907l-2.03 1.367a1.23 1.23 0 0 0-.547 1.015v.079c0 .546-.43.937-.938.937-.547 0-.937-.39-.937-.937v-.079c0-1.015.507-1.992 1.367-2.578l2.03-1.367a2.75 2.75 0 0 0 1.29-2.344V8.25a3.134 3.134 0 0 0-3.125-3.125h-1.25A3.11 3.11 0 0 0 8.75 8.25m3.75 12.5c-.703 0-1.25-.547-1.25-1.25 0-.664.547-1.25 1.25-1.25.664 0 1.25.586 1.25 1.25 0 .703-.586 1.25-1.25 1.25"/>
</svg>