<svg xmlns="http://www.w3.org/2000/svg" width="24" height="24" fill="currentColor" class="icon-question-solid" viewBox="0 0 24 24">
  <path d="M9.375 8.25c0 .703-.586 1.25-1.25 1.25-.703 0-1.25-.547-1.25-1.25 0-2.734 2.227-5 5-5h1.25c2.734 0 5 2.266 5 5v.156c0 1.719-.898 3.281-2.305 4.219l-1.64 1.055c-.274.156-.43.468-.43.78v.04c0 .703-.586 1.25-1.25 1.25-.703 0-1.25-.547-1.25-1.25v-.04c0-1.17.586-2.265 1.563-2.89l1.64-1.054c.703-.47 1.172-1.25 1.172-2.11V8.25c0-1.367-1.133-2.5-2.5-2.5h-1.25a2.49 2.49 0 0 0-2.5 2.5m3.125 12.5c-.586 0-1.094-.273-1.367-.781-.274-.469-.274-1.055 0-1.563a1.58 1.58 0 0 1 1.367-.781 1.56 1.56 0 0 1 1.328.781c.274.508.274 1.094 0 1.563a1.48 1.48 0 0 1-1.328.781"/>
</svg>