<svg xmlns="http://www.w3.org/2000/svg" width="24" height="24" fill="currentColor" class="icon-road-solid-1" viewBox="0 0 24 24">
  <path d="M11.25 3.25v2.5c0 .703.547 1.25 1.25 1.25.664 0 1.25-.547 1.25-1.25v-2.5h2.89c1.055 0 2.032.703 2.383 1.68l4.57 13.008c.079.195.157.468.157.703 0 1.172-.977 2.109-2.148 2.109H13.75v-2.5c0-.664-.586-1.25-1.25-1.25-.703 0-1.25.586-1.25 1.25v2.5H3.36a2.1 2.1 0 0 1-2.11-2.11c0-.234.04-.507.117-.703L5.937 4.93c.352-.977 1.329-1.68 2.383-1.68zm2.5 7.5c0-.664-.586-1.25-1.25-1.25-.703 0-1.25.586-1.25 1.25v2.5c0 .703.547 1.25 1.25 1.25.664 0 1.25-.547 1.25-1.25z"/>
</svg>