<svg xmlns="http://www.w3.org/2000/svg" width="24" height="24" fill="currentColor" class="icon-road-outline" viewBox="0 0 24 24">
  <mask id="a" width="23" height="18" x="1" y="3" maskUnits="userSpaceOnUse" style="mask-type:alpha">
    <path d="M8.476 3.25h8.008c1.172 0 2.227.742 2.656 1.875L23.399 17c.664 1.836-.703 3.75-2.656 3.75H4.219c-1.954 0-3.32-1.914-2.657-3.75L5.86 5.125A2.77 2.77 0 0 1 8.476 3.25m-.859 2.5L3.32 17.625c-.195.625.235 1.25.899 1.25h7.343v-.937c0-.508.391-.938.938-.938a.95.95 0 0 1 .937.938v.937h7.305c.664 0 1.094-.625.898-1.25L17.345 5.75a.93.93 0 0 0-.86-.625h-3.047v.938c0 .546-.43.937-.937.937-.547 0-.938-.39-.938-.937v-.938H8.476a.93.93 0 0 0-.859.625m5.82 4.688v3.124c0 .547-.43.938-.937.938-.547 0-.938-.39-.938-.937v-3.126c0-.507.391-.937.938-.937a.95.95 0 0 1 .937.938"/>
  </mask>
  <g mask="url(#a)">
    <path d="M0 0h24v24H0z"/>
  </g>
</svg>