<svg xmlns="http://www.w3.org/2000/svg" width="24" height="24" fill="currentColor" class="icon-rotate-right-solid" viewBox="0 0 24 24">
  <path d="M20.086 10.75h-4.648c-.391 0-.743-.195-.899-.547a1.05 1.05 0 0 1 .234-1.055l1.602-1.601a6.31 6.31 0 0 0-8.828.039 6.32 6.32 0 0 0 0 8.867 6.32 6.32 0 0 0 8.867 0c.469-.508 1.25-.508 1.758 0 .469.469.469 1.25 0 1.758a8.794 8.794 0 0 1-12.383 0 8.794 8.794 0 0 1 0-12.383C9.188 2.43 14.695 2.43 18.133 5.79l1.64-1.64c.235-.235.665-.313 1.016-.196.352.156.586.508.586.86v5c0 .546-.43.937-.937.937z"/>
</svg>