<svg xmlns="http://www.w3.org/2000/svg" width="24" height="24" fill="currentColor" class="icon-rotate-right-outline" viewBox="0 0 24 24">
  <path d="M16.492 6.805c-1.21-1.016-2.773-1.68-4.492-1.68A6.86 6.86 0 0 0 5.125 12 6.836 6.836 0 0 0 12 18.875a6.8 6.8 0 0 0 4.102-1.367.94.94 0 0 1 1.328.195.94.94 0 0 1-.196 1.328C15.79 20.125 13.954 20.75 12 20.75A8.736 8.736 0 0 1 3.25 12c0-4.805 3.906-8.75 8.75-8.75 2.227 0 4.258.86 5.82 2.227l1.172-1.172c.274-.274.625-.39.977-.39.781-.04 1.406.585 1.406 1.366v4.532c0 .546-.43.937-.937.937h-4.57A1.335 1.335 0 0 1 14.5 9.383c0-.352.117-.703.39-.977zm3.008-.352-2.46 2.422h2.46z"/>
</svg>