<svg xmlns="http://www.w3.org/2000/svg" width="24" height="24" fill="currentColor" class="icon-route-solid" viewBox="0 0 24 24">
  <path d="M22 5.75c0 1.992-2.344 4.922-3.32 6.055-.157.195-.352.273-.586.195H14.5c-.703 0-1.25.586-1.25 1.25 0 .703.547 1.25 1.25 1.25h3.75a3.751 3.751 0 0 1 0 7.5H7.43c.351-.352.742-.86 1.172-1.406.234-.352.507-.703.742-1.094h8.906c.664 0 1.25-.547 1.25-1.25 0-.664-.586-1.25-1.25-1.25H14.5a3.751 3.751 0 0 1 0-7.5h1.523c-.82-1.21-1.523-2.617-1.523-3.75a3.751 3.751 0 0 1 7.5 0M6.57 21.14c-.156.157-.312.313-.39.43l-.078.078c-.235.157-.586.157-.782-.078C4.305 20.477 2 17.742 2 15.75a3.751 3.751 0 0 1 7.5 0c0 1.172-.86 2.617-1.719 3.828-.43.586-.86 1.094-1.21 1.524zM7 15.75c0-.664-.586-1.25-1.25-1.25-.703 0-1.25.586-1.25 1.25 0 .703.547 1.25 1.25 1.25.664 0 1.25-.547 1.25-1.25M18.25 7c.664 0 1.25-.547 1.25-1.25 0-.664-.586-1.25-1.25-1.25-.703 0-1.25.586-1.25 1.25 0 .703.547 1.25 1.25 1.25"/>
</svg>