<svg xmlns="http://www.w3.org/2000/svg" width="24" height="24" fill="currentColor" class="icon-route-outline" viewBox="0 0 24 24">
  <path d="M19.11 8.094C19.812 7 20.124 6.18 20.124 5.75c0-1.016-.86-1.875-1.875-1.875-1.055 0-1.875.86-1.875 1.875 0 .43.273 1.25.977 2.344.273.469.585.898.898 1.289.273-.39.586-.82.86-1.29m-.43 3.71c-.157.196-.352.274-.586.196h-3.282c-.898 0-1.562.703-1.562 1.563 0 .898.664 1.562 1.563 1.562h3.75c1.875 0 3.437 1.563 3.437 3.438A3.443 3.443 0 0 1 18.563 22H7.43c.351-.352.742-.86 1.172-1.406.117-.157.234-.313.312-.469h9.649c.859 0 1.562-.664 1.562-1.562 0-.86-.703-1.563-1.562-1.563h-3.75a3.42 3.42 0 0 1-3.438-3.437 3.443 3.443 0 0 1 3.438-3.438h1.64C15.477 8.797 14.5 7.078 14.5 5.75a3.751 3.751 0 0 1 7.5 0c0 1.992-2.344 4.922-3.32 6.055M6.61 17.978c.702-1.055 1.015-1.836 1.015-2.227 0-1.016-.86-1.875-1.875-1.875-1.055 0-1.875.86-1.875 1.875 0 .39.273 1.172.977 2.227.273.43.585.859.898 1.21.273-.351.586-.78.86-1.21m.742 2.148a28 28 0 0 1-.782.977c-.117.156-.273.273-.351.43-.04 0-.04 0-.04.038h-.038c-.196.235-.586.235-.82 0C4.304 20.477 2 17.742 2 15.75a3.751 3.751 0 0 1 7.5 0c0 1.367-1.133 3.086-2.148 4.375"/>
</svg>