<svg xmlns="http://www.w3.org/2000/svg" width="24" height="24" fill="currentColor" class="icon-scale-balanced-outline" viewBox="0 0 24 24">
  <path d="M21.313 3.875a.95.95 0 0 1 .937.938c0 .546-.43.937-.937.937h-4.766a3.2 3.2 0 0 1-2.11 2.383v11.992h6.876a.95.95 0 0 1 .937.938c0 .546-.43.937-.937.937H5.688c-.547 0-.938-.39-.938-.937 0-.508.39-.938.938-.938h6.875V8.133a3.17 3.17 0 0 1-2.149-2.383H5.688c-.547 0-.938-.39-.938-.937 0-.508.39-.938.938-.938h4.922C11.117 2.781 12.21 2 13.5 2c1.25 0 2.383.781 2.852 1.875zM21 9.656 18.15 14.5h5.664zm-4.922 5.547c-.117-.43.04-.898.235-1.25l3.71-6.406C20.22 7.234 20.61 7 21 7c.352 0 .742.234.938.547l3.71 6.367c.235.39.352.86.274 1.29-.43 1.718-2.5 3.046-4.922 3.046-2.46 0-4.531-1.328-4.922-3.047M3.11 14.5h5.664L5.922 9.656zm2.812 3.75C3.5 18.25 1.43 16.922 1 15.203c-.078-.43.04-.898.274-1.25l3.71-6.406C5.18 7.234 5.532 7 5.923 7s.742.234.938.547l3.75 6.367c.195.39.351.86.234 1.29-.39 1.718-2.461 3.046-4.922 3.046M13.5 3.875c-.703 0-1.25.586-1.25 1.25 0 .703.547 1.25 1.25 1.25.664 0 1.25-.547 1.25-1.25 0-.664-.586-1.25-1.25-1.25"/>
</svg>