<svg xmlns="http://www.w3.org/2000/svg" width="24" height="24" fill="currentColor" class="icon-scale-balanced-outline" viewBox="0 0 24 24">
  <mask id="a" width="26" height="20" x="-1" y="2" maskUnits="userSpaceOnUse" style="mask-type:alpha">
    <path d="M20.312 3.875a.95.95 0 0 1 .938.938c0 .546-.43.937-.938.937h-4.765a3.2 3.2 0 0 1-2.11 2.383v11.992h6.875a.95.95 0 0 1 .938.938c0 .546-.43.937-.938.937H4.687c-.546 0-.937-.39-.937-.937 0-.508.39-.938.937-.938h6.875V8.133A3.17 3.17 0 0 1 9.414 5.75H4.687c-.546 0-.937-.39-.937-.937 0-.508.39-.938.937-.938H9.61C10.117 2.781 11.211 2 12.5 2c1.25 0 2.384.781 2.852 1.875zM20 9.656 17.148 14.5h5.664zm-4.922 5.547c-.117-.43.04-.898.234-1.25l3.711-6.406C19.22 7.234 19.61 7 20 7c.352 0 .742.234.937.547l3.711 6.367c.235.39.352.86.274 1.29-.43 1.718-2.5 3.046-4.922 3.046-2.461 0-4.531-1.328-4.922-3.047M2.11 14.5h5.664L4.922 9.656zm2.813 3.75C2.5 18.25.43 16.922 0 15.203c-.078-.43.039-.898.273-1.25l3.711-6.406C4.18 7.234 4.531 7 4.922 7s.742.234.937.547l3.75 6.367c.196.39.352.86.235 1.29-.39 1.718-2.461 3.046-4.922 3.046M12.5 3.875c-.703 0-1.25.586-1.25 1.25 0 .703.547 1.25 1.25 1.25.664 0 1.25-.547 1.25-1.25 0-.664-.586-1.25-1.25-1.25"/>
  </mask>
  <g mask="url(#a)">
    <path d="M0 0h24v24H0z"/>
  </g>
</svg>