<svg xmlns="http://www.w3.org/2000/svg" width="24" height="24" fill="currentColor" class="icon-scale-balanced-solid" viewBox="0 0 24 24">
  <path d="M16 3.25h5c.664 0 1.25.586 1.25 1.25 0 .703-.586 1.25-1.25 1.25h-4.453a3.14 3.14 0 0 1-1.797 2.266V19.5H21c.664 0 1.25.586 1.25 1.25 0 .703-.586 1.25-1.25 1.25H6c-.703 0-1.25-.547-1.25-1.25 0-.664.547-1.25 1.25-1.25h6.25V8.016c-.937-.43-1.64-1.25-1.836-2.266H6c-.703 0-1.25-.547-1.25-1.25 0-.664.547-1.25 1.25-1.25h5A3.09 3.09 0 0 1 13.5 2c1.016 0 1.914.508 2.5 1.25m2.15 11.25h5.664L21 9.656zM21 18.25c-2.46 0-4.531-1.328-4.922-3.047-.117-.43.04-.898.235-1.289l3.71-6.367C20.22 7.234 20.61 7 21 7c.352 0 .742.234.938.547l3.71 6.367c.235.39.352.86.274 1.29-.43 1.718-2.5 3.046-4.922 3.046M5.922 9.656 3.11 14.5h5.664zM1 15.203c-.078-.43.04-.898.274-1.289l3.71-6.367C5.18 7.234 5.57 7 5.923 7c.39 0 .781.234.977.547l3.71 6.367c.196.39.352.86.235 1.29-.39 1.718-2.461 3.046-4.922 3.046S1.43 16.922 1 15.203"/>
</svg>