<svg xmlns="http://www.w3.org/2000/svg" width="24" height="24" fill="currentColor" class="icon-search-outline" viewBox="0 0 24 24">
  <mask id="a" width="20" height="20" x="2" y="2" maskUnits="userSpaceOnUse" style="mask-type:alpha">
    <path d="M16.382 10.117c0-2.224-1.212-4.254-3.127-5.385-1.954-1.132-4.338-1.132-6.253 0-1.954 1.131-3.126 3.16-3.126 5.385a6.21 6.21 0 0 0 3.126 5.424c1.915 1.132 4.3 1.132 6.254 0 1.915-1.131 3.126-3.16 3.126-5.424m-1.212 6.4a8.2 8.2 0 0 1-5.041 1.717C5.635 18.234 2 14.604 2 10.117 2 5.668 5.635 2 10.129 2c4.455 0 8.129 3.668 8.129 8.117a8.23 8.23 0 0 1-1.759 5.073l5.237 5.19c.352.39.352.976 0 1.327-.39.39-.977.39-1.329 0z"/>
  </mask>
  <g mask="url(#a)">
    <path d="M0 0h24v24H0z"/>
  </g>
</svg>