<svg xmlns="http://www.w3.org/2000/svg" width="24" height="24" fill="currentColor" class="icon-seat-airline-solid" viewBox="0 0 24 24">
  <path d="M5.75 3.25v4.375c0 .273.04.508.117.742L6.375 9.5h9.375c.664 0 1.25.586 1.25 1.25 0 .703-.586 1.25-1.25 1.25H7.469l.508 1.25H19.5c.469 0 .898.273 1.094.703.234.43.156.938-.117 1.328l-1.68 2.227a1.85 1.85 0 0 1-1.485.742h-3.75v1.875h3.75a.95.95 0 0 1 .938.938c0 .546-.43.937-.937.937H7.938C7.39 22 7 21.61 7 21.063c0-.508.39-.938.938-.938h3.75V18.25H9.89c-1.524 0-2.852-.86-3.438-2.266l-2.851-6.64a4.4 4.4 0 0 1-.352-1.719V3.25A1.26 1.26 0 0 1 4.5 2c.664 0 1.25.586 1.25 1.25"/>
</svg>