<svg xmlns="http://www.w3.org/2000/svg" width="24" height="24" fill="currentColor" class="icon-share-outline" viewBox="0 0 24 24">
  <path d="M13.25 11.375h.938a.95.95 0 0 1 .937.938v2.07l4.688-4.258-4.688-4.219v2.032c0 .546-.43.937-.937.937H8.875c-2.773 0-5 2.266-5 5 0 .625.04 1.172.195 1.64.664-2.382 2.813-4.14 5.43-4.14zm0 1.875v.04H9.5a3.75 3.75 0 0 0-3.75 3.75c0 .663.156 1.171.352 1.562.078.117.117.195.195.312.117.117.195.234.312.313 0 .039.04.039.04.078.195.195.312.43.312.703 0 .43-.313.742-.742.742-.117 0-.235 0-.313-.039-.117-.078-.273-.156-.43-.273l-.351-.235-.469-.351C3.484 18.836 2 16.922 2 13.875A6.86 6.86 0 0 1 8.875 7h4.375V4.5c0-.469.273-.937.742-1.133.43-.195.977-.117 1.328.235l6.25 5.625c.274.234.43.546.43.898 0 .39-.156.703-.43.938l-6.25 5.624c-.351.352-.898.43-1.328.235-.469-.195-.742-.664-.742-1.172z"/>
</svg>