<svg xmlns="http://www.w3.org/2000/svg" width="24" height="24" fill="currentColor" class="icon-share-solid" viewBox="0 0 24 24">
  <path d="M13.992 3.367c.43-.195.977-.117 1.328.235l6.25 5.625c.274.234.43.546.43.898 0 .39-.156.703-.43.938l-6.25 5.624c-.351.352-.898.43-1.328.235-.469-.195-.742-.664-.742-1.172v-2.5H9.5c-2.07 0-3.75 1.68-3.75 3.75 0 1.211.469 1.875.86 2.227.195.195.39.468.39.78 0 .43-.352.743-.781.743-.117 0-.235 0-.313-.039C5.164 20.281 2 18.328 2 13.875A6.86 6.86 0 0 1 8.875 7h4.375V4.5c0-.469.273-.937.742-1.133"/>
</svg>