<svg xmlns="http://www.w3.org/2000/svg" width="24" height="24" fill="currentColor" class="icon-shield-check-outline" viewBox="0 0 24 24">
  <mask id="a" width="20" height="20" x="2" y="2" maskUnits="userSpaceOnUse" style="mask-type:alpha">
    <path d="M4.852 6.96c-.235.118-.352.313-.352.509 0 3.593 1.485 9.726 7.266 12.5a.42.42 0 0 0 .43 0c5.78-2.735 7.265-8.907 7.304-12.5 0-.196-.156-.39-.351-.508L12 3.953zm15-1.718c.86.39 1.523 1.211 1.523 2.227-.039 3.906-1.64 10.976-8.36 14.218a2.4 2.4 0 0 1-2.07 0c-6.718-3.242-8.32-10.312-8.32-14.218-.039-1.016.625-1.836 1.485-2.227l7.343-3.125a1.25 1.25 0 0 1 1.055 0zm-3.438 4.922-5 5c-.39.39-.976.39-1.328 0l-2.5-2.5a.856.856 0 0 1 0-1.289c.352-.39.938-.39 1.328 0l1.836 1.836 4.336-4.336c.352-.39.938-.39 1.328 0a.92.92 0 0 1 0 1.29"/>
  </mask>
  <g mask="url(#a)">
    <path d="M0 0h24v24H0z"/>
  </g>
</svg>