<svg xmlns="http://www.w3.org/2000/svg" width="24" height="24" fill="currentColor" class="icon-shield-outline" viewBox="0 0 24 24">
  <path d="M12 3.953 4.852 6.961c-.235.117-.39.312-.352.508 0 3.593 1.485 9.765 7.266 12.5.156.078.312.078.43 0 5.78-2.774 7.265-8.907 7.304-12.5 0-.196-.156-.39-.351-.508zm.508-1.836 7.344 3.125c.86.39 1.523 1.211 1.523 2.227-.039 3.906-1.64 10.976-8.36 14.218a2.4 2.4 0 0 1-2.07 0c-6.718-3.242-8.32-10.312-8.32-14.218-.039-1.016.625-1.836 1.485-2.227l7.343-3.125a1.25 1.25 0 0 1 1.055 0"/>
</svg>