<svg xmlns="http://www.w3.org/2000/svg" width="24" height="24" fill="currentColor" class="icon-signal-alt-outline" viewBox="0 0 24 24">
  <mask id="a" width="25" height="12" x="-1" y="6" maskUnits="userSpaceOnUse" style="mask-type:alpha">
    <path d="M1.462 12.016c-.375.351-.937.312-1.237-.079A.96.96 0 0 1 .3 10.61C3.412 7.758 7.5 6 12 6c4.462 0 8.55 1.758 11.662 4.61.375.35.412.937.112 1.328-.338.39-.9.43-1.275.078-2.812-2.578-6.487-4.141-10.5-4.141-4.05 0-7.724 1.563-10.537 4.14M12 14.75c-2.437 0-4.65.977-6.3 2.578a.87.87 0 0 1-1.274-.078.997.997 0 0 1 .037-1.328C6.45 14.047 9.074 12.875 12 12.875c2.888 0 5.513 1.172 7.5 3.047a.997.997 0 0 1 .038 1.328c-.338.39-.9.43-1.275.078C16.613 15.727 14.4 14.75 12 14.75"/>
  </mask>
  <g mask="url(#a)">
    <path d="M0 0h24v24H0z"/>
  </g>
</svg>