<svg xmlns="http://www.w3.org/2000/svg" width="24" height="24" fill="currentColor" class="icon-signal-alt-solid" viewBox="0 0 24 24">
  <path d="M3.024 12.68c-.487.508-1.237.468-1.725-.04-.45-.468-.412-1.288.038-1.757C4.374 7.875 8.462 6 12.999 6c4.5 0 8.588 1.875 11.625 4.883.45.469.488 1.289.038 1.758-.488.507-1.238.547-1.725.039-2.588-2.578-6.075-4.18-9.938-4.18-3.9 0-7.387 1.602-9.975 4.18M13 14.75c-2.137 0-4.087.86-5.587 2.188a1.157 1.157 0 0 1-1.688-.079c-.412-.547-.375-1.328.113-1.797C7.75 13.344 10.263 12.25 13 12.25s5.213 1.094 7.125 2.813c.488.468.563 1.25.113 1.796-.45.508-1.2.547-1.688.078-1.5-1.328-3.45-2.187-5.55-2.187"/>
</svg>