<svg xmlns="http://www.w3.org/2000/svg" width="24" height="24" fill="currentColor" class="icon-signal-alt-outline" viewBox="0 0 24 24">
  <path d="M1.462 12.016c-.375.351-.938.312-1.237-.079A.96.96 0 0 1 .3 10.61C3.412 7.758 7.5 6 12 6c4.462 0 8.549 1.758 11.661 4.61.375.35.413.937.113 1.328-.338.39-.9.43-1.275.078-2.813-2.578-6.487-4.141-10.5-4.141-4.05 0-7.725 1.563-10.537 4.14m10.537 2.734c-2.437 0-4.65.977-6.3 2.578a.87.87 0 0 1-1.275-.078.997.997 0 0 1 .038-1.328c1.987-1.875 4.612-3.047 7.537-3.047 2.887 0 5.512 1.172 7.5 3.047a.997.997 0 0 1 .037 1.328c-.337.39-.9.43-1.275.078-1.65-1.6-3.861-2.577-6.261-2.577"/>
</svg>