<svg xmlns="http://www.w3.org/2000/svg" width="24" height="24" fill="currentColor" class="icon-signs-post-outline" viewBox="0 0 24 24">
  <path d="M11.063 2.938c0-.508.39-.938.937-.938a.95.95 0 0 1 .938.938v.312h6.25c.195 0 .351.117.468.234l2.032 2.5c.156.235.156.586 0 .782l-2.032 2.5a.56.56 0 0 1-.468.234h-6.25v1.25H19.5c.664 0 1.25.586 1.25 1.25v3.75c0 .703-.586 1.25-1.25 1.25h-6.562v4.063c0 .546-.43.937-.938.937-.547 0-.937-.39-.937-.937V17h-6.29a.56.56 0 0 1-.468-.234l-1.992-2.5c-.196-.196-.196-.547 0-.782l1.992-2.5c.117-.117.273-.234.468-.234h6.29V9.5H4.5c-.703 0-1.25-.547-1.25-1.25V4.5c0-.664.547-1.25 1.25-1.25h6.563zM5.125 5.124v2.5h13.438l1.015-1.25-1.015-1.25zm13.75 10v-2.5H5.398l-1.015 1.25 1.015 1.25z"/>
</svg>