<svg xmlns="http://www.w3.org/2000/svg" width="24" height="24" fill="currentColor" class="icon-sort-outline" viewBox="0 0 24 24">
  <path d="M8.984 8.875h6.992L12.5 5.398zm4.375-5.234 5 5c.352.351.469.898.274 1.367a1.28 1.28 0 0 1-1.172.781H7.5a1.28 1.28 0 0 1-1.172-.781 1.26 1.26 0 0 1 .273-1.367l5-5a1.205 1.205 0 0 1 1.758 0M8.984 15.125l3.516 3.516 3.476-3.516zm4.375 5.273a1.205 1.205 0 0 1-1.758 0l-5-5a1.26 1.26 0 0 1-.273-1.367A1.28 1.28 0 0 1 7.5 13.25h10c.469 0 .937.313 1.133.781a1.26 1.26 0 0 1-.274 1.367z"/>
</svg>