<svg xmlns="http://www.w3.org/2000/svg" width="24" height="24" fill="currentColor" class="icon-sort-solid" viewBox="0 0 24 24">
  <mask id="a" width="13" height="18" x="6" y="3" maskUnits="userSpaceOnUse" style="mask-type:alpha">
    <path d="M11.601 3.64a1.205 1.205 0 0 1 1.758 0l5 5c.352.352.469.9.274 1.368-.196.469-.625.781-1.133.781h-10a1.28 1.28 0 0 1-1.172-.781 1.26 1.26 0 0 1 .273-1.367zm0 16.758-5-5a1.26 1.26 0 0 1-.273-1.367A1.28 1.28 0 0 1 7.5 13.25h10c.469 0 .937.313 1.133.781a1.26 1.26 0 0 1-.274 1.367l-5 5a1.205 1.205 0 0 1-1.758 0"/>
  </mask>
  <g mask="url(#a)">
    <path d="M0 0h24v24H0z"/>
  </g>
</svg>