<svg xmlns="http://www.w3.org/2000/svg" width="24" height="24" fill="currentColor" class="icon-split-solid" viewBox="0 0 24 24">
  <mask id="a" width="20" height="18" x="2" y="3" maskUnits="userSpaceOnUse" style="mask-type:alpha">
    <path d="M17.742 3.367a1.26 1.26 0 0 1 1.367.274l2.5 2.5c.235.234.391.546.391.859 0 .352-.156.664-.39.898l-2.5 2.5a1.26 1.26 0 0 1-1.368.274C17.273 10.476 17 10.008 17 9.5V8.25h-1.484c-.313 0-.664.156-.899.39L11.257 12l3.36 3.398c.235.235.586.352.899.352H17V14.5c0-.469.273-.937.742-1.133a1.26 1.26 0 0 1 1.367.274l2.5 2.5c.235.234.391.547.391.859 0 .352-.156.664-.39.898l-2.5 2.5a1.26 1.26 0 0 1-1.368.274c-.469-.195-.742-.664-.742-1.172v-1.25h-1.484c-.977 0-1.953-.39-2.657-1.094L8.953 13.25H3.25C2.547 13.25 2 12.703 2 12c0-.664.547-1.25 1.25-1.25h5.703l3.906-3.867c.704-.703 1.68-1.133 2.657-1.133H17V4.5c0-.469.273-.938.742-1.133"/>
  </mask>
  <g mask="url(#a)">
    <path d="M0 0h24v24H0z"/>
  </g>
</svg>