<svg xmlns="http://www.w3.org/2000/svg" width="24" height="24" fill="currentColor" class="icon-square-small-outline" viewBox="0 0 24 24">
  <mask id="a" width="13" height="14" x="6" y="5" maskUnits="userSpaceOnUse" style="mask-type:alpha">
    <path d="M16.25 7.625h-7.5a.64.64 0 0 0-.625.625v7.5c0 .352.273.625.625.625h7.5a.64.64 0 0 0 .625-.625v-7.5c0-.312-.312-.625-.625-.625M8.75 5.75h7.5c1.367 0 2.5 1.133 2.5 2.5v7.5c0 1.406-1.133 2.5-2.5 2.5h-7.5a2.47 2.47 0 0 1-2.5-2.5v-7.5c0-1.367 1.094-2.5 2.5-2.5"/>
  </mask>
  <g mask="url(#a)">
    <path d="M0 0h24v24H0z"/>
  </g>
</svg>