<svg xmlns="http://www.w3.org/2000/svg" width="24" height="24" fill="currentColor" class="icon-star-stroke-solid" viewBox="0 0 24 24">
  <path d="M12.46 2a.96.96 0 0 1 .86.547l2.696 5.508 5.976.898c.352.04.625.274.742.625a.92.92 0 0 1-.234.977l-4.336 4.297 1.016 6.054a.94.94 0 0 1-.352.938c-.312.195-.703.234-1.015.078l-5.352-2.89-5.313 2.89a1.05 1.05 0 0 1-1.015-.078c-.274-.235-.43-.586-.352-.938l1.016-6.054-4.336-4.297a.92.92 0 0 1-.234-.977c.117-.312.39-.586.742-.625l5.976-.898 2.696-5.508c.156-.313.468-.547.82-.547m0 3.086-2.03 4.258c-.157.273-.39.469-.703.508l-4.61.664 3.32 3.32c.235.234.352.547.274.82l-.781 4.688 4.101-2.188a.92.92 0 0 1 .899 0l4.101 2.188-.781-4.649a.81.81 0 0 1 .273-.82l3.32-3.36-4.609-.663c-.312-.04-.546-.235-.703-.508z"/>
</svg>