<svg xmlns="http://www.w3.org/2000/svg" width="24" height="24" fill="currentColor" class="icon-star-half-stroke-solid" viewBox="0 0 24 24">
  <mask id="a" width="21" height="21" x="2" y="2" maskUnits="userSpaceOnUse" style="mask-type:alpha">
    <path d="m12.5 16.727 1.016.546 3.32 1.758-.625-3.789-.195-1.133.82-.78 2.734-2.735-3.75-.547-1.171-.156-.508-1.055L12.5 5.398zm6.836 3.828c.078.468-.117.937-.508 1.21-.39.313-.898.313-1.328.118l-5-2.695-5.039 2.695c-.39.195-.938.195-1.29-.117a1.23 1.23 0 0 1-.507-1.211l.938-5.703-4.063-4.024c-.312-.312-.469-.82-.312-1.25a1.27 1.27 0 0 1 1.015-.86l5.625-.82 2.5-5.195c.195-.43.625-.703 1.133-.703.469 0 .899.273 1.133.703l2.5 5.195 5.586.82c.468.079.86.391 1.015.86.157.43.04.938-.312 1.25l-4.063 4.024z"/>
  </mask>
  <g mask="url(#a)">
    <path d="M0 0h24v24H0z"/>
  </g>
</svg>