<svg xmlns="http://www.w3.org/2000/svg" width="24" height="24" fill="currentColor" class="icon-star-half-stroke-outline" viewBox="0 0 24 24">
  <path d="m13.32 2.547 2.696 5.508 5.976.898c.352.04.625.313.742.625a.92.92 0 0 1-.234.977l-4.336 4.297 1.055 6.054c.039.352-.117.703-.39.938-.313.195-.665.234-.977.078l-5.352-2.89-5.352 2.89c-.312.156-.703.117-1.015-.078-.274-.235-.43-.586-.352-.938l1.016-6.054-4.336-4.297a.92.92 0 0 1-.234-.977c.117-.312.39-.586.742-.625l5.976-.898 2.696-5.508c.156-.313.468-.547.82-.547a.96.96 0 0 1 .86.547m-.82 14.492c.117 0 .273.04.43.117l4.101 2.188-.781-4.688c-.078-.273.04-.586.273-.82l3.32-3.32-4.609-.664c-.312-.04-.546-.235-.703-.508L12.5 5.125z"/>
</svg>