<svg xmlns="http://www.w3.org/2000/svg" width="24" height="24" fill="currentColor" class="icon-star-solid" viewBox="0 0 24 24">
  <mask id="a" width="21" height="21" x="2" y="2" maskUnits="userSpaceOnUse" style="mask-type:alpha">
    <path d="m13.594 2.703 2.539 5.195 5.586.82c.468.079.859.391 1.015.86.156.43.04.938-.312 1.25l-4.063 4.024.977 5.703c.078.468-.117.937-.508 1.21-.39.313-.898.313-1.328.118l-5-2.695-5.04 2.695c-.39.195-.898.195-1.288-.117a1.23 1.23 0 0 1-.508-1.211l.937-5.703-4.062-4.024c-.313-.312-.43-.82-.313-1.25a1.27 1.27 0 0 1 1.016-.86l5.625-.82 2.5-5.195c.195-.43.625-.703 1.133-.703.469 0 .898.273 1.094.703"/>
  </mask>
  <g mask="url(#a)">
    <path d="M0 0h24v24H0z"/>
  </g>
</svg>