<svg xmlns="http://www.w3.org/2000/svg" width="24" height="24" fill="currentColor" class="icon-steering-wheel-solid" viewBox="0 0 24 24">
  <path d="M10.75 16.023 8.563 13.25H4.578a7.555 7.555 0 0 0 6.172 6.172zm2.5 0v3.399a7.56 7.56 0 0 0 6.133-6.172h-3.985zm2.5-5.273h3.633C18.797 7.234 15.71 4.5 12 4.5c-3.75 0-6.836 2.734-7.422 6.25H8.25l.273-.547c.196-.43.625-.703 1.094-.703h4.727c.469 0 .898.273 1.094.703zM12 22c-3.594 0-6.875-1.875-8.672-5-1.797-3.086-1.797-6.875 0-10C5.125 3.914 8.406 2 12 2c3.555 0 6.836 1.914 8.633 5 1.797 3.125 1.797 6.914 0 10A9.93 9.93 0 0 1 12 22"/>
</svg>