<svg xmlns="http://www.w3.org/2000/svg" width="24" height="24" fill="currentColor" class="icon-stopwatch-outline" viewBox="0 0 24 24">
  <path d="M8.875 2.938c0-.508.39-.938.938-.938h4.374a.95.95 0 0 1 .938.938c0 .546-.43.937-.937.937h-1.25v1.953a7.9 7.9 0 0 1 4.414 1.992l1.171-1.172a.92.92 0 0 1 1.29 0c.39.391.39.977 0 1.329l-1.211 1.21c.937 1.329 1.523 2.97 1.523 4.688C20.125 18.367 16.453 22 12 22a8.12 8.12 0 0 1-8.125-8.125c0-4.14 3.125-7.578 7.188-8.047V3.875h-1.25c-.547 0-.938-.39-.938-.937M12 20.125c2.227 0 4.258-1.172 5.39-3.125 1.133-1.914 1.133-4.297 0-6.25-1.132-1.914-3.163-3.125-5.39-3.125-2.266 0-4.297 1.21-5.43 3.125-1.133 1.953-1.133 4.336 0 6.25A6.22 6.22 0 0 0 12 20.125m.938-9.687V14.5c0 .547-.43.938-.938.938-.547 0-.937-.391-.937-.938v-4.062c0-.508.39-.938.937-.938a.95.95 0 0 1 .938.938"/>
</svg>