<svg xmlns="http://www.w3.org/2000/svg" width="24" height="24" fill="currentColor" class="icon-store-solid" viewBox="0 0 24 24">
  <mask id="a" width="23" height="20" x="1" y="2" maskUnits="userSpaceOnUse" style="mask-type:alpha">
    <path d="M22.617 6.063c1.172 1.835.156 4.375-2.031 4.687h-.469a3.37 3.37 0 0 1-2.54-1.133 3.37 3.37 0 0 1-2.538 1.133 3.45 3.45 0 0 1-2.578-1.133c-.586.703-1.524 1.133-2.54 1.133a3.37 3.37 0 0 1-2.538-1.133 3.37 3.37 0 0 1-2.54 1.133h-.468c-2.188-.312-3.203-2.852-2.031-4.687L4.57 2.547c.195-.352.547-.547.938-.547h13.945c.39 0 .742.195.937.547zm-1.875 5.898c.195 0 .351-.04.508-.078V19.5c0 1.406-1.133 2.5-2.5 2.5H6.25a2.47 2.47 0 0 1-2.5-2.5v-7.617c.117.039.273.078.469.078.195.039.39.039.625.039.468 0 .937-.04 1.406-.195V17h12.5v-5.195c.43.156.898.195 1.367.195.195 0 .43 0 .625-.04"/>
  </mask>
  <g mask="url(#a)">
    <path d="M0 0h24v24H0z"/>
  </g>
</svg>