<svg xmlns="http://www.w3.org/2000/svg" width="24" height="24" fill="currentColor" class="icon-street-view-outline" viewBox="0 0 24 24">
  <mask id="a" width="20" height="20" x="2" y="2" maskUnits="userSpaceOnUse" style="mask-type:alpha">
    <path d="M12 3.875a.925.925 0 0 0-.937.938c0 .546.39.937.937.937.508 0 .938-.39.938-.937A.95.95 0 0 0 12 3.875m0 3.75c-1.016 0-1.953-.508-2.46-1.406-.509-.86-.509-1.914 0-2.813A2.87 2.87 0 0 1 12 2c.977 0 1.914.547 2.422 1.406.508.899.508 1.953 0 2.813A2.77 2.77 0 0 1 12 7.625m-2.5 5.313v.039c.742.156 1.29.82 1.406 1.601l.235 2.149c0 .156.156.273.312.273h1.055c.156 0 .312-.117.312-.273l.274-2.149a1.87 1.87 0 0 1 1.406-1.64v-1.563c0-.664-.586-1.25-1.25-1.25h-2.5c-.703 0-1.25.586-1.25 1.25zm-.234 4.023-.235-2.188c-.82-.195-1.406-.937-1.406-1.835v-1.563A3.11 3.11 0 0 1 10.75 8.25h2.5a3.134 3.134 0 0 1 3.125 3.125v1.563c0 .898-.625 1.64-1.445 1.835l-.235 2.188c-.117 1.094-1.054 1.914-2.187 1.914h-1.055c-1.133 0-2.07-.82-2.187-1.914m-2.11.469c-1.172.195-2.11.468-2.695.78-.117.08-.234.118-.313.196-.156.078-.156.274 0 .352.352.234.899.469 1.68.703 1.524.39 3.711.664 6.172.664 2.422 0 4.61-.273 6.133-.664.781-.234 1.328-.469 1.68-.703.156-.078.156-.274 0-.352-.079-.078-.196-.117-.313-.195-.586-.313-1.523-.586-2.695-.781-.508-.117-.86-.586-.742-1.094.078-.508.585-.86 1.093-.781 1.25.234 2.383.586 3.203.976.391.235.782.469 1.055.782.313.312.547.742.547 1.25 0 .859-.586 1.445-1.133 1.757-.547.39-1.328.703-2.187.938-1.758.469-4.102.742-6.641.742-2.578 0-4.922-.273-6.68-.742-.86-.235-1.64-.547-2.187-.938C2.586 20.008 2 19.422 2 18.562c0-.507.234-.937.508-1.25.312-.312.703-.546 1.094-.78.82-.391 1.953-.743 3.203-.977.508-.078 1.015.273 1.093.78.118.509-.234.977-.742 1.095"/>
  </mask>
  <g mask="url(#a)">
    <path d="M0 0h24v24H0z"/>
  </g>
</svg>