<svg xmlns="http://www.w3.org/2000/svg" width="24" height="24" fill="currentColor" class="icon-sun-solid" viewBox="0 0 24 24">
  <path d="M16.101 2.078a.6.6 0 0 1 .39.469l.782 4.18 4.18.78a.61.61 0 0 1 .469.391c.078.196.078.43-.04.586L19.423 12l2.46 3.555c.118.156.118.39.04.586a.6.6 0 0 1-.47.39l-4.179.742-.781 4.22a.6.6 0 0 1-.39.468c-.196.078-.43.078-.587-.04L12 19.462l-3.555 2.46c-.156.118-.39.118-.586.04a.6.6 0 0 1-.39-.469l-.743-4.219-4.218-.742a.6.6 0 0 1-.47-.39c-.077-.196-.077-.43.04-.586L4.538 12l-2.46-3.516c-.117-.156-.117-.39-.04-.586a.6.6 0 0 1 .47-.39l4.218-.781.743-4.18a.6.6 0 0 1 .39-.469c.195-.078.43-.078.586.04L12 4.577l3.515-2.46c.157-.118.391-.118.586-.04M8.25 12c0-1.328.703-2.54 1.875-3.242 1.133-.664 2.578-.664 3.75 0 1.133.703 1.875 1.914 1.875 3.242 0 1.367-.742 2.578-1.875 3.281-1.172.664-2.617.664-3.75 0C8.953 14.578 8.25 13.367 8.25 12M17 12c0-1.758-.977-3.398-2.5-4.297-1.563-.898-3.477-.898-5 0A4.96 4.96 0 0 0 7 12a4.97 4.97 0 0 0 2.5 4.336c1.523.898 3.437.898 5 0 1.523-.898 2.5-2.54 2.5-4.336"/>
</svg>