<svg xmlns="http://www.w3.org/2000/svg" width="24" height="24" fill="currentColor" class="icon-sun-outline" viewBox="0 0 24 24">
  <path d="m16.648 2.781.704 3.867 3.867.704a.93.93 0 0 1 .703.546.93.93 0 0 1-.117.899L19.578 12l2.227 3.242a.93.93 0 0 1 .117.899.93.93 0 0 1-.703.547l-3.867.703-.704 3.867a.92.92 0 0 1-.546.703.93.93 0 0 1-.899-.117L12 19.617l-3.242 2.227a.93.93 0 0 1-.899.117c-.273-.156-.507-.39-.546-.703l-.704-3.867-3.867-.703a.93.93 0 0 1-.703-.547.93.93 0 0 1 .117-.899L4.383 12 2.156 8.797a.93.93 0 0 1-.117-.899c.156-.273.39-.507.703-.546l3.867-.704.704-3.867a.93.93 0 0 1 .546-.703.93.93 0 0 1 .899.117L12 4.422l3.203-2.227a.93.93 0 0 1 .899-.117c.273.117.507.39.546.703m-4.14 3.516a.88.88 0 0 1-1.055 0L8.875 4.539l-.547 3.086a1.02 1.02 0 0 1-.742.742L4.5 8.914l1.797 2.578c.195.313.195.742 0 1.055L4.5 15.125l3.086.547c.351.078.664.39.742.742l.547 3.086 2.578-1.797a1.02 1.02 0 0 1 1.055 0l2.578 1.797.547-3.086a1.02 1.02 0 0 1 .742-.742l3.086-.547-1.758-2.578a.88.88 0 0 1 0-1.055l1.758-2.578-3.086-.547a1.02 1.02 0 0 1-.742-.742l-.547-3.086zM12 16.375c-1.602 0-3.008-.82-3.79-2.187-.82-1.329-.82-3.008 0-4.376.782-1.328 2.188-2.187 3.79-2.187 1.563 0 2.969.86 3.75 2.188.82 1.367.82 3.046 0 4.374A4.29 4.29 0 0 1 12 16.375M9.5 12a2.54 2.54 0 0 0 1.25 2.188c.742.43 1.719.43 2.5 0 .742-.47 1.25-1.29 1.25-2.188 0-.86-.508-1.68-1.25-2.148-.781-.43-1.758-.43-2.5 0C9.969 10.32 9.5 11.14 9.5 12"/>
</svg>