<svg xmlns="http://www.w3.org/2000/svg" width="24" height="24" fill="currentColor" class="icon-sun-bright-solid" viewBox="0 0 24 24">
  <path d="M12 2a.95.95 0 0 1 .938.938v2.5c0 .546-.43.937-.938.937-.547 0-.937-.39-.937-.937v-2.5c0-.508.39-.938.937-.938m0 15.625a.95.95 0 0 1 .938.938v2.5c0 .546-.43.937-.938.937-.547 0-.937-.39-.937-.937v-2.5c0-.508.39-.938.937-.938m9.063-4.687h-2.5c-.547 0-.938-.391-.938-.938 0-.508.39-.937.938-.937h2.5A.95.95 0 0 1 22 12c0 .547-.43.938-.937.938M6.374 12c0 .547-.43.938-.937.938h-2.5C2.39 12.938 2 12.547 2 12c0-.508.39-.937.938-.937h2.5a.95.95 0 0 1 .937.937M19.07 6.258l-1.797 1.797c-.351.351-.937.351-1.328 0-.351-.39-.351-.977 0-1.328l1.797-1.797c.352-.352.938-.352 1.328 0 .352.39.352.976 0 1.328M8.016 15.984c.351.391.351.977 0 1.329L6.219 19.07a.856.856 0 0 1-1.29 0 .856.856 0 0 1 0-1.289l1.758-1.797c.352-.351.938-.351 1.329 0m9.726 3.086-1.797-1.758c-.351-.351-.351-.937 0-1.328.39-.351.977-.351 1.328 0l1.797 1.797a.92.92 0 0 1 0 1.29c-.39.39-.976.39-1.328 0M8.016 8.055c-.391.351-.977.351-1.328 0L4.93 6.258c-.39-.352-.39-.938 0-1.328a.92.92 0 0 1 1.289 0l1.797 1.797c.351.351.351.937 0 1.328M12 16.375c-1.602 0-3.008-.82-3.79-2.187-.82-1.329-.82-3.008 0-4.376.782-1.328 2.188-2.187 3.79-2.187 1.563 0 2.969.86 3.75 2.188.82 1.367.82 3.046 0 4.374A4.29 4.29 0 0 1 12 16.375"/>
</svg>