<svg xmlns="http://www.w3.org/2000/svg" width="24" height="24" fill="currentColor" class="icon-sunrise-solid" viewBox="0 0 24 24">
  <path d="M15.078 7.313 13.75 6.102v4.023c0 .703-.586 1.25-1.25 1.25-.703 0-1.25-.547-1.25-1.25V6.102l-1.367 1.21a1.24 1.24 0 0 1-1.758-.078 1.24 1.24 0 0 1 .078-1.757l3.438-3.125a1.256 1.256 0 0 1 1.68 0l3.437 3.125a1.24 1.24 0 0 1 .078 1.757c-.43.508-1.25.547-1.758.079m1.524 3.515a.6.6 0 0 1 .39.469l.781 4.18 4.18.78c.235.04.39.196.469.391.078.196.078.43-.04.586l-1.132 1.641h-4.14c-.743-1.797-2.54-3.125-4.61-3.125-2.11 0-3.906 1.328-4.648 3.125H3.75l-1.172-1.64c-.117-.157-.117-.391-.039-.587a.6.6 0 0 1 .469-.39l4.219-.781.742-4.18a.6.6 0 0 1 .39-.469c.196-.078.43-.078.586.04l3.555 2.46 3.516-2.46c.156-.118.39-.118.586-.04M1.25 21.063c0-.508.39-.938.938-.938h20.625a.95.95 0 0 1 .937.938c0 .546-.43.937-.937.937H2.188c-.547 0-.938-.39-.938-.937"/>
</svg>