<svg xmlns="http://www.w3.org/2000/svg" width="24" height="24" fill="currentColor" class="icon-sunset-outline" viewBox="0 0 24 24">
  <path d="M13.164 10.477c-.39.39-.976.39-1.328 0L8.71 7.352a.855.855 0 0 1 0-1.29c.351-.39.937-.39 1.328 0l1.524 1.524V2.938c0-.508.39-.938.937-.938a.95.95 0 0 1 .938.938v4.648l1.523-1.524a.856.856 0 0 1 1.289 0c.39.352.39.938 0 1.29l-3.125 3.125zm3.438.351c.273.117.507.39.546.703l.704 3.867 3.867.704a.93.93 0 0 1 .703.546.93.93 0 0 1-.117.899l-1.797 2.578h2.305a.95.95 0 0 1 .937.938c0 .546-.43.937-.937.937H2.188c-.547 0-.938-.39-.938-.937 0-.508.39-.938.938-.938h2.265l-1.797-2.578a.93.93 0 0 1-.117-.899.92.92 0 0 1 .703-.546l3.867-.704.704-3.867a.93.93 0 0 1 .546-.703.93.93 0 0 1 .899.117l3.242 2.227 3.203-2.227a.93.93 0 0 1 .899-.117m-9.883 9.297h1.445c.274-2.11 2.11-3.75 4.336-3.75 2.188 0 4.023 1.64 4.297 3.75h1.445l1.719-2.46-3.086-.548a1.02 1.02 0 0 1-.742-.742l-.547-3.086-2.578 1.758a.88.88 0 0 1-1.055 0l-2.578-1.758-.547 3.086a1.02 1.02 0 0 1-.742.742L5 17.664zm8.203 0c-.313-1.055-1.29-1.875-2.422-1.875-1.172 0-2.148.82-2.422 1.875z"/>
</svg>