<svg xmlns="http://www.w3.org/2000/svg" width="24" height="24" fill="currentColor" class="icon-sync-outline" viewBox="0 0 24 24">
  <path d="M21.375 9.813c0 .546-.43.937-.937.937h-5.625c-.547 0-.938-.39-.938-.937 0-.508.39-.938.938-.938h3.359L16.14 6.844C15.008 5.75 13.523 5.125 12 5.125a6.86 6.86 0 0 0-6.328 4.219c-.234.469-.781.664-1.25.469a.935.935 0 0 1-.508-1.211C5.242 5.477 8.367 3.25 12 3.25a7.7 7.7 0 0 1 5.43 2.266l2.07 2.07V4.187c0-.507.39-.937.938-.937a.95.95 0 0 1 .937.938zM3.563 13.25h4.374a.95.95 0 0 1 .938.938c0 .546-.43.937-.937.937H5.789l2.07 2.07c1.094 1.094 2.579 1.68 4.141 1.68 2.813 0 5.273-1.68 6.29-4.14.233-.508.78-.704 1.25-.508.468.195.702.742.507 1.25C18.68 18.562 15.594 20.75 12 20.75c-2.07 0-4.023-.781-5.469-2.227L4.5 16.453v2.11c0 .546-.43.937-.937.937-.547 0-.938-.39-.938-.937v-4.375c0-.508.39-.938.938-.938"/>
</svg>