<svg xmlns="http://www.w3.org/2000/svg" width="24" height="24" fill="currentColor" class="icon-sync-solid" viewBox="0 0 24 24">
  <path d="M6.102 9.93c-.235.664-.977 1.015-1.602.78a1.25 1.25 0 0 1-.781-1.6 8.8 8.8 0 0 1 2.07-3.282 8.794 8.794 0 0 1 12.383 0l.664.703V4.5c0-.664.586-1.25 1.25-1.25.703 0 1.25.586 1.25 1.25v5c0 .703-.547 1.25-1.25 1.25h-4.961c-.703 0-1.25-.547-1.25-1.25 0-.664.547-1.25 1.25-1.25h1.953l-.664-.664a6.32 6.32 0 0 0-8.867 0c-.664.703-1.172 1.484-1.445 2.344m-2.579 3.398c.04-.039.118-.039.157-.039.078 0 .117-.039.195-.039h5c.664 0 1.25.586 1.25 1.25 0 .703-.586 1.25-1.25 1.25H6.883l.664.703a6.32 6.32 0 0 0 8.867 0c.664-.703 1.172-1.484 1.445-2.344.235-.664.977-1.015 1.602-.78a1.25 1.25 0 0 1 .781 1.6c-.43 1.212-1.133 2.305-2.07 3.282a8.794 8.794 0 0 1-12.383 0l-.664-.703V19.5c0 .703-.586 1.25-1.25 1.25-.703 0-1.25-.547-1.25-1.25v-5.156c0-.078 0-.117.04-.156.038-.196.155-.391.312-.547.156-.157.351-.274.546-.313"/>
</svg>