<svg xmlns="http://www.w3.org/2000/svg" width="24" height="24" fill="currentColor" class="icon-table-list-outline" viewBox="0 0 24 24">
  <path d="M9.5 5.125v3.438h10.625V5.75c0-.312-.312-.625-.625-.625zm-1.875 0H4.5a.64.64 0 0 0-.625.625v2.813h3.75zm-3.75 5.313v3.124h3.75v-3.124zm0 5v2.812c0 .352.273.625.625.625h3.125v-3.437zM9.5 18.875h10a.64.64 0 0 0 .625-.625v-2.812H9.5zm10.625-5.312v-3.126H9.5v3.126zM2 5.75c0-1.367 1.094-2.5 2.5-2.5h15c1.367 0 2.5 1.133 2.5 2.5v12.5c0 1.406-1.133 2.5-2.5 2.5h-15a2.47 2.47 0 0 1-2.5-2.5z"/>
</svg>