<svg xmlns="http://www.w3.org/2000/svg" width="24" height="24" fill="currentColor" class="icon-tag-outline" viewBox="0 0 24 24">
  <path d="M10.945 3.25c.664 0 1.29.273 1.758.742l6.875 6.875a2.523 2.523 0 0 1 0 3.555l-5.195 5.195a2.523 2.523 0 0 1-3.555 0l-6.875-6.875c-.469-.469-.703-1.094-.703-1.758V5.125c0-1.016.82-1.875 1.875-1.875zm-5.82 7.734c0 .157.04.313.156.43l6.875 6.875a.66.66 0 0 0 .899 0l5.195-5.195a.595.595 0 0 0 0-.899L11.375 5.32a.63.63 0 0 0-.43-.195h-5.82zm2.5-4.609c.664 0 1.25.586 1.25 1.25 0 .703-.586 1.25-1.25 1.25-.703 0-1.25-.547-1.25-1.25 0-.664.547-1.25 1.25-1.25"/>
</svg>