<svg xmlns="http://www.w3.org/2000/svg" width="24" height="24" fill="currentColor" class="icon-taxi-solid" viewBox="0 0 24 24">
  <path d="M9.5 2h5c.664 0 1.25.586 1.25 1.25v1.29a3.74 3.74 0 0 1 3.32 2.5l1.367 3.905c.899.39 1.563 1.29 1.563 2.305v7.5c0 .703-.586 1.25-1.25 1.25H19.5c-.703 0-1.25-.547-1.25-1.25v-1.875H5.75v1.875c0 .703-.586 1.25-1.25 1.25H3.25C2.547 22 2 21.453 2 20.75v-7.5a2.53 2.53 0 0 1 1.523-2.305L4.891 7.04a3.75 3.75 0 0 1 3.359-2.5V3.25C8.25 2.586 8.797 2 9.5 2M8.445 7a1.22 1.22 0 0 0-1.172.86l-1.015 2.89h11.445l-1.015-2.89A1.22 1.22 0 0 0 15.516 7zM5.75 13.25c-.703 0-1.25.586-1.25 1.25 0 .703.547 1.25 1.25 1.25.664 0 1.25-.547 1.25-1.25 0-.664-.586-1.25-1.25-1.25M17 14.5c0 .703.547 1.25 1.25 1.25.664 0 1.25-.547 1.25-1.25 0-.664-.586-1.25-1.25-1.25-.703 0-1.25.586-1.25 1.25"/>
</svg>