<svg xmlns="http://www.w3.org/2000/svg" width="24" height="24" fill="currentColor" class="icon-taxi-outline" viewBox="0 0 24 24">
  <path d="M9.5 2h5c.664 0 1.25.586 1.25 1.25v1.29c1.367.077 2.54.976 3.008 2.265l1.328 3.828c1.133.664 1.914 1.875 1.914 3.242v7.188c0 .546-.43.937-.937.937-.547 0-.938-.39-.938-.937v-2.188H3.875v2.188c0 .546-.43.937-.937.937C2.39 22 2 21.61 2 21.063v-7.188c0-1.367.742-2.578 1.875-3.242l1.328-3.828A3.43 3.43 0 0 1 8.25 4.539V3.25C8.25 2.586 8.797 2 9.5 2M8.445 6.375c-.664 0-1.25.43-1.484 1.055l-.938 2.695h11.915L17 7.43c-.234-.625-.82-1.055-1.484-1.055zM5.75 12c-1.055 0-1.875.86-1.875 1.875V17h16.25v-3.125c0-1.016-.86-1.875-1.875-1.875zm1.875 2.5c0 .703-.586 1.25-1.25 1.25-.703 0-1.25-.547-1.25-1.25 0-.664.547-1.25 1.25-1.25.664 0 1.25.586 1.25 1.25m10 1.25c-.703 0-1.25-.547-1.25-1.25 0-.664.547-1.25 1.25-1.25.664 0 1.25.586 1.25 1.25 0 .703-.586 1.25-1.25 1.25"/>
</svg>