<svg xmlns="http://www.w3.org/2000/svg" width="24" height="24" fill="currentColor" class="icon-temperature-half-solid" viewBox="0 0 24 24">
  <path d="M12.5 4.5c-1.055 0-1.875.86-1.875 1.875v6.445c0 .664-.312 1.25-.625 1.64a3.3 3.3 0 0 0-.625 1.915c0 1.758 1.367 3.125 3.125 3.125a3.11 3.11 0 0 0 3.125-3.125c0-.703-.273-1.367-.664-1.875-.313-.43-.586-1.016-.586-1.68V6.375c0-1.016-.86-1.875-1.875-1.875M8.125 6.375C8.125 3.992 10.078 2 12.5 2c2.383 0 4.375 1.992 4.375 4.375v6.485s.04.038.04.078c.741.976 1.21 2.148 1.21 3.437A5.626 5.626 0 0 1 12.5 22a5.6 5.6 0 0 1-5.625-5.625c0-1.29.43-2.46 1.172-3.437.039-.04.039-.079.039-.079 0-.039.039-.039.039-.039zm6.25 10c0 1.055-.86 1.875-1.875 1.875a1.85 1.85 0 0 1-1.875-1.875c0-.781.508-1.484 1.25-1.758v-4.492c0-.312.273-.625.625-.625.313 0 .625.313.625.625v4.492c.703.274 1.25.977 1.25 1.758"/>
</svg>