<svg xmlns="http://www.w3.org/2000/svg" width="24" height="24" fill="currentColor" class="icon-temperature-half-outline" viewBox="0 0 24 24">
  <path d="M12.5 3.875a2.49 2.49 0 0 0-2.5 2.5v6.328c0 .586-.234 1.055-.508 1.445a3.72 3.72 0 0 0-.742 2.227 3.751 3.751 0 0 0 7.5 0c0-.82-.312-1.602-.781-2.227A2.46 2.46 0 0 1 15 12.703V6.375c0-1.367-1.133-2.5-2.5-2.5m-4.375 2.5C8.125 3.992 10.078 2 12.5 2c2.383 0 4.375 1.992 4.375 4.375v6.328c0 .078 0 .195.117.313a5.64 5.64 0 0 1 1.133 3.398c0 3.086-2.54 5.625-5.625 5.625-3.125 0-5.625-2.539-5.625-5.664 0-1.25.39-2.422 1.094-3.36.117-.117.156-.234.156-.312zm6.25 10c0 1.055-.86 1.875-1.875 1.875a1.85 1.85 0 0 1-1.875-1.875c0-.781.508-1.484 1.25-1.758V9.812c0-.312.273-.624.625-.624.313 0 .625.312.625.624v4.805c.703.274 1.25.977 1.25 1.758"/>
</svg>