<svg xmlns="http://www.w3.org/2000/svg" width="24" height="24" fill="currentColor" class="icon-ticket-solid" viewBox="0 0 24 24">
  <path d="M3.75 4.5h17.5c1.367 0 2.5 1.133 2.5 2.5v2.5c0 .352-.312.625-.625.742-.742.274-1.25.938-1.25 1.758s.508 1.523 1.25 1.797c.313.117.625.39.625.703V17c0 1.406-1.133 2.5-2.5 2.5H3.75a2.47 2.47 0 0 1-2.5-2.5v-2.5c0-.312.273-.586.586-.703.742-.274 1.289-.977 1.289-1.797s-.547-1.484-1.29-1.758c-.312-.117-.585-.39-.585-.742V7c0-1.367 1.094-2.5 2.5-2.5m2.5 4.375c0-.312.273-.625.625-.625h11.25c.313 0 .625.313.625.625v6.25a.64.64 0 0 1-.625.625H6.875a.617.617 0 0 1-.625-.625zM5 8.25v7.5c0 .703.547 1.25 1.25 1.25h12.5c.664 0 1.25-.547 1.25-1.25v-7.5C20 7.586 19.414 7 18.75 7H6.25C5.547 7 5 7.586 5 8.25"/>
</svg>