<svg xmlns="http://www.w3.org/2000/svg" width="24" height="24" fill="currentColor" class="icon-ticket-alt-solid" viewBox="0 0 24 24">
  <path d="m1.571 12.929 11-11c.86-.86 2.319-.824 3.221.079l1.65 1.65c.232.232.216.609.097.882a1.73 1.73 0 0 0 .374 1.946c.542.542 1.325.686 1.972.4.274-.119.65-.135.857.072l1.65 1.65c.928.928.938 2.361.078 3.22l-11 11c-.883.884-2.292.85-3.22-.078L6.6 21.1c-.207-.207-.215-.559-.096-.833a1.81 1.81 0 0 0-.376-1.996c-.541-.541-1.323-.636-1.97-.35-.274.12-.626.11-.858-.121l-1.65-1.65c-.902-.902-.963-2.337-.079-3.221m4.46 1.316c-.207-.207-.242-.585-.02-.806l7.07-7.07c.197-.197.6-.187.806.019l4.125 4.125c.232.232.216.609.02.805l-7.072 7.071c-.22.221-.573.213-.805-.02zm-1.2.373 4.95 4.95c.465.464 1.17.48 1.611.039l7.857-7.857c.417-.417.425-1.146-.04-1.61L14.26 5.19c-.438-.439-1.193-.457-1.61-.04l-7.857 7.857c-.442.442-.4 1.173.039 1.61"/>
</svg>