<svg xmlns="http://www.w3.org/2000/svg" width="24" height="24" fill="currentColor" class="icon-ticket-simple-outline" viewBox="0 0 24 24">
  <path d="M1.25 7c0-1.367 1.094-2.5 2.5-2.5h17.5c1.367 0 2.5 1.133 2.5 2.5v2.383a.93.93 0 0 1-.625.86c-.742.273-1.25.976-1.25 1.757 0 .82.508 1.523 1.25 1.797a.93.93 0 0 1 .625.86V17c0 1.406-1.133 2.5-2.5 2.5H3.75a2.47 2.47 0 0 1-2.5-2.5v-2.344a.88.88 0 0 1 .625-.86c.703-.273 1.25-.976 1.25-1.796 0-.781-.547-1.484-1.25-1.758a.88.88 0 0 1-.625-.86zm2.5-.625A.64.64 0 0 0 3.125 7v1.758C4.219 9.422 5 10.633 5 12c0 1.406-.781 2.617-1.875 3.281V17c0 .352.273.625.625.625h17.5a.64.64 0 0 0 .625-.625v-1.719A3.77 3.77 0 0 1 20 12c0-1.367.742-2.578 1.875-3.242V7c0-.312-.312-.625-.625-.625z"/>
</svg>