<svg xmlns="http://www.w3.org/2000/svg" width="24" height="24" fill="currentColor" class="icon-ticket-simple-solid" viewBox="0 0 24 24">
  <path d="M1.25 7c0-1.367 1.094-2.5 2.5-2.5h17.5c1.367 0 2.5 1.133 2.5 2.5v2.5c0 .352-.312.625-.625.742-.742.274-1.25.938-1.25 1.758s.508 1.523 1.25 1.797c.313.117.625.39.625.703V17c0 1.406-1.133 2.5-2.5 2.5H3.75a2.47 2.47 0 0 1-2.5-2.5v-2.5c0-.312.273-.586.586-.703.742-.274 1.289-.977 1.289-1.797s-.547-1.484-1.29-1.758c-.312-.117-.585-.39-.585-.742z"/>
</svg>