<svg xmlns="http://www.w3.org/2000/svg" width="24" height="24" fill="currentColor" class="icon-timer-solid" viewBox="0 0 24 24">
  <path d="M12 2c5.508 0 10 4.492 10 10 0 5.547-4.492 10-10 10A9.97 9.97 0 0 1 2 12a9.94 9.94 0 0 1 2.969-7.11 1.25 1.25 0 0 1 1.797 0c.468.508.468 1.29-.04 1.758A7.6 7.6 0 0 0 4.5 12c0 4.14 3.36 7.5 7.5 7.5s7.5-3.36 7.5-7.5c0-3.71-2.734-6.797-6.25-7.383V5.75C13.25 6.453 12.664 7 12 7c-.703 0-1.25-.547-1.25-1.25v-2.5c0-.664.547-1.25 1.25-1.25M9.54 8.21l3.124 3.126c.352.39.352.976 0 1.328-.39.39-.976.39-1.328 0L8.21 9.54c-.39-.351-.39-.937 0-1.328.351-.352.937-.352 1.328 0"/>
</svg>