<svg xmlns="http://www.w3.org/2000/svg" width="24" height="24" fill="currentColor" class="icon-trash-can-outline" viewBox="0 0 24 24">
  <path d="m9.89 4.031-.742 1.094h5.665l-.743-1.094a.33.33 0 0 0-.273-.156h-3.633a.33.33 0 0 0-.273.156m5.743-1.054 1.445 2.148h2.735a.95.95 0 0 1 .937.938c0 .546-.43.937-.937.937H19.5v11.875A3.11 3.11 0 0 1 16.375 22h-8.75C5.867 22 4.5 20.633 4.5 18.875V7h-.312c-.547 0-.938-.39-.938-.937 0-.508.39-.938.938-.938h2.695l1.445-2.148A2.24 2.24 0 0 1 10.164 2h3.633c.742 0 1.445.39 1.836.977M6.375 7v11.875c0 .703.547 1.25 1.25 1.25h8.75c.664 0 1.25-.547 1.25-1.25V7zM9.5 9.5v8.125a.64.64 0 0 1-.625.625.617.617 0 0 1-.625-.625V9.5c0-.312.273-.625.625-.625.313 0 .625.313.625.625m3.125 0v8.125a.64.64 0 0 1-.625.625.617.617 0 0 1-.625-.625V9.5c0-.312.273-.625.625-.625.313 0 .625.313.625.625m3.125 0v8.125a.64.64 0 0 1-.625.625.617.617 0 0 1-.625-.625V9.5c0-.312.273-.625.625-.625.313 0 .625.313.625.625"/>
</svg>