<svg xmlns="http://www.w3.org/2000/svg" width="24" height="24" fill="currentColor" class="icon-trash-can-solid" viewBox="0 0 24 24">
  <path d="M8.523 2.703C8.72 2.273 9.148 2 9.617 2h4.727c.469 0 .898.273 1.094.703l.312.547h3.75c.664 0 1.25.586 1.25 1.25 0 .703-.586 1.25-1.25 1.25h-15c-.703 0-1.25-.547-1.25-1.25 0-.664.547-1.25 1.25-1.25h3.75zM4.5 7h15v12.5c0 1.406-1.133 2.5-2.5 2.5H7a2.47 2.47 0 0 1-2.5-2.5zm3.75 2.5a.64.64 0 0 0-.625.625v8.75c0 .352.273.625.625.625a.64.64 0 0 0 .625-.625v-8.75c0-.312-.312-.625-.625-.625m3.75 0a.64.64 0 0 0-.625.625v8.75c0 .352.273.625.625.625a.64.64 0 0 0 .625-.625v-8.75c0-.312-.312-.625-.625-.625m3.75 0a.64.64 0 0 0-.625.625v8.75c0 .352.273.625.625.625a.64.64 0 0 0 .625-.625v-8.75c0-.312-.312-.625-.625-.625"/>
</svg>