<svg width="24" height="24" viewBox="0 0 24 24" fill="none" xmlns="http://www.w3.org/2000/svg">
<path d="M10.1641 3.875C10.0469 3.875 9.96875 3.95312 9.89062 4.03125L9.14844 5.125H14.8125L14.0703 4.03125C14.0312 3.95312 13.9141 3.875 13.7969 3.875H10.1641ZM17.0781 5.125H17.5859H19.5H19.8125C20.3203 5.125 20.75 5.55469 20.75 6.0625C20.75 6.60938 20.3203 7 19.8125 7H19.3438L18.4062 19.6953C18.2891 21.0234 17.2344 22 15.9062 22H8.05469C6.72656 22 5.67188 21.0234 5.55469 19.6953L4.61719 7H4.1875C3.64062 7 3.25 6.60938 3.25 6.0625C3.25 5.55469 3.64062 5.125 4.1875 5.125H4.5H6.375H6.88281L8.32812 2.97656C8.71875 2.39062 9.42188 2 10.1641 2H13.7969C14.5391 2 15.2422 2.39062 15.6328 2.97656L17.0781 5.125ZM17.4688 7H6.49219L7.42969 19.5781C7.46875 19.8906 7.74219 20.125 8.05469 20.125H15.9062C16.2188 20.125 16.4922 19.8906 16.5312 19.5781L17.4688 7Z" fill="black"/>
</svg>
