<svg xmlns="http://www.w3.org/2000/svg" width="24" height="24" fill="currentColor" class="icon-trash-outline" viewBox="0 0 24 24">
  <path d="M10.164 3.875c-.117 0-.195.078-.273.156l-.743 1.094h5.665l-.743-1.094a.33.33 0 0 0-.273-.156zm6.914 1.25h2.735a.95.95 0 0 1 .937.938c0 .546-.43.937-.937.937h-.47l-.937 12.695C18.29 21.023 17.234 22 15.906 22H8.055c-1.328 0-2.383-.977-2.5-2.305L4.617 7h-.43c-.546 0-.937-.39-.937-.937 0-.508.39-.938.938-.938h2.695l1.445-2.148A2.24 2.24 0 0 1 10.164 2h3.633c.742 0 1.445.39 1.836.977zM17.468 7H6.493l.938 12.578a.63.63 0 0 0 .625.547h7.851a.63.63 0 0 0 .625-.547z"/>
</svg>