<svg width="24" height="24" viewBox="0 0 24 24" fill="none" xmlns="http://www.w3.org/2000/svg">
<path d="M8.52344 2.70312C8.71875 2.27344 9.14844 2 9.61719 2H14.3438C14.8125 2 15.2422 2.27344 15.4375 2.70312L15.75 3.25H19.5C20.1641 3.25 20.75 3.83594 20.75 4.5C20.75 5.20312 20.1641 5.75 19.5 5.75H4.5C3.79688 5.75 3.25 5.20312 3.25 4.5C3.25 3.83594 3.79688 3.25 4.5 3.25H8.25L8.52344 2.70312ZM19.5 7L18.6406 20.2422C18.6016 21.2578 17.7812 22 16.7656 22H7.19531C6.17969 22 5.35938 21.2578 5.32031 20.2422L4.5 7H19.5Z" fill="black"/>
</svg>
