<svg xmlns="http://www.w3.org/2000/svg" width="24" height="24" fill="currentColor" class="icon-trees-outline" viewBox="0 0 24 24">
  <path d="M7.914 2.625a1.553 1.553 0 0 1 2.383 0l4.531 5.352c.235.273.274.664.117 1.015a.91.91 0 0 1-.82.508h-.586l2.54 3.164c.234.313.273.703.116 1.016a.91.91 0 0 1-.82.508H14.36l2.422 3.437h.156v-7.187c0-.508.39-.938.937-.938a.95.95 0 0 1 .938.938v7.187h4.414l-2.695-3.828a.97.97 0 0 1-.079-.977c.157-.312.508-.508.86-.508h.86l-2.54-3.164a.9.9 0 0 1-.117-.976.96.96 0 0 1 .86-.547h.468l-2.969-3.516-2.344 2.774-1.289-1.406 2.422-2.852a1.553 1.553 0 0 1 2.383 0l4.531 5.352c.235.273.274.664.117 1.015a.91.91 0 0 1-.82.508h-.586l2.54 3.164c.234.313.273.703.116 1.016a.91.91 0 0 1-.82.508H23.11l2.695 3.867a.97.97 0 0 1 .078.976.91.91 0 0 1-.82.508h-6.25v1.563a.95.95 0 0 1-.938.937.925.925 0 0 1-.937-.937V19.5h-6.875v1.563c0 .546-.43.937-.938.937-.547 0-.937-.39-.937-.937V19.5h-6.25c-.352 0-.703-.195-.86-.508a.9.9 0 0 1 .078-.937l2.696-3.867h-.977c-.39 0-.703-.196-.86-.508-.155-.313-.116-.703.118-1.016L4.673 9.5h-.548c-.39 0-.703-.195-.86-.508-.155-.351-.116-.742.118-1.015zm3.086 15h3.477l-2.696-3.828a.97.97 0 0 1-.078-.977c.157-.312.508-.508.86-.508h.86l-2.54-3.164a.9.9 0 0 1-.117-.976.96.96 0 0 1 .86-.547h.468L9.125 4.109 6.117 7.625h.508c.352 0 .664.234.82.547a.9.9 0 0 1-.117.976L4.79 12.313h.899c.351 0 .664.195.82.507a.97.97 0 0 1-.078.977l-2.695 3.828h4.453v-7.187c0-.508.39-.938.937-.938a.95.95 0 0 1 .938.938v7.187z"/>
</svg>