<svg xmlns="http://www.w3.org/2000/svg" width="24" height="24" fill="currentColor" class="icon-trees-solid" viewBox="0 0 24 24">
  <path d="m2.734 6.766 4.22-4.532C7.108 2.117 7.265 2 7.5 2c.195 0 .39.117.508.234l4.219 4.532a.92.92 0 0 1 .273.625c0 .468-.43.859-.898.859h-.977l2.89 3.516a.8.8 0 0 1 .235.586c0 .507-.43.898-.937.898h-.938l2.89 3.516a.8.8 0 0 1 .235.586c0 .507-.43.898-.937.898H8.75v2.5c0 .703-.586 1.25-1.25 1.25-.703 0-1.25-.547-1.25-1.25v-2.5H.898A.884.884 0 0 1 0 17.352c0-.235.04-.43.195-.586l2.93-3.516h-.977a.884.884 0 0 1-.898-.898c0-.235.04-.43.195-.586l2.93-3.516H3.359a.867.867 0 0 1-.859-.86c0-.234.078-.468.234-.624m10.586-.664 3.633-3.868c.156-.117.313-.234.547-.234.195 0 .39.117.508.234l4.219 4.532a.92.92 0 0 1 .273.625c0 .468-.43.859-.898.859h-.977l2.89 3.516a.8.8 0 0 1 .235.586c0 .507-.43.898-.937.898h-.938l2.89 3.516a.8.8 0 0 1 .235.586c0 .507-.43.898-.937.898H18.75v2.5c0 .703-.586 1.25-1.25 1.25-.703 0-1.25-.547-1.25-1.25v-3.438c-.04-.468-.195-.976-.508-1.367l-1.601-1.875a2.15 2.15 0 0 0 .82-1.718c0-.508-.156-1.016-.469-1.407L12.891 9.07a2.13 2.13 0 0 0 .82-1.68 2.18 2.18 0 0 0-.39-1.288"/>
</svg>