<svg xmlns="http://www.w3.org/2000/svg" width="24" height="24" fill="currentColor" class="icon-tree-outline" viewBox="0 0 24 24">
  <path d="m12.664 2.313 5.625 6.25a.9.9 0 0 1 .156 1.015c-.117.352-.468.547-.82.547h-.468l2.421 2.852a.9.9 0 0 1 .117.976.88.88 0 0 1-.82.547h-.937l2.617 3.516a.97.97 0 0 1 .078.976.91.91 0 0 1-.82.508h-6.875v1.563c0 .546-.43.937-.938.937-.547 0-.937-.39-.937-.937V19.5H4.188c-.39 0-.703-.195-.86-.508a.97.97 0 0 1 .078-.976L6.063 14.5h-.938c-.39 0-.703-.195-.86-.547a.9.9 0 0 1 .118-.976l2.422-2.852h-.43c-.39 0-.742-.195-.86-.547a.9.9 0 0 1 .157-1.015l5.625-6.25c.156-.196.43-.313.703-.313a.9.9 0 0 1 .664.313m.274 15.312h5l-2.656-3.477a.97.97 0 0 1-.079-.976.96.96 0 0 1 .86-.547h.742l-2.422-2.812c-.234-.274-.273-.665-.117-1.016a.96.96 0 0 1 .86-.547h.39L12 4.344 8.446 8.25h.43c.35 0 .663.234.82.547.156.351.117.742-.118 1.015l-2.422 2.813h.782c.351 0 .664.234.82.547a.97.97 0 0 1-.078.976l-2.617 3.477h5v-7.187c0-.508.39-.938.937-.938a.95.95 0 0 1 .938.938z"/>
</svg>