<svg xmlns="http://www.w3.org/2000/svg" width="24" height="24" fill="currentColor" class="icon-tree-solid" viewBox="0 0 24 24">
  <path d="M11.453 2.234C11.61 2.117 11.766 2 12 2c.195 0 .39.117.508.234l5.82 6.407c.117.156.235.39.235.586 0 .507-.43.898-.938.898h-.937l2.851 2.89a.93.93 0 0 1 .273.626c0 .468-.43.859-.898.859h-1.289l2.89 3.516a.8.8 0 0 1 .235.586c0 .507-.43.898-.937.898H13.25v1.25c0 .703-.586 1.25-1.25 1.25-.703 0-1.25-.547-1.25-1.25V19.5H4.148a.884.884 0 0 1-.898-.898c0-.235.04-.43.195-.586l2.93-3.516H5.047a.867.867 0 0 1-.86-.86c0-.234.079-.468.235-.624l2.89-2.891h-.976a.884.884 0 0 1-.899-.898c0-.196.079-.43.235-.586z"/>
</svg>