<svg width="24" height="24" viewBox="0 0 24 24" fill="none" xmlns="http://www.w3.org/2000/svg">
<path fill-rule="evenodd" clip-rule="evenodd" d="M20.3333 2.83337C21.2361 2.83337 22 3.54952 22 4.39587V19.6042C22 20.4831 21.2361 21.1667 20.3333 21.1667H17.8333V18.5625C17.8333 17.7162 17.0694 17 16.1667 17C15.2292 17 14.5 17.7162 14.5 18.5625V21.1667H12C11.0625 21.1667 10.3333 20.4831 10.3333 19.6042V17.9155C11.1882 16.9267 11.3347 15.5265 10.7727 14.3967H12.4991C14.3018 14.3967 15.75 12.9589 15.75 11.1485C15.75 9.41691 14.3439 7.90033 12.4991 7.90033H10.7905C11.3315 6.77697 11.1791 5.39615 10.3333 4.41787V4.39587C10.3333 3.54952 11.0625 2.83337 12 2.83337H20.3333ZM13.6667 11.1485C13.6667 11.8037 13.1559 12.3134 12.4991 12.3134H10.3333H6.00443L8.66797 15.0071C9.1423 15.4439 9.1423 16.2083 8.66797 16.6451C8.23013 17.1183 7.4639 17.1183 7.02606 16.6451L2.35575 11.9857C1.88142 11.5489 1.88142 10.7845 2.35575 10.3477L7.02606 5.68829C7.4639 5.21507 8.23013 5.21507 8.66797 5.68829C9.1423 6.12511 9.1423 6.88954 8.66797 7.32635L6.00443 9.98366L12.4991 9.98366C12.5401 9.98366 12.5806 9.98579 12.6204 9.98994C13.2177 10.0522 13.6667 10.5684 13.6667 11.1485Z" fill="black"/>
</svg>
