<svg width="24" height="24" viewBox="0 0 24 24" fill="none" xmlns="http://www.w3.org/2000/svg">
<path fill-rule="evenodd" clip-rule="evenodd" d="M9 2H2V3.5H3.5C3.77614 3.5 4 3.72386 4 4V7C4 7.27614 3.77614 7.5 3.5 7.5H2V8.5H3.5C3.77614 8.5 4 8.72386 4 9V12C4 12.2761 3.77614 12.5 3.5 12.5H2V13.5H3.5C3.77614 13.5 4 13.7239 4 14V17C4 17.2761 3.77614 17.5 3.5 17.5H2V22H10V3C10 2.44772 9.55228 2 9 2ZM4.99997 4C4.99997 3.72386 5.22383 3.5 5.49997 3.5H7.99997C8.27611 3.5 8.49997 3.72386 8.49997 4V7C8.49997 7.27614 8.27611 7.5 7.99997 7.5H5.49997C5.22383 7.5 4.99997 7.27614 4.99997 7V4ZM5.49997 8.5C5.22383 8.5 4.99997 8.72386 4.99997 9V12C4.99997 12.2761 5.22383 12.5 5.49997 12.5H7.99997C8.27611 12.5 8.49997 12.2761 8.49997 12V9C8.49997 8.72386 8.27611 8.5 7.99997 8.5H5.49997ZM4.99997 14C4.99997 13.7239 5.22383 13.5 5.49997 13.5H7.99997C8.27611 13.5 8.49997 13.7239 8.49997 14V17C8.49997 17.2761 8.27611 17.5 7.99997 17.5H5.49997C5.22383 17.5 4.99997 17.2761 4.99997 17V14ZM17.7614 6.21078C17.2929 6.49182 17.0119 6.96023 17.0119 7.49108C17.0119 8.05316 17.2929 8.52157 17.7614 8.80261C18.1985 9.08365 18.7918 9.08365 19.2602 8.80261C19.6974 8.52157 20.0097 8.05316 20.0097 7.49108C20.0097 6.96023 19.6974 6.49182 19.2602 6.21078C18.7918 5.92974 18.1985 5.92974 17.7614 6.21078ZM16.4186 14.3298L17.3554 11.5193C17.6052 11.5506 17.8238 11.6443 18.0424 11.7379V11.7692L17.0119 15.0167L16.5123 14.6108C16.4186 14.5483 16.3874 14.4234 16.4186 14.3298ZM18.261 16.0472L19.1666 13.1744L19.4788 14.3298C19.5413 14.5483 19.6662 14.7357 19.8223 14.8606L20.7279 15.7662C21.0089 16.0785 21.4773 16.0785 21.7896 15.7662C22.0707 15.4852 22.0707 15.0167 21.7896 14.7045L20.9153 13.8614L20.5718 12.6747C20.1346 11.0822 18.6669 9.98923 17.0431 9.98923H16.887C16.3874 9.98923 15.8877 10.0829 15.4193 10.239C14.1703 10.645 13.1398 11.5818 12.6089 12.7684L12.3279 13.4554C12.1405 13.8301 12.3279 14.2673 12.7026 14.4234C13.0773 14.6108 13.5145 14.4234 13.6706 14.0487L13.9829 13.393C14.3264 12.6123 14.9509 12.019 15.7316 11.7379L15.0134 13.8614C14.7636 14.5483 15.0134 15.2978 15.5755 15.7662L18.8231 18.4205L19.5101 21.4183C19.6037 21.8242 20.0097 22.074 20.4156 21.9803C20.8216 21.8867 21.0714 21.4807 20.9777 21.0748L20.2595 17.9833C20.197 17.7335 20.0409 17.4837 19.8223 17.2963L18.261 16.0472ZM15.1071 16.703L14.3576 18.5766L12.2342 20.7313C11.9219 21.0123 11.9219 21.4807 12.2342 21.7617C12.5152 22.074 12.9836 22.074 13.2959 21.7617L15.4506 19.6071C15.5755 19.4822 15.6692 19.3261 15.7316 19.1699L16.3249 17.671L15.1071 16.703Z" fill="black"/>
</svg>
