<svg width="24" height="24" viewBox="0 0 24 24" fill="none" xmlns="http://www.w3.org/2000/svg">
<path fill-rule="evenodd" clip-rule="evenodd" d="M9 2H2V4.5H2.99999C3.27613 4.5 3.49999 4.72386 3.49999 5V7C3.49999 7.27614 3.27613 7.5 2.99999 7.5H2V9.5H2.99999C3.27613 9.5 3.49999 9.72386 3.49999 10V12C3.49999 12.2761 3.27613 12.5 2.99999 12.5H2V14.5H2.99999C3.27613 14.5 3.49999 14.7239 3.49999 15V17C3.49999 17.2761 3.27613 17.5 2.99999 17.5H2V22H10V3C10 2.44772 9.55228 2 9 2ZM4.99998 5C4.99998 4.72386 5.22384 4.5 5.49998 4.5H6.99998C7.27612 4.5 7.49998 4.72386 7.49998 5V7C7.49998 7.27614 7.27612 7.5 6.99998 7.5H5.49998C5.22384 7.5 4.99998 7.27614 4.99998 7V5ZM5.49998 9.5C5.22384 9.5 4.99998 9.72386 4.99998 10V12C4.99998 12.2761 5.22384 12.5 5.49998 12.5H6.99998C7.27612 12.5 7.49998 12.2761 7.49998 12V10C7.49998 9.72386 7.27612 9.5 6.99998 9.5H5.49998ZM4.99998 15C4.99998 14.7239 5.22384 14.5 5.49998 14.5H6.99998C7.27612 14.5 7.49998 14.7239 7.49998 15V17C7.49998 17.2761 7.27612 17.5 6.99998 17.5H5.49998C5.22384 17.5 4.99998 17.2761 4.99998 17V15ZM17.7678 6.21073C17.2995 6.49171 17.0185 6.96 17.0185 7.49073C17.0185 8.05268 17.2995 8.52098 17.7678 8.80195C18.2049 9.08293 18.798 9.08293 19.2663 8.80195C19.7034 8.52098 20.0156 8.05268 20.0156 7.49073C20.0156 6.96 19.7034 6.49171 19.2663 6.21073C18.798 5.92976 18.2049 5.92976 17.7678 6.21073ZM15.9102 12.2517C15.9259 12.2439 15.9415 12.2361 15.9571 12.2361L15.4263 14.2029C15.239 14.8585 15.4263 15.5766 15.8946 16.0761L18.08 18.48L18.7668 21.2273C18.9229 21.758 19.4537 22.1015 19.9844 21.9454C20.5151 21.8205 20.8585 21.2898 20.7337 20.759L20.0156 17.8868C19.9532 17.6371 19.8283 17.4185 19.641 17.2312L18.1112 15.5454L18.7044 13.4849L19.0166 14.2029C19.1415 14.5463 19.3912 14.8273 19.7346 14.9834L20.5463 15.3893C21.0459 15.639 21.639 15.4517 21.8888 14.9522C22.1385 14.4527 21.9512 13.8595 21.4517 13.6098L20.7961 13.2663L20.2966 12.1112C19.7659 10.8312 18.5171 9.98829 17.1122 9.98829C16.3941 9.98829 15.7073 10.1444 15.0517 10.4254L14.802 10.5502C13.7717 10.9873 12.9912 11.8615 12.6478 12.9229L12.5541 13.1727C12.398 13.7034 12.679 14.2654 13.1785 14.4527C13.7093 14.6088 14.2712 14.3278 14.4585 13.7971L14.521 13.5785C14.7083 13.0478 15.1141 12.6107 15.6137 12.361L15.8634 12.2673C15.879 12.2673 15.8946 12.2595 15.9102 12.2517ZM14.9268 16.482L14.1463 18.4176L12.3044 20.2907C11.8985 20.6654 11.8985 21.321 12.3044 21.6956C12.679 22.1015 13.3346 22.1015 13.7093 21.6956L15.6449 19.76C15.7698 19.6351 15.8946 19.4478 15.9571 19.2605L16.4254 18.1366L15.1454 16.7629C15.1141 16.7161 15.0751 16.6693 15.0361 16.6224C14.9971 16.5756 14.958 16.5288 14.9268 16.482Z" fill="black"/>
</svg>
