<svg width="24" height="24" viewBox="0 0 24 24" fill="none" xmlns="http://www.w3.org/2000/svg">
<path fill-rule="evenodd" clip-rule="evenodd" d="M15 2C14.4477 2 14 2.44772 14 3V22H22L22 17.5H21C20.7239 17.5 20.5 17.2761 20.5 17V15C20.5 14.7239 20.7239 14.5 21 14.5H22L22 12.5H21C20.7239 12.5 20.5 12.2761 20.5 12V10C20.5 9.72386 20.7239 9.5 21 9.5H22L22 7.5H21C20.7239 7.5 20.5 7.27614 20.5 7V5C20.5 4.72386 20.7239 4.5 21 4.5H22V2H15ZM17 4.5C16.7239 4.5 16.5 4.72386 16.5 5V7C16.5 7.27614 16.7239 7.5 17 7.5H18.5C18.7762 7.5 19 7.27614 19 7V5C19 4.72386 18.7762 4.5 18.5 4.5H17ZM16.5 10C16.5 9.72386 16.7239 9.5 17 9.5H18.5C18.7762 9.5 19 9.72386 19 10V12C19 12.2761 18.7762 12.5 18.5 12.5H17C16.7239 12.5 16.5 12.2761 16.5 12V10ZM17 14.5C16.7239 14.5 16.5 14.7239 16.5 15V17C16.5 17.2761 16.7239 17.5 17 17.5H18.5C18.7762 17.5 19 17.2761 19 17V15C19 14.7239 18.7762 14.5 18.5 14.5H17ZM7.76781 6.21073C7.29951 6.49171 7.01854 6.96 7.01854 7.49073C7.01854 8.05268 7.29951 8.52098 7.76781 8.80195C8.20488 9.08293 8.79805 9.08293 9.26634 8.80195C9.70341 8.52098 10.0156 8.05268 10.0156 7.49073C10.0156 6.96 9.70341 6.49171 9.26634 6.21073C8.79805 5.92976 8.20488 5.92976 7.76781 6.21073ZM5.91024 12.2517C5.92585 12.2439 5.94146 12.2361 5.95707 12.2361L5.42634 14.2029C5.23902 14.8585 5.42634 15.5766 5.89463 16.0761L8.08 18.48L8.76683 21.2273C8.92293 21.758 9.45366 22.1015 9.98439 21.9454C10.5151 21.8205 10.8585 21.2898 10.7337 20.759L10.0156 17.8868C9.95317 17.6371 9.82829 17.4185 9.64098 17.2312L8.11122 15.5454L8.70439 13.4849L9.01659 14.2029C9.14146 14.5463 9.39122 14.8273 9.73463 14.9834L10.5463 15.3893C11.0459 15.639 11.639 15.4517 11.8888 14.9522C12.1385 14.4527 11.9512 13.8595 11.4517 13.6098L10.7961 13.2663L10.2966 12.1112C9.76585 10.8312 8.51707 9.98829 7.1122 9.98829C6.39415 9.98829 5.70732 10.1444 5.05171 10.4254L4.80195 10.5502C3.77171 10.9873 2.99122 11.8615 2.6478 12.9229L2.55415 13.1727C2.39805 13.7034 2.67902 14.2654 3.17854 14.4527C3.70927 14.6088 4.27122 14.3278 4.45854 13.7971L4.52098 13.5785C4.70829 13.0478 5.11415 12.6107 5.61366 12.361L5.86341 12.2673C5.87902 12.2673 5.89463 12.2595 5.91024 12.2517ZM4.92683 16.482L4.14634 18.4176L2.30439 20.2907C1.89854 20.6654 1.89854 21.321 2.30439 21.6956C2.67902 22.1015 3.33463 22.1015 3.70927 21.6956L5.64488 19.76C5.76976 19.6351 5.89463 19.4478 5.95707 19.2605L6.42537 18.1366L5.14537 16.7629C5.11415 16.7161 5.07512 16.6693 5.0361 16.6224C4.99707 16.5756 4.95805 16.5288 4.92683 16.482Z" fill="black"/>
</svg>
