<svg xmlns="http://www.w3.org/2000/svg" width="24" height="24" fill="currentColor" class="icon-trip-outbound-outline" viewBox="0 0 24 24">
  <path fill-rule="evenodd" d="M9 2H2v1.5h1.5A.5.5 0 0 1 4 4v3a.5.5 0 0 1-.5.5H2v1h1.5A.5.5 0 0 1 4 9v3a.5.5 0 0 1-.5.5H2v1h1.5a.5.5 0 0 1 .5.5v3a.5.5 0 0 1-.5.5H2V22h8V3a1 1 0 0 0-1-1M5 4a.5.5 0 0 1 .5-.5H8a.5.5 0 0 1 .5.5v3a.5.5 0 0 1-.5.5H5.5A.5.5 0 0 1 5 7zm.5 4.5A.5.5 0 0 0 5 9v3a.5.5 0 0 0 .5.5H8a.5.5 0 0 0 .5-.5V9a.5.5 0 0 0-.5-.5zM5 14a.5.5 0 0 1 .5-.5H8a.5.5 0 0 1 .5.5v3a.5.5 0 0 1-.5.5H5.5A.5.5 0 0 1 5 17zm12.761-7.79c-.468.282-.75.75-.75 1.281 0 .562.282 1.03.75 1.312.438.28 1.03.28 1.5 0 .436-.281.749-.75.749-1.312 0-.53-.313-1-.75-1.28-.468-.281-1.062-.281-1.499 0m-1.342 8.12.936-2.81c.25.03.469.124.687.218v.031l-1.03 3.248-.5-.406a.25.25 0 0 1-.093-.281m1.842 1.717.906-2.873.312 1.156c.062.218.187.406.343.53l.906.906c.28.312.75.312 1.062 0 .28-.28.28-.75 0-1.062l-.875-.843-.343-1.186a3.67 3.67 0 0 0-3.529-2.686h-.156c-.5 0-1 .094-1.468.25a4.7 4.7 0 0 0-2.81 2.53l-.281.686a.71.71 0 0 0 .375.968c.374.188.812 0 .968-.374l.312-.656a3.04 3.04 0 0 1 1.749-1.655l-.719 2.123c-.25.687 0 1.437.563 1.905l3.247 2.655.687 2.997a.753.753 0 1 0 1.468-.343l-.719-3.092a1.36 1.36 0 0 0-.437-.687zm-3.154.656-.75 1.874-2.123 2.154a.684.684 0 0 0 0 1.03c.281.313.75.313 1.062 0l2.155-2.154c.124-.125.218-.28.28-.437l.594-1.499z"/>
</svg>