<svg width="24" height="24" viewBox="0 0 24 24" fill="none" xmlns="http://www.w3.org/2000/svg">
<path fill-rule="evenodd" clip-rule="evenodd" d="M15 2C14.4477 2 14 2.44772 14 3V22H22V17.5H21C20.7239 17.5 20.5 17.2761 20.5 17V14C20.5 13.7239 20.7239 13.5 21 13.5H22V12.5H21C20.7239 12.5 20.5 12.2761 20.5 12V9C20.5 8.72386 20.7239 8.5 21 8.5H22V7.5H21C20.7239 7.5 20.5 7.27614 20.5 7V4C20.5 3.72386 20.7239 3.5 21 3.5H22V2H15ZM16 3.5C15.7239 3.5 15.5 3.72386 15.5 4V7C15.5 7.27614 15.7239 7.5 16 7.5H18.5C18.7762 7.5 19 7.27614 19 7V4C19 3.72386 18.7762 3.5 18.5 3.5H16ZM15.5 9C15.5 8.72386 15.7239 8.5 16 8.5H18.5C18.7762 8.5 19 8.72386 19 9V12C19 12.2761 18.7762 12.5 18.5 12.5H16C15.7239 12.5 15.5 12.2761 15.5 12V9ZM16 13.5C15.7239 13.5 15.5 13.7239 15.5 14V17C15.5 17.2761 15.7239 17.5 16 17.5H18.5C18.7762 17.5 19 17.2761 19 17V14C19 13.7239 18.7762 13.5 18.5 13.5H16ZM7.76135 6.21078C7.29295 6.49182 7.01191 6.96023 7.01191 7.49108C7.01191 8.05316 7.29295 8.52157 7.76135 8.80261C8.19853 9.08365 8.79184 9.08365 9.26024 8.80261C9.69742 8.52157 10.0097 8.05316 10.0097 7.49108C10.0097 6.96023 9.69742 6.49182 9.26024 6.21078C8.79184 5.92974 8.19853 5.92974 7.76135 6.21078ZM6.4186 14.3298L7.3554 11.5193C7.60522 11.5506 7.82381 11.6443 8.04239 11.7379V11.7692L7.01191 15.0167L6.51228 14.6108C6.4186 14.5483 6.38737 14.4234 6.4186 14.3298ZM8.26098 16.0472L9.16656 13.1744L9.47883 14.3298C9.54128 14.5483 9.66619 14.7357 9.82232 14.8606L10.7279 15.7662C11.0089 16.0785 11.4773 16.0785 11.7896 15.7662C12.0707 15.4852 12.0707 15.0167 11.7896 14.7045L10.9153 13.8614L10.5718 12.6747C10.1346 11.0822 8.66693 9.98923 7.04313 9.98923H6.887C6.38737 9.98923 5.88774 10.0829 5.41934 10.239C4.17027 10.645 3.13978 11.5818 2.60892 12.7684L2.32788 13.4554C2.14052 13.8301 2.32788 14.2673 2.7026 14.4234C3.07733 14.6108 3.5145 14.4234 3.67064 14.0487L3.9829 13.393C4.3264 12.6123 4.95094 12.019 5.73161 11.7379L5.01339 13.8614C4.76358 14.5483 5.01339 15.2978 5.57547 15.7662L8.82306 18.4205L9.51005 21.4183C9.60373 21.8242 10.0097 22.074 10.4156 21.9803C10.8216 21.8867 11.0714 21.4807 10.9777 21.0748L10.2595 17.9833C10.197 17.7335 10.0409 17.4837 9.82232 17.2963L8.26098 16.0472ZM5.10707 16.703L4.35763 18.5766L2.2342 20.7313C1.92193 21.0123 1.92193 21.4807 2.2342 21.7617C2.51524 22.074 2.98365 22.074 3.29591 21.7617L5.45057 19.6071C5.57547 19.4822 5.66915 19.3261 5.73161 19.1699L6.32492 17.671L5.10707 16.703Z" fill="black"/>
</svg>
