<svg width="24" height="24" viewBox="0 0 24 24" fill="none" xmlns="http://www.w3.org/2000/svg">
<path fill-rule="evenodd" clip-rule="evenodd" d="M20.3333 2.83337C21.2361 2.83337 22 3.54952 22 4.39587V19.6042C22 20.4831 21.2361 21.1667 20.3333 21.1667H17.8333V18.5625C17.8333 17.7162 17.0694 17 16.1667 17C15.2292 17 14.5 17.7162 14.5 18.5625V21.1667H12C11.0625 21.1667 10.3333 20.4831 10.3333 19.6042V17.8992L14.7603 13.4826C16.0799 12.2275 16.0799 10.1059 14.7603 8.85078L10.3333 4.43422V4.39587C10.3333 3.54952 11.0625 2.83337 12 2.83337H20.3333ZM13.3109 11.9857L10.3333 14.9564L8.6406 16.6451C8.20276 17.1183 7.43654 17.1183 6.9987 16.6451C6.52437 16.2083 6.52437 15.4439 6.9987 15.0071L9.66224 12.3134H3.16758C2.51082 12.3134 2 11.8037 2 11.1485C2 10.5297 2.51082 9.98366 3.16758 9.98366H9.66224L6.9987 7.32635C6.52437 6.88954 6.52437 6.12511 6.9987 5.68829C7.43654 5.21507 8.20276 5.21507 8.6406 5.68829L10.3333 7.37706L13.3109 10.3477C13.5113 10.5322 13.6271 10.7753 13.6581 11.0274C13.6663 11.094 13.6686 11.1613 13.665 11.2283C13.6499 11.5077 13.5319 11.7823 13.3109 11.9857Z" fill="black"/>
</svg>
