<svg xmlns="http://www.w3.org/2000/svg" width="24" height="24" fill="currentColor" class="icon-turkish-lira-solid" viewBox="0 0 24 24">
  <path d="M8.75 3.25c.664 0 1.25.586 1.25 1.25v1.406l4.649-1.328c.664-.195 1.328.195 1.523.86.195.664-.195 1.328-.86 1.523L10 8.484v1.172l4.649-1.328c.664-.195 1.328.195 1.523.86.195.664-.195 1.328-.86 1.523L10 12.234v6.016h2.461c2.695 0 4.883-2.07 5-4.727l.04-.312c0-.703.585-1.211 1.288-1.211.703.04 1.211.625 1.211 1.328l-.039.313c-.195 3.984-3.476 7.109-7.5 7.109h-3.71c-.704 0-1.25-.547-1.25-1.25v-6.523l-.938.234c-.664.195-1.329-.195-1.524-.86-.195-.664.195-1.367.86-1.523L7.5 10.36V9.227l-.937.234c-.664.195-1.329-.195-1.524-.86-.195-.664.195-1.367.86-1.523L7.5 6.61V4.5c0-.664.547-1.25 1.25-1.25"/>
</svg>