<svg xmlns="http://www.w3.org/2000/svg" width="24" height="24" fill="currentColor" class="icon-upload-solid" viewBox="0 0 24 24">
  <path d="M13.25 6.297v9.453c0 .703-.586 1.25-1.25 1.25-.703 0-1.25-.547-1.25-1.25V6.297L7.86 9.148a1.205 1.205 0 0 1-1.758 0 1.205 1.205 0 0 1 0-1.757l5-5a1.205 1.205 0 0 1 1.757 0l5 5a1.203 1.203 0 0 1 0 1.757 1.205 1.205 0 0 1-1.757 0zM4.5 15.75h5c0 1.406 1.094 2.5 2.5 2.5 1.367 0 2.5-1.094 2.5-2.5h5c1.367 0 2.5 1.133 2.5 2.5v1.25c0 1.406-1.133 2.5-2.5 2.5h-15A2.47 2.47 0 0 1 2 19.5v-1.25c0-1.367 1.094-2.5 2.5-2.5m14.375 4.063a.926.926 0 0 0 .938-.938.95.95 0 0 0-.938-.937.925.925 0 0 0-.937.937c0 .547.39.938.937.938"/>
</svg>