<svg xmlns="http://www.w3.org/2000/svg" width="24" height="24" fill="currentColor" class="icon-users-solid" viewBox="0 0 24 24">
  <path d="M5.625 2c1.094 0 2.11.625 2.695 1.563.547.976.547 2.187 0 3.125-.586.976-1.601 1.562-2.695 1.562a3.16 3.16 0 0 1-2.734-1.562c-.547-.938-.547-2.149 0-3.125C3.477 2.625 4.492 2 5.625 2M20 2c1.094 0 2.11.625 2.695 1.563.547.976.547 2.187 0 3.125C22.11 7.664 21.094 8.25 20 8.25a3.16 3.16 0 0 1-2.734-1.562c-.547-.938-.547-2.149 0-3.125C17.852 2.625 18.867 2 20 2M0 13.68C0 11.375 1.836 9.5 4.14 9.5h1.68c.625 0 1.211.156 1.758.39-.078.274-.078.587-.078.86 0 1.523.625 2.852 1.68 3.75H.82a.8.8 0 0 1-.82-.82m15.82.82h-.039c1.055-.898 1.68-2.227 1.68-3.75 0-.273 0-.586-.04-.86a4.1 4.1 0 0 1 1.72-.39h1.68A4.184 4.184 0 0 1 25 13.68c0 .468-.39.82-.86.82zm-7.07-3.75c0-1.328.703-2.54 1.875-3.242 1.133-.664 2.578-.664 3.75 0 1.133.703 1.875 1.914 1.875 3.242 0 1.367-.742 2.578-1.875 3.281-1.172.664-2.617.664-3.75 0-1.172-.703-1.875-1.914-1.875-3.281M5 20.984c0-2.89 2.305-5.234 5.195-5.234h4.57A5.235 5.235 0 0 1 20 20.984c0 .547-.469 1.016-1.055 1.016H6.015A1.01 1.01 0 0 1 5 20.984"/>
</svg>