<svg xmlns="http://www.w3.org/2000/svg" width="24" height="24" fill="currentColor" class="icon-user-plus-outline" viewBox="0 0 24 24">
  <path d="M5.625 7c0 1.133.586 2.148 1.563 2.734.937.547 2.148.547 3.125 0 .937-.586 1.562-1.601 1.562-2.734 0-1.094-.625-2.11-1.562-2.695-.977-.547-2.188-.547-3.126 0C6.212 4.89 5.626 5.906 5.626 7m8.125 0c0 1.797-.977 3.438-2.5 4.336-1.562.898-3.477.898-5 0A4.97 4.97 0 0 1 3.75 7c0-1.758.938-3.398 2.5-4.297 1.523-.898 3.438-.898 5 0 1.523.899 2.5 2.54 2.5 4.297m-3.242 8.75H6.953c-2.578 0-4.687 1.914-5.039 4.375h13.633c-.352-2.46-2.461-4.375-5.04-4.375m-3.555-1.875h3.555a6.985 6.985 0 0 1 6.992 6.992c0 .625-.547 1.133-1.172 1.133H1.133A1.134 1.134 0 0 1 0 20.867C0 17 3.086 13.875 6.953 13.875m12.735.313v-2.5h-2.5c-.547 0-.938-.391-.938-.938 0-.508.39-.937.938-.937h2.5v-2.5c0-.508.39-.938.937-.938a.95.95 0 0 1 .938.938v2.5h2.5a.95.95 0 0 1 .937.937c0 .547-.43.938-.937.938h-2.5v2.5c0 .546-.43.937-.938.937-.547 0-.937-.39-.937-.937"/>
</svg>