<svg xmlns="http://www.w3.org/2000/svg" width="24" height="24" fill="currentColor" class="icon-user-minus-solid" viewBox="0 0 24 24">
  <path d="M3.75 7c0-1.758.938-3.398 2.5-4.297 1.523-.898 3.438-.898 5 0 1.523.899 2.5 2.54 2.5 4.297 0 1.797-.977 3.438-2.5 4.336-1.562.898-3.477.898-5 0A4.97 4.97 0 0 1 3.75 7M0 20.867C0 17 3.086 13.875 6.953 13.875h3.555a6.985 6.985 0 0 1 6.992 6.992c0 .625-.547 1.133-1.172 1.133H1.133A1.134 1.134 0 0 1 0 20.867M18.438 9.813h5.625a.95.95 0 0 1 .937.937c0 .547-.43.938-.937.938h-5.625c-.547 0-.938-.391-.938-.938 0-.508.39-.937.938-.937"/>
</svg>