<svg xmlns="http://www.w3.org/2000/svg" width="24" height="24" fill="currentColor" class="icon-user-shield-outline" viewBox="0 0 24 24">
  <path d="M8.75 10.125c1.094 0 2.11-.586 2.695-1.562.547-.938.547-2.149 0-3.126C10.86 4.5 9.844 3.875 8.75 3.875c-1.133 0-2.148.625-2.734 1.563-.547.976-.547 2.187 0 3.125a3.16 3.16 0 0 0 2.734 1.562M8.75 2c1.758 0 3.398.977 4.297 2.5.898 1.563.898 3.477 0 5A4.96 4.96 0 0 1 8.75 12a4.97 4.97 0 0 1-4.336-2.5c-.898-1.523-.898-3.437 0-5C5.313 2.977 6.954 2 8.75 2M1.914 20.125H14.61c.508.703 1.172 1.328 1.914 1.875H1.133A1.134 1.134 0 0 1 0 20.867C0 17 3.086 13.875 6.953 13.875h3.555c.703 0 1.367.117 1.992.313.04.624.117 1.367.313 2.148a5.04 5.04 0 0 0-2.305-.586H6.953c-2.578 0-4.687 1.914-5.039 4.375m17.11-9.297a.97.97 0 0 1 .663 0l4.688 1.875c.39.156.625.508.625.86 0 2.5-1.016 6.601-5.273 8.398a1.2 1.2 0 0 1-.743 0c-4.257-1.797-5.234-5.898-5.234-8.398 0-.352.234-.704.586-.86zm4.062 3.36-3.711-1.485v7.344c2.656-1.29 3.555-3.867 3.71-5.86"/>
</svg>