<svg xmlns="http://www.w3.org/2000/svg" width="24" height="24" fill="currentColor" class="icon-user-outline" viewBox="0 0 24 24">
  <path d="M15.125 7c0-1.094-.625-2.11-1.562-2.695-.977-.547-2.188-.547-3.126 0C9.462 4.89 8.876 5.906 8.876 7c0 1.133.586 2.148 1.563 2.734.937.547 2.148.547 3.124 0C14.5 9.148 15.126 8.133 15.126 7M7 7c0-1.758.938-3.398 2.5-4.297 1.523-.898 3.438-.898 5 0C16.023 3.602 17 5.243 17 7c0 1.797-.977 3.438-2.5 4.336-1.562.898-3.477.898-5 0A4.97 4.97 0 0 1 7 7M5.164 20.125h13.633c-.352-2.46-2.461-4.375-5.04-4.375h-3.554c-2.578 0-4.687 1.914-5.039 4.375m-1.914.742c0-3.867 3.086-6.992 6.953-6.992h3.555a6.985 6.985 0 0 1 6.992 6.992c0 .625-.547 1.133-1.172 1.133H4.383a1.134 1.134 0 0 1-1.133-1.133"/>
</svg>