<svg xmlns="http://www.w3.org/2000/svg" width="24" height="24" fill="currentColor" class="icon-users-outline" viewBox="0 0 24 24">
  <path d="M5.625 8.25a3.16 3.16 0 0 1-2.734-1.562c-.547-.938-.547-2.149 0-3.125C3.477 2.625 4.492 2 5.625 2c1.094 0 2.11.625 2.695 1.563.547.976.547 2.187 0 3.125-.586.976-1.601 1.562-2.695 1.562M20 8.25a3.16 3.16 0 0 1-2.734-1.562c-.547-.938-.547-2.149 0-3.125C17.852 2.625 18.867 2 20 2c1.094 0 2.11.625 2.695 1.563.547.976.547 2.187 0 3.125C22.11 7.664 21.094 8.25 20 8.25M0 13.68C0 11.375 1.836 9.5 4.14 9.5h1.68c.625 0 1.211.156 1.758.39-.078.274-.078.587-.078.86 0 1.523.625 2.852 1.68 3.75H.82a.8.8 0 0 1-.82-.82m15.82.82h-.039a4.88 4.88 0 0 0 1.719-3.75c0-.273-.04-.586-.078-.86a4.1 4.1 0 0 1 1.719-.39h1.68A4.184 4.184 0 0 1 25 13.68c0 .468-.39.82-.86.82zM12.5 8.875c-.703 0-1.29.39-1.64.938-.352.585-.352 1.328 0 1.874a1.87 1.87 0 0 0 1.64.938c.664 0 1.25-.352 1.602-.937.351-.547.351-1.29 0-1.876-.352-.546-.938-.937-1.602-.937m0 5.625c-1.367 0-2.578-.703-3.281-1.875-.664-1.133-.664-2.578 0-3.75C9.922 7.742 11.133 7 12.5 7c1.328 0 2.54.742 3.242 1.875.664 1.172.664 2.617 0 3.75-.703 1.172-1.914 1.875-3.242 1.875m-2.305 3.125c-1.562 0-2.851 1.094-3.242 2.5h11.055c-.39-1.406-1.68-2.5-3.242-2.5zm0-1.875h4.57A5.235 5.235 0 0 1 20 20.984C20 21.57 19.531 22 18.945 22H6.015A1.01 1.01 0 0 1 5 20.984c0-2.89 2.305-5.234 5.195-5.234"/>
</svg>