<svg xmlns="http://www.w3.org/2000/svg" width="24" height="24" fill="currentColor" class="icon-van-shuttle-outline" viewBox="0 0 24 24">
  <path d="M1.8 5.75V9.5h4.8V5.125H2.4c-.337 0-.6.313-.6.625m0 5.625V14.5c0 .352.262.625.6.625h.45c.637-1.094 1.8-1.875 3.15-1.875 1.313 0 2.475.781 3.113 1.875h5.737c.638-1.094 1.8-1.875 3.15-1.875 1.313 0 2.475.781 3.113 1.875h.487c.3 0 .6-.273.6-.625v-3.125zM8.4 9.5h4.2V5.125H8.4zm6 0h6.75l-3.487-4.258q-.113-.117-.226-.117H14.4zm9.6 5c0 1.406-1.087 2.5-2.4 2.5 0 2.07-1.613 3.75-3.6 3.75s-3.6-1.68-3.6-3.75H9.6c0 2.07-1.612 3.75-3.6 3.75S2.4 19.07 2.4 17C1.05 17 0 15.906 0 14.5V5.75c0-1.367 1.05-2.5 2.4-2.5h15.038c.6 0 1.2.313 1.575.781L23.475 9.5c.337.39.525.898.525 1.406zM19.8 17c0-.664-.375-1.25-.9-1.602-.562-.351-1.275-.351-1.8 0-.562.352-.9.938-.9 1.602 0 .703.338 1.29.9 1.64.525.352 1.237.352 1.8 0 .525-.35.9-.937.9-1.64M6 18.875c.638 0 1.2-.352 1.537-.937.338-.547.338-1.29 0-1.875-.337-.547-.9-.938-1.537-.938-.675 0-1.237.39-1.575.938-.337.585-.337 1.328 0 1.875.338.585.9.937 1.575.937"/>
</svg>