<svg xmlns="http://www.w3.org/2000/svg" width="24" height="24" fill="currentColor" class="icon-van-shuttle-solid" viewBox="0 0 24 24">
  <path d="M2.4 6.063V9.5H6V5.75H2.7c-.187 0-.3.156-.3.313M20.475 9.5l-3.038-3.75H14.4V9.5zM12 9.5V5.75H8.4V9.5zM22.2 17h-.6c0 2.07-1.613 3.75-3.6 3.75s-3.6-1.68-3.6-3.75H9.6c0 2.07-1.612 3.75-3.6 3.75S2.4 19.07 2.4 17h-.6C.787 17 0 16.18 0 15.125V6.063C0 4.539 1.2 3.25 2.7 3.25h14.738c.712 0 1.35.352 1.837.898l4.163 5.157c.337.43.562 1.015.562 1.601v4.219C24 16.18 23.175 17 22.2 17m-2.4 0c0-.664-.375-1.25-.9-1.602-.562-.351-1.275-.351-1.8 0-.562.352-.9.938-.9 1.602 0 .703.338 1.29.9 1.64.525.352 1.237.352 1.8 0 .525-.35.9-.937.9-1.64M6 18.875c.638 0 1.2-.352 1.537-.937.338-.547.338-1.29 0-1.875-.337-.547-.9-.938-1.537-.938-.675 0-1.237.39-1.575.938-.337.585-.337 1.328 0 1.875.338.585.9.937 1.575.937"/>
</svg>