<svg xmlns="http://www.w3.org/2000/svg" width="24" height="24" fill="currentColor" class="icon-venus-outline" viewBox="0 0 24 24">
  <path d="M7.5 8.875a4.97 4.97 0 0 0 2.5 4.336c1.523.898 3.438.898 5 0 1.523-.899 2.5-2.54 2.5-4.336 0-1.758-.977-3.398-2.5-4.297-1.562-.898-3.477-.898-5 0a4.96 4.96 0 0 0-2.5 4.297m5.938 6.836v1.914h1.874a.95.95 0 0 1 .938.938c0 .546-.43.937-.937.937h-1.876v1.563c0 .546-.43.937-.937.937-.547 0-.937-.39-.937-.937V19.5H9.687c-.546 0-.937-.39-.937-.937 0-.508.39-.938.938-.938h1.874v-1.914a6.88 6.88 0 0 1-5.937-6.836A6.86 6.86 0 0 1 12.5 2c3.79 0 6.875 3.086 6.875 6.875 0 3.516-2.617 6.367-5.937 6.836"/>
</svg>