<svg xmlns="http://www.w3.org/2000/svg" width="24" height="24" fill="currentColor" class="icon-venus-solid" viewBox="0 0 24 24">
  <path d="M8.125 8.875c0 1.602.82 3.008 2.188 3.79 1.328.82 3.007.82 4.374 0 1.329-.782 2.188-2.188 2.188-3.79 0-1.562-.86-2.969-2.187-3.75-1.368-.82-3.047-.82-4.376 0a4.29 4.29 0 0 0-2.187 3.75m5.625 6.797V17H15c.664 0 1.25.586 1.25 1.25 0 .703-.586 1.25-1.25 1.25h-1.25v1.25c0 .703-.586 1.25-1.25 1.25-.703 0-1.25-.547-1.25-1.25V19.5H10c-.703 0-1.25-.547-1.25-1.25 0-.664.547-1.25 1.25-1.25h1.25v-1.328c-3.203-.586-5.625-3.399-5.625-6.797A6.86 6.86 0 0 1 12.5 2c3.79 0 6.875 3.086 6.875 6.875 0 3.398-2.46 6.21-5.625 6.797"/>
</svg>