<svg xmlns="http://www.w3.org/2000/svg" width="24" height="24" fill="currentColor" class="icon-wifi-solid" viewBox="0 0 24 24">
  <path d="M3.024 9.93c-.487.508-1.237.468-1.725-.04-.45-.468-.412-1.288.038-1.757C4.374 5.125 8.462 3.25 12.999 3.25c4.5 0 8.588 1.875 11.625 4.883.45.469.488 1.289.038 1.758-.488.507-1.238.547-1.725.039-2.588-2.578-6.075-4.18-9.938-4.18-3.9 0-7.387 1.602-9.975 4.18M13 12c-2.137 0-4.087.86-5.587 2.188a1.157 1.157 0 0 1-1.688-.079c-.412-.546-.375-1.328.113-1.796C7.75 10.593 10.263 9.5 13 9.5s5.213 1.094 7.125 2.813c.488.468.563 1.25.113 1.796-.45.508-1.2.547-1.688.079C17.05 12.859 15.1 12 13 12m2.4 6.25c0 .898-.487 1.719-1.2 2.188-.75.43-1.687.43-2.4 0a2.56 2.56 0 0 1-1.2-2.188c0-.86.45-1.68 1.2-2.148.713-.43 1.65-.43 2.4 0 .713.468 1.2 1.289 1.2 2.148"/>
</svg>