<svg xmlns="http://www.w3.org/2000/svg" width="24" height="24" fill="currentColor" class="icon-wifi-outline" viewBox="0 0 24 24">
  <path d="M1.463 9.266c-.375.351-.938.312-1.238-.079A.96.96 0 0 1 .3 7.86c3.115-2.852 7.205-4.61 11.709-4.61 4.466 0 8.557 1.758 11.671 4.61a1 1 0 0 1 .113 1.327.873.873 0 0 1-1.276.079c-2.815-2.578-6.492-4.141-10.508-4.141-4.053 0-7.731 1.563-10.546 4.14M12.01 12c-2.44 0-4.654.977-6.305 2.578a.87.87 0 0 1-1.276-.078.997.997 0 0 1 .037-1.328c1.99-1.875 4.617-3.047 7.544-3.047 2.89 0 5.517 1.172 7.506 3.047a.997.997 0 0 1 .037 1.328c-.338.39-.9.43-1.276.078C16.625 12.977 14.411 12 12.01 12m2.101 6.563c0 .82-.412 1.523-1.05 1.914-.676.39-1.464.39-2.102 0-.675-.391-1.05-1.094-1.05-1.915 0-.78.375-1.484 1.05-1.875.638-.39 1.426-.39 2.102 0a2.2 2.2 0 0 1 1.05 1.875"/>
</svg>