<svg xmlns="http://www.w3.org/2000/svg" width="24" height="24" fill="currentColor" class="icon-window-solid" viewBox="0 0 24 24">
  <path d="M22 5.75v12.5c0 1.406-1.133 2.5-2.5 2.5h-15a2.47 2.47 0 0 1-2.5-2.5V5.75c0-1.367 1.094-2.5 2.5-2.5h15c1.367 0 2.5 1.133 2.5 2.5m-16.25 0c-.703 0-1.25.586-1.25 1.25 0 .703.547 1.25 1.25 1.25C6.414 8.25 7 7.703 7 7c0-.664-.586-1.25-1.25-1.25M8.25 7c0 .703.547 1.25 1.25 1.25.664 0 1.25-.547 1.25-1.25 0-.664-.586-1.25-1.25-1.25-.703 0-1.25.586-1.25 1.25m5-1.25C12.547 5.75 12 6.336 12 7c0 .703.547 1.25 1.25 1.25.664 0 1.25-.547 1.25-1.25 0-.664-.586-1.25-1.25-1.25"/>
</svg>