<svg width="24" height="24" viewBox="0 0 24 24" fill="none" xmlns="http://www.w3.org/2000/svg">
<path d="M18.4766 7.35156L13.7891 12.0391L18.4375 16.6875C18.8281 17.0391 18.8281 17.625 18.4375 17.9766C18.0859 18.3672 17.5 18.3672 17.1484 17.9766L12.4609 13.3281L7.8125 17.9766C7.46094 18.3672 6.875 18.3672 6.52344 17.9766C6.13281 17.625 6.13281 17.0391 6.52344 16.6484L11.1719 12L6.52344 7.35156C6.13281 7 6.13281 6.41406 6.52344 6.02344C6.875 5.67188 7.46094 5.67188 7.85156 6.02344L12.5 10.7109L17.1484 6.0625C17.5 5.67188 18.0859 5.67188 18.4766 6.0625C18.8281 6.41406 18.8281 7 18.4766 7.35156Z" fill="black"/>
</svg>
