<svg xmlns="http://www.w3.org/2000/svg" width="24" height="24" fill="currentColor" class="icon-xmark-circle-solid" viewBox="0 0 24 24">
  <path d="M12 22c-3.594 0-6.875-1.875-8.672-5-1.797-3.086-1.797-6.875 0-10C5.125 3.914 8.406 2 12 2c3.555 0 6.836 1.914 8.633 5 1.797 3.125 1.797 6.914 0 10A9.93 9.93 0 0 1 12 22M8.836 8.836c-.39.39-.39.976 0 1.328L10.672 12l-1.836 1.836c-.39.39-.39.976 0 1.328.351.39.937.39 1.289 0l1.836-1.836 1.836 1.836c.39.39.976.39 1.328 0 .39-.351.39-.937 0-1.328L13.289 12l1.836-1.836c.39-.351.39-.937 0-1.328-.352-.352-.937-.352-1.328 0l-1.836 1.836-1.836-1.836a.92.92 0 0 0-1.29 0"/>
</svg>