<svg xmlns="http://www.w3.org/2000/svg" width="24" height="24" fill="currentColor" class="icon-alarm-clock-solid" viewBox="0 0 24 24">
  <path d="M8.25 3.016 2.547 7.742A3.9 3.9 0 0 1 2 5.75C2 3.68 3.64 2 5.71 2c.978 0 1.876.39 2.54 1.016M12 22v.04c-1.992 0-3.79-.665-5.273-1.759l-1.368 1.367a1.205 1.205 0 0 1-1.757 0 1.205 1.205 0 0 1 0-1.757l1.367-1.368A8.8 8.8 0 0 1 3.25 13.25C3.25 8.445 7.156 4.5 12 4.5c4.805 0 8.75 3.945 8.75 8.75 0 1.992-.664 3.79-1.758 5.273l1.367 1.368a1.203 1.203 0 0 1 0 1.757 1.205 1.205 0 0 1-1.757 0l-1.368-1.367A8.76 8.76 0 0 1 12 22m9.414-14.258L15.75 3.016C16.414 2.39 17.273 2 18.25 2 20.32 2 22 3.68 22 5.75c0 .703-.234 1.406-.586 1.992m-8.477 1.446A.95.95 0 0 0 12 8.25a.925.925 0 0 0-.937.938v4.062c0 .273.078.508.273.664l1.875 1.875c.351.39.937.39 1.328 0a.92.92 0 0 0 0-1.289l-1.601-1.602z"/>
</svg>