<svg xmlns="http://www.w3.org/2000/svg" width="24" height="24" fill="currentColor" class="icon-arrow-up-right-from-square-solid" viewBox="0 0 24 24">
  <path d="M14.5 2h6.25c.664 0 1.25.586 1.25 1.25V9.5c0 .703-.586 1.25-1.25 1.25-.703 0-1.25-.547-1.25-1.25V6.297l-7.89 7.851a1.205 1.205 0 0 1-1.758 0 1.205 1.205 0 0 1 0-1.757L17.703 4.5H14.5c-.703 0-1.25-.547-1.25-1.25 0-.664.547-1.25 1.25-1.25M5.125 3.25H9.5c.664 0 1.25.586 1.25 1.25 0 .703-.586 1.25-1.25 1.25H5.125a.64.64 0 0 0-.625.625v12.5c0 .352.273.625.625.625h12.5a.64.64 0 0 0 .625-.625V14.5c0-.664.547-1.25 1.25-1.25.664 0 1.25.586 1.25 1.25v4.375A3.11 3.11 0 0 1 17.625 22h-12.5C3.367 22 2 20.633 2 18.875v-12.5A3.11 3.11 0 0 1 5.125 3.25"/>
</svg>