<svg xmlns="http://www.w3.org/2000/svg" width="24" height="24" fill="currentColor" class="icon-arrow-right-outline" viewBox="0 0 24 24">
  <mask id="a" width="18" height="16" x="3" y="4" maskUnits="userSpaceOnUse" style="mask-type:alpha">
    <path d="m20.438 12.703-6.875 6.563c-.391.351-.977.351-1.329-.04-.351-.39-.351-.976.04-1.328l5.195-4.96H4.187c-.546 0-.937-.391-.937-.938 0-.508.39-.937.938-.937h13.28L12.274 6.14a.93.93 0 0 1-.039-1.328.93.93 0 0 1 1.329-.04l6.874 6.563c.196.195.313.43.313.664a.98.98 0 0 1-.312.703"/>
  </mask>
  <g mask="url(#a)">
    <path d="M0 0h24v24H0z"/>
  </g>
</svg>