<svg xmlns="http://www.w3.org/2000/svg" width="24" height="24" fill="currentColor" class="icon-arrow-left-from-line-solid" viewBox="0 0 24 24">
  <path d="M18.25 5.75c0-.664.547-1.25 1.25-1.25.664 0 1.25.586 1.25 1.25v12.5c0 .703-.586 1.25-1.25 1.25-.703 0-1.25-.547-1.25-1.25zM3.602 12.898a1.205 1.205 0 0 1 0-1.757l5-5a1.205 1.205 0 0 1 1.757 0 1.203 1.203 0 0 1 0 1.757L7.508 10.75H14.5c.664 0 1.25.586 1.25 1.25 0 .703-.586 1.25-1.25 1.25H7.508l2.851 2.89c.508.47.508 1.29 0 1.758a1.205 1.205 0 0 1-1.757 0z"/>
</svg>