<svg xmlns="http://www.w3.org/2000/svg" width="24" height="24" fill="currentColor" class="icon-arrow-right-from-arc-solid" viewBox="0 0 24 24">
  <path d="M4.5 12c0 4.14 3.36 7.5 7.5 7.5.664 0 1.25.586 1.25 1.25 0 .703-.586 1.25-1.25 1.25A9.97 9.97 0 0 1 2 12C2 6.492 6.453 2 12 2c.664 0 1.25.586 1.25 1.25 0 .703-.586 1.25-1.25 1.25-4.14 0-7.5 3.36-7.5 7.5m12.734-5.234 4.375 4.375a1.203 1.203 0 0 1 0 1.757l-4.375 4.375a1.205 1.205 0 0 1-1.757 0 1.205 1.205 0 0 1 0-1.757l2.226-2.266H9.5c-.703 0-1.25-.547-1.25-1.25 0-.664.547-1.25 1.25-1.25h8.203l-2.226-2.227a1.205 1.205 0 0 1 0-1.757 1.205 1.205 0 0 1 1.757 0"/>
</svg>