<svg xmlns="http://www.w3.org/2000/svg" width="24" height="24" fill="currentColor" class="icon-arrow-right-arrow-left-solid" viewBox="0 0 24 24">
  <path d="m20.36 7.898-3.75 3.75a1.205 1.205 0 0 1-1.758 0 1.205 1.205 0 0 1 0-1.757l1.601-1.641H4.5c-.703 0-1.25-.547-1.25-1.25 0-.664.547-1.25 1.25-1.25h11.953l-1.601-1.602a1.205 1.205 0 0 1 0-1.757 1.205 1.205 0 0 1 1.757 0l3.75 3.75a1.203 1.203 0 0 1 0 1.757M7.351 21.648l-3.75-3.75a1.205 1.205 0 0 1 0-1.757l3.75-3.75a1.205 1.205 0 0 1 1.757 0 1.203 1.203 0 0 1 0 1.757l-1.6 1.602H19.5c.664 0 1.25.586 1.25 1.25 0 .703-.586 1.25-1.25 1.25H7.508l1.601 1.64c.508.47.508 1.29 0 1.758a1.205 1.205 0 0 1-1.757 0"/>
</svg>