<svg xmlns="http://www.w3.org/2000/svg" width="24" height="24" fill="currentColor" class="icon-arrow-up-arrow-down-solid" viewBox="0 0 24 24">
  <path d="m8.36 3.64 3.75 3.75c.507.47.507 1.29 0 1.758a1.205 1.205 0 0 1-1.758 0L8.75 7.547V19.5c0 .703-.586 1.25-1.25 1.25-.703 0-1.25-.547-1.25-1.25V7.547L4.61 9.148a1.205 1.205 0 0 1-1.758 0 1.205 1.205 0 0 1 0-1.757l3.75-3.75a1.205 1.205 0 0 1 1.757 0m13.75 13.008-3.75 3.75a1.205 1.205 0 0 1-1.758 0l-3.75-3.75a1.205 1.205 0 0 1 0-1.757 1.205 1.205 0 0 1 1.757 0l1.641 1.601V4.5c0-.664.547-1.25 1.25-1.25.664 0 1.25.586 1.25 1.25v11.992l1.602-1.601a1.205 1.205 0 0 1 1.757 0 1.203 1.203 0 0 1 0 1.757"/>
</svg>