<svg xmlns="http://www.w3.org/2000/svg" width="24" height="24" fill="currentColor" class="icon-arrow-left-outline" viewBox="0 0 24 24">
  <mask id="a" width="18" height="16" x="3" y="4" maskUnits="userSpaceOnUse" style="mask-type:alpha">
    <path d="M3.523 12.703c-.195-.195-.273-.43-.273-.703 0-.234.078-.469.273-.664l6.875-6.563c.391-.351.977-.351 1.329.04a.93.93 0 0 1-.04 1.328l-5.195 4.922h13.32a.95.95 0 0 1 .938.937c0 .547-.43.938-.937.938H6.493l5.195 4.96c.39.352.39.938.039 1.329-.352.39-.938.39-1.329.039z"/>
  </mask>
  <g mask="url(#a)">
    <path d="M0 0h24v24H0z"/>
  </g>
</svg>