<svg xmlns="http://www.w3.org/2000/svg" width="24" height="24" fill="currentColor" class="icon-bars-outline" viewBox="0 0 24 24">
  <path d="M3.25 5.438c0-.508.39-.938.938-.938h15.625a.95.95 0 0 1 .937.938c0 .546-.43.937-.937.937H4.188c-.547 0-.938-.39-.938-.937m0 6.25c0-.508.39-.938.938-.938h15.625a.95.95 0 0 1 .937.938c0 .546-.43.937-.937.937H4.188c-.547 0-.938-.39-.938-.937m17.5 6.25c0 .546-.43.937-.937.937H4.188c-.547 0-.938-.39-.938-.937 0-.508.39-.938.938-.938h15.625a.95.95 0 0 1 .937.938"/>
</svg>