<svg xmlns="http://www.w3.org/2000/svg" width="24" height="24" fill="currentColor" class="icon-box-archive-outline" viewBox="0 0 24 24">
  <mask id="a" width="20" height="18" x="2" y="3" maskUnits="userSpaceOnUse" style="mask-type:alpha">
    <path d="M3.875 5.125V7h16.25V5.125zM3.25 3.25h17.5c.664 0 1.25.586 1.25 1.25v3.125c0 .703-.586 1.25-1.25 1.25H3.25c-.703 0-1.25-.547-1.25-1.25V4.5c0-.664.547-1.25 1.25-1.25m5 8.438c0-.508.39-.938.938-.938h5.624a.95.95 0 0 1 .938.938c0 .546-.43.937-.937.937H9.186c-.546 0-.937-.39-.937-.937m-5 6.562v-8.125h1.875v8.125c0 .352.273.625.625.625h12.5a.64.64 0 0 0 .625-.625v-8.125h1.875v8.125c0 1.406-1.133 2.5-2.5 2.5H5.75a2.47 2.47 0 0 1-2.5-2.5"/>
  </mask>
  <g mask="url(#a)">
    <path d="M0 0h24v24H0z"/>
  </g>
</svg>