<svg xmlns="http://www.w3.org/2000/svg" width="24" height="24" fill="currentColor" class="icon-box-open-solid" viewBox="0 0 24 24">
  <path d="M2.266 3.68c.117-.274.39-.39.664-.352L12.5 4.5l9.532-1.172a.66.66 0 0 1 .663.352l1.602 3.242c.352.703 0 1.562-.742 1.758l-6.406 1.836a1.21 1.21 0 0 1-1.407-.586L12.5 4.5 9.22 9.93c-.273.508-.86.742-1.406.586L1.446 8.68C.664 8.484.313 7.625.664 6.922zM12.539 7l2.149 3.594c.547.976 1.719 1.406 2.812 1.094l5-1.407v6.524c0 .86-.586 1.601-1.445 1.836l-7.969 1.992c-.39.078-.82.078-1.21 0l-7.97-1.992A1.92 1.92 0 0 1 2.5 16.805V10.28l4.961 1.406c1.094.313 2.266-.117 2.852-1.093L12.423 7z"/>
</svg>