<svg xmlns="http://www.w3.org/2000/svg" width="24" height="24" fill="currentColor" class="icon-briefcase-outline" viewBox="0 0 24 24">
  <mask id="a" width="20" height="19" x="2" y="2" maskUnits="userSpaceOnUse" style="mask-type:alpha">
    <path d="M8.875 4.188V5.75h6.25V4.188a.336.336 0 0 0-.312-.313H9.186a.31.31 0 0 0-.312.313M7 5.75V4.188C7 3.016 7.977 2 9.188 2h5.624C15.985 2 17 3.016 17 4.188V5.75h2.5c1.367 0 2.5 1.133 2.5 2.5v10c0 1.406-1.133 2.5-2.5 2.5h-15a2.47 2.47 0 0 1-2.5-2.5v-10c0-1.367 1.094-2.5 2.5-2.5zm-3.125 8.125v4.375c0 .352.273.625.625.625h15a.64.64 0 0 0 .625-.625v-4.375H14.5v.625c0 .703-.586 1.25-1.25 1.25h-2.5c-.703 0-1.25-.547-1.25-1.25v-.625zM9.5 12h10.625V8.25c0-.312-.312-.625-.625-.625h-15a.64.64 0 0 0-.625.625V12z"/>
  </mask>
  <g mask="url(#a)">
    <path d="M0 0h24v24H0z"/>
  </g>
</svg>