<svg xmlns="http://www.w3.org/2000/svg" width="24" height="24" fill="currentColor" class="icon-building-solid" viewBox="0 0 24 24">
  <path d="M6.875 2h11.25C19.141 2 20 2.86 20 3.875v16.25C20 21.18 19.14 22 18.125 22h-3.75v-3.125c0-1.016-.86-1.875-1.875-1.875-1.055 0-1.875.86-1.875 1.875V22h-3.75A1.85 1.85 0 0 1 5 20.125V3.875C5 2.859 5.82 2 6.875 2m.625 9.375v1.25c0 .352.273.625.625.625h1.25a.64.64 0 0 0 .625-.625v-1.25c0-.312-.312-.625-.625-.625h-1.25a.64.64 0 0 0-.625.625m4.375-.625a.64.64 0 0 0-.625.625v1.25c0 .352.273.625.625.625h1.25a.64.64 0 0 0 .625-.625v-1.25c0-.312-.312-.625-.625-.625zm3.125.625v1.25c0 .352.273.625.625.625h1.25a.64.64 0 0 0 .625-.625v-1.25c0-.312-.312-.625-.625-.625h-1.25a.64.64 0 0 0-.625.625M8.125 5.75a.64.64 0 0 0-.625.625v1.25c0 .352.273.625.625.625h1.25A.64.64 0 0 0 10 7.625v-1.25c0-.312-.312-.625-.625-.625zm3.125.625v1.25c0 .352.273.625.625.625h1.25a.64.64 0 0 0 .625-.625v-1.25c0-.312-.312-.625-.625-.625h-1.25a.64.64 0 0 0-.625.625m4.375-.625a.64.64 0 0 0-.625.625v1.25c0 .352.273.625.625.625h1.25a.64.64 0 0 0 .625-.625v-1.25c0-.312-.312-.625-.625-.625z"/>
</svg>