<svg xmlns="http://www.w3.org/2000/svg" width="24" height="24" fill="currentColor" class="icon-bus-simple-solid" viewBox="0 0 24 24">
  <path d="M12 2c4.844 0 8.75 1.406 8.75 3.125V18.25c0 .703-.586 1.25-1.25 1.25v1.25c0 .703-.586 1.25-1.25 1.25H17c-.703 0-1.25-.547-1.25-1.25V19.5h-7.5v1.25C8.25 21.453 7.664 22 7 22H5.75c-.703 0-1.25-.547-1.25-1.25V19.5c-.703 0-1.25-.547-1.25-1.25V5.125C3.25 3.406 7.117 2 12 2M5.75 7v5c0 .703.547 1.25 1.25 1.25h10c.664 0 1.25-.547 1.25-1.25V7c0-.664-.586-1.25-1.25-1.25H7c-.703 0-1.25.586-1.25 1.25m.625 10.625c.664 0 1.25-.547 1.25-1.25 0-.664-.586-1.25-1.25-1.25-.703 0-1.25.586-1.25 1.25 0 .703.547 1.25 1.25 1.25m11.25 0c.664 0 1.25-.547 1.25-1.25 0-.664-.586-1.25-1.25-1.25-.703 0-1.25.586-1.25 1.25 0 .703.547 1.25 1.25 1.25"/>
</svg>