<svg xmlns="http://www.w3.org/2000/svg" width="24" height="24" fill="currentColor" class="icon-bus-outline" viewBox="0 0 24 24">
  <path d="M15.43 5.75h3.828c-.625-.664-2.422-1.875-6.758-1.875-4.023 0-6.055 1.21-6.758 1.875h3.79a1.28 1.28 0 0 1 1.093-.625h3.75c.43 0 .86.273 1.055.625m3.945 1.875h-5.937v3.125h5.937zm-13.75 0v3.125h5.938V7.625zm0 5v4.063c0 .546.39.937.938.937h11.875c.507 0 .937-.39.937-.937v-4.063zm-1.484-7.89C5.117 3.522 7.773 2 12.5 2c5 0 7.422 1.523 8.36 2.773.273.391.39.82.39 1.172V7c.664 0 1.25.586 1.25 1.25v2.5c0 .703-.586 1.25-1.25 1.25v4.688A2.85 2.85 0 0 1 20 19.03v2.032c0 .546-.43.937-.937.937-.547 0-.938-.39-.938-.937V19.5H6.875v1.563c0 .546-.43.937-.937.937C5.39 22 5 21.61 5 21.063V19.03c-.781-.508-1.25-1.367-1.25-2.343V12c-.703 0-1.25-.547-1.25-1.25v-2.5C2.5 7.586 3.047 7 3.75 7V5.945c0-.351.078-.82.39-1.21m3.984 9.14c.664 0 1.25.586 1.25 1.25 0 .703-.586 1.25-1.25 1.25-.703 0-1.25-.547-1.25-1.25 0-.664.547-1.25 1.25-1.25m8.75 0c.664 0 1.25.586 1.25 1.25 0 .703-.586 1.25-1.25 1.25-.703 0-1.25-.547-1.25-1.25 0-.664.547-1.25 1.25-1.25"/>
</svg>