<svg xmlns="http://www.w3.org/2000/svg" width="24" height="24" fill="currentColor" class="icon-cake-candles-outline" viewBox="0 0 24 24">
  <mask id="a" width="18" height="20" x="3" y="2" maskUnits="userSpaceOnUse" style="mask-type:alpha">
    <path d="M6.61 2.234C6.686 2.117 6.843 2 7 2s.273.117.352.234l.976 1.641c.156.273.235.547.235.86v.077c0 .899-.704 1.563-1.563 1.563-.898 0-1.562-.664-1.562-1.562v-.079c0-.312.078-.586.195-.859zm5 0c.078-.117.234-.234.39-.234s.273.117.352.234l.976 1.641c.156.273.235.547.235.86v.077c0 .899-.704 1.563-1.563 1.563-.898 0-1.562-.664-1.562-1.562v-.079c0-.312.078-.586.195-.859zm4.023 1.641.976-1.64C16.687 2.116 16.844 2 17 2s.273.117.352.234l.976 1.641c.156.273.235.547.235.86v.077c0 .899-.704 1.563-1.563 1.563-.898 0-1.562-.664-1.562-1.562v-.079c0-.312.078-.586.195-.859M7.938 8.563v2.187h3.125V8.563c0-.508.39-.938.937-.938a.95.95 0 0 1 .938.938v2.187h3.124V8.563c0-.508.391-.938.938-.938a.95.95 0 0 1 .938.938v2.187h.312c1.367 0 2.5 1.133 2.5 2.5v7.5c0 .703-.586 1.25-1.25 1.25h-15c-.703 0-1.25-.547-1.25-1.25v-7.5c0-1.367 1.094-2.5 2.5-2.5h.313V8.563c0-.508.39-.938.937-.938a.95.95 0 0 1 .938.938M5.75 12.625h-.04c-.312 0-.624.313-.624.625v2.383c.234-.078.43-.195.625-.313.117-.078.234-.195.351-.312.274-.235.547-.508.938-.508.352 0 .625.273.898.508.118.117.235.234.352.312.352.235.82.43 1.25.43s.86-.195 1.21-.43c.118-.078.235-.195.352-.312.274-.235.547-.508.899-.508.39 0 .664.273.937.508.118.117.235.234.352.312.352.235.82.43 1.25.43s.86-.195 1.21-.43c.118-.078.235-.195.352-.312.274-.235.547-.508.899-.508.39 0 .664.273.937.508.118.117.235.234.352.312.195.117.39.235.625.313V13.25c0-.312-.312-.625-.625-.625zm13.125 4.96c-.703-.116-1.328-.468-1.875-.858-.742.546-1.602.898-2.5.898-.937 0-1.797-.352-2.5-.898-.742.546-1.602.898-2.5.898-.937 0-1.797-.352-2.5-.898-.586.39-1.21.742-1.875.859v2.539h13.75z"/>
  </mask>
  <g mask="url(#a)">
    <path d="M0 0h24v24H0z"/>
  </g>
</svg>