<svg xmlns="http://www.w3.org/2000/svg" width="24" height="24" fill="currentColor" class="icon-calendar-times-outline" viewBox="0 0 24 24">
  <path d="M8.25 2a.95.95 0 0 1 .938.938V4.5h5.624V2.938c0-.508.391-.938.938-.938a.95.95 0 0 1 .938.938V4.5h1.562c1.367 0 2.5 1.133 2.5 2.5v12.5c0 1.406-1.133 2.5-2.5 2.5H5.75a2.47 2.47 0 0 1-2.5-2.5V7c0-1.367 1.094-2.5 2.5-2.5h1.563V2.938c0-.508.39-.938.937-.938m10.625 7.5H5.125v10c0 .352.273.625.625.625h12.5a.64.64 0 0 0 .625-.625zm-3.71 3.477-1.837 1.835 1.836 1.836c.352.391.352.977 0 1.329-.39.39-.976.39-1.328 0L12 16.14l-1.836 1.836c-.39.39-.976.39-1.328 0-.39-.352-.39-.938 0-1.329l1.836-1.835-1.836-1.836a.856.856 0 0 1 0-1.29c.351-.39.937-.39 1.328 0L12 13.524l1.836-1.835c.351-.391.937-.391 1.328 0a.92.92 0 0 1 0 1.289"/>
</svg>