<svg xmlns="http://www.w3.org/2000/svg" width="24" height="24" fill="currentColor" class="icon-calendar-clock-solid" viewBox="0 0 24 24">
  <path d="M5 3.25C5 2.586 5.547 2 6.25 2c.664 0 1.25.586 1.25 1.25V4.5h5V3.25c0-.664.547-1.25 1.25-1.25.664 0 1.25.586 1.25 1.25V4.5h1.875c1.016 0 1.875.86 1.875 1.875V8.25H1.25V6.375c0-1.016.82-1.875 1.875-1.875H5zM18.75 9.5v.04c-.234 0-.43-.04-.625-.04a6.86 6.86 0 0 0-6.875 6.875c0 2.344 1.133 4.414 2.89 5.625H3.126a1.85 1.85 0 0 1-1.875-1.875V9.5zm5 6.875c0 2.031-1.094 3.867-2.812 4.883-1.758 1.015-3.907 1.015-5.625 0a5.6 5.6 0 0 1-2.813-4.883 5.58 5.58 0 0 1 2.813-4.844c1.718-1.015 3.867-1.015 5.624 0 1.72 1.016 2.813 2.852 2.813 4.844m-5.625-3.125a.64.64 0 0 0-.625.625v2.5c0 .352.273.625.625.625H20a.64.64 0 0 0 .625-.625c0-.312-.312-.625-.625-.625h-1.25v-1.875c0-.312-.312-.625-.625-.625"/>
</svg>