<svg xmlns="http://www.w3.org/2000/svg" width="24" height="24" fill="currentColor" class="icon-camera-circle-solid" viewBox="0 0 24 24">
  <path d="M12 22c-3.594 0-6.875-1.875-8.672-5-1.797-3.086-1.797-6.875 0-10C5.125 3.914 8.406 2 12 2c3.555 0 6.836 1.914 8.633 5 1.797 3.125 1.797 6.914 0 10A9.93 9.93 0 0 1 12 22M9.656 8.25H8.25C7.547 8.25 7 8.836 7 9.5v5c0 .703.547 1.25 1.25 1.25h7.5c.664 0 1.25-.547 1.25-1.25v-5c0-.664-.586-1.25-1.25-1.25h-1.406l-.274-.625A.93.93 0 0 0 13.21 7h-2.46a.93.93 0 0 0-.86.625zM13.875 12c0 .703-.39 1.29-.937 1.64-.586.352-1.329.352-1.876 0a1.87 1.87 0 0 1-.937-1.64c0-.664.352-1.25.938-1.602.546-.351 1.289-.351 1.874 0 .547.352.938.938.938 1.602"/>
</svg>