<svg xmlns="http://www.w3.org/2000/svg" width="24" height="24" fill="currentColor" class="icon-camera-outline" viewBox="0 0 24 24">
  <mask id="a" width="20" height="18" x="2" y="3" maskUnits="userSpaceOnUse" style="mask-type:alpha">
    <path d="M9.773 3.25h4.415c.976 0 1.796.625 2.109 1.523l.312.977H19.5c1.367 0 2.5 1.133 2.5 2.5v10c0 1.406-1.133 2.5-2.5 2.5h-15a2.47 2.47 0 0 1-2.5-2.5v-10c0-1.367 1.094-2.5 2.5-2.5h2.852l.351-.977.86.274-.86-.274a2.18 2.18 0 0 1 2.07-1.523m-.312 2.11L8.914 7c-.117.39-.469.625-.898.625H4.5a.64.64 0 0 0-.625.625v10c0 .352.273.625.625.625h15a.64.64 0 0 0 .625-.625v-10c0-.312-.312-.625-.625-.625h-3.555c-.43 0-.78-.234-.898-.625L14.5 5.36a.34.34 0 0 0-.312-.235H9.773a.34.34 0 0 0-.312.234M12 17.624c-1.602 0-3.008-.82-3.79-2.187-.82-1.329-.82-3.008 0-4.376.782-1.328 2.188-2.187 3.79-2.187 1.563 0 2.969.86 3.75 2.188.82 1.367.82 3.046 0 4.374a4.29 4.29 0 0 1-3.75 2.19M9.5 13.25a2.54 2.54 0 0 0 1.25 2.188c.742.43 1.719.43 2.5 0 .742-.47 1.25-1.29 1.25-2.188 0-.86-.508-1.68-1.25-2.148-.781-.43-1.758-.43-2.5 0-.781.468-1.25 1.289-1.25 2.148"/>
  </mask>
  <g mask="url(#a)">
    <path d="M0 0h24v24H0z"/>
  </g>
</svg>