<svg xmlns="http://www.w3.org/2000/svg" width="24" height="24" fill="currentColor" class="icon-camera-solid" viewBox="0 0 24 24">
  <path d="M7.82 4.54a1.85 1.85 0 0 1 1.758-1.29h4.805c.82 0 1.523.547 1.758 1.29l.43 1.21H19.5c1.367 0 2.5 1.133 2.5 2.5v10c0 1.406-1.133 2.5-2.5 2.5h-15a2.47 2.47 0 0 1-2.5-2.5v-10c0-1.367 1.094-2.5 2.5-2.5h2.89zM12 9.5c-1.367 0-2.578.742-3.281 1.875-.664 1.172-.664 2.617 0 3.75C9.422 16.297 10.633 17 12 17c1.328 0 2.54-.703 3.242-1.875.664-1.133.664-2.578 0-3.75C14.54 10.242 13.328 9.5 12 9.5"/>
</svg>