<svg xmlns="http://www.w3.org/2000/svg" width="24" height="24" fill="currentColor" class="icon-chart-line-down-outline" viewBox="0 0 24 24">
  <mask id="a" width="20" height="18" x="2" y="3" maskUnits="userSpaceOnUse" style="mask-type:alpha">
    <path d="M4.5 4.5v13.125c0 .352.273.625.625.625H20.75c.664 0 1.25.586 1.25 1.25 0 .703-.586 1.25-1.25 1.25H5.125C3.367 20.75 2 19.383 2 17.625V4.5c0-.664.547-1.25 1.25-1.25.664 0 1.25.586 1.25 1.25m8.477 2.266a1.205 1.205 0 0 1 1.757 0L17.86 9.89l1.29-1.29c.585-.585 1.601-.156 1.601.665v4.297c0 .546-.43.937-.937.937h-4.297c-.86 0-1.29-.977-.664-1.602l1.25-1.25-2.227-2.226-2.89 2.851a1.205 1.205 0 0 1-1.758 0L6.102 9.148a1.205 1.205 0 0 1 0-1.757 1.205 1.205 0 0 1 1.757 0l2.266 2.226z"/>
  </mask>
  <g mask="url(#a)">
    <path d="M0 0h24v24H0z"/>
  </g>
</svg>