<svg xmlns="http://www.w3.org/2000/svg" width="24" height="24" fill="currentColor" class="icon-chart-line-up-solid" viewBox="0 0 24 24">
  <mask id="a" width="20" height="18" x="2" y="3" maskUnits="userSpaceOnUse" style="mask-type:alpha">
    <path d="M4.5 4.5v13.125c0 .352.273.625.625.625H20.75c.664 0 1.25.586 1.25 1.25 0 .703-.586 1.25-1.25 1.25H5.125C3.367 20.75 2 19.383 2 17.625V4.5c0-.664.547-1.25 1.25-1.25.664 0 1.25.586 1.25 1.25m14.648 8.398-1.289-1.25-3.125 3.125a1.205 1.205 0 0 1-1.757 0l-2.852-2.851-2.266 2.226a1.205 1.205 0 0 1-1.757 0 1.205 1.205 0 0 1 0-1.757l3.125-3.125a1.205 1.205 0 0 1 1.757 0l2.891 2.851 2.227-2.226-1.29-1.29C14.228 8.017 14.657 7 15.478 7h4.336a.95.95 0 0 1 .937.938v4.296c0 .86-1.016 1.29-1.602.664"/>
  </mask>
  <g mask="url(#a)">
    <path d="M0 0h24v24H0z"/>
  </g>
</svg>