<svg xmlns="http://www.w3.org/2000/svg" width="24" height="24" fill="currentColor" class="icon-chevron-circle-right-solid" viewBox="0 0 24 24">
  <path d="M2 12a9.93 9.93 0 0 1 5-8.633c3.086-1.797 6.875-1.797 10 0 3.086 1.797 5 5.078 5 8.633 0 3.594-1.914 6.875-5 8.672-3.125 1.797-6.914 1.797-10 0C3.875 18.875 2 15.594 2 12m9.414 4.727 4.063-4.063c.351-.351.351-.937 0-1.328l-4.063-4.024c-.39-.39-.976-.39-1.328 0-.39.352-.39.938 0 1.329l3.398 3.398-3.398 3.399a.856.856 0 0 0 0 1.289c.351.39.937.39 1.328 0"/>
</svg>