<svg xmlns="http://www.w3.org/2000/svg" width="24" height="24" fill="currentColor" class="icon-chevron-circle-down-outline" viewBox="0 0 24 24">
  <path d="M12 20.125c2.89 0 5.547-1.523 7.031-4.062 1.446-2.5 1.446-5.586 0-8.125-1.484-2.5-4.14-4.063-7.031-4.063-2.93 0-5.586 1.563-7.07 4.063-1.446 2.539-1.446 5.625 0 8.125A8.13 8.13 0 0 0 12 20.125M12 2c3.555 0 6.836 1.914 8.633 5 1.797 3.125 1.797 6.914 0 10A9.93 9.93 0 0 1 12 22c-3.594 0-6.875-1.875-8.672-5-1.797-3.086-1.797-6.875 0-10C5.125 3.914 8.406 2 12 2m-4.727 9.414a.856.856 0 0 1 0-1.289c.352-.39.938-.39 1.329 0L12 13.523l3.398-3.398c.352-.39.938-.39 1.329 0a.92.92 0 0 1 0 1.29l-4.102 4.062a.856.856 0 0 1-1.29 0z"/>
</svg>