<svg xmlns="http://www.w3.org/2000/svg" width="24" height="24" fill="currentColor" class="icon-clipboard-list-outline" viewBox="0 0 24 24">
  <mask id="a" width="15" height="20" x="5" y="2" maskUnits="userSpaceOnUse" style="mask-type:alpha">
    <path d="M17.5 4.5C18.867 4.5 20 5.633 20 7v12.5c0 1.406-1.133 2.5-2.5 2.5h-10A2.47 2.47 0 0 1 5 19.5V7c0-1.367 1.094-2.5 2.5-2.5h1.914C9.727 3.094 10.977 2 12.5 2c1.484 0 2.773 1.094 3.047 2.5zM8.125 6.375H7.5A.64.64 0 0 0 6.875 7v12.5c0 .352.273.625.625.625h10a.64.64 0 0 0 .625-.625V7c0-.312-.312-.625-.625-.625h-.625v.938c0 .546-.43.937-.937.937H9.063c-.547 0-.938-.39-.938-.937zm3.438-1.25c0 .547.39.938.937.938a.926.926 0 0 0 .938-.938.95.95 0 0 0-.938-.937.925.925 0 0 0-.937.937m-1.25 7.5c0 .547-.43.938-.938.938-.547 0-.937-.391-.937-.938 0-.508.39-.937.937-.937a.95.95 0 0 1 .938.937M11.875 12h3.75c.313 0 .625.313.625.625a.64.64 0 0 1-.625.625h-3.75a.617.617 0 0 1-.625-.625c0-.312.273-.625.625-.625m0 3.75h3.75c.313 0 .625.313.625.625a.64.64 0 0 1-.625.625h-3.75a.617.617 0 0 1-.625-.625c0-.312.273-.625.625-.625m-2.5 1.563c-.547 0-.937-.391-.937-.938 0-.508.39-.937.937-.937a.95.95 0 0 1 .938.937c0 .547-.43.938-.938.938"/>
  </mask>
  <g mask="url(#a)">
    <path d="M0 0h24v24H0z"/>
  </g>
</svg>