<svg xmlns="http://www.w3.org/2000/svg" width="24" height="24" fill="currentColor" class="icon-copy-outline" viewBox="0 0 24 24">
  <path d="M18.25 15.125a.64.64 0 0 0 .625-.625V6.531l-2.656-2.656H10.75a.64.64 0 0 0-.625.625v10c0 .352.273.625.625.625zM10.75 17a2.47 2.47 0 0 1-2.5-2.5v-10c0-1.367 1.094-2.5 2.5-2.5h5.469c.468 0 .976.234 1.328.586l2.617 2.617c.352.352.586.86.586 1.328V14.5c0 1.406-1.133 2.5-2.5 2.5zm-5-10H7v1.875H5.75a.64.64 0 0 0-.625.625v10c0 .352.273.625.625.625h7.5a.64.64 0 0 0 .625-.625v-1.25h1.875v1.25c0 1.406-1.133 2.5-2.5 2.5h-7.5a2.47 2.47 0 0 1-2.5-2.5v-10c0-1.367 1.094-2.5 2.5-2.5"/>
</svg>