<svg xmlns="http://www.w3.org/2000/svg" width="24" height="24" fill="currentColor" class="icon-ellipsis-v-solid" viewBox="0 0 24 24">
  <path d="M12.5 16.063c.781 0 1.484.43 1.875 1.093.39.703.39 1.524 0 2.188a2.1 2.1 0 0 1-1.875 1.093c-.82 0-1.523-.39-1.914-1.093-.39-.664-.39-1.485 0-2.188a2.2 2.2 0 0 1 1.914-1.093m0-6.25c.781 0 1.484.43 1.875 1.093.39.703.39 1.524 0 2.188a2.1 2.1 0 0 1-1.875 1.094c-.82 0-1.523-.391-1.914-1.094-.39-.664-.39-1.485 0-2.188A2.2 2.2 0 0 1 12.5 9.812m2.188-4.063a2.2 2.2 0 0 1-1.094 1.914c-.703.39-1.524.39-2.188 0-.703-.39-1.094-1.094-1.094-1.914 0-.781.391-1.484 1.094-1.875.664-.39 1.485-.39 2.188 0a2.18 2.18 0 0 1 1.094 1.875"/>
</svg>