<svg xmlns="http://www.w3.org/2000/svg" width="24" height="24" fill="currentColor" class="icon-eye-slash-solid" viewBox="0 0 24 24">
  <mask id="a" width="26" height="21" x="-1" y="2" maskUnits="userSpaceOnUse" style="mask-type:alpha">
    <path d="M1.484 2.234 5.86 5.633C7.617 4.305 9.805 3.25 12.5 3.25c3.125 0 5.664 1.445 7.5 3.164 1.836 1.68 3.047 3.711 3.633 5.117a1.4 1.4 0 0 1 0 .977c-.508 1.25-1.563 3.047-3.125 4.61l4.101 3.241c.43.313.508.899.157 1.29-.313.43-.899.507-1.29.156L.353 3.68c-.43-.313-.508-.899-.157-1.29.313-.429.899-.507 1.29-.156M8.711 7.86l3.515 2.774c.157-.352.274-.703.274-1.094 0-.312-.078-.547-.156-.82-.04-.196.078-.469.312-.43 1.602.04 3.008 1.133 3.438 2.774a3.76 3.76 0 0 1-.157 2.46l1.485 1.172c.43-.78.703-1.718.703-2.695 0-3.086-2.54-5.625-5.625-5.625A5.6 5.6 0 0 0 8.71 7.86m5.86 9.375 2.85 2.266a10.2 10.2 0 0 1-4.921 1.25c-3.164 0-5.703-1.406-7.54-3.125-1.835-1.719-3.046-3.75-3.632-5.117a1.4 1.4 0 0 1 0-.977 15.6 15.6 0 0 1 1.914-3.203l3.672 2.89c-.039.274-.039.548-.039.782 0 3.125 2.5 5.625 5.625 5.625a5.4 5.4 0 0 0 2.07-.39"/>
  </mask>
  <g mask="url(#a)">
    <path d="M0 0h24v24H0z"/>
  </g>
</svg>