<svg xmlns="http://www.w3.org/2000/svg" width="24" height="24" fill="currentColor" class="icon-face-sleeping-outline" viewBox="0 0 24 24">
  <path d="M3.875 12A8.12 8.12 0 0 0 12 20.125c4.453 0 8.125-3.633 8.125-8.125 0-1.172-.273-2.305-.742-3.36-.235-.468 0-1.015.469-1.21.468-.235 1.015-.04 1.25.468.546 1.25.898 2.657.898 4.102 0 5.547-4.492 10-10 10A9.97 9.97 0 0 1 2 12C2 6.492 6.453 2 12 2c1.445 0 2.852.352 4.14.898a.925.925 0 0 1 .43 1.25c-.195.47-.742.704-1.21.47-1.055-.47-2.188-.743-3.36-.743-4.492 0-8.125 3.672-8.125 8.125M12 18.563c-.586 0-1.094-.274-1.367-.782-.274-.468-.274-1.054 0-1.562A1.58 1.58 0 0 1 12 15.437a1.56 1.56 0 0 1 1.328.782c.274.508.274 1.093 0 1.562a1.48 1.48 0 0 1-1.328.782M14.5 7a.617.617 0 0 1-.625-.625c0-.312.273-.625.625-.625H17c.234 0 .469.156.547.39.117.235.039.508-.117.704L15.984 8.25H17c.313 0 .625.313.625.625A.64.64 0 0 1 17 9.5h-2.5c-.273 0-.508-.156-.586-.352-.117-.234-.039-.507.117-.703L15.477 7zm3.75-4.375c0-.312.273-.625.625-.625h2.5c.234 0 .469.156.547.39.117.235.039.508-.117.704L20.359 4.5h1.016c.313 0 .625.313.625.625a.64.64 0 0 1-.625.625h-2.5c-.273 0-.508-.156-.586-.352-.117-.234-.039-.507.117-.703l1.446-1.445h-.977a.617.617 0 0 1-.625-.625m-2.54 9.219c.43 0 .782-.117 1.017-.352a.755.755 0 0 1 1.093-.039c.313.274.313.781.04 1.094-.587.625-1.368.86-2.15.86-.741 0-1.562-.235-2.108-.86-.313-.313-.313-.82 0-1.094.351-.312.82-.273 1.132.04.196.234.586.35.977.35m-8.476-.352c.196.235.586.352.977.352.43 0 .781-.117 1.016-.352a.755.755 0 0 1 1.093-.039c.313.274.313.781.04 1.094-.587.625-1.368.86-2.15.86-.741 0-1.562-.235-2.108-.86-.313-.313-.313-.82 0-1.094.351-.312.82-.273 1.132.04"/>
</svg>