<svg xmlns="http://www.w3.org/2000/svg" width="24" height="24" fill="currentColor" class="icon-file-export-outline" viewBox="0 0 24 24">
  <path d="M14.375 19.5v-3.125h1.875V19.5c0 1.406-1.133 2.5-2.5 2.5h-10a2.47 2.47 0 0 1-2.5-2.5v-15c0-1.367 1.094-2.5 2.5-2.5h6.445c.664 0 1.29.273 1.758.742l3.555 3.555c.469.469.742 1.094.742 1.758V12h-1.875V8.25H11.25C10.547 8.25 10 7.703 10 7V3.875H3.75a.64.64 0 0 0-.625.625v15c0 .352.273.625.625.625h10a.64.64 0 0 0 .625-.625m5.977-9.102 3.125 3.125c.351.391.351.977 0 1.329l-3.125 3.125c-.391.39-.977.39-1.329 0-.39-.352-.39-.938 0-1.329l1.524-1.523H9.687c-.546 0-.937-.39-.937-.937 0-.508.39-.938.938-.938h10.859l-1.524-1.523c-.39-.352-.39-.938 0-1.329.352-.351.938-.351 1.329 0"/>
</svg>