<svg xmlns="http://www.w3.org/2000/svg" width="24" height="24" fill="currentColor" class="icon-fire-solid" viewBox="0 0 24 24">
  <path d="M9.46 2.234a.83.83 0 0 1 1.095 0 34 34 0 0 1 3.008 3.282c.43-.547.937-1.172 1.445-1.68a.83.83 0 0 1 1.094 0c1.367 1.289 2.5 3.008 3.32 4.61.781 1.6 1.328 3.242 1.328 4.374 0 5-3.906 9.18-8.75 9.18-4.922 0-8.75-4.18-8.75-9.18 0-1.484.664-3.32 1.758-5.156s2.617-3.75 4.453-5.43m2.58 16.016a4.67 4.67 0 0 0 2.694-.82c1.641-1.133 2.07-3.438 1.094-5.235-.156-.351-.625-.39-.86-.078l-1.015 1.133a.586.586 0 0 1-.937 0c-.664-.82-1.797-2.305-2.461-3.125-.235-.312-.703-.312-.977 0-1.328 1.64-1.992 2.695-1.992 3.867.039 2.695 1.992 4.258 4.453 4.258"/>
</svg>