<svg xmlns="http://www.w3.org/2000/svg" width="24" height="24" fill="currentColor" class="icon-flag-outline" viewBox="0 0 24 24">
  <mask id="a" width="18" height="20" x="3" y="2" maskUnits="userSpaceOnUse" style="mask-type:alpha">
    <path d="M5.125 2.938V4.03l3.32-.82c1.485-.352 3.047-.195 4.414.508a6.45 6.45 0 0 0 5.743 0l.39-.196c.781-.39 1.758.196 1.758 1.094v10.899c0 .547-.352.976-.82 1.172l-1.367.507c-1.797.703-3.79.586-5.547-.273a6.95 6.95 0 0 0-4.766-.547l-3.125.781v3.907c0 .546-.43.937-.937.937-.547 0-.938-.39-.938-.937V2.937c0-.508.39-.938.938-.938a.95.95 0 0 1 .937.938m0 3.046v9.258l2.656-.664a8.9 8.9 0 0 1 6.094.664 4.98 4.98 0 0 0 4.023.195l.977-.351V5.633c-2.227.898-4.727.82-6.836-.235a4.45 4.45 0 0 0-3.164-.351z"/>
  </mask>
  <g mask="url(#a)">
    <path d="M0 0h24v24H0z"/>
  </g>
</svg>