<svg xmlns="http://www.w3.org/2000/svg" width="24" height="24" fill="currentColor" class="icon-floppy-disk-solid" viewBox="0 0 24 24">
  <path d="M5.75 3.25h9.453c.664 0 1.328.273 1.797.742L20.008 7c.469.469.742 1.133.742 1.797v9.453c0 1.406-1.133 2.5-2.5 2.5H5.75a2.47 2.47 0 0 1-2.5-2.5V5.75c0-1.367 1.094-2.5 2.5-2.5m0 3.75v2.5c0 .703.547 1.25 1.25 1.25h7.5c.664 0 1.25-.547 1.25-1.25V7c0-.664-.586-1.25-1.25-1.25H7c-.703 0-1.25.586-1.25 1.25M12 13.25c-.898 0-1.719.508-2.187 1.25-.43.781-.43 1.758 0 2.5A2.54 2.54 0 0 0 12 18.25c.86 0 1.68-.469 2.148-1.25.43-.742.43-1.719 0-2.5-.468-.742-1.289-1.25-2.148-1.25"/>
</svg>