<svg xmlns="http://www.w3.org/2000/svg" width="24" height="24" fill="currentColor" class="icon-folder-outline" viewBox="0 0 24 24">
  <path d="M2 5.75c0-1.367 1.094-2.5 2.5-2.5h5.156c.742 0 1.446.313 1.992.86l1.641 1.64H19.5c1.367 0 2.5 1.133 2.5 2.5v10c0 1.406-1.133 2.5-2.5 2.5h-15a2.47 2.47 0 0 1-2.5-2.5zm2.5-.625a.64.64 0 0 0-.625.625v12.5c0 .352.273.625.625.625h15a.64.64 0 0 0 .625-.625v-10c0-.312-.312-.625-.625-.625h-6.328c-.39 0-.82-.156-1.094-.43L10.32 5.398c-.195-.156-.43-.273-.664-.273z"/>
</svg>