<svg xmlns="http://www.w3.org/2000/svg" width="24" height="24" fill="currentColor" class="icon-hand-solid" viewBox="0 0 24 24">
  <path d="M13.25 3.25v8.125c0 .352.273.625.625.625a.64.64 0 0 0 .625-.625V4.5c0-.664.547-1.25 1.25-1.25.664 0 1.25.586 1.25 1.25v6.875c0 .352.273.625.625.625a.64.64 0 0 0 .625-.625V7c0-.664.547-1.25 1.25-1.25.664 0 1.25.586 1.25 1.25v8.125A6.86 6.86 0 0 1 13.875 22h-.781c-2.305 0-4.57-.86-6.25-2.5l-4.375-4.18a1.51 1.51 0 0 1-.04-2.187 1.545 1.545 0 0 1 2.188-.078L7 15.32V4.5c0-.664.547-1.25 1.25-1.25.664 0 1.25.586 1.25 1.25v6.875c0 .352.273.625.625.625a.64.64 0 0 0 .625-.625V3.25c0-.664.547-1.25 1.25-1.25.664 0 1.25.586 1.25 1.25"/>
</svg>