<svg xmlns="http://www.w3.org/2000/svg" width="24" height="24" fill="currentColor" class="icon-heart-outline" viewBox="0 0 24 24">
  <path d="m11.531 5.281.43.469.469-.43c1.289-1.289 3.125-1.875 4.883-1.562A5.58 5.58 0 0 1 22 9.266v.195a5.9 5.9 0 0 1-1.875 4.297l-7.07 6.601c-.274.274-.664.391-1.055.391-.43 0-.82-.117-1.094-.39l-7.07-6.602C2.664 12.664 2 11.102 2 9.46v-.195C2 6.53 3.953 4.188 6.648 3.758c1.758-.313 3.594.273 4.883 1.523 0 .04-.039 0 0 0m.43 3.125L10.203 6.61a3.82 3.82 0 0 0-3.242-1.015 3.7 3.7 0 0 0-3.086 3.672v.195c0 1.133.43 2.187 1.25 2.93L12 18.797l6.836-6.406a3.93 3.93 0 0 0 1.289-2.93v-.195c0-1.836-1.328-3.36-3.125-3.672a3.82 3.82 0 0 0-3.242 1.015z"/>
</svg>