<svg xmlns="http://www.w3.org/2000/svg" width="24" height="24" fill="currentColor" class="icon-home-outline" viewBox="0 0 24 24">
  <mask id="a" width="22" height="20" x="1" y="2" maskUnits="userSpaceOnUse" style="mask-type:alpha">
    <path d="m12.592 2.205 10.09 8.763c.382.352.42.94.114 1.33a.937.937 0 0 1-1.3.118l-.916-.822v7.276c0 1.76-1.376 3.13-3.058 3.13H6.516c-1.72 0-3.057-1.37-3.057-3.13v-7.276l-.956.822a.937.937 0 0 1-1.3-.118.99.99 0 0 1 .115-1.33l10.09-8.763a.96.96 0 0 1 1.184 0M5.293 18.87c0 .705.535 1.252 1.223 1.252H8.35v-5.946c0-.86.65-1.565 1.529-1.565h4.28c.841 0 1.529.704 1.529 1.565v5.946h1.834c.65 0 1.223-.547 1.223-1.252V9.99L12.02 4.161l-6.726 5.83zm4.892 1.252h3.669V14.49h-3.67z"/>
  </mask>
  <g mask="url(#a)">
    <path d="M0 0h24v24H0z"/>
  </g>
</svg>