<svg xmlns="http://www.w3.org/2000/svg" width="24" height="24" fill="currentColor" class="icon-house-group-solid" viewBox="0 0 24 24">
  <path d="M23.996 9.882c0 .484-.38.86-.813.86h-.812l.025 4.302v.645c0 .619-.457 1.076-1.016 1.076h-2.032c-.584 0-1.016-.457-1.016-1.076v-2.366c0-.457-.381-.86-.813-.86h-1.625c-.458 0-.813.404-.813.86v2.366c0 .619-.457 1.076-1.016 1.076h-2.032c-.584 0-1.016-.457-1.016-1.076v-4.946h-.813c-.457 0-.813-.377-.813-.86a.9.9 0 0 1 .254-.646l6.503-6.022c.177-.188.38-.215.558-.215s.381.054.534.188l6.477 6.05c.203.187.305.402.28.644"/>
  <path d="M14.605 14.118c0 .484-.381.86-.813.86h-.813l.026 4.301v.645c0 .619-.458 1.076-1.016 1.076H9.957c-.584 0-1.016-.457-1.016-1.075v-2.366c0-.457-.381-.86-.813-.86H6.502c-.457 0-.812.403-.812.86v2.366c0 .618-.458 1.075-1.016 1.075H2.642c-.585 0-1.016-.457-1.016-1.075v-4.947H.813c-.457 0-.813-.376-.813-.86a.9.9 0 0 1 .254-.646L6.756 7.45c.178-.188.381-.215.56-.215.177 0 .38.054.533.188l6.477 6.05c.203.188.304.403.279.645"/>
</svg>