<svg xmlns="http://www.w3.org/2000/svg" width="24" height="24" fill="currentColor" class="icon-house-circle-exclamation-outline" viewBox="0 0 24 24">
  <mask id="a" width="25" height="20" x="-1" y="2" maskUnits="userSpaceOnUse" style="mask-type:alpha">
    <path d="m11.365 2.234 8.365 7.383a5.5 5.5 0 0 0-1.126-.117 7 7 0 0 0-1.575.195l-6.227-5.507-6.601 5.82v8.867c0 .703.525 1.25 1.2 1.25h1.8v-5.937c0-.86.638-1.563 1.5-1.563h4.202a.27.27 0 0 1 .15.04c-.375.546-.638 1.17-.825 1.835H9.002v5.625h4.051c.45.742 1.05 1.406 1.725 1.875H5.401c-1.688 0-3-1.367-3-3.125v-7.266l-.939.82a.91.91 0 0 1-1.275-.117c-.3-.39-.262-.976.113-1.328l9.902-8.75a.93.93 0 0 1 1.163 0M18.605 22c-1.951 0-3.714-1.055-4.69-2.812-.975-1.72-.975-3.868 0-5.625.976-1.72 2.739-2.813 4.69-2.813 1.912 0 3.675 1.094 4.65 2.813.976 1.757.976 3.906 0 5.624C22.28 20.946 20.518 22 18.606 22m0-3.75c-.526 0-.9.43-.9.938 0 .546.374.937.9.937.487 0 .9-.39.9-.937 0-.508-.413-.938-.9-.938m0-5.625c-.338 0-.6.313-.6.625v3.125c0 .352.262.625.6.625.3 0 .6-.273.6-.625V13.25c0-.312-.3-.625-.6-.625"/>
  </mask>
  <g mask="url(#a)">
    <path d="M0 0h24v24H0z"/>
  </g>
</svg>