<svg xmlns="http://www.w3.org/2000/svg" width="24" height="24" fill="currentColor" class="icon-house-group-outline" viewBox="0 0 24 24">
  <path d="m7.698 7.377 6.7 6.03a.7.7 0 0 1 .075.916.607.607 0 0 1-.863.08l-.608-.565v5.008c0 1.212-.914 2.154-2.03 2.154h-7.31c-1.141 0-2.03-.942-2.03-2.154v-5.008l-.634.566a.607.607 0 0 1-.863-.081.7.7 0 0 1 .076-.915l6.7-6.031a.62.62 0 0 1 .787 0M2.85 18.847c0 .484.355.86.812.86H4.88v-4.092c0-.592.431-1.077 1.015-1.077h2.842c.558 0 1.015.485 1.015 1.077v4.093h1.218c.432 0 .812-.377.812-.862v-6.112L7.317 8.723l-4.466 4.011zm3.248.86h2.436v-3.876H6.1z"/>
  <path fill-rule="evenodd" d="m23.789 9.172-6.7-6.03a.62.62 0 0 0-.787 0l-6.654 5.99.947.853.429-.382v.768l1.218 1.096V8.5l4.466-4.011L21.175 8.5v6.112c0 .484-.381.861-.812.861h-1.218V11.38c0-.592-.457-1.077-1.015-1.077h-2.843c-.583 0-1.015.485-1.015 1.077v1.915l.125.113a.7.7 0 0 1 .076.915.6.6 0 0 1-.2.16v.99h-1.219l-.053-.002v1.293h7.362c1.116 0 2.03-.942 2.03-2.153V9.603l.609.565a.607.607 0 0 0 .863-.08.7.7 0 0 0-.076-.916m-5.863 2.423v3.877H15.49v-3.877z"/>
</svg>