<svg xmlns="http://www.w3.org/2000/svg" width="24" height="24" fill="currentColor" class="icon-info-solid" viewBox="0 0 24 24">
  <path d="M10.125 5.125c0-.664.352-1.25.938-1.602.546-.351 1.289-.351 1.874 0 .547.352.938.938.938 1.602 0 .703-.39 1.29-.937 1.64-.586.352-1.329.352-1.876 0a1.87 1.87 0 0 1-.937-1.64M8.25 10.75c0-.664.547-1.25 1.25-1.25H12c.664 0 1.25.586 1.25 1.25v8.75h1.25c.664 0 1.25.586 1.25 1.25 0 .703-.586 1.25-1.25 1.25h-5c-.703 0-1.25-.547-1.25-1.25 0-.664.547-1.25 1.25-1.25h1.25V12H9.5c-.703 0-1.25-.547-1.25-1.25"/>
</svg>