<svg xmlns="http://www.w3.org/2000/svg" width="24" height="24" fill="currentColor" class="icon-info-outline" viewBox="0 0 24 24">
  <path d="M10.438 4.813c0-.547.273-1.055.78-1.329.47-.273 1.055-.273 1.563 0 .469.274.781.782.781 1.329 0 .585-.312 1.093-.78 1.367-.509.273-1.094.273-1.563 0-.508-.274-.781-.782-.781-1.367m-1.563 5c0-.508.39-.938.938-.938H12a.95.95 0 0 1 .938.938v10.312h1.874a.95.95 0 0 1 .938.938c0 .546-.43.937-.937.937H9.186c-.546 0-.937-.39-.937-.937 0-.508.39-.938.938-.938h1.874V10.75h-1.25c-.546 0-.937-.39-.937-.937"/>
</svg>