<svg xmlns="http://www.w3.org/2000/svg" width="24" height="24" fill="currentColor" class="icon-late-shift-solid" viewBox="0 0 24 24">
  <path fill-rule="evenodd" d="M8.875 5.5V3.938c0-.157.117-.313.313-.313h5.624c.157 0 .313.156.313.313V5.5zM7 3.938V5.5H4.5A2.49 2.49 0 0 0 2 8v12c0 1.406 1.094 2.5 2.5 2.5h15c1.367 0 2.5-1.094 2.5-2.5V8c0-1.367-1.133-2.5-2.5-2.5H17V3.938c0-1.172-1.016-2.188-2.187-2.188H9.186C7.978 1.75 7 2.766 7 3.938m5 4.312c-3.162 0-5.75 2.588-5.75 5.75s2.588 5.75 5.75 5.75 5.75-2.587 5.75-5.75S15.162 8.25 12 8.25m1.192 8.426c.353.153.778.077.99-.306.141-.382.07-.841-.283-1.07l-1.485-.919v-3.366c0-.459-.283-.765-.707-.765s-.707.306-.707.765v3.825a.82.82 0 0 0 .354.689z"/>
</svg>