<svg xmlns="http://www.w3.org/2000/svg" width="24" height="24" fill="currentColor" class="icon-leaf-solid" viewBox="0 0 24 24">
  <path d="M12.625 5.75h4.063c1.64 0 3.085-.898 3.828-2.305.156-.234.547-.234.625 0 .547 1.446.859 3.008.859 4.688 0 6.289-4.18 11.367-9.336 11.367h-.039a6.88 6.88 0 0 1-6.68-5.117 6.58 6.58 0 0 0-2.07 4.805v.625c0 .546-.43.937-.937.937-.547 0-.938-.39-.938-.937v-.625a8.33 8.33 0 0 1 3.75-6.993c.82-.586 1.758-.976 2.773-1.21a7.8 7.8 0 0 1 1.915-.235h3.437a.64.64 0 0 0 .625-.625c0-.312-.312-.625-.625-.625h-3.437c-1.602 0-3.086.39-4.376 1.055a6.87 6.87 0 0 1 6.563-4.805"/>
</svg>