<svg xmlns="http://www.w3.org/2000/svg" width="24" height="24" fill="currentColor" class="icon-location-dot-slash-outline" viewBox="0 0 24 24">
  <path d="m2.485 2.234 4.53 3.516A7.5 7.5 0 0 1 13.5 2C17.64 2 21 5.36 21 9.5c0 1.523-.898 3.555-2.07 5.586l6.68 5.273c.43.313.507.899.156 1.29-.313.43-.899.507-1.29.156L1.353 3.68c-.43-.313-.508-.899-.156-1.29.312-.43.898-.507 1.289-.156M8.5 6.922l2.031 1.601c.43-1.25 1.563-2.148 2.97-2.148A3.134 3.134 0 0 1 16.624 9.5c0 1.133-.586 2.11-1.445 2.656l2.227 1.758c.43-.742.82-1.484 1.093-2.148.43-1.016.625-1.758.625-2.266 0-3.086-2.539-5.625-5.625-5.625-2.187 0-4.062 1.25-5 3.047m4.922 3.828h.078c.664 0 1.25-.547 1.25-1.25 0-.664-.586-1.25-1.25-1.25-.703 0-1.25.586-1.25 1.25 0 .156 0 .273.04.39zm-4.96 1.016c.39.937.976 2.03 1.64 3.086 1.133 1.835 2.422 3.554 3.36 4.804.585-.703 1.25-1.601 1.913-2.539l1.485 1.133c-.938 1.328-1.836 2.46-2.461 3.281a1.178 1.178 0 0 1-1.836 0C10.57 19.071 6.156 13.171 6 9.695l2.383 1.914c.04.04.04.079.078.157"/>
</svg>