<svg xmlns="http://www.w3.org/2000/svg" width="24" height="24" fill="currentColor" class="icon-location-check-outline" viewBox="0 0 24 24">
  <path d="M18.125 9.5c0-3.086-2.54-5.625-5.625-5.625A5.626 5.626 0 0 0 6.875 9.5c0 .508.156 1.25.586 2.266.39.937.976 2.03 1.64 3.125 1.133 1.797 2.422 3.515 3.399 4.765.938-1.25 2.227-2.968 3.36-4.765.663-1.094 1.25-2.188 1.64-3.125.43-1.016.625-1.758.625-2.266M20 9.5c0 3.438-4.57 9.492-6.602 12.031a1.178 1.178 0 0 1-1.835 0C9.57 18.992 5 12.938 5 9.5 5 5.36 8.36 2 12.5 2S20 5.36 20 9.5m-3.086-.898-5 5c-.39.39-.976.39-1.328 0l-2.5-2.5a.856.856 0 0 1 0-1.29.855.855 0 0 1 1.289 0l1.836 1.836 4.375-4.375a.92.92 0 0 1 1.289 0c.39.391.39.977 0 1.329z"/>
</svg>