<svg xmlns="http://www.w3.org/2000/svg" width="24" height="24" fill="currentColor" class="icon-location-dot-slash-outline" viewBox="0 0 24 24">
  <mask id="a" width="26" height="21" x="-1" y="2" maskUnits="userSpaceOnUse" style="mask-type:alpha">
    <path d="M1.484 2.234 6.016 5.75A7.5 7.5 0 0 1 12.5 2C16.64 2 20 5.36 20 9.5c0 1.523-.898 3.555-2.07 5.586l6.68 5.273c.429.313.507.899.156 1.29-.313.43-.899.507-1.29.156L.353 3.68c-.43-.313-.508-.899-.157-1.29.313-.43.899-.507 1.29-.156M7.5 6.922l2.031 1.601c.43-1.25 1.563-2.148 2.969-2.148A3.134 3.134 0 0 1 15.625 9.5c0 1.133-.586 2.11-1.445 2.656l2.226 1.758c.43-.742.82-1.484 1.094-2.148.43-1.016.625-1.758.625-2.266 0-3.086-2.54-5.625-5.625-5.625a5.64 5.64 0 0 0-5 3.047m4.922 3.828h.078c.664 0 1.25-.547 1.25-1.25 0-.664-.586-1.25-1.25-1.25-.703 0-1.25.586-1.25 1.25 0 .156 0 .273.039.39zM7.46 11.766c.39.937.976 2.03 1.64 3.086 1.133 1.835 2.422 3.554 3.36 4.804.586-.703 1.25-1.601 1.914-2.539l1.484 1.133c-.937 1.328-1.836 2.46-2.46 3.281a1.178 1.178 0 0 1-1.836 0C9.57 19.071 5.156 13.171 5 9.695l2.383 1.914c.039.04.039.079.078.157"/>
  </mask>
  <g mask="url(#a)">
    <path d="M0 0h24v24H0z"/>
  </g>
</svg>