<svg xmlns="http://www.w3.org/2000/svg" width="24" height="24" fill="currentColor" class="icon-location-crosshairs-slash-outline" viewBox="0 0 24 24">
  <mask id="a" width="26" height="21" x="-1" y="2" maskUnits="userSpaceOnUse" style="mask-type:alpha">
    <path d="m1.485 2.234 5.703 4.454c1.172-1.133 2.656-1.915 4.375-2.11v-1.64c0-.508.39-.938.937-.938a.95.95 0 0 1 .938.938v1.64c3.36.43 6.054 3.125 6.484 6.485h1.64A.95.95 0 0 1 22.5 12c0 .547-.43.938-.937.938h-1.64a6.9 6.9 0 0 1-1.016 2.93l5.703 4.491c.43.313.507.899.156 1.29-.313.43-.899.507-1.29.156L.353 3.68c-.43-.313-.508-.899-.156-1.29.312-.43.898-.507 1.289-.156M8.71 7.86l1.484 1.172A3.9 3.9 0 0 1 12.5 8.25c2.07 0 3.75 1.68 3.75 3.75 0 .547-.117 1.055-.312 1.523l1.484 1.172c.43-.78.703-1.718.703-2.695 0-3.086-2.539-5.625-5.625-5.625a5.6 5.6 0 0 0-3.789 1.484m5.625 4.414V12c0-1.016-.82-1.875-1.875-1.875-.234 0-.469.078-.664.156zm1.836 6.25c-.82.508-1.758.82-2.734.938v1.602c0 .546-.43.937-.938.937-.547 0-.937-.39-.937-.937V19.46c-3.399-.43-6.094-3.125-6.524-6.484H3.438a.925.925 0 0 1-.938-.938c0-.547.39-.937.938-.937h1.601q.059-.587.235-1.172l1.64 1.289c-.039.273-.039.547-.039.82 0 3.086 2.5 5.625 5.625 5.625.703 0 1.406-.156 2.07-.43z"/>
  </mask>
  <g mask="url(#a)">
    <path d="M0 0h24v24H0z"/>
  </g>
</svg>