<svg xmlns="http://www.w3.org/2000/svg" width="24" height="24" fill="currentColor" class="icon-location-plus-outline" viewBox="0 0 24 24">
  <mask id="a" width="16" height="20" x="4" y="2" maskUnits="userSpaceOnUse" style="mask-type:alpha">
    <path d="M17.625 9.511c0-3.09-2.54-5.633-5.625-5.633-3.125 0-5.625 2.543-5.625 5.633 0 .509.156 1.252.586 2.269.39.939.976 2.034 1.64 3.13 1.133 1.799 2.422 3.52 3.399 4.772.938-1.252 2.227-2.973 3.36-4.772.663-1.096 1.25-2.191 1.64-3.13.43-1.017.625-1.76.625-2.269m1.875 0c0 3.443-4.57 9.506-6.602 12.049a1.177 1.177 0 0 1-1.835 0C9.07 19.017 4.5 12.954 4.5 9.51 4.5 5.364 7.86 2 12 2s7.5 3.364 7.5 7.511m-8.437 3.443V10.45h-2.5c-.547 0-.938-.391-.938-.939 0-.509.39-.939.938-.939h2.5V6.068c0-.508.39-.938.937-.938.508 0 .938.43.938.938v2.504h2.5c.507 0 .937.43.937.939 0 .548-.43.939-.937.939h-2.5v2.504c0 .547-.43.938-.938.938-.547 0-.937-.39-.937-.938"/>
  </mask>
  <g mask="url(#a)">
    <path d="M0 0h24v24H0z"/>
  </g>
</svg>