<svg xmlns="http://www.w3.org/2000/svg" width="24" height="24" fill="currentColor" class="icon-location-pen-solid" viewBox="0 0 24 24">
  <mask id="a" width="15" height="20" x="5" y="2" maskUnits="userSpaceOnUse" style="mask-type:alpha">
    <path d="M13.398 21.531a1.178 1.178 0 0 1-1.835 0C9.57 18.992 5 12.938 5 9.5 5 5.36 8.36 2 12.5 2S20 5.36 20 9.5c0 3.438-4.57 9.492-6.602 12.031M15.781 6.18c-.547-.547-1.484-.547-2.07 0l-.586.586 2.07 2.109.586-.586a1.485 1.485 0 0 0 0-2.11m-6.328 4.297a1.5 1.5 0 0 0-.351.585L8.75 12.47c-.04.234 0 .469.156.625s.39.195.586.156l1.445-.352a1.5 1.5 0 0 0 .586-.351l2.813-2.813-2.07-2.07z"/>
  </mask>
  <g mask="url(#a)">
    <path d="M0 0h24v24H0z"/>
  </g>
</svg>