<svg xmlns="http://www.w3.org/2000/svg" width="24" height="24" fill="currentColor" class="icon-map-location-dot-outline" viewBox="0 0 24 24">
  <path d="M17.188 6.688c0 .351-.079.742-.196 1.132-.234.703-.625 1.524-1.094 2.305a3.4 3.4 0 0 1-.39.625 9 9 0 0 1-.508.82v.04c-.742 1.054-1.445 1.992-1.953 2.578a.694.694 0 0 1-1.133 0c-.508-.586-1.21-1.524-1.914-2.579-.742-1.054-1.445-2.265-1.836-3.32a.6.6 0 0 1-.078-.234 3.5 3.5 0 0 1-.274-1.328V6.18C8.087 3.836 10.079 2 12.5 2a4.7 4.7 0 0 1 4.688 4.688M15 13.758a52 52 0 0 0 1.64-2.422l.235-.352v8.75l5-1.797V8.056l-4.258 1.523c.078-.156.156-.351.235-.547.234-.547.43-1.133.507-1.719l4.102-1.484c.312-.117.625-.078.86.117.273.157.429.47.429.742v11.875c0 .43-.273.782-.625.899l-6.875 2.5a.97.97 0 0 1-.664 0l-6.523-2.383L2.5 21.961c-.312.117-.625.078-.86-.117-.273-.157-.39-.469-.39-.782V9.188c0-.39.234-.742.586-.859L6.563 6.61v.079c0 .625.117 1.21.312 1.796l-3.75 1.368v9.882l5-1.797v-6.953c.04.118.117.235.195.352A33 33 0 0 0 10 13.758v4.18l5 1.796zm-2.5-5.82a1.48 1.48 0 0 0 1.328-.782c.274-.468.274-1.054 0-1.562a1.56 1.56 0 0 0-1.328-.782c-.586 0-1.094.313-1.367.782-.274.508-.274 1.093 0 1.562.273.508.781.782 1.367.782"/>
</svg>