<svg xmlns="http://www.w3.org/2000/svg" width="24" height="24" fill="currentColor" class="icon-mars-outline" viewBox="0 0 24 24">
  <path d="M15.438 3.25h4.374a.95.95 0 0 1 .938.938v4.375c0 .546-.43.937-.937.937-.547 0-.938-.39-.938-.937v-2.11l-3.281 3.281c.86 1.172 1.406 2.618 1.406 4.141a6.86 6.86 0 0 1-6.875 6.875 6.836 6.836 0 0 1-6.875-6.875A6.86 6.86 0 0 1 10.125 7c1.523 0 2.969.547 4.14 1.406l3.282-3.281h-2.11c-.546 0-.937-.39-.937-.937 0-.508.39-.938.938-.938M5.124 13.875a4.97 4.97 0 0 0 2.5 4.336c1.523.898 3.438.898 5 0 1.523-.898 2.5-2.54 2.5-4.336 0-1.758-.977-3.398-2.5-4.297-1.562-.898-3.477-.898-5 0a4.96 4.96 0 0 0-2.5 4.297"/>
</svg>