<svg xmlns="http://www.w3.org/2000/svg" width="24" height="24" fill="currentColor" class="icon-mars-solid" viewBox="0 0 24 24">
  <path d="M14.54 3.836a.99.99 0 0 1 .898-.586h4.374a.95.95 0 0 1 .938.938v4.375c0 .39-.234.742-.586.898-.352.117-.781.039-1.016-.234l-1.328-1.29-2.03 2.07A6.9 6.9 0 0 1 17 13.876a6.86 6.86 0 0 1-6.875 6.875 6.836 6.836 0 0 1-6.875-6.875A6.86 6.86 0 0 1 10.125 7a6.9 6.9 0 0 1 3.867 1.21l2.07-2.03-1.289-1.328c-.273-.235-.351-.665-.234-1.016M10.124 18.25c1.563 0 2.969-.82 3.75-2.187.82-1.329.82-3.008 0-4.375-.781-1.329-2.187-2.188-3.75-2.188-1.602 0-3.008.86-3.79 2.188-.82 1.367-.82 3.046 0 4.374.782 1.368 2.188 2.188 3.79 2.188"/>
</svg>