<svg xmlns="http://www.w3.org/2000/svg" width="24" height="24" fill="currentColor" class="icon-money-bills-solid" viewBox="0 0 24 24">
  <path d="M3.75 5.75c0-1.367 1.094-2.5 2.5-2.5H22.5c1.367 0 2.5 1.133 2.5 2.5v8.75c0 1.406-1.133 2.5-2.5 2.5H6.25a2.47 2.47 0 0 1-2.5-2.5zM6.25 12v2.5h2.5c0-1.367-1.133-2.5-2.5-2.5m2.5-6.25h-2.5v2.5c1.367 0 2.5-1.094 2.5-2.5M22.5 12a2.49 2.49 0 0 0-2.5 2.5h2.5zM20 5.75c0 1.406 1.094 2.5 2.5 2.5v-2.5zm-8.75 4.375c0 1.133.586 2.148 1.563 2.734.937.547 2.148.547 3.124 0 .938-.586 1.563-1.601 1.563-2.734 0-1.094-.625-2.11-1.562-2.695-.977-.547-2.188-.547-3.126 0-.976.586-1.562 1.601-1.562 2.695M1.875 6.688v9.375a2.8 2.8 0 0 0 2.813 2.812h15.625a.95.95 0 0 1 .937.938c0 .546-.43.937-.937.937H4.688A4.65 4.65 0 0 1 0 16.063V6.688c0-.508.39-.938.938-.938a.95.95 0 0 1 .937.938"/>
</svg>