<svg xmlns="http://www.w3.org/2000/svg" width="24" height="24" fill="currentColor" class="icon-moon-stars-solid" viewBox="0 0 24 24">
  <path d="m13.094 5.906-1.485-.43c-.156-.038-.234-.195-.234-.351 0-.117.078-.273.234-.312l1.485-.43.43-1.485a.375.375 0 0 1 .351-.273c.117 0 .273.117.313.273l.43 1.485 1.484.43c.156.039.273.195.273.312a.375.375 0 0 1-.273.352l-1.485.43-.43 1.484c-.039.156-.195.234-.312.234-.156 0-.312-.078-.352-.234zm4.648 8.242-.625-2.265-2.265-.625c-.235-.078-.352-.274-.352-.508 0-.195.117-.39.352-.469l2.265-.625.625-2.265c.078-.235.274-.391.508-.391.195 0 .39.156.469.39l.625 2.266 2.265.625c.235.078.391.274.391.469 0 .234-.156.43-.39.508l-2.266.625-.625 2.265a.49.49 0 0 1-.469.352c-.234 0-.43-.117-.508-.352M9.461 7v.04h.664c.273.038.469.233.547.507.039.273-.078.547-.313.664a5.75 5.75 0 0 0-2.89 5 5.685 5.685 0 0 0 5.703 5.703c.351 0 .664 0 .976-.078a.66.66 0 0 1 .665.352c.117.234.078.546-.118.703-1.367 1.328-3.203 2.148-5.234 2.148C5.32 22.04 2 18.68 2 14.54S5.32 7 9.46 7"/>
</svg>