<svg xmlns="http://www.w3.org/2000/svg" width="24" height="24" fill="currentColor" class="icon-object-ungroup-outline" viewBox="0 0 24 24">
  <path d="M1.875 4.617c.04.313.313.508.625.508a.64.64 0 0 0 .625-.625c0-.273-.234-.547-.547-.586H2.5a.617.617 0 0 0-.625.625zM0 4.5C0 3.133 1.094 2 2.5 2c1.016 0 1.914.664 2.305 1.563h7.851C13.046 2.664 13.946 2 15 2c1.367 0 2.5 1.133 2.5 2.5 0 1.055-.664 1.953-1.562 2.344v4.101c.898.39 1.562 1.29 1.562 2.305 0 1.406-1.133 2.5-2.5 2.5a2.52 2.52 0 0 1-2.344-1.562H4.805A2.51 2.51 0 0 1 2.5 15.75a2.47 2.47 0 0 1-2.5-2.5c0-1.016.625-1.914 1.563-2.305V6.844A2.52 2.52 0 0 1 0 4.5m14.375 0c0 .352.273.625.625.625a.64.64 0 0 0 .625-.625c0-.312-.312-.625-.625-.625a.64.64 0 0 0-.625.625m-1.719.938H4.805c-.274.625-.742 1.132-1.367 1.406v4.101a2.6 2.6 0 0 1 1.367 1.367h7.851c.274-.624.781-1.093 1.406-1.367V6.844a2.75 2.75 0 0 1-1.406-1.407M15 12.625a.64.64 0 0 0-.625.625c0 .352.273.625.625.625a.64.64 0 0 0 .625-.625c0-.312-.312-.625-.625-.625m-11.875.625c0-.312-.312-.625-.625-.625a.63.63 0 0 0-.625.547v.078c0 .352.273.625.625.625h.078a.63.63 0 0 0 .547-.625m15.273-1.562a4.7 4.7 0 0 0-.898-1.211v-.665h2.656c.39-.898 1.29-1.562 2.344-1.562 1.367 0 2.5 1.133 2.5 2.5 0 1.055-.664 1.953-1.562 2.344v4.101c.898.39 1.562 1.29 1.562 2.305 0 1.406-1.133 2.5-2.5 2.5a2.52 2.52 0 0 1-2.344-1.562h-7.851A2.51 2.51 0 0 1 10 22a2.47 2.47 0 0 1-2.5-2.5c0-1.016.625-1.914 1.563-2.305V15.75h1.874v1.445a2.6 2.6 0 0 1 1.368 1.367h7.851c.274-.625.782-1.093 1.407-1.367v-4.101a2.75 2.75 0 0 1-1.407-1.406zm3.477-1.016c-.078.234 0 .43.195.586.157.156.43.195.625.117.235-.078.352-.273.39-.508a.68.68 0 0 0-.194-.586.61.61 0 0 0-.625-.117c-.235.078-.391.274-.391.508m-11.29 8.945c.08-.234 0-.43-.194-.586a.61.61 0 0 0-.625-.117c-.235.078-.352.273-.391.508a.68.68 0 0 0 .195.586c.157.156.43.195.625.117.235-.078.39-.273.39-.508m11.798.508h.117a.64.64 0 0 0 .625-.625c0-.04 0-.04-.04-.078-.038-.313-.273-.547-.585-.547a.64.64 0 0 0-.625.625c0 .313.195.586.508.625"/>
</svg>