<svg xmlns="http://www.w3.org/2000/svg" width="24" height="24" fill="currentColor" class="icon-object-ungroup-solid" viewBox="0 0 24 24">
  <path d="M1.25 6.688C.469 6.258 0 5.438 0 4.5 0 3.133 1.094 2 2.5 2c.898 0 1.719.508 2.148 1.25h8.165A2.53 2.53 0 0 1 15 2c1.367 0 2.5 1.133 2.5 2.5 0 .938-.508 1.758-1.25 2.188v4.414c.742.43 1.25 1.25 1.25 2.148 0 1.406-1.133 2.5-2.5 2.5-.937 0-1.758-.469-2.187-1.25H4.648A2.43 2.43 0 0 1 2.5 15.75a2.47 2.47 0 0 1-2.5-2.5 2.43 2.43 0 0 1 1.25-2.148zm3.398-.938c-.234.39-.546.703-.898.938v4.414c.352.234.664.546.898.898h8.165a2.95 2.95 0 0 1 .937-.898V6.688a2.7 2.7 0 0 1-.937-.938zm7.5 15A2.43 2.43 0 0 1 10 22a2.47 2.47 0 0 1-2.5-2.5 2.43 2.43 0 0 1 1.25-2.148V15.75h2.5v1.602c.352.234.664.546.898.898h8.165a2.95 2.95 0 0 1 .937-.898v-4.414a2.7 2.7 0 0 1-.937-.938h-1.797a3.6 3.6 0 0 0-1.016-1.523V9.5h2.813A2.53 2.53 0 0 1 22.5 8.25c1.367 0 2.5 1.133 2.5 2.5 0 .938-.508 1.758-1.25 2.188v4.414c.742.43 1.25 1.25 1.25 2.148 0 1.406-1.133 2.5-2.5 2.5-.937 0-1.758-.469-2.187-1.25z"/>
</svg>