<svg xmlns="http://www.w3.org/2000/svg" width="24" height="24" fill="currentColor" class="icon-palette-outline" viewBox="0 0 24 24">
  <path d="M20.125 12.117V12c0-4.453-3.672-8.125-8.125-8.125-4.492 0-8.125 3.672-8.125 8.125A8.12 8.12 0 0 0 12 20.125h.391l.078-.078c.078-.078.156-.235.156-.469 0-.039-.04-.195-.234-.664-.04-.039-.04-.117-.079-.156-.156-.39-.43-.977-.546-1.602-.079-.234-.079-.508-.079-.781 0-2.07 1.68-3.75 3.75-3.75h3.829c.273 0 .547-.078.664-.195.156-.117.195-.235.195-.313m1.875 0c-.04 1.445-1.328 2.383-2.734 2.383h-3.828c-1.055 0-1.876.86-1.876 1.875 0 .156 0 .273.04.39.078.43.234.782.39 1.172.235.547.508 1.094.508 1.641 0 1.25-.86 2.383-2.11 2.422H12A9.97 9.97 0 0 1 2 12C2 6.492 6.453 2 12 2c5.508 0 10 4.492 10 10zM8.25 12c0 .703-.586 1.25-1.25 1.25-.703 0-1.25-.547-1.25-1.25 0-.664.547-1.25 1.25-1.25.664 0 1.25.586 1.25 1.25m0-2.5C7.547 9.5 7 8.953 7 8.25 7 7.586 7.547 7 8.25 7c.664 0 1.25.586 1.25 1.25 0 .703-.586 1.25-1.25 1.25m5-2.5c0 .703-.586 1.25-1.25 1.25-.703 0-1.25-.547-1.25-1.25 0-.664.547-1.25 1.25-1.25.664 0 1.25.586 1.25 1.25m2.5 2.5c-.703 0-1.25-.547-1.25-1.25 0-.664.547-1.25 1.25-1.25.664 0 1.25.586 1.25 1.25 0 .703-.586 1.25-1.25 1.25"/>
</svg>