<svg xmlns="http://www.w3.org/2000/svg" width="24" height="24" fill="currentColor" class="icon-paper-plane-solid" viewBox="0 0 24 24">
  <path d="M21.453 2.234c.39.274.586.743.508 1.211l-2.5 16.25c-.04.391-.274.703-.625.899a1.2 1.2 0 0 1-1.094.078l-4.648-1.953-2.696 2.89a1.21 1.21 0 0 1-1.367.313c-.469-.156-.781-.625-.781-1.172v-3.242c0-.156.039-.313.156-.43L14.93 9.93a.613.613 0 0 0 0-.86.613.613 0 0 0-.86 0l-7.93 7.032-3.476-1.72A1.24 1.24 0 0 1 2 13.29c-.04-.43.195-.86.625-1.094l17.5-10c.39-.234.937-.234 1.328.04"/>
</svg>