<svg xmlns="http://www.w3.org/2000/svg" width="24" height="24" fill="currentColor" class="icon-passenger-landing-outline" viewBox="0 0 24 24">
  <path fill-rule="evenodd" d="M12 17.156V5.34c0-.387.09-.903.446-1.332C13.563 2.676 16.598 1 22 1q1.067.001 2 .074v2.068a24 24 0 0 0-2-.08c-4.598 0-6.92 1.332-7.723 2.063H24v2.062h-9.857v3.438H24v2.062h-9.857v4.469c0 .602.446 1.031 1.071 1.031H24v2.063h-8.429v1.718c0 .602-.49 1.032-1.071 1.032-.625 0-1.071-.43-1.071-1.032v-2.234A3 3 0 0 1 12 17.156m5-3.094c.759 0 1.429.645 1.429 1.375 0 .774-.67 1.375-1.429 1.375-.804 0-1.429-.601-1.429-1.375 0-.73.625-1.375 1.429-1.375M4.239 6.211c.468.28.75.75.75 1.28 0 .562-.282 1.03-.75 1.312-.437.28-1.03.28-1.499 0-.437-.281-.75-.75-.75-1.312 0-.53.313-1 .75-1.28.469-.281 1.062-.281 1.499 0m1.343 8.119-.937-2.81c-.25.03-.468.124-.687.218v.031l1.03 3.248.5-.406a.25.25 0 0 0 .094-.281m-1.843 1.717-.905-2.873-.312 1.156a1.05 1.05 0 0 1-.344.53l-.906.906c-.28.312-.749.312-1.061 0-.281-.28-.281-.75 0-1.062l.874-.843.344-1.186a3.67 3.67 0 0 1 3.528-2.686h.156c.5 0 1 .094 1.468.25a4.7 4.7 0 0 1 2.81 2.53l.282.687a.71.71 0 0 1-.375.968.71.71 0 0 1-.968-.375l-.313-.656a3.04 3.04 0 0 0-1.748-1.655l.718 2.123c.25.687 0 1.437-.562 1.905l-3.248 2.655-.687 2.997a.753.753 0 1 1-1.467-.343l.718-3.092c.062-.25.218-.5.437-.687zm3.154.656.75 1.874 2.123 2.154a.684.684 0 0 1 0 1.03c-.28.313-.75.313-1.062 0L6.55 19.608a1.3 1.3 0 0 1-.281-.437l-.594-1.499z"/>
</svg>