<svg xmlns="http://www.w3.org/2000/svg" width="24" height="24" fill="currentColor" class="icon-passenger-landing-solid" viewBox="0 0 24 24">
  <path fill-rule="evenodd" d="M12 5.125v-.687C12 2.547 16.42 1 22 1q1.03 0 2 .069v4.056h-7.714c-.804 0-1.429.645-1.429 1.375V12c0 .774.625 1.375 1.429 1.375H24v6.875h-6.286v1.375c0 .774-.67 1.375-1.428 1.375h-1.429c-.803 0-1.428-.601-1.428-1.375V20.25c-.804 0-1.429-.601-1.429-1.375zm3.571 13.063c.76 0 1.429-.602 1.429-1.375 0-.73-.67-1.375-1.429-1.375-.803 0-1.428.644-1.428 1.375 0 .773.625 1.375 1.428 1.375M4.231 6.21c.468.28.75.749.75 1.28 0 .562-.282 1.03-.75 1.311-.437.28-1.03.28-1.498 0-.437-.281-.75-.75-.75-1.311 0-.531.313-1 .75-1.28.468-.281 1.061-.281 1.498 0m1.858 6.04a.1.1 0 0 0-.047-.015l.53 1.967a1.97 1.97 0 0 1-.468 1.873L3.92 18.48l-.687 2.747c-.156.531-.687.875-1.217.718a.996.996 0 0 1-.75-1.186l.718-2.872a1.4 1.4 0 0 1 .375-.656l1.53-1.686-.593-2.06-.313.718a1.36 1.36 0 0 1-.718.78l-.811.406a.99.99 0 0 1-1.343-.437.99.99 0 0 1 .437-1.342l.656-.344.5-1.155a3.44 3.44 0 0 1 3.184-2.123c.718 0 1.405.156 2.06.437l.25.125a3.86 3.86 0 0 1 2.154 2.373l.094.25a1.053 1.053 0 0 1-.625 1.28 1.04 1.04 0 0 1-1.28-.656l-.062-.218a2.2 2.2 0 0 0-1.093-1.218l-.25-.094c-.015 0-.03-.008-.046-.015m.983 4.231.78 1.936 1.843 1.873a.963.963 0 0 1 0 1.405.963.963 0 0 1-1.405 0L6.354 19.76a1.4 1.4 0 0 1-.312-.5l-.468-1.123 1.28-1.374c.03-.047.07-.094.109-.14q.06-.07.11-.141"/>
</svg>