<svg xmlns="http://www.w3.org/2000/svg" width="24" height="24" fill="currentColor" class="icon-pause-outline" viewBox="0 0 24 24">
  <mask id="a" width="13" height="16" x="6" y="4" maskUnits="userSpaceOnUse" style="mask-type:alpha">
    <path d="M8.125 6.375v11.25H10V6.375zm-1.875 0c0-1.016.82-1.875 1.875-1.875H10c1.016 0 1.875.86 1.875 1.875v11.25c0 1.055-.86 1.875-1.875 1.875H8.125a1.85 1.85 0 0 1-1.875-1.875zm8.75 0v11.25h1.875V6.375zm-1.875 0c0-1.016.82-1.875 1.875-1.875h1.875c1.016 0 1.875.86 1.875 1.875v11.25c0 1.055-.86 1.875-1.875 1.875H15a1.85 1.85 0 0 1-1.875-1.875z"/>
  </mask>
  <g mask="url(#a)">
    <path d="M0 0h24v24H0z"/>
  </g>
</svg>