<svg xmlns="http://www.w3.org/2000/svg" width="24" height="24" fill="currentColor" class="icon-person-walking-briefcase-outline" viewBox="0 0 24 24">
  <path fill-rule="evenodd" d="M14.292 5.745a1.873 1.873 0 0 0 1.874-1.872c0-1.015-.859-1.873-1.875-1.873a1.874 1.874 0 0 0-1.875 1.873 1.85 1.85 0 0 0 1.875 1.872m-4.376 3.94.82-.39-.82 2.537c-.312.858-.039 1.794.704 2.38l2.213 1.806.568.464.408.333.873.713.639 2.783.22.962a.942.942 0 0 0 1.836-.429l-.124-.533-.774-3.33a1.7 1.7 0 0 0-.547-.858l-1.953-1.56 1.172-3.668.351 1.249a1.7 1.7 0 0 0 .391.624l1.172 1.131c.351.39.937.39 1.289 0a.9.9 0 0 0 .232-.33h.263v.75h-2.865v-.75h.739l-.775-.748c-.45.018-.823.368-.823.748v.61l.026.117 1.313 1.186.01.01c.314.268.565.613.717.99q.059.147.096.298l.002.006.007.03.813 3.495h3.031c.448 0 .86-.343.86-.75v-4.494c0-.39-.412-.749-.86-.749h-1.432v-.749c0-.39-.412-.749-.86-.749h-.31a1 1 0 0 0-.184-.247l-1.055-1.053-.468-1.444a4.31 4.31 0 0 0-4.141-3.082c-.938 0-1.875.234-2.734.624l-.82.351a4.75 4.75 0 0 0-2.54 2.81l-.078.311c-.156.469.078 1.015.586 1.17.469.157 1.016-.077 1.172-.584l.117-.312a2.7 2.7 0 0 1 1.523-1.678m1.758 2.732 1.172-3.511c.313 0 .625.078.899.195-.04.039-.04.078-.04.117l-1.289 4.057-.625-.507a.315.315 0 0 1-.117-.351m-1.64 2.965-.938 2.34-2.656 2.654c-.39.39-.39.975 0 1.326.351.39.937.39 1.289 0l2.734-2.692c.157-.156.274-.35.352-.546l.742-1.873zm3.9 2.61-1.1-.899v2.469c0 .406.393.749.859.749h.773z"/>
</svg>