<svg xmlns="http://www.w3.org/2000/svg" width="24" height="24" fill="currentColor" class="icon-phone-outline" viewBox="0 0 24 24">
  <path d="m16.648 12.781 4.375 1.875a1.535 1.535 0 0 1 .938 1.758l-.938 4.375c-.156.703-.82 1.25-1.523 1.25-.273 0-.508-.039-.742-.039-.39 0-.781-.039-1.133-.078C8.835 20.984 2 13.562 2 4.5c0-.703.508-1.367 1.21-1.523l4.376-.938a1.535 1.535 0 0 1 1.758.938l1.875 4.375c.273.625.117 1.367-.43 1.796l-1.601 1.329a12.14 12.14 0 0 0 4.335 4.336l1.329-1.602c.43-.547 1.171-.703 1.796-.43m2.579 7.344.82-3.867-3.906-1.68-1.133 1.406a1.91 1.91 0 0 1-2.422.43 13.94 13.94 0 0 1-5-5 1.91 1.91 0 0 1 .43-2.422L9.422 7.86l-1.68-3.906-3.867.82c.117 8.438 6.914 15.235 15.352 15.352"/>
</svg>