<svg xmlns="http://www.w3.org/2000/svg" width="24" height="24" fill="currentColor" class="icon-power-off-outline" viewBox="0 0 24 24">
  <path d="M12.938 2.938v9.375c0 .546-.43.937-.938.937-.547 0-.937-.39-.937-.937V2.938c0-.508.39-.938.937-.938a.95.95 0 0 1 .938.938m-5.704 3.28a7.4 7.4 0 0 0-3.046 6.016c0 4.141 3.32 7.54 7.46 7.54s7.5-3.36 7.5-7.5c0-2.5-1.171-4.688-3.046-6.055-.391-.313-.508-.899-.196-1.328.313-.391.899-.508 1.328-.196 2.305 1.72 3.828 4.453 3.828 7.54 0 5.195-4.218 9.374-9.375 9.374a9.353 9.353 0 0 1-9.374-9.375 9.38 9.38 0 0 1 3.789-7.539.94.94 0 0 1 1.328.196c.312.43.195 1.015-.196 1.328"/>
</svg>