<svg xmlns="http://www.w3.org/2000/svg" width="24" height="24" fill="currentColor" class="icon-question-circle-solid" viewBox="0 0 24 24">
  <path d="M12 22c-3.594 0-6.875-1.875-8.672-5-1.797-3.086-1.797-6.875 0-10C5.125 3.914 8.406 2 12 2c3.555 0 6.836 1.914 8.633 5 1.797 3.125 1.797 6.914 0 10A9.93 9.93 0 0 1 12 22M8.602 8.484v.04a.976.976 0 0 0 .585 1.21c.47.157 1.016-.078 1.172-.586l.04-.039a.29.29 0 0 1 .273-.195h2.265c.352 0 .626.234.626.586a.61.61 0 0 1-.313.508l-1.719.976c-.312.157-.469.47-.469.82v.508c0 .547.391.938.938.938.508 0 .898-.39.938-.898l1.25-.743c.742-.43 1.25-1.25 1.25-2.109 0-1.367-1.133-2.5-2.5-2.5h-2.266a2.18 2.18 0 0 0-2.07 1.484m2.148 7.266c0 .703.547 1.25 1.25 1.25.664 0 1.25-.547 1.25-1.25 0-.664-.586-1.25-1.25-1.25-.703 0-1.25.586-1.25 1.25"/>
</svg>