<svg xmlns="http://www.w3.org/2000/svg" width="24" height="24" fill="currentColor" class="icon-rotate-left-outline" viewBox="0 0 24 24">
  <path d="M7.469 6.805 9.07 8.406c.274.274.43.625.43.977 0 .781-.625 1.367-1.406 1.367H3.563c-.547 0-.938-.39-.938-.937V5.28c0-.781.586-1.406 1.367-1.406.352 0 .703.156.977.43L6.14 5.477C7.703 4.109 9.734 3.25 12 3.25c4.805 0 8.75 3.945 8.75 8.75 0 4.844-3.945 8.75-8.75 8.75a8.8 8.8 0 0 1-5.273-1.719c-.391-.312-.508-.898-.196-1.328a.94.94 0 0 1 1.328-.195A6.84 6.84 0 0 0 12 18.875 6.86 6.86 0 0 0 18.875 12c0-3.79-3.086-6.875-6.875-6.875-1.719 0-3.32.664-4.531 1.68M4.5 6.453v2.422h2.422z"/>
</svg>