<svg xmlns="http://www.w3.org/2000/svg" width="24" height="24" fill="currentColor" class="icon-rotate-left-solid" viewBox="0 0 24 24">
  <path d="M3.875 10.75h-.312c-.547 0-.938-.39-.938-.937v-5c0-.352.195-.704.547-.86a1.14 1.14 0 0 1 1.055.195L5.828 5.79c3.438-3.36 8.945-3.36 12.344.04a8.794 8.794 0 0 1 0 12.382 8.794 8.794 0 0 1-12.383 0c-.469-.508-.469-1.29 0-1.758.508-.508 1.29-.508 1.758 0a6.32 6.32 0 0 0 8.867 0 6.32 6.32 0 0 0 0-8.867c-2.422-2.422-6.367-2.422-8.828-.04l1.64 1.602c.235.274.313.704.196 1.055a.94.94 0 0 1-.86.547z"/>
</svg>