<svg xmlns="http://www.w3.org/2000/svg" width="24" height="24" fill="currentColor" class="icon-scale-balanced-solid" viewBox="0 0 24 24">
  <mask id="a" width="26" height="20" x="-1" y="2" maskUnits="userSpaceOnUse" style="mask-type:alpha">
    <path d="M15 3.25h5c.664 0 1.25.586 1.25 1.25 0 .703-.586 1.25-1.25 1.25h-4.453a3.14 3.14 0 0 1-1.797 2.266V19.5H20c.664 0 1.25.586 1.25 1.25 0 .703-.586 1.25-1.25 1.25H5c-.703 0-1.25-.547-1.25-1.25 0-.664.547-1.25 1.25-1.25h6.25V8.016c-.938-.43-1.64-1.25-1.836-2.266H5c-.703 0-1.25-.547-1.25-1.25 0-.664.547-1.25 1.25-1.25h5A3.09 3.09 0 0 1 12.5 2c1.016 0 1.914.508 2.5 1.25m2.148 11.25h5.664L20 9.656zM20 18.25c-2.461 0-4.531-1.328-4.922-3.047-.117-.43.04-.898.234-1.289l3.711-6.367C19.22 7.234 19.61 7 20 7c.352 0 .742.234.937.547l3.711 6.367c.235.39.352.86.274 1.29-.43 1.718-2.5 3.046-4.922 3.046M4.922 9.656 2.109 14.5h5.664zM0 15.203c-.078-.43.039-.898.273-1.289l3.711-6.367C4.18 7.234 4.57 7 4.922 7c.39 0 .781.234.976.547l3.711 6.367c.196.39.352.86.235 1.29-.39 1.718-2.461 3.046-4.922 3.046S.43 16.922 0 15.203"/>
  </mask>
  <g mask="url(#a)">
    <path d="M0 0h24v24H0z"/>
  </g>
</svg>