<svg xmlns="http://www.w3.org/2000/svg" width="24" height="24" fill="currentColor" class="icon-search-solid" viewBox="0 0 24 24">
  <mask id="a" width="20" height="20" x="2" y="2" maskUnits="userSpaceOnUse" style="mask-type:alpha">
    <path d="M18.258 10.113a8.1 8.1 0 0 1-1.563 4.798l4.924 4.954a1.2 1.2 0 0 1 0 1.755 1.207 1.207 0 0 1-1.759 0l-4.963-4.954c-1.329 1.014-3.01 1.56-4.768 1.56C5.635 18.226 2 14.6 2 10.113 2 5.667 5.635 2 10.129 2c4.455 0 8.129 3.667 8.129 8.113m-8.129 5.617a5.58 5.58 0 0 0 4.846-2.809c1.016-1.716 1.016-3.861 0-5.616-1.016-1.717-2.853-2.809-4.846-2.809a5.68 5.68 0 0 0-4.885 2.809c-1.016 1.755-1.016 3.9 0 5.617a5.6 5.6 0 0 0 4.885 2.808"/>
  </mask>
  <g mask="url(#a)">
    <path d="M0 0h24v24H0z"/>
  </g>
</svg>