<svg xmlns="http://www.w3.org/2000/svg" width="24" height="24" fill="currentColor" class="icon-seat-airline-outline" viewBox="0 0 24 24">
  <path d="M5.125 2.938v4.648c0 .312.04.625.156.898L5.75 9.5h10.313a.95.95 0 0 1 .937.938c0 .546-.43.937-.937.937H6.608l.547 1.25h12.657c.312 0 .585.195.78.43.157.273.196.586.079.898l-1.094 2.578A2.76 2.76 0 0 1 17 18.25h-3.437v1.875h3.75a.95.95 0 0 1 .937.938c0 .546-.43.937-.937.937H7.938C7.39 22 7 21.61 7 21.063c0-.508.39-.938.938-.938h3.75V18.25H9.852a3.38 3.38 0 0 1-3.125-2.031L3.602 9.266a4.05 4.05 0 0 1-.352-1.68V2.938c0-.508.39-.938.938-.938a.95.95 0 0 1 .937.938m3.281 12.539c.274.546.82.898 1.446.898H17a.94.94 0 0 0 .86-.547l.546-1.328H8.016z"/>
</svg>