<svg xmlns="http://www.w3.org/2000/svg" width="24" height="24" fill="currentColor" class="icon-shield-check-solid" viewBox="0 0 24 24">
  <path d="m12.508 2.117 7.344 3.125c.86.39 1.523 1.211 1.523 2.227-.039 3.906-1.64 10.976-8.36 14.218a2.4 2.4 0 0 1-2.07 0c-6.718-3.242-8.32-10.312-8.32-14.218-.039-1.016.625-1.836 1.485-2.227l7.343-3.125a1.25 1.25 0 0 1 1.055 0m3.906 8.047h-.039c.39-.351.39-.937 0-1.328a.92.92 0 0 0-1.289 0L10.75 13.21l-1.836-1.836c-.39-.39-.976-.39-1.328 0a.856.856 0 0 0 0 1.29l2.5 2.5c.352.39.938.39 1.328 0z"/>
</svg>