<svg xmlns="http://www.w3.org/2000/svg" width="24" height="24" fill="currentColor" class="icon-signs-post-solid" viewBox="0 0 24 24">
  <path d="M10.75 3.25c0-.664.547-1.25 1.25-1.25.664 0 1.25.586 1.25 1.25h5.977a.63.63 0 0 1 .43.195L21.53 5.32a.66.66 0 0 1 0 .899l-1.875 1.875a.6.6 0 0 1-.43.156H4.5c-.703 0-1.25-.547-1.25-1.25V4.5c0-.664.547-1.25 1.25-1.25zm10 8.75v2.5c0 .703-.586 1.25-1.25 1.25H4.734a.6.6 0 0 1-.43-.156L2.43 13.719a.66.66 0 0 1 0-.899l1.875-1.875a.63.63 0 0 1 .43-.195h6.015V9.5h2.5v1.25h6.25c.664 0 1.25.586 1.25 1.25m-7.5 8.75c0 .703-.586 1.25-1.25 1.25-.703 0-1.25-.547-1.25-1.25V17h2.5z"/>
</svg>