<svg xmlns="http://www.w3.org/2000/svg" width="24" height="24" fill="currentColor" class="icon-sort-outline" viewBox="0 0 24 24">
  <mask id="a" width="13" height="18" x="6" y="3" maskUnits="userSpaceOnUse" style="mask-type:alpha">
    <path d="M8.984 8.875h6.993L12.5 5.398zm4.376-5.234 5 5c.351.351.468.898.273 1.367a1.28 1.28 0 0 1-1.172.781h-9.96a1.28 1.28 0 0 1-1.173-.781 1.26 1.26 0 0 1 .274-1.367l5-5a1.205 1.205 0 0 1 1.758 0M8.984 15.125l3.516 3.516 3.477-3.516zm4.376 5.273a1.205 1.205 0 0 1-1.758 0l-5-5a1.26 1.26 0 0 1-.274-1.367A1.28 1.28 0 0 1 7.5 13.25h10c.469 0 .938.313 1.133.781a1.26 1.26 0 0 1-.273 1.367z"/>
  </mask>
  <g mask="url(#a)">
    <path d="M0 0h24v24H0z"/>
  </g>
</svg>