<svg xmlns="http://www.w3.org/2000/svg" width="24" height="24" fill="currentColor" class="icon-sparkles-solid" viewBox="0 0 24 24">
  <mask id="a" width="20" height="20" x="2" y="2" maskUnits="userSpaceOnUse" style="mask-type:alpha">
    <path d="M14.773 5.36 17 4.5l.82-2.187c.04-.196.235-.313.43-.313.156 0 .352.117.39.313L19.5 4.5l2.188.86c.195.038.312.234.312.39 0 .195-.117.39-.312.43L19.5 7l-.86 2.227c-.038.156-.234.273-.39.273-.195 0-.39-.117-.43-.273L17 7l-2.227-.82c-.156-.04-.273-.235-.273-.43 0-.156.117-.352.273-.39m-4.765-.47 2.031 4.454 4.453 2.031c.235.117.39.352.39.586a.59.59 0 0 1-.39.547l-4.453 2.07-2.031 4.453c-.117.235-.352.39-.586.39a.59.59 0 0 1-.547-.39l-2.07-4.453-4.453-2.031A.65.65 0 0 1 2 11.96c0-.234.117-.469.352-.586l4.453-2.031 2.07-4.453a.59.59 0 0 1 .547-.391c.234 0 .469.156.586.39M17 17l.82-2.187c.04-.196.235-.313.43-.313.156 0 .352.117.39.313L19.5 17l2.188.86c.195.038.312.234.312.39 0 .195-.117.39-.312.43l-2.188.82-.86 2.227c-.038.156-.234.273-.39.273-.195 0-.39-.117-.43-.273L17 19.5l-2.227-.82c-.156-.04-.273-.235-.273-.43 0-.156.117-.352.273-.39z"/>
  </mask>
  <g mask="url(#a)">
    <path d="M0 0h24v24H0z"/>
  </g>
</svg>