<svg xmlns="http://www.w3.org/2000/svg" width="24" height="24" fill="currentColor" class="icon-sparkles-outline" viewBox="0 0 24 24">
  <mask id="a" width="20" height="20" x="2" y="2" maskUnits="userSpaceOnUse" style="mask-type:alpha">
    <path d="M14.773 5.36 17 4.5l.82-2.187c.04-.196.235-.313.43-.313.156 0 .352.117.39.313L19.5 4.5l2.188.86c.195.038.312.234.312.39 0 .195-.117.39-.312.43L19.5 7l-.86 2.227c-.038.156-.234.273-.39.273-.195 0-.39-.117-.43-.273L17 7l-2.227-.82c-.156-.04-.273-.235-.273-.43 0-.156.117-.352.273-.39M2.352 11.374l.664-.273.312-.157h.04l3.437-1.601 1.601-3.477.156-.312.313-.664a.59.59 0 0 1 .547-.391c.234 0 .469.156.586.39l.312.665.117.312.04.04 1.562 3.437 3.477 1.601.312.157.664.312c.235.078.39.313.39.547s-.155.469-.39.586l-.664.273-.312.157-3.477 1.601-1.601 3.438v.039l-.157.312-.273.664c-.117.235-.352.39-.586.39a.59.59 0 0 1-.547-.39l-.312-.664-.157-.312v-.04l-1.601-3.437-3.438-1.601h-.039l-.312-.157-.664-.273A.65.65 0 0 1 2 11.96c0-.234.117-.469.352-.586m3.242.586 1.992.937c.39.157.742.508.937.899l.899 1.992.937-1.992c.196-.39.508-.742.899-.899l1.992-.937-1.992-.938c-.39-.156-.703-.507-.899-.898l-.937-1.992-.899 1.992c-.195.39-.546.742-.937.898zM17 17l.82-2.187c.04-.196.235-.313.43-.313.156 0 .352.117.39.313L19.5 17l2.188.86c.195.038.312.234.312.39 0 .195-.117.39-.312.43l-2.188.82-.86 2.227c-.038.156-.234.273-.39.273-.195 0-.39-.117-.43-.273L17 19.5l-2.227-.82c-.156-.04-.273-.235-.273-.43 0-.156.117-.352.273-.39z"/>
  </mask>
  <g mask="url(#a)">
    <path d="M0 0h24v24H0z"/>
  </g>
</svg>