<svg xmlns="http://www.w3.org/2000/svg" width="24" height="24" fill="currentColor" class="icon-split-outline" viewBox="0 0 24 24">
  <path d="M17.273 3.21a.92.92 0 0 1 1.29 0l3.125 3.126c.39.39.39.976 0 1.328l-3.125 3.125a.856.856 0 0 1-1.29 0c-.39-.351-.39-.937 0-1.328l1.524-1.524h-3.281c-.43 0-.82.196-1.094.47L10.789 12l3.633 3.633c.273.273.664.43 1.094.43h3.28l-1.523-1.524a.856.856 0 0 1 0-1.289.856.856 0 0 1 1.29 0l3.125 3.125c.39.352.39.938 0 1.29l-3.125 3.124a.856.856 0 0 1-1.29 0 .856.856 0 0 1 0-1.289l1.524-1.523h-3.281a3.5 3.5 0 0 1-2.422-1.016l-3.985-4.023H2.938C2.39 12.938 2 12.547 2 12c0-.508.39-.937.938-.937h6.171l3.985-3.985a3.5 3.5 0 0 1 2.422-1.016h3.28L17.274 4.54a.856.856 0 0 1 0-1.289z"/>
</svg>