<svg xmlns="http://www.w3.org/2000/svg" width="24" height="24" fill="currentColor" class="icon-steering-wheel-outline" viewBox="0 0 24 24">
  <path d="M11.063 16.414c-.04 0-.04-.039-.079-.039l-2.89-3.75H3.875c.313 3.906 3.32 7.031 7.188 7.46zm1.874 0v3.672c3.829-.43 6.836-3.555 7.149-7.461h-4.219l-2.89 3.75c-.04 0-.04.04-.04.04m2.813-5.664h4.258C19.422 6.883 16.063 3.875 12 3.875S4.54 6.883 3.953 10.75H8.25l.273-.547c.196-.43.625-.703 1.094-.703h4.727c.469 0 .898.273 1.094.703zM12 22c-3.594 0-6.875-1.875-8.672-5-1.797-3.086-1.797-6.875 0-10C5.125 3.914 8.406 2 12 2c3.555 0 6.836 1.914 8.633 5 1.797 3.125 1.797 6.914 0 10A9.93 9.93 0 0 1 12 22"/>
</svg>