<svg xmlns="http://www.w3.org/2000/svg" width="24" height="24" fill="currentColor" class="icon-street-view-solid" viewBox="0 0 24 24">
  <path d="M14.5 4.5c0 .898-.508 1.719-1.25 2.188-.781.43-1.758.43-2.5 0A2.54 2.54 0 0 1 9.5 4.5c0-.86.469-1.68 1.25-2.148.742-.43 1.719-.43 2.5 0 .742.468 1.25 1.289 1.25 2.148m-3.75 3.75h2.5c1.367 0 2.5 1.133 2.5 2.5v1.875c0 .703-.586 1.25-1.25 1.25h-.078l-.43 3.906a1.26 1.26 0 0 1-1.25 1.094H11.22a1.26 1.26 0 0 1-1.25-1.094l-.43-3.906H9.5c-.703 0-1.25-.547-1.25-1.25V10.75c0-1.367 1.094-2.5 2.5-2.5m-3.594 9.18c-1.172.195-2.11.468-2.695.78-.117.08-.234.118-.313.196-.156.078-.156.274 0 .352.352.234.899.469 1.68.703 1.524.39 3.711.664 6.172.664 2.422 0 4.61-.273 6.133-.664.781-.234 1.328-.469 1.68-.703.156-.078.156-.274 0-.352-.079-.078-.196-.117-.313-.195-.586-.313-1.523-.586-2.695-.781-.508-.117-.86-.586-.742-1.094.078-.508.585-.86 1.093-.781 1.25.234 2.383.586 3.203.976.391.235.782.469 1.055.782.313.312.547.742.547 1.25 0 .859-.586 1.445-1.133 1.757-.547.39-1.328.703-2.187.938-1.758.469-4.102.742-6.641.742-2.578 0-4.922-.273-6.68-.742-.86-.235-1.64-.547-2.187-.938C2.586 20.008 2 19.422 2 18.562c0-.507.234-.937.508-1.25.312-.312.703-.546 1.094-.78.82-.391 1.953-.743 3.203-.977.508-.078 1.015.273 1.093.78.118.509-.234.977-.742 1.095"/>
</svg>