<svg xmlns="http://www.w3.org/2000/svg" width="24" height="24" fill="currentColor" class="icon-ticket-alt-outline" viewBox="0 0 24 24">
  <mask id="a" width="24" height="23" x="0" y="1" maskUnits="userSpaceOnUse" style="mask-type:alpha">
    <path d="m1.571 12.929 11-11c.86-.86 2.319-.824 3.221.079l1.573 1.572a.86.86 0 0 1 .174.96 1.76 1.76 0 0 0 .374 1.946c.542.542 1.325.686 1.972.4a.86.86 0 0 1 .96.175l1.547 1.546c.928.929.938 2.362.078 3.222l-11 11c-.883.883-2.292.849-3.22-.08l-1.547-1.546c-.258-.258-.343-.637-.175-.96a1.83 1.83 0 0 0-.4-1.972c-.515-.515-1.323-.636-1.946-.374-.322.168-.702.083-.96-.174L1.65 16.15c-.902-.902-.963-2.337-.079-3.221m1.257 2.042 1.16 1.16a3.62 3.62 0 0 1 3.319.962 3.64 3.64 0 0 1 .987 3.344l1.134 1.134c.232.232.584.24.805.02l11-11c.196-.196.212-.573-.02-.805L20.08 8.652c-1.15.273-2.416-.06-3.344-.987a3.54 3.54 0 0 1-.961-3.319l-1.16-1.16c-.207-.206-.61-.216-.806-.02l-11 11c-.22.221-.186.6.02.805m13.18-4.105-2.475-2.475-5.5 5.5 2.475 2.475zm-9.565 3.791c-.439-.438-.482-1.169-.04-1.61L12.69 6.76c.417-.417 1.172-.399 1.61.04l3.3 3.3c.464.463.457 1.192.04 1.61l-6.286 6.285c-.442.442-1.147.425-1.61-.039z"/>
  </mask>
  <g mask="url(#a)">
    <path d="M0 0h24v24H0z"/>
  </g>
</svg>