<svg xmlns="http://www.w3.org/2000/svg" width="24" height="24" fill="currentColor" class="icon-timer-outline" viewBox="0 0 24 24">
  <path d="M12 2c5.508 0 10 4.492 10 10 0 5.547-4.492 10-10 10A9.97 9.97 0 0 1 2 12c0-2.07.625-3.984 1.719-5.586a.94.94 0 0 1 1.289-.273c.43.312.547.898.234 1.328A8.15 8.15 0 0 0 3.875 12 8.12 8.12 0 0 0 12 20.125c4.453 0 8.125-3.633 8.125-8.125 0-4.14-3.164-7.578-7.187-8.047v2.11c0 .546-.43.937-.938.937-.547 0-.937-.39-.937-.937V2.938c0-.508.39-.938.937-.938M9.54 8.21l3.124 3.126c.352.39.352.976 0 1.328-.39.39-.976.39-1.328 0L8.21 9.54c-.39-.351-.39-.937 0-1.328.351-.352.937-.352 1.328 0"/>
</svg>