<svg xmlns="http://www.w3.org/2000/svg" width="24" height="24" fill="currentColor" class="icon-trip-inbound-alt-outline" viewBox="0 0 24 24">
  <path fill-rule="evenodd" d="M20.333 2.833c.903 0 1.667.717 1.667 1.563v15.208c0 .88-.764 1.563-1.667 1.563h-2.5v-2.605c0-.846-.764-1.562-1.666-1.562-.938 0-1.667.716-1.667 1.563v2.604H12c-.937 0-1.667-.684-1.667-1.563V17.9l4.427-4.416a3.204 3.204 0 0 0 0-4.632l-4.427-4.417v-.038c0-.846.73-1.563 1.667-1.563zm-7.022 9.153-2.978 2.97-1.692 1.69a1.127 1.127 0 0 1-1.642 0 1.12 1.12 0 0 1 0-1.639l2.663-2.694H3.168c-.657 0-1.168-.51-1.168-1.165 0-.618.51-1.164 1.168-1.164h6.494L7 7.326a1.12 1.12 0 0 1 0-1.638 1.127 1.127 0 0 1 1.642 0l1.692 1.69 2.978 2.97a1.1 1.1 0 0 1 .354.88c-.015.28-.133.554-.354.758"/>
</svg>