<svg xmlns="http://www.w3.org/2000/svg" width="24" height="24" fill="currentColor" class="icon-trip-inbound-solid" viewBox="0 0 24 24">
  <path fill-rule="evenodd" d="M15 2a1 1 0 0 0-1 1v19h8v-4.5h-1a.5.5 0 0 1-.5-.5v-2a.5.5 0 0 1 .5-.5h1v-2h-1a.5.5 0 0 1-.5-.5v-2a.5.5 0 0 1 .5-.5h1v-2h-1a.5.5 0 0 1-.5-.5V5a.5.5 0 0 1 .5-.5h1V2zm2 2.5a.5.5 0 0 0-.5.5v2a.5.5 0 0 0 .5.5h1.5A.5.5 0 0 0 19 7V5a.5.5 0 0 0-.5-.5zm-.5 5.5a.5.5 0 0 1 .5-.5h1.5a.5.5 0 0 1 .5.5v2a.5.5 0 0 1-.5.5H17a.5.5 0 0 1-.5-.5zm.5 4.5a.5.5 0 0 0-.5.5v2a.5.5 0 0 0 .5.5h1.5a.5.5 0 0 0 .5-.5v-2a.5.5 0 0 0-.5-.5zM7.768 6.21c-.468.282-.75.75-.75 1.28 0 .563.282 1.031.75 1.312.437.28 1.03.28 1.498 0 .437-.281.75-.75.75-1.311 0-.531-.313-1-.75-1.28-.468-.281-1.061-.281-1.498 0M5.91 12.253a.1.1 0 0 1 .047-.016l-.53 1.967a1.97 1.97 0 0 0 .468 1.873L8.08 18.48l.687 2.747c.156.531.687.875 1.217.718a.996.996 0 0 0 .75-1.186l-.718-2.872a1.4 1.4 0 0 0-.375-.656l-1.53-1.686.593-2.06.313.718c.124.343.374.624.718.78l.811.406a.99.99 0 0 0 1.343-.437.99.99 0 0 0-.437-1.342l-.656-.344-.5-1.155a3.44 3.44 0 0 0-3.184-2.123c-.718 0-1.405.156-2.06.437l-.25.125a3.86 3.86 0 0 0-2.154 2.373l-.094.25c-.156.53.125 1.092.625 1.28a1.04 1.04 0 0 0 1.28-.656l.062-.219c.187-.53.593-.967 1.093-1.217l.25-.094c.015 0 .03-.008.046-.015m-.983 4.23-.78 1.936-1.843 1.873a.963.963 0 0 0 0 1.405.963.963 0 0 0 1.405 0l1.936-1.936a1.4 1.4 0 0 0 .312-.5l.468-1.123-1.28-1.374c-.03-.047-.07-.094-.109-.14a2 2 0 0 1-.11-.141"/>
</svg>