<svg xmlns="http://www.w3.org/2000/svg" width="24" height="24" fill="currentColor" class="icon-unlock-outline" viewBox="0 0 24 24">
  <path d="M8.875 7v2.5h9.375c1.367 0 2.5 1.133 2.5 2.5v7.5c0 1.406-1.133 2.5-2.5 2.5H5.75a2.47 2.47 0 0 1-2.5-2.5V12c0-1.367 1.094-2.5 2.5-2.5H7V7c0-2.734 2.227-5 5-5 2.227 0 4.102 1.484 4.727 3.477a.933.933 0 0 1-.586 1.171.933.933 0 0 1-1.172-.585c-.43-1.25-1.602-2.188-2.969-2.188A3.11 3.11 0 0 0 8.875 7m-3.75 5v7.5c0 .352.273.625.625.625h12.5a.64.64 0 0 0 .625-.625V12c0-.312-.312-.625-.625-.625H5.75a.64.64 0 0 0-.625.625"/>
</svg>