<svg xmlns="http://www.w3.org/2000/svg" width="24" height="24" fill="currentColor" class="icon-upload-outline" viewBox="0 0 24 24">
  <path d="M12.938 16.063c0 .546-.43.937-.938.937-.547 0-.937-.39-.937-.937V5.203L7.352 8.914c-.391.39-.977.39-1.329 0-.39-.351-.39-.937 0-1.328l5.313-5.313a.92.92 0 0 1 1.289 0l5.352 5.313c.351.39.351.976 0 1.328-.391.39-.977.39-1.329 0l-3.71-3.71zm1.25-.313v-1.875H19.5c1.367 0 2.5 1.133 2.5 2.5V19.5c0 1.406-1.133 2.5-2.5 2.5h-15A2.47 2.47 0 0 1 2 19.5v-3.125c0-1.367 1.094-2.5 2.5-2.5h5.313v1.875H4.5a.64.64 0 0 0-.625.625V19.5c0 .352.273.625.625.625h15a.64.64 0 0 0 .625-.625v-3.125c0-.312-.312-.625-.625-.625zM17 17.938c0-.508.39-.938.938-.938a.95.95 0 0 1 .937.938c0 .546-.43.937-.937.937-.547 0-.938-.39-.938-.937"/>
</svg>