<svg xmlns="http://www.w3.org/2000/svg" width="24" height="24" fill="currentColor" class="icon-user-group-solid" viewBox="0 0 24 24">
  <path d="M3.6 7.007c0-1.76.9-3.403 2.4-4.303 1.463-.9 3.3-.9 4.8 0a5.09 5.09 0 0 1 2.4 4.303c0 1.8-.937 3.443-2.4 4.343-1.5.9-3.338.9-4.8 0-1.5-.9-2.4-2.543-2.4-4.343M0 20.895c0-3.873 2.963-7.003 6.675-7.003h3.413c3.712 0 6.712 3.13 6.712 7.003 0 .626-.525 1.134-1.125 1.134H1.088c-.6 0-1.088-.508-1.088-1.134m22.838 1.134h-5.175c.187-.352.337-.782.337-1.251v-.313a8 8 0 0 0-2.625-5.908c.075 0 .15-.039.262-.039h2.288c3.337 0 6.075 2.856 6.075 6.338a1.16 1.16 0 0 1-1.163 1.173M16.2 12.015a4.23 4.23 0 0 1-3-1.252 6.46 6.46 0 0 0 1.2-3.756 6.3 6.3 0 0 0-.713-2.895c.713-.508 1.576-.86 2.513-.86 2.288 0 4.2 1.995 4.2 4.381 0 2.426-1.912 4.382-4.2 4.382"/>
</svg>