<svg xmlns="http://www.w3.org/2000/svg" width="24" height="24" fill="currentColor" class="icon-user-shield-solid" viewBox="0 0 24 24">
  <path d="M8.75 12a4.97 4.97 0 0 1-4.336-2.5c-.898-1.523-.898-3.437 0-5C5.313 2.977 6.954 2 8.75 2c1.758 0 3.398.977 4.297 2.5.898 1.563.898 3.477 0 5A4.96 4.96 0 0 1 8.75 12m-1.797 1.875h3.555c.703 0 1.367.117 1.992.313.117 2.304 1.055 5.664 4.023 7.812H1.133A1.134 1.134 0 0 1 0 20.867C0 17 3.086 13.875 6.953 13.875m12.07-3.047a.97.97 0 0 1 .665 0l4.687 1.875c.39.156.625.508.625.86 0 2.5-1.016 6.601-5.273 8.398a1.2 1.2 0 0 1-.743 0c-4.257-1.797-5.234-5.898-5.234-8.398 0-.352.234-.704.586-.86zm4.063 3.36-3.711-1.485v7.344c2.656-1.29 3.555-3.867 3.71-5.86"/>
</svg>