<svg xmlns="http://www.w3.org/2000/svg" width="24" height="24" fill="currentColor" class="icon-user-group-outline" viewBox="0 0 24 24">
  <path d="M.038 19.956a7 7 0 0 1 2.362-4.42c1.163-1.018 2.663-1.644 4.275-1.644h3.413c1.65 0 3.112.626 4.275 1.643a7 7 0 0 1 2.362 4.42c.037.314.037.627.037.94 0 .626-.487 1.134-1.087 1.134H1.088c-.6 0-1.088-.508-1.088-1.134 0-.313 0-.626.038-.94M3.6 7.007c0-1.76.9-3.403 2.4-4.303 1.463-.9 3.3-.9 4.8 0a5.09 5.09 0 0 1 2.4 4.303c0 1.8-.937 3.443-2.4 4.343-1.5.9-3.338.9-4.8 0-1.5-.9-2.4-2.543-2.4-4.343m7.8 0c0-1.095-.6-2.112-1.5-2.699-.937-.548-2.1-.548-3 0a3.18 3.18 0 0 0-1.5 2.7 3.2 3.2 0 0 0 1.5 2.738c.9.547 2.063.547 3 0 .9-.587 1.5-1.604 1.5-2.739M6.675 15.77c-1.8 0-3.375 1.017-4.2 2.504a4.8 4.8 0 0 0-.638 1.877h13.088c0-.078 0-.195-.038-.312a5 5 0 0 0-.6-1.565c-.825-1.487-2.4-2.504-4.2-2.504zm16.162 6.26H17.7c.188-.314.3-.705.3-1.135a8.46 8.46 0 0 0-2.85-6.338c.15 0 .3-.039.487-.039h2.288c3.337 0 6.075 2.856 6.075 6.338a1.16 1.16 0 0 1-1.163 1.173M16.2 12.014a4.23 4.23 0 0 1-3-1.252 6.46 6.46 0 0 0 1.2-3.756 6.3 6.3 0 0 0-.713-2.895c.713-.508 1.576-.86 2.513-.86 2.288 0 4.2 1.995 4.2 4.381 0 2.426-1.912 4.382-4.2 4.382"/>
</svg>