<svg width="440" height="160" viewBox="0 0 440 160" fill="none" xmlns="http://www.w3.org/2000/svg">
<path d="M357.015 115.784V108.973H382.217C385.563 108.973 387.235 107.207 387.235 103.676C387.235 100 385.853 97.9099 383.09 97.4054L370.871 95.4595C361.634 93.8739 357.015 88.6847 357.015 79.8919C357.015 68.7928 362.761 63.2433 374.253 63.2433H391.599L397.382 67.4595V74.2703H374.798C371.38 74.2703 369.67 76.0361 369.67 79.5676C369.67 83.0991 371.125 85.1172 374.034 85.6217L386.254 87.5676C395.418 89.0811 400 94.3063 400 103.243C400 114.414 394.218 120 382.653 120H362.797L357.015 115.784Z" fill="white"/>
<path d="M329.675 53.4054V40.5405H343.094V53.4054H329.675ZM330.002 120V63.2432H342.767V120H330.002Z" fill="white"/>
<path d="M272.847 115.784V108.973H298.049C301.394 108.973 303.067 107.207 303.067 103.676C303.067 100 301.685 97.9099 298.922 97.4054L286.702 95.4595C277.465 93.8739 272.847 88.6847 272.847 79.8919C272.847 68.7928 278.593 63.2433 290.085 63.2433H307.431L313.214 67.4595V74.2703H290.63C287.212 74.2703 285.502 76.0361 285.502 79.5676C285.502 83.0991 286.957 85.1172 289.866 85.6217L302.085 87.5676C311.25 89.0811 315.832 94.3063 315.832 103.243C315.832 114.414 310.05 120 298.485 120H278.629L272.847 115.784Z" fill="white"/>
<path d="M217.765 115.784V108.973H242.967C246.312 108.973 247.985 107.207 247.985 103.676C247.985 100 246.603 97.9099 243.839 97.4054L231.62 95.4595C222.383 93.8739 217.765 88.6847 217.765 79.8919C217.765 68.7928 223.511 63.2433 235.002 63.2433H252.349L258.131 67.4595V74.2703H235.548C232.129 74.2703 230.42 76.0361 230.42 79.5676C230.42 83.0991 231.875 85.1172 234.784 85.6217L247.003 87.5676C256.168 89.0811 260.75 94.3063 260.75 103.243C260.75 114.414 254.967 120 243.403 120H223.547L217.765 115.784Z" fill="white"/>
<path d="M174.357 120C162.865 120 157.119 114.378 157.119 103.135C157.119 91.8919 162.865 86.2703 174.357 86.2703H191.158V79.2433C191.158 75.928 189.485 74.2703 186.14 74.2703H163.011V67.4595L168.684 63.2433H186.794C198.213 63.2433 203.923 68.937 203.923 80.3244V120H174.357ZM169.884 104C169.884 107.315 171.557 108.973 174.903 108.973H191.158V96.1081H174.903C171.557 96.1081 169.884 97.7298 169.884 100.973V104Z" fill="white"/>
<path d="M95.7163 120V40H108.481V63.2432H127.137C138.556 63.2432 144.265 68.9369 144.265 80.3243V120H131.501V79.2432C131.501 75.9279 129.828 74.2703 126.482 74.2703H108.481V120H95.7163Z" fill="white"/>
<path d="M40 102.919V80.3244C40 68.937 45.7459 63.2433 57.2376 63.2433H77.8573L83.6396 67.4595V74.2703H57.7831C54.4374 74.2703 52.7646 75.928 52.7646 79.2433V104C52.7646 107.315 54.4374 108.973 57.7831 108.973H83.6396V115.784L77.8573 120H57.2376C45.7459 120 40 114.306 40 102.919Z" fill="white"/>
</svg>
