<svg width="144" height="144" viewBox="0 0 144 144" fill="none" xmlns="http://www.w3.org/2000/svg">
<path d="M71.4847 96.0191L89.0903 71.6533L71.9848 47.981L72.9852 46H83.7886L95.6924 63.0362L107.696 46H118.5L119.5 47.981L102.395 71.6533L120 96.0191L119.1 98H108.196L95.6924 80.2705L83.1884 98H72.385L71.4847 96.0191Z" fill="#F95700"/>
<path d="M24 82.3505V61.6495C24 51.2165 29.2683 46 39.805 46H58.711L64.0127 49.8629V56.1029H40.3052C37.2375 56.1029 35.7037 57.6216 35.7037 60.659V83.341C35.7037 86.3784 37.2375 87.8971 40.3052 87.8971H64.0127V94.1371L58.711 98H39.805C29.2683 98 24 92.7835 24 82.3505Z" fill="#F95700"/>
</svg>
